<svg width="115" height="114" viewBox="0 0 115 114" fill="none" xmlns="http://www.w3.org/2000/svg">
<path d="M57.7 112.9C88.5175 112.9 113.5 87.9175 113.5 57.1C113.5 26.2825 88.5175 1.3 57.7 1.3C26.8825 1.3 1.89999 26.2825 1.89999 57.1C1.89999 87.9175 26.8825 112.9 57.7 112.9Z" fill="#52AE32"/>
<path opacity="0.46" d="M53 99.9C79.5649 99.9 101.1 78.3649 101.1 51.8C101.1 25.2351 79.5649 3.7 53 3.7C26.4351 3.7 4.89999 25.2351 4.89999 51.8C4.89999 78.3649 26.4351 99.9 53 99.9Z" fill="white"/>
<path d="M100.4 84.3C99.9 83.3 99.2 82.5 98.7 81.5C98.1 80.5 97.6 79.4 97.2 78.4C96.8 77.4 96.5 76.3 96.3 75.2C96.1 74.3 95.7 72.1 95.1 71.4C93.5 69.5 91.4 72 89.4 72H89.3C89.1 72 88.9 72 88.8 72C88.1 71.9 87.8 72.8 88.5 73C89.1 75.3 89.7 77.6 90.3 79.9C90.4 80.3 90.7 80.5 91.1 80.5C91.4 80.9 91.7 81.2 92.1 81.5C92.8 82 93.5 82.4 94.2 82.9C94.6 83.2 94.9 83.5 95.2 83.8C95.2 84 95.2 84.1 95.3 84.3C96 85.4 96.8 86.5 97.1 87.7C97.2 88.2 97.3 88.8 97.2 89.3C97.2 89.5 97.3 89.7 97.4 89.8C97.4 91.3 96.9 92.9 96 94.2C95.5 94.9 96.6 95.7 97.2 95.1C98.7 93.7 101.3 92.6 102.1 90.7C103 88.7 101.5 86.3 100.4 84.3Z" fill="#FFFCE5"/>
<path d="M80.4 101.3C81 100.4 81.7 99.6 82.3 98.7C82.4 98.5 82.6 98.3 82.7 98C82.7 97.9 82.8 97.8 82.8 97.7C82.8 97.6 82.8 97.6 82.9 97.5C83 97.3 83 97 83.1 96.7C83.1 96.6 83.1 96.6 83.1 96.5C83.1 96.4 83.1 96.2 83.1 96.1C83.1 95.5 83.6 94.9 84.2 95C84.8 95 85.3 95.5 85.3 96.1C85.3 96.2 85.3 96.4 85.3 96.5C85.3 96.5 85.3 96.5 85.3 96.6C85.3 96.7 85.3 96.7 85.3 96.8C85.3 97.1 85.4 97.3 85.5 97.6C85.7 98.2 85.9 98.7 85.9 99.3C85.9 99.7 85.7 100 85.4 100.2C85.4 100.6 85.2 100.9 84.9 101.1C84.4 101.5 83.9 101.9 83.3 102.2C82.7 102.6 82 102.9 81.3 102.8C80.9 102.8 79.2 103 79 102.6C78.8 102.5 80.2 101.6 80.4 101.3Z" fill="#0063AF"/>
<path d="M81.3 85.5C81.5 85.2 81.7 84.8 81.9 84.4C82.2 84 82.5 83.5 82.9 83.2C83.1 83 83.4 82.9 83.7 82.9C83.8 82.9 84 82.9 84.1 83C84.2 82.8 84.4 82.6 84.7 82.6C85.6 82.6 85.7 84 84.8 84.1C84.8 84.4 84.7 84.6 84.5 84.8C84.3 85 84.2 85.2 84 85.4C83.8 85.6 83.7 85.9 83.5 86.1C83.3 86.5 83.1 86.8 82.8 87.1C82.6 87.3 82.3 87.4 82 87.4C81.7 87.4 81.4 87.3 81.2 87.1C81 86.9 80.9 86.6 80.9 86.3C81 86 81.1 85.7 81.3 85.5Z" fill="#0063AF"/>
<path d="M60.9 99.3C60.9 99.1 61 99 61 98.9C61.1 98.8 61.2 98.7 61.3 98.6C61.1 97.4 61.1 96.3 61.2 95.1C61.4 93.5 62.1 92.3 63.4 91.2C64.8 90 66.3 88.9 68 88.3C69.9 87.6 71.5 86.4 73.1 85.2C73.7 84.8 74.2 85 74.5 85.5C74.7 85.4 74.8 85.4 75 85.5C74.8 85.5 75 85.5 75.1 85.5C75.2 85.5 75.2 85.5 75.3 85.5C75.4 85.5 75.5 85.5 75.7 85.5C75.8 85.5 75.8 85.5 75.9 85.5C75.9 85.5 75.9 85.5 76 85.5C76.1 85.5 76.2 85.5 76.3 85.4C76.8 85.3 77.2 85.1 77.6 84.9C78 84.8 78.4 85 78.5 85.4C78.6 85.8 78.4 86.2 78 86.3C77.5 86.4 77.1 86.7 76.6 86.8C76 86.9 75.4 86.9 74.8 86.9H74.7C74.6 87 74.5 87.1 74.4 87.2C73.7 87.7 72.9 88.3 72.2 88.8C72.2 89.1 72.2 89.4 71.9 89.7C71.6 90 71.4 90.4 71.1 90.7C71.1 90.8 71.2 90.8 71.2 90.9C71.2 91 71.2 91.1 71.2 91.2C71.2 91.4 71.1 91.6 71 91.8C70.7 92.4 70.6 93.1 70.4 93.7C70.4 93.9 70.5 94.1 70.5 94.3C70.7 95.1 70.9 96 71.3 96.8C71.7 97.5 72.1 98.1 72.2 99C72.3 99.9 72.1 100.7 72 101.6C71.9 102.4 71.9 103.2 71.6 104C71 105.4 69.4 105.7 68 105.8C66.5 105.8 64.9 105.5 63.8 104.4C63.1 103.8 62.6 103 62.2 102.1C62.1 102.1 61.9 102 61.8 102C61.7 101.9 61.6 101.9 61.6 101.8C61.5 101.7 61.4 101.5 61.3 101.3C61.1 100.9 61 100.5 60.8 100.1C60.9 99.6 60.9 99.4 60.9 99.3Z" fill="#0063AF"/>
<path d="M48.6 59.2C48.7 59 48.8 58.9 48.9 58.7C49 58.6 49.2 58.4 49.4 58.4C49.6 58.3 49.8 58.3 50 58.3C50.1 58.3 50.3 58.3 50.4 58.4C50.7 58.5 50.9 58.6 51.1 58.8C51.7 58.4 52.5 58 53.5 57.8C55.7 57.1 58 56.9 60.1 56.2C60.3 56.1 60.6 56 60.8 55.9C61.8 54.6 63.2 53.6 64.9 53.4C65 53.4 65.2 53.4 65.3 53.4C65.8 53.1 66.1 52.5 66.7 52.5C67.5 52.5 69.7 52.4 70 53.9C70.8 57.6 74.5 60.4 77.8 57.1C79.1 55.8 78.8 54.2 80.9 53.8C85.2 52.9 91.2 57 94.2 59.5C94.4 59.6 94.5 59.8 94.6 60C96.3 61.1 97 69 96.6 69.9C96 71.2 89.2 72.8 88.3 71.9C87.1 70.7 88.2 69.1 86.8 68.1C85.8 67.4 87 66 86.3 65.1C86.5 66.1 86.7 67.1 86.8 68.1C87.1 69.1 87.3 70.2 87.4 71.3C88 74.1 88.8 76.9 90.2 79.3C91.2 81.1 89.5 82.9 87.6 82.6C86.4 82.4 85.2 82.5 84 82.8C83.9 83.1 83.7 83.4 83.3 83.6C82.8 83.9 82.3 84.2 81.8 84.6C81.7 84.7 81.6 84.8 81.5 84.9L81.4 85C81.3 85.3 81 85.7 80.7 85.9C80.4 86.1 79.9 86.2 79.5 86.1C79.1 85.9 78.7 85.8 78.4 85.5C78.2 85.3 78 85.1 77.8 84.9C77.4 85 77.1 85.1 76.7 85.2C73.4 85.9 70.2 86.3 67.3 88C67.3 88.1 67.2 88.1 67.2 88.2C66.2 89.3 65.1 90.3 63.9 91.1C62.9 91.8 61.7 90.8 61.6 89.8C61.5 88.1 61.4 86.4 62 84.7C62.4 83.6 62.8 82.5 63.1 81.3C62.9 81.1 62.9 80.8 62.9 80.5C62.9 78.9 63.6 77.6 63.9 76.1C63.9 75.9 64 75.8 64 75.6C64 75.5 64 75.3 64 75.3C64 74.9 64.1 74.6 64.1 74.2C64.1 73.4 64.1 72.7 64.1 71.9C64.1 71.5 64.2 71.2 64.5 70.9C64.5 70.3 64.4 69.8 64.4 69.2C64.4 68.9 64.4 68.7 64.5 68.5C64.3 67.7 64.1 66.9 64 66.2C60.7 68 57.5 70.3 53.6 70.2C52.4 70.2 51.7 69.4 51.5 68.5C50.3 67.4 49.6 65.6 49.3 64.1C49.1 63.2 49.1 62.4 49.3 61.7H49.2C49.1 61.6 49 61.5 48.9 61.4C48.9 61.4 48.9 61.3 48.8 61.3L48.7 61.1C48.6 60.9 48.5 60.7 48.5 60.4V60.3C48.5 59.6 48.5 59.4 48.6 59.2Z" fill="#FFED00"/>
<path d="M92.5 100.1C92.6 99.9 92.6 99.8 92.7 99.6C92.9 99.3 93.1 99.1 93.3 99C93.6 98.3 93.8 97.5 94.1 96.8C94.4 96 94.7 95.2 94.9 94.4C95.1 94.3 95.3 94.2 95.5 94.1C96.4 93.3 96.8 92 96.4 90.8C96.4 90.7 96.3 90.5 96.2 90.4C96.2 89.2 96.1 87.9 95.7 86.7C95.1 84.8 93.9 82.9 91.9 82.1C91 81.7 89.9 81.5 89 81.6C88.6 81.6 88.3 81.8 87.9 81.9C86.8 82 85.7 82.7 84.9 83.5C84.3 84.1 83.9 84.9 83.5 85.7L82.4 87.7C82.2 87.6 82 87.5 81.9 87.4C80.6 86.8 79.4 86.3 77.9 86.2C77.2 86.2 76.4 86.2 75.7 86.4C75 86.7 74.4 87.1 73.8 87.6C72.9 88.4 72.1 89.4 71.6 90.5C70.6 92.6 70 95.6 72.2 97.2C72.3 97.3 72.5 97.4 72.6 97.5C72.4 98.4 72.3 99.4 72.3 100.3C72.3 101.9 72.4 103.5 72.2 105.1C72.1 105.9 71.8 106.6 71.6 107.3C71.4 108 71.6 108.7 72 109.3C73.3 108.9 74.6 108.6 75.8 108.3C75.9 108.3 75.9 108.3 76 108.2C76 108.1 76 108 76 108C76 107.2 76.2 106.8 76.6 106.2C77 105.5 77.5 104.9 78 104.3C79 103 80 101.7 80.8 100.3C81.6 98.8 82.2 97.2 82.8 95.6C82.9 95.4 82.9 95.1 82.8 94.9C83.1 94.6 83.4 94.3 83.6 94C84 94.7 84.4 95.4 84.9 96C85 96.9 85.4 97.7 86.1 98.1C86 98.3 85.9 98.5 85.8 98.8C85.6 99.3 85.5 99.9 85.4 100.5C85.2 101.7 84.9 103 84.9 104.3C84.9 104.5 84.9 104.7 85 104.8C84.9 104.8 84.9 104.9 84.8 104.9C86.1 104.3 87.4 103.7 88.7 103C89.5 102.6 90.2 102.1 90.9 101.5C91.7 101.1 92.4 100.4 92.5 100.1Z" fill="#FFFCE5"/>
<path d="M13.9 55.8C13.9 55.7 13.8 55.6 13.8 55.4C13.6 54.3 14.8 53.4 15.7 54.3C16.9 55.5 18.3 56.5 19.9 57.2C20 57.2 20.1 57.2 20.2 57.3C20.4 57.3 20.7 57.4 20.8 57.4C21 57.4 21.1 57.3 21.2 57.1C21.4 56.8 21.6 56.4 21.9 56.2C22 56.1 22 56.1 22.1 56C22 55.9 22 55.8 21.9 55.6C21.2 54.3 23.1 53.2 23.8 54.4C24.2 55 24.5 55.6 24.9 56.3C25.1 56.6 25.2 57 25.2 57.4C25.3 57.4 25.4 57.5 25.5 57.5C26 57.8 26.2 58.1 26.4 58.5C27.6 58.8 28.9 58.7 30.2 58.8C31.8 58.9 33.3 59.2 34.9 59.3C38 59.5 41.2 59.1 44.3 59.4C45.1 59.5 46 59.5 46.7 59.7C47.8 60 48.3 60.8 48.5 61.8C48.8 63.4 48.5 65.4 47.4 66.7C46.8 67.4 46 67.7 45.1 67.5C44.8 67.4 44.5 67.3 44.2 67.2C43.8 67 43.5 66.5 43.1 66.3C42.7 66.1 42.2 66.3 41.8 66.3C41 66.4 40.1 66.3 39.3 66.2C37.5 65.9 35.7 65.3 34 64.8C32 64.2 30 63.6 28 63.1C27.6 63 27.3 62.8 27.1 62.5C26.4 62.4 25.6 62.3 24.9 62.1C24.8 62.1 24.7 62 24.6 62C24.5 62.1 24.4 62.3 24.3 62.4C23.5 62.9 22.6 63.2 21.7 63.1C21.6 63.1 21.6 63.1 21.5 63.1C21.2 63.2 20.9 63.4 20.6 63.5C20.1 63.6 19.6 63.7 19.2 63.7C17.1 63.6 15.2 62.8 13.7 61.3C13.2 60.8 13.3 60.2 13.7 59.8C13.5 59.6 13.3 59.4 13.1 59.1C12.9 58.8 12.9 58.3 13.1 58C12.8 57.7 12.6 57.3 12.7 56.9C12.8 56.1 13.4 55.7 13.9 55.8Z" fill="#FFFCE5"/>
<path d="M66.5 39C66.4 36.2 67.7 33.7 69.4 31.5C71.2 29.3 73.4 26.6 75.6 24.7C77.4 23.1 79.2 23.6 81.2 24.5C83.6 25.5 85.7 28.1 88.2 28.1C89.6 28.1 90.9 29.3 90.8 30.7C90.7 32.4 90.5 34.1 91 35.7C91.4 37 92.1 38.1 92.2 39.4C92.2 39.7 92.2 40 92.1 40.3C93.7 42.1 92.3 45.7 89.6 44.6C90.6 45 90.5 44.5 89.8 45.6C89.4 46.2 88.7 46.7 88.1 47.2C87.1 48 86.1 48.6 85 49.1C83 49.9 80.7 50.3 78.5 50.1C78.4 50.3 78.3 50.6 78.2 50.8C78.1 51.3 77.9 51.7 77.8 52.2C77.6 52.7 77.4 53.2 77.2 53.7C77.4 53.7 77.7 53.7 77.9 53.8C78.6 53.9 78.9 54.9 78.6 55.5C77.6 57.2 75.6 58.1 73.6 57.8C71.8 57.5 70.2 55.9 69.9 54.1C69.8 53.5 70.1 52.9 70.7 52.7C71.1 52.6 71.6 52.8 71.9 53.1C72 52.9 72.1 52.8 72.2 52.6C72.5 52.1 72.8 51.7 73 51.2C73.5 50.4 74 49.7 74.5 48.9C70.4 47.3 66.7 43.6 66.5 39Z" fill="#FFFCE5"/>
<path d="M67.3 28.4C68 27.6 68.8 26.9 69.6 26.2C69.5 26.1 69.4 26 69.3 25.9C68.9 25.2 69.1 24.3 69.8 23.8C71.3 22.8 73 21.9 74.9 21.9C75 21.9 75.1 21.9 75.2 21.9C75.6 21.6 76 21.4 76.3 21.1C75.1 18.4 76.7 14.8 78.9 13.1C79.9 12.3 81.3 11.3 82.6 11.7C84 12.1 84.5 13.4 84.4 14.7C84.4 15.4 83.7 16.7 83.8 17.3C84 18 84.6 18.1 85.1 18.6C85.2 18.7 85.3 18.8 85.5 18.9C85.9 18.6 86.4 18.4 87 18.4C88.2 18.3 89.5 18.6 90.3 19.5C91.1 20.3 91.2 21.3 91.6 22.3C91.7 22.5 91.8 22.7 91.9 22.9C92.6 22.7 93.3 22.6 93.9 22.6C95.1 22.5 96.1 23.7 96.2 24.9C96.2 26.2 95.1 27 93.9 27.2C93.8 27.2 93.7 27.2 93.6 27.3C93.6 27.4 93.6 27.4 93.6 27.5C94.1 27.6 94.6 27.8 95 28.2C95.1 28.2 95.2 28.2 95.3 28.2C96.7 28.5 97.9 29.6 98.5 30.9C99.1 32.4 99 33.9 98.7 35.4C98.6 35.9 98.3 36.3 98 36.6C98.2 36.9 98.3 37.1 98.5 37.3C100.4 39.6 97.8 42.8 95.6 41.7C93.5 41.8 91.4 39.5 90.5 37.5C89.7 35.7 89.4 32.6 90.1 30.2C89.5 29.9 89 29.2 89 28.3C88.8 28.3 88.7 28.3 88.5 28.2C87.6 27.8 86.8 27.4 86.1 26.9C85.7 26.9 85.4 26.8 85 26.5C84.9 26.5 84.8 26.5 84.8 26.5C82.8 25.9 80.1 25 78.1 23.6C78 23.6 78 23.7 77.9 23.7C77.7 23.9 77.4 24 77.2 24.2C76.8 24.5 76.3 24.8 75.9 25.1C75.1 25.7 74.2 26.3 73.4 26.9C71.9 28 70.4 29.3 69.1 30.7C68.6 31.3 67.5 31.3 67 30.7C66.7 29.9 66.7 29 67.3 28.4Z" fill="#EF7D00"/>
<path d="M72.5 31.9C72.6 31.6 72.7 31.3 72.8 31C72.8 31 72.8 30.9 72.9 30.9C72.9 30.9 72.9 30.9 72.9 30.8C73 30.7 73.1 30.5 73.2 30.4L73.3 30.3C73.4 30.2 73.6 30.1 73.7 30C73.7 30 73.7 30 73.8 30C74 29.9 74.1 29.9 74.3 29.8H74.4C74.9 29.7 75.1 29.7 75.6 29.8C75.7 29.8 76 29.9 76.1 30C76.2 30.1 76.4 30.2 76.5 30.3C76.6 30.4 76.6 30.5 76.7 30.5C76.7 30.5 76.8 30.6 76.9 30.7C76.9 30.7 76.9 30.7 76.9 30.8C77 30.9 77 31.1 77.1 31.3V31.4C77.1 31.6 77.2 31.8 77.2 31.9C77.2 31.9 77.2 31.9 77.2 32C77.2 32.1 77.2 32.3 77.2 32.4C77.2 32.5 77.2 32.7 77.1 32.8C77 33 76.9 33.3 76.8 33.4C76.7 33.6 76.5 33.8 76.3 33.9C76.1 34 75.9 34.1 75.6 34.1C75.4 34.1 75.2 34.1 75.1 34.1C74.9 34.2 74.7 34.2 74.5 34.3C74.2 34.4 74 34.3 73.7 34.3C73.6 34.2 73.4 34.2 73.3 34.1C73 33.9 72.8 33.7 72.6 33.4L72.4 33C72.4 32.6 72.4 32.2 72.5 31.9Z" fill="white"/>
<path d="M81.8 35.2C81.9 34.9 82 34.7 82.2 34.4C82.3 34.2 82.5 34 82.6 33.9C82.6 33.9 82.6 33.9 82.7 33.8C82.8 33.7 83 33.6 83.1 33.5C83.2 33.5 83.5 33.3 83.6 33.3C83.8 33.3 83.9 33.3 84.1 33.2C84.3 33.2 84.6 33.2 84.8 33.3C85.3 33.5 85.4 33.5 85.8 33.9C86 34 86.1 34.3 86.2 34.4C86.2 34.4 86.3 34.5 86.3 34.6C86.4 34.8 86.5 35 86.5 35.2C86.5 35.4 86.6 35.6 86.6 35.7C86.6 35.7 86.6 35.7 86.6 35.8V35.9C86.6 36.1 86.6 36.3 86.5 36.4C86.5 36.4 86.5 36.4 86.5 36.5V36.6C86.4 36.8 86.4 36.9 86.3 37.1C86.3 37.1 86.3 37.1 86.3 37.2C86.3 37.2 86.3 37.3 86.2 37.3C86.1 37.5 85.9 37.7 85.8 37.8C85.6 38 85.4 38.1 85.2 38.2C85.1 38.2 85 38.3 85 38.3C84.8 38.4 84.6 38.5 84.4 38.6C84.2 38.6 84.1 38.6 83.9 38.7C83.6 38.7 83.2 38.6 82.9 38.4C82.8 38.3 82.6 38.2 82.5 38.1C82.5 38.1 82.5 38.1 82.4 38C82.3 37.9 82.2 37.7 82.1 37.6V37.5C82 37.3 81.9 37.2 81.9 37V36.9C81.9 36.7 81.8 36.5 81.8 36.3V36.2C81.7 35.8 81.7 35.5 81.8 35.2Z" fill="white"/>
<path d="M62.8 91.5C64.2 90.3 65.7 89.2 67.2 88.1C68.6 87.1 69.9 86.1 71.6 85.7C73.4 85.2 75.4 85 77.3 84.6C78.2 84.4 78.7 85.9 77.7 86.1C76.8 86.3 75.8 86.4 74.8 86.6C74.9 86.9 74.9 87.3 74.5 87.4C71.8 88.6 69.1 89.9 66.5 91.4C65.4 92.1 64.2 92.7 63.4 93.8C62.7 94.7 62.3 95.7 61.1 95.7C60.7 95.7 60.3 95.3 60.3 94.9C60.4 93.4 61.7 92.5 62.8 91.5Z" fill="#2581C4"/>
<path d="M81.2 85.5C81.9 84.2 83.2 83.6 84.1 82.5C84.2 82.4 84.5 82.3 84.6 82.3C84.8 82.3 85 82.4 85.1 82.5C85.2 82.6 85.3 82.8 85.3 83C85.3 83.2 85.2 83.4 85.1 83.5C84.7 84 84.2 84.4 83.7 84.9C83.5 85.1 83.2 85.3 83 85.6C82.9 85.7 82.9 85.7 82.8 85.8C82.8 85.8 82.8 85.8 82.7 85.9C82.6 86 82.5 86.2 82.4 86.3C82.2 86.6 81.7 86.8 81.4 86.6C81.1 86.3 81 85.9 81.2 85.5Z" fill="#2581C4"/>
<path d="M49.7 58.3C52.9 58.4 55.9 57.4 58.8 56.3C59.9 55.9 60.9 55.4 62 55C62 54.5 62.3 54 62.7 53.8C64.3 53.1 66.3 51.8 68 52.4C68.7 52.3 69.5 52.9 69.6 53.5V53.6C69.8 53.9 70.1 54.2 70.2 54.5C70.6 55.2 70.8 56.1 71.5 56.5C72.7 57.3 74.3 57.3 75.6 57C77.2 56.5 77.9 55.1 79.3 54.2C79.5 54.1 79.6 54 79.8 54C79.9 53.9 80 53.9 80.1 53.9C84.4 52.7 87.9 55.5 91.4 57.5C93 58.4 97.5 69 97.5 69C95.5 70.3 94.5 71 93.7 70.6C91.7 69.8 94.2 64.8 91.4 60.9C89.3 57.9 84.6 55.8 81 56.8C81 56.8 81 56.8 80.9 56.8C80.3 57.2 79.8 58 79.2 58.4C78.5 59 77.7 59.4 76.9 59.7C75.4 60.3 73.6 60.3 72 59.9C70.1 59.4 68.8 58.3 67.9 56.6C67.8 56.3 67.6 56 67.5 55.8C64.7 57 62 58.2 59.2 59.2C56.1 60.4 52.9 61.2 49.6 61.2C47.8 61.3 47.8 58.3 49.7 58.3Z" fill="#FFF482"/>
<path d="M90.4 43.9C88.6 46.7 86.5 48.9 83.1 49.7C79.3 50.5 74.6 49.6 71.5 47.4C68.6 45.4 66.9 41.8 67 38.2C67.1 35.3 68.8 32.8 70.6 30.6C72.7 28.1 75.1 26.2 77.7 24.4C78 24.2 77.9 23.6 77.5 23.6C74.5 23.8 71.7 26.9 69.9 29C67.9 31.4 65.8 34.3 65.5 37.5C65.2 41.4 66.9 45.5 69.9 48C73.2 50.7 78.1 51.6 82.2 51.1C86.4 50.6 89.2 47.9 90.7 44.1C90.8 43.8 90.5 43.7 90.4 43.9Z" fill="black"/>
<path d="M77.7 35C77.3 35.6 77 36.2 76.7 36.8C77.1 36.8 77.5 36.8 77.9 36.8C77.1 35.7 75.4 35.4 74.3 36.2C73.7 36.6 73.4 37.3 73.4 38C73.4 38.7 73.8 39.4 74.4 39.8C75 40.3 76 40.6 76.7 40.2C77.2 39.9 76.8 39.2 76.3 39.3C76.2 39.3 76 39.4 76 39.4H75.9C75.8 39.4 75.8 39.4 75.8 39.4C75.6 39.4 75.4 39.3 75.2 39.2C75 39.1 74.8 38.9 74.7 38.8C74.6 38.7 74.6 38.7 74.6 38.5C74.6 38.4 74.6 38.4 74.6 38.3V38.2C74.6 38.3 74.6 38.2 74.6 38.2C74.6 38.1 74.6 38.1 74.6 38V37.9C74.6 37.9 74.6 38 74.6 37.9C74.6 37.9 74.7 37.7 74.6 37.8C74.6 37.7 74.7 37.7 74.7 37.6C74.7 37.5 74.8 37.5 74.7 37.6L74.8 37.5L74.9 37.4C74.9 37.4 75.1 37.3 74.9 37.4C75 37.3 75.1 37.3 75.2 37.2C75.2 37.2 75.2 37.2 75.3 37.2H75.2C75.3 37.2 75.3 37.2 75.4 37.1C75.5 37.1 75.6 37 75.7 37C75.9 37 75.6 37 75.7 37C75.8 37 75.8 37 75.9 37C76 37 76 37 76.1 37C76.2 37 76 37 76 37H76.1C76.2 37 76.2 37 76.3 37C76.3 37 76.5 37.1 76.4 37C76.3 37 76.5 37 76.5 37.1L76.6 37.2C76.5 37.1 76.6 37.2 76.6 37.3C76.6 37.3 76.6 37.3 76.6 37.4C76.7 37.4 76.5 37.3 76.6 37.4C76.9 37.8 77.5 37.9 77.8 37.4C78.1 36.7 78.5 36.1 78.7 35.4C78.8 35.1 78.6 34.8 78.3 34.7C78.2 34.6 77.9 34.8 77.7 35Z" fill="black"/>
<path d="M84.3 25.6C80.7 24.5 76.7 22.2 76.8 18C76.8 15.9 78.2 14.5 79.8 13.4C81.2 12.5 83.8 11.7 84.2 14.1C84.4 15.5 83.3 17.5 84.3 18.7C85.4 20 87.3 18.8 88.7 18.8C89.7 18.8 90.8 19.3 91 20.4C91.1 21.1 90.7 21.8 91.2 22.5C92.3 23.8 95.1 22.4 96 24C96.9 25.7 91.8 27.4 90.7 27.6C89.6 27.8 88.5 27.7 87.6 27.3C86.6 26.9 86 26.2 85.2 25.5C84.7 25.1 84 25.5 84.2 26.1C84.7 28.1 87.2 29.1 89 29.2C91.5 29.4 94 28.3 96 26.9C97.6 25.7 98.4 23.5 96.4 22.3C95.4 21.7 94.4 21.8 93.3 21.7C93.1 21.7 92.6 21.7 92.5 21.6C92.3 21.4 92.4 21.3 92.4 21C92.4 20.5 92.3 19.9 92.1 19.5C91.1 17.3 88.7 17.4 86.7 17.8C86.4 17.9 86.1 18 85.8 17.9C85.3 17.8 85.3 17.4 85.4 16.9C85.5 16.4 85.6 15.9 85.7 15.4C85.8 14.4 85.8 13.3 85.3 12.4C84.2 10.5 81.8 10.6 80 11.4C78 12.3 76.1 13.9 75.4 16.1C74.8 18.4 75.6 21 77.1 22.8C78.9 24.9 81.5 25.8 84.1 26.2C84.5 26.4 84.7 25.8 84.3 25.6Z" fill="black"/>
<path d="M77.1 21.9C75.7 21 74.2 20.9 72.7 21.4C71.4 21.8 70.3 22.5 69.3 23.3C68.8 23.6 68.2 23.9 67.9 24.4C67.5 25.1 67.8 25.8 68.4 26.2C68.5 26.3 68.7 26.4 68.7 26.5C68.8 26.6 68.8 26.5 68.7 26.6C68.7 26.8 68.1 27.1 68 27.1C67.3 27.5 66.7 27.8 66.3 28.4C65.8 29.1 65.8 30.1 66.3 30.8C66.7 31.3 67.7 31.9 68.2 31.3C68.3 31.1 68.3 30.9 68.1 30.8C67.8 30.6 67.4 30.6 67.2 30.2C67 29.9 67.1 29.5 67.2 29.2C67.6 28.5 68.4 28.3 69 27.9C69.5 27.5 70 27 69.9 26.3C69.8 25.9 69.6 25.7 69.4 25.4C69.3 25.3 69.1 25.2 69 25.1C69 25.1 68.9 25.2 69 25.1C70.1 24.5 71 23.7 72.1 23.2C73.5 22.5 75.1 22.4 76.5 23C77.3 23.2 77.6 22.2 77.1 21.9Z" fill="black"/>
<path d="M95.1 28C96.2 28.9 97.2 30 97.9 31.3C98.2 31.9 98.5 32.5 98.6 33.1C98.8 33.7 99.1 34.7 98.8 35.3C98.7 35.6 98.3 35.7 98.1 36C97.9 36.2 97.8 36.5 97.8 36.8C97.8 37.5 98.2 38 98.6 38.5C98.9 39 98.9 39.3 98.5 39.7C98 40.2 97.5 40.5 97 40.9C96.2 41.6 95.4 41.7 94.4 41.1C93 40.4 92.1 39.1 91.5 37.7C91.1 36.6 90.8 35.5 90.8 34.3C90.7 32.8 91 31.2 91.1 29.7C91.1 29.1 90.3 28.9 90 29.4C88.8 31.9 89 35.3 89.9 37.8C90.6 39.6 91.8 41.4 93.5 42.3C94.8 43 96.4 43.2 97.6 42.2C98 41.9 98.4 41.5 98.8 41.1C99.3 40.7 99.9 40.2 100.1 39.6C100.3 39 100.2 38.4 99.9 37.9C99.7 37.6 99.5 37.4 99.3 37C99.2 36.7 99.1 36.7 99.3 36.5C99.4 36.3 99.6 36.2 99.8 36.1C100.3 35.4 100.2 34.5 100.1 33.7C100 32.8 99.7 31.9 99.3 31.1C98.5 29.4 97.3 28 95.8 27.1C95.3 26.8 94.7 27.6 95.1 28Z" fill="black"/>
<path d="M81.5 40.9C79.6 41.8 77.4 42.1 75.3 41.8C74.4 41.6 73.4 41.7 73.1 42.7C72.9 43.5 73.1 44.3 73.4 45C74.8 48 79.8 49.3 82.1 46.6C83.4 45.1 83.5 42.7 83.1 40.8C83 40 81.7 40.2 81.7 41C81.7 42.4 82 43.9 81.4 45.2C80.7 46.6 79.2 47 77.7 46.9C76.4 46.8 75.1 46.1 74.5 45C74.2 44.5 73.9 43.7 74.1 43.1C74.2 42.7 74.7 42.8 75 42.8C75.4 42.9 75.9 42.9 76.3 42.9C78.3 43 80.1 42.5 81.8 41.4C82.1 41.2 81.8 40.7 81.5 40.9Z" fill="black"/>
<path d="M79 50.6C79 50.7 79 50.7 79 50.6C78.9 50.5 78.8 50.5 78.6 50.5C78.5 50.5 78.5 50.5 78.4 50.5C78.5 50.5 78.6 50.5 78.6 50.5C78.4 50.5 78.3 50.5 78.1 50.6C78 50.6 78 50.7 77.9 50.7C77.8 50.8 77.6 50.9 77.5 51C77.3 51.2 77.1 51.5 77 51.8C76.9 52.1 76.8 52.4 76.7 52.7C76.7 52.9 76.6 53.1 76.7 53.3C76.7 53.4 76.7 53.5 76.8 53.7C76.8 53.9 76.9 54 77 54.1C77.3 54.4 77.8 54.3 78 54C78.1 53.9 78.1 53.8 78.1 53.7C78.1 53.6 78.1 53.5 78.1 53.5C78.1 53.4 78.1 53.7 78.1 53.6C78.1 53.5 78.1 53.5 78.1 53.4C78.1 53.3 78.1 53.2 78.1 53.2C78.1 53.1 78.1 53.3 78.1 53.3C78.1 53.1 78.2 52.8 78.3 52.6C78.3 52.5 78.3 52.5 78.4 52.4C78.4 52.3 78.3 52.5 78.4 52.5V52.4C78.5 52.3 78.5 52.2 78.6 52.1C78.7 52 78.7 51.9 78.8 51.8C78.9 51.6 79 51.5 79 51.3C79 51.4 79 51.5 78.9 51.5C78.9 51.4 79 51.4 79 51.3C79.1 51 79.1 50.9 79 50.6C79.1 50.7 79.1 50.7 79 50.8C79.2 50.7 79.1 50.6 79 50.6Z" fill="black"/>
<path d="M73.2 50.1C73.1 50.3 72.9 50.5 72.8 50.8C72.7 50.9 72.7 51 72.6 51.1C72.6 51.2 72.5 51.2 72.5 51.3C72.5 51.3 72.5 51.4 72.4 51.4C72.3 51.5 72.5 51.2 72.4 51.4C72.2 51.6 72 51.8 71.9 52C71.7 52.3 71.3 52.5 71.2 52.8C71.1 53 71.2 53.2 71.3 53.4C71.4 53.6 71.6 53.6 71.8 53.7C72 53.7 72.3 53.6 72.5 53.5C72.6 53.4 72.7 53.4 72.8 53.3C73 53.2 73.1 53.1 73.2 52.9C73.3 52.8 73.4 52.6 73.5 52.4C73.7 52.2 73.8 51.9 73.9 51.7C74 51.5 74 51.4 74.1 51.2C74.1 51 74.2 50.8 74.2 50.7C74.2 50.5 74 50.2 73.8 50.1C73.6 49.8 73.3 49.9 73.2 50.1Z" fill="black"/>
<path d="M78.6 54.5C81.6 54.5 84.6 54 87.4 55C88.8 55.5 90.1 56.5 91.3 57.4C92.1 58 92.8 58.6 93.2 59.6C94.8 62.7 94.3 67.2 97.2 69.6C97.2 69.3 97.2 69 97.2 68.6C96 69.8 94.3 70.2 92.8 70.7C91.3 71.2 89.7 71.2 88.2 71.2C87.6 71.2 87.5 72.1 88.1 72.2C89.8 72.5 91.6 72.1 93.3 71.9C95 71.7 96.9 70.9 98.2 69.6C98.4 69.4 98.5 68.9 98.2 68.6C96.7 67.4 96.2 65.2 95.8 63.4C95.3 61.6 94.9 59.6 93.8 58C93.1 57.1 92.1 56.5 91.2 55.8C90 55 88.8 54.3 87.5 53.9C84.7 53 81.5 53.2 78.6 53.8C78.2 53.9 78.2 54.5 78.6 54.5Z" fill="black"/>
<path d="M85.6 62C85.7 65.3 86.4 68.6 87.2 71.9C87.6 73.6 88.1 75.3 88.7 77C88.9 77.8 89.2 78.5 89.5 79.3C89.7 79.9 89.9 80.6 90.4 80.9C90.6 81 90.8 80.9 90.9 80.7C91.1 80.1 90.7 79.4 90.5 78.8C90.2 78.1 90 77.4 89.8 76.6C89.3 74.9 88.8 73.2 88.4 71.5C87.7 68.3 87 65.1 86.4 61.9C86.2 61.5 85.5 61.6 85.6 62Z" fill="black"/>
<path d="M69 52.4C65.5 51.3 62.7 53.8 59.8 55.4C56.3 57.4 52.2 58.2 48.2 57.8C47.6 57.7 47.6 58.8 48.2 58.8C51.8 59.1 55.4 58.5 58.6 57C61.8 55.5 65 52.1 68.8 52.7C69.1 52.7 69.1 52.5 69 52.4Z" fill="black"/>
<path d="M47.7 58.3C47.8 60.4 48.6 62.5 49.4 64.5C49.8 65.5 50.2 66.6 50.6 67.6C50.8 68.1 51 68.6 51.2 69.1C51.4 69.5 51.5 70 51.9 70.3C52.2 70.5 52.5 70.3 52.6 70C52.8 69.6 52.6 69 52.4 68.6C52.3 68.1 52.1 67.7 51.9 67.2C51.5 66.2 51.1 65.1 50.7 64.1C50 62.2 49.2 60.2 48.7 58.2C48.6 57.6 47.7 57.7 47.7 58.3Z" fill="black"/>
<path d="M64.3 62.8C63.8 67.5 63.2 72.3 62.6 77C62.3 79.5 62 81.9 61.7 84.4C61.6 85.5 61.5 86.6 61.4 87.7C61.3 88.7 61.1 89.9 61.4 90.9C61.5 91.4 62.2 91.3 62.3 90.9C62.6 90 62.5 88.9 62.6 87.9C62.7 86.8 62.8 85.7 62.9 84.6C63.2 82 63.5 79.4 63.9 76.8C64.5 72.2 65.3 67.5 65.1 62.9C65.1 62.3 64.3 62.3 64.3 62.8Z" fill="black"/>
<path d="M52 70.3C52.6 70.5 53.3 70.3 53.9 70.3C54.5 70.2 55.1 70.1 55.7 70C56.8 69.8 57.8 69.4 58.9 69C59.9 68.6 60.8 68.2 61.8 67.6C62.3 67.3 62.9 67 63.4 66.7C63.9 66.4 64.6 66.1 65 65.6C65.3 65.2 65 64.6 64.5 64.7C63.9 64.9 63.4 65.3 62.9 65.6C62.4 65.9 61.9 66.2 61.4 66.5C60.5 67 59.5 67.5 58.5 67.9C57.5 68.3 56.5 68.6 55.5 68.8C54.9 68.9 54.4 69 53.8 69.1C53.2 69.2 52.4 69.2 51.9 69.6C51.6 69.8 51.7 70.2 52 70.3Z" fill="black"/>
<path d="M69.5 53.3C69.1 55.9 71.3 58.4 73.9 58.7C75.2 58.9 76.5 58.4 77.5 57.6C78 57.2 78.5 56.7 78.8 56.2C79.1 55.6 79.6 54.9 79.1 54.3C79 54.2 78.8 54.1 78.7 54.2C78.4 54.3 78.2 54.4 78.1 54.7C78 54.9 77.9 55.2 77.8 55.4C77.6 55.8 77.2 56.2 76.9 56.5C76.1 57.2 75.1 57.5 74.1 57.5C71.9 57.4 70.3 55.4 70.1 53.3C70.1 53 69.6 52.9 69.5 53.3Z" fill="black"/>
<path d="M83.4 87.4C84.1 85.6 85.2 83.8 86.9 82.8C88.1 82.1 89.6 81.9 91 82.2C95.1 83.1 96.2 88.1 95.7 91.7C95.4 94 94.3 96.2 93.3 98.3C92.9 99.2 94.2 100 94.7 99.1C95.8 96.9 96.9 94.6 97.2 92.1C97.6 89.6 97.3 87 96.1 84.7C95.2 82.9 93.7 81.5 91.7 81C90 80.6 88.2 80.7 86.7 81.4C84.4 82.5 83.1 84.7 82.6 87.1C82.6 87.7 83.2 87.9 83.4 87.4Z" fill="black"/>
<path d="M76.3 86.8C78.5 86 81.3 86.8 82.6 88.7C84.4 91.3 83 94.6 81.7 97C80.6 98.9 79.3 100.6 78.1 102.4C76.9 104.1 75.6 106.1 75.3 108.2C75.1 109.2 76.7 109.7 76.9 108.6C77.3 106 79.1 103.8 80.6 101.7C82.2 99.4 83.8 96.9 84.6 94.2C85.3 91.5 85 88.6 82.7 86.8C80.8 85.3 78.3 85 76.2 86.2C75.8 86.4 76 86.9 76.3 86.8Z" fill="black"/>
<path d="M75.2 94.4C73.8 94.4 73 95.8 72.5 96.9C72 98.2 71.8 99.6 71.6 100.9C71.4 102.4 71.3 103.9 71.2 105.5C71.2 106.2 71.1 106.9 71.1 107.6C71.1 108.2 71 108.9 71.1 109.5C71.2 109.9 71.9 110.1 72.1 109.6C72.5 108.6 72.5 107.2 72.5 106.1C72.6 104.7 72.6 103.4 72.7 102C72.8 100.7 73 99.5 73.3 98.2C73.6 97 74 95.5 75.2 95C75.8 95 75.6 94.4 75.2 94.4Z" fill="black"/>
<path d="M86.9 93.8C86.5 94.7 86.1 95.5 85.8 96.4C85.5 97.4 85.3 98.4 85.1 99.4C84.9 100.4 84.8 101.3 84.6 102.3C84.5 103.3 84.3 104.3 84.4 105.3C84.5 105.9 85.4 105.8 85.5 105.3C85.7 104.4 85.7 103.3 85.8 102.4C85.9 101.5 86 100.5 86.2 99.6C86.4 98.7 86.6 97.8 86.8 96.9C87 95.9 87.2 95 87.4 94C87.4 93.7 87 93.5 86.9 93.8Z" fill="black"/>
<path d="M76.2 86.1C74 86.1 71.9 88.1 71.1 90C70.3 91.8 70.2 93.9 70.7 95.9C70.9 96.8 71.3 97.8 71.8 98.6C72.3 99.4 73.6 98.7 73.1 97.9C72 96.3 71.6 94.1 72 92.2C72.2 91.1 72.6 90 73.3 89.2C74.2 88.1 75.4 87.6 76.6 86.9C76.7 86.7 76.6 86.1 76.2 86.1Z" fill="black"/>
<path d="M71.7 104C70.1 104.4 68.4 104.7 66.7 104.4C65.4 104.2 63.8 103.7 62.9 102.6C62.4 101.9 61.9 101 61.6 100.2C61.2 99.2 61.3 98.2 61.3 97.2C61.3 96.3 61.3 95.4 61.4 94.5C61.5 94.1 61.6 93.7 61.7 93.3C61.9 92.9 62.2 92.4 62 91.9C61.9 91.7 61.7 91.6 61.5 91.6C60.7 91.8 60.4 92.9 60.3 93.5C60.1 94.3 60 95.1 60 95.8C60 97.6 59.9 99.3 60.6 101C61.2 102.3 61.9 103.6 63.1 104.4C64.3 105.1 65.7 105.5 67.1 105.6C68.8 105.7 70.5 105.4 71.9 104.4C72.3 104.3 72 104 71.7 104Z" fill="black"/>
<path d="M84.1 101.1C84 101.2 83.9 101.2 83.8 101.3C83.9 101.3 84 101.3 84.2 101.3C84.1 101.3 84 101.3 83.9 101.3C83.8 101.3 83.7 101.4 83.6 101.4C83.5 101.5 83.4 101.5 83.3 101.6C83.2 101.6 83.2 101.7 83.1 101.7C83 101.7 83.1 101.7 83.1 101.7H83C82.9 101.7 82.8 101.8 82.6 101.8C82.5 101.8 82.5 101.8 82.4 101.8C82.3 101.8 82.4 101.8 82.4 101.8H82.3C82.2 101.8 82 101.8 81.9 101.8C81.8 101.8 81.6 101.8 81.5 101.8H81.4C81.4 101.8 81.5 101.8 81.4 101.8C81.3 101.8 81.3 101.8 81.2 101.8C80.9 101.7 80.7 101.9 80.6 102.1C80.5 102.3 80.6 102.7 80.8 102.8C81.1 103 81.5 103.1 81.8 103.1C82.1 103.1 82.5 103.1 82.8 103C83.1 102.9 83.4 102.8 83.7 102.7C84 102.5 84.5 102.2 84.5 101.8C84.5 101.9 84.5 102 84.4 102C84.4 101.9 84.5 101.8 84.5 101.7C84.6 101.5 84.6 101.4 84.4 101.2C84.4 101.1 84.2 101 84.1 101.1Z" fill="black"/>
<path d="M85.7 97.4C85.7 97.3 85.7 97.3 85.7 97.2C85.7 97.3 85.6 97.4 85.6 97.5C85.8 97.3 85.8 97.2 85.8 97C85.8 96.9 85.8 96.7 85.7 96.6C85.6 96.4 85.6 96.2 85.5 96C85.4 95.8 85.4 95.6 85.3 95.4C85.3 95.3 85.2 95.1 85.2 95C85.1 94.9 85.1 94.8 85 94.8L85.1 94.9C85.1 94.9 85.1 94.8 85 94.8L84.9 94.7C84.7 94.5 84.2 94.6 84.1 94.9C84.1 95 84.1 95.1 84.1 95.1C84.1 95.2 84.1 95.2 84.1 95.3C84.1 95.4 84.2 95.6 84.2 95.7C84.3 95.9 84.3 96.1 84.4 96.3C84.5 96.5 84.5 96.7 84.6 96.9C84.7 97.2 84.9 97.6 85.2 97.7C85.1 97.7 85.1 97.6 85 97.6L85.1 97.7C85.2 97.8 85.4 97.8 85.5 97.8C85.6 97.7 85.7 97.6 85.7 97.4Z" fill="black"/>
<path d="M79.3 85.5C78.6 84.1 76.8 84.4 75.6 84.4C74.6 84.4 73.6 84.4 72.7 84.7C71.8 85 71 85.5 70.2 86C68.4 87 66.6 88 64.7 89.1C63.4 89.8 61.6 90.8 61.3 92.4C61.2 93 61.8 93.4 62.3 93C62.8 92.5 63.2 92 63.7 91.5C64.2 91 64.8 90.6 65.5 90.2C66.9 89.3 68.3 88.5 69.7 87.6C71.2 86.7 72.5 85.6 74.3 85.5C75.1 85.5 76 85.4 76.8 85.4C77.5 85.4 78.3 85.4 78.8 86C79.1 86.2 79.5 85.9 79.3 85.5Z" fill="black"/>
<path d="M85.6 82.3C85.3 82.3 85 82.3 84.7 82.3C84.4 82.3 84.1 82.4 83.8 82.5C83.2 82.7 82.7 83.1 82.2 83.5C81.7 83.9 81.3 84.4 81 84.9C80.7 85.4 80.3 86 80.2 86.6C80.2 86.8 80.2 87 80.4 87.1C80.6 87.2 80.8 87.1 80.9 86.9C81.1 86.4 81.3 85.9 81.6 85.4C81.9 84.9 82.3 84.6 82.8 84.2C83.2 83.8 83.7 83.5 84.2 83.3C84.4 83.2 84.7 83.1 84.9 82.9C85.2 82.7 85.4 82.6 85.7 82.6C85.8 82.5 85.8 82.3 85.6 82.3Z" fill="black"/>
<path d="M47.4 67C46.7 66.6 45.8 66.6 45 66.5C44 66.4 43 66.2 42 66C39.8 65.6 37.7 65.2 35.6 64.6C33.5 64.1 31.4 63.5 29.3 62.9C28.3 62.6 27.4 62.3 26.5 62C25.8 61.8 24.9 61.2 24.2 61.5C23.8 61.7 23.7 62 23.9 62.3C24.2 63 25.2 63.2 25.9 63.4C26.8 63.7 27.8 64 28.7 64.2C30.9 64.8 33.1 65.3 35.4 65.8C37.6 66.3 39.8 66.7 42 67C42.9 67.1 43.9 67.3 44.8 67.4C45.6 67.5 46.6 67.7 47.4 67.4C47.6 67.5 47.7 67.1 47.4 67Z" fill="black"/>
<path d="M48.8 59.4C45 59.1 41.1 59.1 37.3 58.8C35.3 58.6 33.2 58.4 31.2 58.1C29.5 57.8 27.7 57.2 26 57C25.3 56.9 25.1 58 25.6 58.3C27.1 59.1 29.1 59.2 30.8 59.5C32.9 59.8 35 60 37.1 60.2C41 60.5 45 60.7 48.9 60.1C49.4 60 49.2 59.4 48.8 59.4Z" fill="black"/>
<path d="M25.6 57.2C25.4 56 25.3 54.6 24.6 53.6C24 52.8 22.7 52.2 21.8 52.8C20.8 53.4 20.9 54.6 21 55.6C21 55.8 21 56 21 56.2C21 56.4 21 56.4 20.8 56.3C20.2 56.1 19.6 55.9 19.1 55.6C18.5 55.3 17.9 55 17.4 54.6C16.9 54.2 16.5 53.6 15.9 53.2C15.6 53 15 53.3 15.1 53.7C15.2 54.9 16.5 55.7 17.5 56.2C18 56.5 18.6 56.7 19.2 56.9C19.8 57.1 20.4 57.4 21.1 57.4C21.6 57.4 22.1 57.1 22.4 56.7C22.7 56.3 22.6 55.7 22.6 55.2C22.6 54.9 22.4 54.3 22.6 54C22.8 53.7 23.2 53.9 23.4 54C23.9 54.3 24.1 54.9 24.2 55.5C24.4 56.3 24.5 56.9 25.1 57.5C25.2 57.9 25.7 57.6 25.6 57.2Z" fill="black"/>
<path d="M24.2 62C23.3 62.5 22.2 62.8 21.2 62.9C20 63 18.9 62.9 17.7 62.8C16.7 62.7 15.7 62.6 15.1 61.8C14.8 61.5 14.6 61 14.4 60.6C14.3 60.2 14.2 59.7 14 59.3C13.8 58.8 13.1 59.1 13 59.6C12.9 60.1 13.2 60.7 13.4 61.2C13.6 61.7 13.8 62.2 14.1 62.6C14.9 63.6 16 63.8 17.2 64C19.6 64.3 22.7 64.5 24.4 62.3C24.6 62.1 24.4 61.9 24.2 62Z" fill="black"/>
<path d="M13.6 59.7C13.7 59.7 13.9 59.7 14 59.8C14.1 59.8 14.1 59.9 14.2 59.9C14.3 59.9 14.4 60 14.4 60C14.8 60.2 15.1 60.5 15.5 60.7C15.9 60.9 16.4 61.1 16.8 61.2C17.2 61.4 17.7 61.5 18.2 61.4C18.4 61.4 18.6 61.2 18.6 61C18.6 61 18.6 61 18.6 61.1C18.6 61 18.7 61 18.7 60.9C18.7 60.8 18.7 60.7 18.6 60.7C18.6 60.8 18.6 60.8 18.6 60.8C18.6 60.6 18.4 60.5 18.2 60.4C17.8 60.3 17.4 60.2 17 60.1C16.6 60 16.2 59.7 15.7 59.6C15.3 59.5 14.9 59.5 14.5 59.4C14.2 59.3 13.9 59.3 13.6 59.4C13.4 59.4 13.4 59.7 13.6 59.7Z" fill="black"/>
<path d="M13.5 59C13.3 58.7 13 58.1 13.4 57.9C13.3 57.9 13.4 57.9 13.4 57.9C13.5 57.9 13.6 58 13.8 58.1C14.1 58.3 14.4 58.4 14.7 58.6C15.3 58.9 15.8 59.2 16.4 59.5C16.7 59.7 17 59.8 17.3 60C17.6 60.2 18 60.2 18.3 60.3C18.7 60.4 19.1 59.9 18.7 59.5C18.4 59.2 18.1 58.9 17.7 58.7C17.3 58.5 17 58.3 16.6 58.1C15.8 57.7 15.1 57.3 14.3 56.9C13.9 56.7 13.4 56.6 13 56.8C12.6 57 12.4 57.3 12.3 57.7C12.3 58.4 12.8 58.9 13.3 59.2C13.4 59.2 13.6 59.1 13.5 59Z" fill="black"/>
<path d="M13.1 56.6C13 56.6 13.1 56.4 13.1 56.3C13.2 56.1 13.2 56.1 13.4 56C13.7 56 14 56.1 14.3 56.2C14.6 56.4 14.9 56.5 15.2 56.7C15.8 57 16.4 57.3 16.9 57.7C17.2 57.9 17.5 58 17.8 58.2C18.1 58.4 18.4 58.6 18.7 58.7C19 58.8 19.1 58.4 19 58.2C18.7 57.9 18.3 57.6 18 57.3C17.7 57 17.3 56.7 16.9 56.5C16.1 56 15.3 55.6 14.4 55.3C13.7 55 12.7 55 12.3 55.8C12.1 56.3 12.2 57.1 12.9 57.2C13.4 57.3 13.5 56.7 13.1 56.6Z" fill="black"/>
<path d="M15.9 53.5C15.7 53.3 15.5 53.2 15.3 53.1C15 53 14.7 53.1 14.4 53.2C13.8 53.4 13.4 54 13.4 54.6C13.4 54.8 13.4 54.9 13.5 55.1C13.5 55.3 13.7 55.4 13.8 55.5C13.9 55.6 14.1 55.6 14.2 55.6C14.3 55.5 14.4 55.4 14.4 55.3V55.2C14.4 55.3 14.4 55.3 14.4 55.2C14.4 55.1 14.4 55.1 14.4 55C14.4 54.9 14.4 54.8 14.4 54.7V54.8C14.4 54.6 14.5 54.5 14.5 54.4C14.5 54.4 14.5 54.5 14.4 54.5C14.4 54.4 14.5 54.3 14.6 54.2L14.5 54.3C14.6 54.2 14.6 54.2 14.7 54.1L14.6 54.2C14.7 54.1 14.8 54.1 14.8 54.1C14.8 54.1 14.7 54.1 14.7 54.2C14.8 54.2 14.9 54.1 15 54.1H14.9C15 54.1 15 54.1 15.1 54.1H15.2H15.3C15.4 54.1 15.2 54.1 15.3 54.1C15.4 54.1 15.4 54.1 15.5 54.1C15.4 54.1 15.4 54.1 15.5 54.1H15.6C15.9 54.1 16.1 53.7 15.9 53.5Z" fill="black"/>
<path d="M90.2 41.1C90.3 41 90.4 41 90.5 40.9C90.6 40.9 90.7 40.8 90.8 40.8C90.8 40.8 90.9 40.8 90.8 40.8C90.8 40.8 90.8 40.8 90.9 40.8C91 40.8 91 40.8 91.1 40.8C91.2 40.8 91.4 40.8 91.5 40.8H91.6C91.5 40.8 91.6 40.8 91.6 40.8C91.7 40.8 91.7 40.8 91.8 40.8C91.9 40.8 91.9 40.8 92 40.9C91.9 40.9 92 40.9 92 40.9C92 40.9 92.1 40.9 92.1 41C92.2 41 92.2 41.1 92.3 41.1C92.2 41 92.4 41.1 92.4 41.2C92.5 41.2 92.5 41.3 92.5 41.3C92.5 41.3 92.5 41.3 92.6 41.4C92.6 41.5 92.5 41.3 92.6 41.4C92.7 41.5 92.7 41.6 92.8 41.8C92.9 41.9 92.8 41.8 92.8 41.8V41.9C92.8 42 92.9 42.1 92.9 42.2C92.9 42.3 92.9 42.3 92.9 42.4C92.9 42.3 92.9 42.4 92.9 42.5C92.9 42.6 92.9 42.6 92.9 42.7V42.8C92.9 42.8 92.9 43 92.9 42.9C92.9 42.8 92.9 42.9 92.9 43V43.1C92.9 43.2 92.9 43.2 92.8 43.3V43.4C92.8 43.3 92.8 43.4 92.8 43.4C92.8 43.5 92.7 43.6 92.7 43.6C92.7 43.6 92.8 43.5 92.7 43.6C92.7 43.6 92.7 43.7 92.6 43.7C92.6 43.7 92.5 43.7 92.5 43.8C92.5 43.8 92.4 43.8 92.5 43.8C92.4 43.8 92.4 43.9 92.3 43.9C92.3 43.9 92.2 44 92.3 43.9H92.2L92 44C92.1 44 92.1 44 92 44H91.9C91.8 44 91.7 44 91.7 44C91.6 44 91.8 44 91.7 44H91.6C91.5 44 91.5 44 91.4 43.9C91.4 43.9 91.3 43.9 91.4 43.9C91.5 43.9 91.4 43.9 91.3 43.9C91.1 43.8 90.9 43.8 90.7 43.7C90.3 43.5 89.8 44.1 90.1 44.5C90.2 44.7 90.4 44.9 90.6 45C90.8 45.1 91 45.2 91.2 45.2C91.6 45.3 92 45.3 92.4 45.2C93.3 45 93.9 44.3 94.1 43.5C94.5 41.9 93.5 40.1 91.9 39.8C91.4 39.7 91 39.8 90.6 40C90.2 40.2 89.9 40.5 89.7 40.8C89.4 41 89.9 41.4 90.2 41.1Z" fill="black"/>
<path d="M80.5 28.7C80.3 28.4 80 28.1 79.8 27.9C79.5 27.6 79.1 27.5 78.8 27.3C78.5 27.2 78.1 27.1 77.7 27.1C77.4 27.1 76.8 27 76.6 27.4C76.6 27.5 76.5 27.6 76.6 27.6C76.7 27.8 76.9 27.8 77.1 27.8C77.2 27.8 77.4 27.8 77.5 27.9C77.8 28 78.1 28.1 78.4 28.2C78.7 28.3 78.9 28.4 79.2 28.6C79.5 28.7 79.8 28.9 80 29.1C80.1 29.2 80.3 29.2 80.4 29.1C80.5 29 80.6 28.8 80.5 28.7Z" fill="black"/>
<path d="M84 31.8C84.3 31.7 84.4 31.7 84.7 31.7C84.8 31.7 84.9 31.7 85 31.7C85.1 31.7 85.1 31.7 85.2 31.7C85.3 31.7 85.2 31.7 85.2 31.7H85.3C85.4 31.7 85.5 31.8 85.7 31.8C85.8 31.8 85.8 31.8 85.9 31.9C85.9 31.9 85.9 31.9 86 31.9C86.2 32 86.5 32.1 86.7 32.3L86.8 32.4C86.9 32.5 87 32.5 87 32.5C87.2 32.6 87.5 32.5 87.5 32.3C87.7 31.9 87.3 31.6 87 31.4C86.5 31.1 86 30.9 85.4 30.8C84.8 30.7 84.2 30.9 83.6 31.1C83.3 31.3 83.6 32 84 31.8Z" fill="black"/>
<path d="M79.6 43.8C79.2 44 78.7 44 78.3 44.1C78.1 44.1 77.9 44.2 77.7 44.2C77.4 44.2 77.1 44.3 77 44.6C77 44.5 77.1 44.5 77.1 44.4C77.1 44.4 77 44.4 77 44.5C76.9 44.6 76.9 44.8 77 44.9C77.1 44.9 77.1 45 77.2 45C77.1 45 77.1 44.9 77 44.9C77.1 45.2 77.6 45.1 77.8 45.1C78.1 45.1 78.3 45 78.6 45C79.1 44.9 79.5 44.6 79.9 44.4C80 44.1 79.9 43.7 79.6 43.8Z" fill="black"/>
<path d="M86.2 35C86.2 35.3 86.2 35.6 86.2 35.9C86.2 36.2 86.2 36.4 86.2 36.7C86.1 37.2 85.8 37.5 85.4 37.7C85 37.9 84.6 37.9 84.1 37.8C83.6 37.7 83.1 37.4 82.6 37C82.4 36.8 82 37 81.9 37.2C81.7 37.5 81.9 37.7 82.1 37.9C83.2 38.7 84.6 39.2 85.9 38.5C86.5 38.2 86.9 37.6 87 37C87.1 36.6 87.1 36.3 87 35.9C86.9 35.6 86.7 35.2 86.6 34.9C86.4 34.7 86.2 34.8 86.2 35Z" fill="black"/>
<path d="M83.6 37.3C83.8 37.1 84 37 84.1 36.8C84 36.9 84 36.9 83.9 37C84.2 36.8 84.3 36.5 84.2 36.1C84.1 35.8 84 35.7 83.8 35.5C83.3 35.2 82.7 35.4 82.5 35.8C82.4 36 82.3 36.2 82.3 36.4C82.3 36.5 82.3 36.5 82.3 36.6C82.3 36.8 82.3 36.9 82.4 37C82.4 37.1 82.4 37.1 82.4 36.9C82.4 36.9 82.4 36.9 82.4 37C82.4 37.1 82.5 37.2 82.5 37.2C82.6 37.4 82.8 37.6 83 37.5C82.9 37.5 82.9 37.4 82.8 37.4C82.9 37.5 82.9 37.5 83 37.5H83.1H83.2C83.2 37.5 83.2 37.5 83.1 37.4C83.2 37.5 83.2 37.6 83.3 37.6C83.4 37.6 83.5 37.6 83.6 37.5H83.7C84 37.4 83.5 37.6 83.8 37.4C83.9 37.3 84 37.2 84.1 37.1C84.3 36.9 84.4 36.6 84.5 36.3C84.6 35.9 84.5 35.5 84.3 35.2C84.1 34.9 83.8 34.6 83.5 34.5C83.3 34.4 83 34.4 82.8 34.5C82.6 34.6 82.4 34.7 82.2 34.8C82 35 81.8 35.2 81.7 35.5C81.5 35.9 81.5 36.3 81.6 36.7C81.6 36.9 81.7 37 81.8 37.1C81.9 37.2 81.9 37.3 82 37.3C82 37.3 82.1 37.4 82.2 37.4C82.2 37.4 82.1 37.4 82.1 37.3C82.2 37.4 82.4 37.5 82.6 37.6C82.8 37.7 83 37.7 83.2 37.6C83.5 37.5 83.7 37.3 83.6 37C83.6 36.9 83.5 36.8 83.4 36.7C83.3 36.6 83.2 36.6 83 36.5H82.9C83 36.5 83 36.5 83.1 36.5H83C83 36.5 83.1 36.5 83.1 36.6C83.1 36.6 83.1 36.6 83 36.6C82.9 36.6 82.9 36.5 83 36.6C83 36.6 83 36.6 82.9 36.5C82.8 36.4 83 36.6 82.9 36.5C82.9 36.5 82.9 36.6 83 36.6C83 36.5 83 36.5 83 36.4C83 36.5 83 36.5 83 36.6C83 36.5 83 36.4 83 36.4C83 36.5 83 36.5 83 36.6C83 36.5 83 36.4 83.1 36.3C83.1 36.4 83 36.4 83 36.5C83.1 36.4 83.1 36.3 83.2 36.2C83.3 36.1 83.3 36 83.4 35.9C83.4 36 83.3 36 83.3 36.1C83.4 36 83.4 36 83.5 35.9C83.4 35.9 83.4 36 83.3 36C83.4 36 83.4 35.9 83.5 35.9C83.4 35.9 83.4 36 83.3 36C83.4 36 83.4 36 83.5 36C83.4 36 83.4 36 83.3 36H83.4C83.3 36 83.3 36 83.2 36H83.3C83.2 36 83.2 35.9 83.1 35.9C83.1 35.9 83.2 35.9 83.2 36C83.1 36 83.1 35.9 83 35.9L83.1 36C83.1 35.9 83 35.9 83 35.8C83.1 35.9 83.1 35.9 83.1 36C83.1 35.9 83 35.9 83 35.8C83.1 35.9 83.1 36.1 83.2 36.2C83.2 36.1 83.1 36.1 83.1 36C83.1 36.1 83.2 36.2 83.2 36.3C83.2 36.2 83.2 36.2 83.2 36.1C83.2 36.3 83.2 36.4 83.2 36.6C83.2 36.6 83.2 36.6 83.2 36.5V36.6C83.2 36.6 83.2 36.6 83.2 36.7C83.2 36.7 83.2 36.6 83.2 36.7C83.2 36.8 83.2 36.8 83.1 36.9L83.2 36.8C83.2 36.8 83.2 36.8 83.1 36.8C83.1 36.8 83.1 36.8 83.2 36.9C83.2 36.9 83.2 36.9 83.2 37V36.9C83.2 36.9 83.2 36.9 83.2 36.8C83.2 36.7 83.2 36.8 83.2 36.8V36.7C83.2 36.8 83.1 36.9 83.1 37C83.3 36.9 83.3 36.8 83.4 36.6V36.5C83.3 36.7 83.4 36.6 83.4 36.5C83.4 36.4 83.3 36.6 83.4 36.6C83.4 36.5 83.5 36.5 83.5 36.4C83.5 36.4 83.5 36.3 83.6 36.3C83.6 36.2 83.7 36.1 83.7 36C83.7 35.9 83.7 35.9 83.7 35.8C83.7 35.9 83.7 35.9 83.6 36C83.6 36 83.6 35.9 83.7 35.9L83.6 36L83.5 36.1C83.5 36.1 83.5 36.1 83.6 36.1C83.5 36.1 83.5 36.1 83.4 36.2C83.4 36.2 83.4 36.2 83.5 36.2C83.4 36.2 83.4 36.2 83.3 36.2C83.3 36.2 83.3 36.2 83.4 36.2C83.3 36.2 83.3 36.2 83.2 36.2H83.3C83.2 36.2 83.2 36.2 83.1 36.1H83.2L83.1 36C83.2 36.1 83.3 36.1 83.4 36.2L83.3 36.1C83.3 36.1 83.3 36.1 83.4 36.2L83.3 36.1L83.4 36.2C83.4 36.3 83.5 36.3 83.6 36.4C83.8 36.5 83.8 36.5 83.7 36.4C83.6 36.3 83.5 36.2 83.5 36.1C83.5 36.2 83.5 36.1 83.5 36.1C83.5 36.1 83.5 36.1 83.5 36.2C83.5 36.2 83.5 36.2 83.5 36.3C83.5 36.4 83.5 36.3 83.5 36.3C83.5 36.3 83.5 36.3 83.5 36.4C83.5 36.4 83.5 36.5 83.5 36.4V36.5C83 37.3 83.3 37.6 83.6 37.3Z" fill="black"/>
<path d="M76.9 31.4C76.8 31.7 76.8 31.9 76.7 32.2C76.6 32.4 76.6 32.7 76.5 33C76.3 33.4 75.9 33.7 75.5 33.8C74.5 34.1 73.6 33.4 72.9 32.6C72.7 32.4 72.3 32.4 72.2 32.6C72 32.8 72 33.1 72.2 33.3C73.1 34.3 74.4 35.1 75.8 34.7C76.5 34.5 77 34 77.2 33.4C77.3 33.1 77.4 32.7 77.4 32.4C77.4 32.1 77.3 31.7 77.2 31.4C77.2 31.2 76.9 31.2 76.9 31.4Z" fill="black"/>
<path d="M73.9 33.2C74.1 33.1 74.4 33 74.5 32.8C74.4 32.8 74.3 32.9 74.1 32.9C74.4 32.9 74.7 32.7 74.7 32.4C74.7 32.2 74.7 32 74.7 31.8C74.5 31.4 74.2 31.2 73.8 31.2C73.4 31.2 73.1 31.5 72.9 31.8C72.7 32.1 72.7 32.5 72.9 32.8C72.9 32.7 72.8 32.6 72.8 32.5C72.8 32.8 72.9 33.2 73.2 33.3C73.1 33.3 73.1 33.2 73 33.2C73.1 33.3 73.1 33.3 73.2 33.4C73.2 33.4 73.3 33.4 73.3 33.5H73.4L73.3 33.4C73.3 33.5 73.4 33.6 73.5 33.6C73.6 33.6 73.7 33.6 73.7 33.6H73.8H73.9C73.8 33.6 73.9 33.6 74 33.6C74.1 33.6 74.2 33.5 74.3 33.5C74.5 33.4 74.7 33.2 74.8 33C74.8 32.9 74.9 32.9 74.9 32.8C74.9 32.7 75 32.7 75 32.6V32.4V32.3C75 31.7 74.6 31 74 30.9C73.6 30.8 73.2 30.9 72.9 31.1C72.8 31.2 72.6 31.3 72.5 31.4C72.4 31.5 72.3 31.6 72.2 31.8C72 32.1 71.9 32.4 71.9 32.8C71.9 33 71.9 33.1 72 33.3C72 33.4 72.1 33.5 72.1 33.5C72.2 33.6 72.2 33.7 72.3 33.7L72.2 33.6C72.4 34 72.9 34.3 73.3 34.2C73.5 34.1 73.7 33.9 73.7 33.7C73.7 33.5 73.6 33.2 73.4 33.1C73.3 33.1 73.2 33 73.1 33C73.1 33 73.2 33 73.2 33.1H73.1C73 33.1 73.2 33.2 73.1 33.1C73.1 33.1 73 33 73.1 33.1C73.1 33.1 73.1 33 73 33C73 33 73 33.1 73.1 33.1V33C73.1 33.1 73.1 33.1 73.1 33.2C73.1 33.1 73.1 33.1 73.1 33C73.1 33.1 73.1 33.1 73.1 33.2C73.1 33.1 73.1 33 73.2 33C73.2 33.1 73.2 33.1 73.1 33.2C73.1 33.1 73.2 33 73.2 33C73.2 33.1 73.1 33.1 73.1 33.2C73.2 33.1 73.3 33 73.4 32.9C73.5 32.8 73.6 32.7 73.7 32.6C73.6 32.6 73.6 32.7 73.5 32.7C73.6 32.6 73.7 32.6 73.7 32.6C73.6 32.6 73.6 32.7 73.5 32.7C73.6 32.7 73.6 32.7 73.7 32.7C73.6 32.7 73.6 32.7 73.5 32.7C73.6 32.7 73.6 32.7 73.7 32.7C73.6 32.7 73.6 32.7 73.5 32.7H73.6C73.5 32.7 73.5 32.6 73.4 32.6C73.4 32.6 73.5 32.6 73.5 32.7C73.4 32.7 73.4 32.6 73.3 32.6L73.4 32.7C73.4 32.6 73.3 32.6 73.3 32.5C73.3 32.5 73.4 32.6 73.4 32.7C73.4 32.6 73.3 32.6 73.3 32.5C73.3 32.6 73.4 32.7 73.4 32.8C73.4 32.7 73.4 32.7 73.4 32.6V32.7C73.4 32.8 73.4 32.9 73.4 33C73.4 32.9 73.4 32.9 73.4 32.8C73.4 32.9 73.4 33 73.4 33.1C73.4 33 73.4 33 73.4 32.9C73.4 33 73.4 33.1 73.4 33.1V33.2C73.4 33.3 73.4 33.3 73.4 33.4C73.4 33.4 73.4 33.3 73.4 33.4C73.4 33.4 73.4 33.4 73.4 33.5C73.4 33.4 73.4 33.5 73.4 33.5C73.4 33.5 73.4 33.5 73.3 33.6C73.4 33.6 73.4 33.6 73.5 33.6H73.4L73.5 33.7C73.5 33.8 73.5 33.7 73.5 33.7V33.6C73.5 33.6 73.5 33.5 73.5 33.6C73.5 33.7 73.4 33.7 73.4 33.8C73.5 33.7 73.6 33.6 73.7 33.5C73.7 33.5 73.7 33.4 73.8 33.4C73.8 33.4 73.8 33.4 73.8 33.3C73.8 33.3 73.8 33.3 73.7 33.4L73.8 33.3C73.7 33.4 73.7 33.4 73.6 33.5C73.8 33.4 73.8 33.3 74 33.1L73.9 33.2C74 33.1 74.1 33 74.1 32.9C74.1 32.8 74.2 32.8 74.2 32.7L74.1 32.8C74.1 32.8 74.1 32.8 74.2 32.7L74.1 32.8C74.1 32.8 74.1 32.8 74.2 32.8C74.1 32.8 74.1 32.8 74 32.9C73.9 32.9 73.9 32.9 73.8 32.9C73.8 32.9 73.8 32.9 73.9 32.9C73.8 32.9 73.8 32.9 73.7 32.9C73.7 32.9 73.7 32.9 73.8 32.9C73.7 32.9 73.7 32.9 73.6 32.8H73.7L73.6 32.7L73.7 32.8L73.6 32.7C73.7 32.8 73.7 32.9 73.8 32.9L73.7 32.8V32.9C73.7 32.9 73.7 32.8 73.6 32.8C73.7 33 73.7 33.1 73.9 33.2C73.8 33.1 73.7 32.9 73.7 32.8V32.9C73.7 32.9 73.7 32.8 73.7 32.9V33C73.7 33 73.7 32.9 73.7 33C73.7 33 73.7 33 73.7 33.1L73.6 33.2C73.5 33.3 73.6 33.5 73.6 33.6C73.6 33.2 73.7 33.3 73.9 33.2Z" fill="black"/>
<path d="M94.7 71.5C94.8 71.8 94.8 72.2 95 72.5C95.2 72.9 95.3 73.3 95.5 73.6C95.8 74.4 96.1 75.1 96.4 75.9C97 77.4 97.5 79 98 80.5C98.5 81.9 99 83.4 99.6 84.7C99.9 85.4 100.3 86.1 100.8 86.8C101.1 87.3 101.5 88 102.1 88.2C102.3 88.2 102.5 88.1 102.5 87.9C102.5 87.2 101.9 86.7 101.6 86.2C101.2 85.5 100.8 84.9 100.5 84.2C99.8 82.7 99.3 81.1 98.9 79.6C98.5 78.1 98.1 76.6 97.6 75.1C97.4 74.4 97.1 73.7 96.8 73C96.6 72.7 96.5 72.3 96.3 72C96.1 71.6 95.8 71.4 95.5 71.1C95.2 70.7 94.6 71.1 94.7 71.5Z" fill="black"/>
<path d="M61.5 102.9C59.6 103 57.8 103.3 55.9 103.4C55 103.5 54.1 103.5 53.2 103.6C52.7 103.6 52.3 103.6 51.8 103.6C51.3 103.6 51 103.7 50.6 104.1C50.5 104.3 50.5 104.6 50.6 104.8C50.9 105.2 51.3 105.3 51.8 105.3C52.3 105.3 52.7 105.3 53.2 105.3C54.1 105.3 55.1 105.2 56 105.2C57.9 105.1 59.8 104.9 61.7 104.4C62.5 104.1 62.3 102.8 61.5 102.9Z" fill="black"/>
<path d="M52.4 46.2C51.8 44.4 52.4 42.5 51.5 40.7C50.6 38.9 48.9 37.8 47.1 37.2C45.4 36.6 43.5 36.6 41.7 36.6C39.7 36.6 37.6 36.6 35.6 36.5L29.7 36.4C28.7 36.4 27.7 36.4 26.8 36.9C25.8 37.5 25.3 38.7 25 39.7C24.8 40.5 24.8 41.3 25 42.1C24.7 42.5 24.6 43 24.5 43.6C24.4 44.3 24.4 44.9 24.4 45.6C24.4 45.9 24.5 46.1 24.5 46.4C24.2 46.8 24.1 47.3 24.1 47.8C24.1 49.4 25.3 50.4 26.8 50.5C27.2 50.5 27.5 50.5 27.9 50.4C34.5 49.7 41.2 49.4 47.9 49.6C48.3 49.6 48.7 49.5 49 49.4C49.5 49.6 50 49.6 50.5 49.4C51.8 49.1 52.9 47.6 52.4 46.2Z" fill="#EDEDED"/>
<path d="M57 47.4C57.5 46.8 57.6 45.9 57.4 45.1C57 43.3 56.7 41.4 56.3 39.6C56.4 39.4 56.5 39.2 56.5 39C56.8 37.4 56.4 35.9 55.3 34.7C54.4 33.8 53.2 33.3 52 33C51.9 33 51.8 33 51.6 32.9C50.9 32.3 50 32.1 49.2 32.3C48.8 32 48.3 31.9 47.8 31.9C47.7 31.9 47.7 31.9 47.6 31.9C47.3 31.7 47 31.5 46.7 31.5C40.1 30.6 33.7 29.3 27.2 29.9C26.4 30 25.5 30.2 24.8 30.6C24 30.4 23.1 30.5 22.3 31.3C22.2 31.4 22.1 31.5 22 31.6C20.7 31.7 19.2 32.7 19.2 34C19.1 34.2 18.9 34.6 18.8 34.8C18.2 36.1 18.3 37.7 18.1 39.1C17.6 41.9 17.5 45.1 18.5 47.8C18.5 47.9 18.5 48 18.4 48.1C18.2 50 19 51.2 20.7 52.1C22.3 52.9 23.9 53.5 25.6 53.9C26.1 54 26.6 53.9 26.9 53.6C27.5 53.7 28 53.7 28.6 53.8C31.1 54 33.7 54.1 36.3 54C41.4 53.8 46.5 53.2 51.6 52.6C52 52.6 52.4 52.4 52.7 52.1C52.8 52.1 52.9 52.2 53 52.2C53.8 52.4 54.6 52.3 55.4 51.9C56.1 51.5 56.6 50.8 56.8 50C57 49.3 56.9 48.6 56.9 47.8C57 47.7 57 47.6 57 47.4ZM51.7 47.8C51.7 47.9 51.7 47.9 51.7 48C51.5 48.3 51.3 48.6 51.3 48.9C51.3 49 51.3 49.1 51.2 49.2C46.7 49.7 41.9 49.9 37.4 50.2C35.1 50.3 32.9 50.6 30.6 50.5C29.4 50.4 28.3 50.3 27.1 50.2C26.5 50.1 26 50.7 25.4 50.6C25.3 50.6 25.2 49.9 25.1 49.9C25 49.6 24.8 49.4 24.6 49.2C25.3 47.9 24.6 46.2 24.5 44.7C24.4 43.2 24.8 41.9 24.9 40.5C24.9 40.1 25 39.8 25 39.4C25 38.6 25.4 39.6 25.4 39C25.4 38.6 25.1 38.5 25.5 38.2C26 37.8 26.4 37.3 26.6 36.7C26.8 36.7 28 36.3 28.2 36.3C29.8 36.3 30.3 36.5 31.8 36.4C33.4 36.3 35.1 36.2 36.7 36.2C40.5 36.3 44.1 37.2 47.9 37.3C48.1 37.3 48.2 37.3 48.4 37.3C49 37.8 49.7 38.1 50.4 38.4C50.5 38.7 50.7 39.4 50.8 39.5C51.4 41.7 51.8 44 52.2 46.2C51.9 46.7 51.6 47.2 51.7 47.8Z" fill="#9D9D9C"/>
<path d="M59.2 92C59.1 91.8 58.9 91.6 58.7 91.5C59.2 89.7 59 87.7 58.6 86C58.6 85.8 58.5 85.6 58.4 85.5C58.4 85.4 58.4 85.3 58.4 85.2C58.6 82 58.7 78.8 58.1 75.7C57.8 74.2 57.1 72.9 56.8 71.4C56.5 69.9 56.6 68.3 56.6 66.8C56.6 66.3 56.4 65.9 56.1 65.7C56.1 65.6 56.1 65.5 56 65.4C55.9 65.1 55.8 64.7 55.6 64.5L55.2 63.6C54.9 62.9 54 61.9 53.2 61.9C52.2 61.3 51.3 61.3 50 61.2C47.1 60.8 44.1 61.2 41.2 61.3C38.3 61.4 35.4 61.5 32.5 61.6C29.5 61.8 26.6 61.7 23.7 61.4C22.8 61.3 22 62.3 22 63.1C22 63.4 22.1 63.7 22.2 64C22.1 64.2 22 64.5 22 64.8C22 68.2 22 71.7 22.1 75.2C22.1 76 22.2 76.9 22.3 77.7C22.1 78 22 78.3 22 78.7C22 79.7 22.1 80.9 22.5 82V82.1C21.6 85.3 22.9 88.4 22.5 91.7C22.5 91.8 22.5 92 22.5 92.1C22.2 92.5 22.1 93 22.2 93.6C22.3 93.9 22.4 94.2 22.5 94.4C22.5 95.3 23 96.2 24.2 96.2C24.3 96.2 24.5 96.2 24.6 96.2C24.9 96.3 25.3 96.5 25.6 96.6C27.3 97.1 29 97.4 30.8 97.6C34.2 97.9 37.6 97.7 40.9 97.5C44.4 97.3 47.9 97.3 51.4 96.9C53.1 96.7 54.9 96.4 56.6 96.1C57.5 95.9 58.3 95.7 58.8 94.9C59.6 93.8 59.7 92.8 59.2 92ZM32.3 90C32.2 90.5 32.1 90.5 31.5 90.7C31 90.9 30.5 91 29.9 91.1C29.8 91 29.7 90.9 29.6 90.8C29.4 90.6 29.2 90.4 29 90.3C29 90.1 29.1 89.8 29.1 89.8C29.1 89.6 29.1 89.4 29.2 89.2C29.3 88.6 29.4 88.1 29.6 87.5C29.8 87.7 30 87.9 30.3 88C30.9 88.2 31.4 88.5 31.9 88.9C32.4 89.2 32.4 89.4 32.3 90ZM29.5 82.4C29.3 82.4 29.2 82.4 29 82.4C29 82.4 29 82.3 28.9 82.3C26.2 77.3 27.1 71.3 27.9 65.9C27.9 65.6 27.9 65.3 27.9 65C29.2 65 30.5 65.1 31.8 65C34.4 64.9 37 64.5 39.6 64.4C42.2 64.2 44.8 64.2 47.4 64.3C48.9 64.4 51.8 64.2 52.7 65.9C52.7 66 52.8 66.1 52.8 66.2C52.9 66.4 53 66.7 53.2 66.8C53.2 68.4 53.2 70 53.4 71.6C53.5 72.3 53.7 72.9 53.9 73.6C53.5 74 53.3 74.7 53.4 75.3C53.6 77.1 53.2 78.9 53.4 80.7C53.4 80.9 53.4 81.1 53.5 81.3C53.3 81.3 53.1 81.4 52.8 81.4C52.5 81.3 52.1 81.3 51.7 81.3C49.7 81.7 47.7 81.9 45.7 82.1C44.1 82.2 42.2 81.7 40.6 82C39.6 82 38.7 82.5 37.7 82.5C35.1 82.5 32.3 82.5 29.5 82.4ZM40.6 90.6C39.6 90.6 38.5 90.7 37.4 90.6C36.7 90.5 36.5 90 35.9 89.5C35.9 89.4 36 89.4 36 89.3C36.3 89.3 36.3 89.2 36.7 89C39.2 87.6 42 87.4 44.8 87.4C45.3 87.4 45.8 87.4 46.4 87.4V87.5C46.5 88.1 46.7 88.9 46.7 89.6C46.2 89.8 45.8 90.2 45.7 90.7C45.2 90.7 44.7 90.7 44.2 90.7C43 90.6 41.8 90.6 40.6 90.6ZM54.1 89.6C54.1 90 54.1 90.4 54 90.8C53.9 91 53.8 91.1 53.7 91.3C53.4 91.1 53 91.1 52.5 91.2C52.2 91.1 51.9 91 51.7 90.9C51.7 90.9 51.6 90.6 51.3 90.5L51.1 90.4C51.1 89.6 50.9 88.6 51.5 88C51.7 87.8 51.8 87.7 51.9 87.5C52.5 87.5 52.8 87.6 53.4 87.6C53.4 87.6 53.7 87.8 53.7 87.9C54.1 88.2 54.1 89 54.1 89.6Z" fill="#9D9D9C"/>
<path d="M54.6 99.7C54.1 99.7 53.8 99.9 53.6 100.2C53.1 100.1 52.6 100.3 52.2 100.7C52.1 100.7 51.9 100.7 51.8 100.7C50.4 101 49.1 101.3 47.7 101.5C45.3 101.8 42.9 101.7 40.5 101.5C36.9 101.3 32.9 101.2 29.5 99.7C28.1 99.1 26.6 100.1 27 101.7C27.2 102.7 27.5 103.7 27.8 104.7C30.3 106.3 33.5 107 36.1 107.7C40.5 108.8 43.9 111.5 49.3 111.3C50.1 111 50.8 110.5 51.3 109.7C51.4 109.5 51.5 109.3 51.5 109.1C52.2 108.4 52.7 107.6 53.2 106.7C54 105.3 54.8 103.8 55.2 102.3C55.2 102.3 55.2 102.3 55.2 102.2C56.3 101.8 56.1 99.7 54.6 99.7Z" fill="#706F6F"/>
<path d="M78.5 60.8C77.1 60.1 75.8 61.9 76.8 62.9C76.7 63.1 76.6 63.3 76.6 63.6C76.6 64.1 76.6 64.6 76.6 65.2C76.6 65.3 76.6 65.5 76.7 65.6C76.6 65.6 76.5 65.7 76.4 65.7C76.4 65.7 76.4 65.7 76.3 65.7C75.8 65.9 75.2 66 74.8 66C74 66 72.9 65.8 72.5 65C72.2 64.3 72.1 63.2 72.3 62.4C72.3 62.3 72.4 62.1 72.4 62C73.1 60.5 70.9 59.1 70.1 60.6C69.9 60.9 69.8 61.3 69.7 61.7C69 63.9 69 66.6 71 68C72.8 69.2 76.3 69.8 77.8 67.8C78.8 67.3 79.6 66.6 79.9 65.6C80.6 64.1 80.1 61.6 78.5 60.8Z" fill="#706F6F"/>
<path d="M8.60001 85.1C9.00001 85.8 9.30001 86.4 9.80001 87C9.70001 86.5 9.60001 85.9 9.90001 85.4C10.3 84.4 11.5 84.4 12.4 84.5C12.9 84.6 13.3 84.7 13.7 84.9C13.5 85.3 13.6 85.8 13.9 86.3C14.2 86.6 14.3 87 14.4 87.4C14.4 87.5 14.4 87.7 14.4 87.8C14.3 88 14.2 88.1 14.1 88.3C13.3 89.3 14 91 15.4 90.6C16.7 90.2 17.1 89.1 17.1 88C17.3 87 17.3 86 17.2 85C16.9 83 14.2 82.1 12.4 81.9C10.6 81.7 8.70001 82.1 7.60001 83.7C8.00001 84 8.30001 84.5 8.60001 85.1Z" fill="#706F6F"/>
<path d="M54 88.4C53.9 88.3 53.8 88.3 53.7 88.2C53.7 88.2 53.6 88.2 53.6 88.1C53.6 88.1 53.6 88 53.5 88C53.3 87.7 53 87.5 52.7 87.4C52.4 87.3 52 87.3 51.7 87.5C51.4 87.7 51.1 88 51.1 88.3C51 88.7 51 89 51.1 89.4C51.2 89.7 51.3 89.9 51.4 90.2C51.6 90.5 51.9 90.7 52.2 90.8C52.5 90.9 53 90.8 53.2 90.7C53.2 90.7 53.3 90.7 53.3 90.6C53.4 90.6 53.5 90.5 53.6 90.5C53.8 90.4 53.9 90.4 54 90.2C54.1 90.1 54.2 89.9 54.3 89.8C54.4 89.6 54.4 89.5 54.4 89.3C54.4 89 54.3 88.6 54 88.4Z" fill="#FFED00"/>
<path d="M45.3 87.3C44 87 42.5 87.5 41.3 87.7C39.7 88 38.2 88.2 36.6 88.4C35.9 88.5 36.2 89.5 36.4 90.1C36.6 90.9 36.6 91.1 37.3 91C38.2 90.9 39.2 90.7 40.1 90.6C40.3 90.8 40.6 90.8 40.9 90.8C41.3 90.8 41.5 90.7 41.8 90.5C41.9 90.5 42 90.6 42.2 90.6C43.3 90.7 45.1 90.9 46.1 90.2C47.4 89.3 46.6 87.6 45.3 87.3Z" fill="#95C11F"/>
<path d="M31.6 88.3C31.2 87.8 30.6 87.6 30 87.6C29.7 87.6 29.3 87.8 29 88C28.8 88.2 28.7 88.4 28.6 88.7C28.5 88.8 28.5 88.9 28.5 89C28.2 89.8 28.7 90.6 29.3 91C30 91.4 30.9 91.2 31.6 90.7C31.9 90.4 32.1 90 32.1 89.5C32.2 89 31.9 88.6 31.6 88.3Z" fill="#FFED00"/>
<path d="M53.8 75.5C53.8 75.4 53.7 75.2 53.7 75.1C53.9 74.9 54 74.6 54.1 74.3C54.2 73.7 54.2 73.1 54 72.6C53.8 72.1 53.4 71.6 53.3 71C53.3 70.9 53.2 70.8 53.2 70.7C53.4 70.3 53.6 69.9 53.4 69.3C53.3 68.6 52.9 67.8 52.6 67.2C52.3 66.5 51.8 65.9 51.1 65.6C49.7 64.9 48 65.2 46.4 65.2C44.7 65.2 42.9 65.1 41.2 64.9C37.3 64.4 33.2 64.6 29.3 64.7C27.9 64.7 27.4 66.2 27.9 67.1C27.5 67.3 27.2 67.8 27.3 68.4C27.4 69.3 27.4 70.3 27.3 71.2C27.3 71.5 27.3 71.7 27.4 71.9C27.2 72.2 27 72.5 27.1 72.9C27.1 73.1 27.1 73.3 27.2 73.5C27.3 74.6 27.1 75.7 27.2 76.8C27.2 77 27.3 77.2 27.4 77.4C27 78.6 27 79.9 27.7 80.8C28.7 82.4 30.8 81.9 32.3 81.8C34.1 81.7 35.9 81.8 37.7 81.9C41.3 82.1 44.6 82 48.2 81.5C49.7 81.3 52.2 81.6 53.4 80.6C54.7 79.3 54 77.1 53.8 75.5Z" fill="#A1DAF8"/>
<path d="M15.5 75.9C15.3 75.9 15.2 76 15.1 76C14.9 76 14.7 75.9 14.5 75.8C14.1 75.7 13.7 75.7 13.3 75.5C12.8 75.3 12.1 75.4 12.1 76C12.1 76.1 12.1 76.3 12.1 76.4C12.1 76.6 12.1 76.8 12.1 77C11.8 77.1 11.6 77.5 11.8 77.8C12.2 78.4 12.8 78.8 13.5 78.9C14.1 79 15.2 79.2 15.7 78.8C16.2 78.4 16.3 77.4 16.4 76.7C16.4 76.2 16.1 75.8 15.5 75.9Z" fill="#E30613"/>
<path d="M18.7 70.8C18.2 70.5 17.2 70.4 17.1 69.7C17 69.3 16.4 69.2 16.1 69.4C15.8 69.7 15.2 70.1 15.1 70.6C14.9 70.6 14.7 70.7 14.7 71C14.5 72.1 15.7 72.5 16.6 72.8C17 72.9 17.6 73.1 18 72.9C18.4 72.7 18.7 72 19 71.6C19 71.3 18.9 70.9 18.7 70.8Z" fill="#E30613"/>
<path d="M21.2 67.4C21 67.1 20.6 66.9 20.4 66.7C20.2 66.6 20.1 66.5 20.1 66.3C20 66.1 20.1 65.7 20 65.5C19.9 64.8 18.8 64.8 18.8 65.5C18.8 65.6 18.8 65.7 18.8 65.8C18.7 65.8 18.6 65.9 18.4 66C18.1 66.4 17.7 66.8 18 67.3C18.1 67.5 18.3 67.6 18.5 67.7C18.7 68 19 68.2 19.3 68.4C19.2 69 20.1 69.1 20.4 68.7C20.5 68.7 20.6 68.7 20.6 68.7C21.4 68.6 21.7 67.9 21.2 67.4Z" fill="#E30613"/>
<path d="M15.4 79.3C15.3 79 15 78.8 14.7 78.9C14.4 79 14.2 79.1 13.9 79.1C13.3 79 12.7 78.9 12.1 78.5C11.5 78.1 10.9 79.1 11.5 79.5C11.4 79.6 11.3 79.7 11.2 79.8C11.2 79.8 11.2 79.8 11.1 79.9C10.8 80.2 10.9 80.8 11.2 81C11.6 81.4 12.5 81.3 13 81.4C13.2 81.4 13.3 81.4 13.4 81.3C13.7 81.4 14.1 81.4 14.4 81.3C15.4 81 15.5 80.1 15.4 79.3Z" fill="#C6C6C6"/>
<path d="M17.8 73.7C17.5 73 16.7 73.1 16.1 72.9C15.6 72.6 15 71.8 14.3 72.1C13.6 72.4 14.1 73.3 13.5 73.6C13.3 73.7 13.2 73.9 13.2 74.1C12.9 74.3 12.8 75 13.3 75.2C14 75.5 15 75.8 15.9 75.8C15.9 76.4 16.9 76.7 17 76C17.1 75.5 17.3 75.1 17.5 74.6C17.8 74.2 17.9 74 17.8 73.7Z" fill="#C6C6C6"/>
<path d="M19.7 68.9C19.5 68.8 19.3 68.9 19.2 68.9C19.1 68.8 19 68.7 18.9 68.6C18.7 68.4 18.3 68.1 18.2 67.7C17.9 67 16.9 67.3 17.1 67.9C16.8 67.9 16.4 68.2 16.6 68.6C16.9 69.4 17.5 69.9 18.3 70.2C18.6 70.3 19 70.5 19.4 70.4C19.5 70.4 19.5 70.3 19.6 70.3C19.8 70.3 20 70.3 20.2 70.1C20.5 69.8 20.2 69.1 19.7 68.9Z" fill="#C6C6C6"/>
<path d="M22 62.7C21.5 62.7 21.3 63.1 21 63.5C20.8 63.7 20.7 64 20.6 64.2C20.2 63.8 19.4 64.3 19.7 64.9C20.1 65.7 20.5 66.4 21.1 67.1C21.4 67.5 22.1 67.2 22.1 66.7C22 65.5 21.9 64.5 22.3 63.4C22.5 63.1 22.4 62.7 22 62.7Z" fill="#C6C6C6"/>
<path d="M40.4 60.3C40.1 59.7 39.5 59.9 38.9 60C38.8 60 38.6 60 38.5 60.1C38.3 60.1 38.1 60 37.9 60C37.3 60 36.7 60 36.1 59.8C36 59.8 35.9 59.8 35.8 59.8C35.4 59.2 34.4 59.8 34.8 60.4C35.3 61.1 35.7 61.2 36.6 61.3C37.1 61.3 37.6 61.3 38.1 61.3C38.2 61.3 38.4 61.3 38.6 61.3C39.1 61.4 39.6 61.4 40.1 61.3C40.4 61 40.6 60.6 40.4 60.3Z" fill="#C6C6C6"/>
<path d="M39.4 56.9C39.1 56.3 38.4 56.2 37.8 56.1C37.4 56 37 56 36.6 55.9C36.3 55.9 35.7 55.9 35.6 55.6C35.2 55.1 34.3 55.5 34.5 56.1C34.2 56.4 34.3 56.9 34.7 57.1C35.6 57.4 36.5 57.5 37.4 57.7C38 57.8 38.7 58.1 39.2 57.6C39.5 57.4 39.5 57.1 39.4 56.9Z" fill="#C6C6C6"/>
<path d="M62.8 74.1C63 73.5 62.8 72.8 62.8 72.2C62.8 72.1 62.8 72 62.8 72C62.7 71.7 62.4 71.5 62.1 71.6C62 71.2 61.8 70.8 61.4 70.7C61.2 70.7 61 70.7 60.9 70.8C60.6 70.5 59.9 70.7 60 71.2C60 71.9 59.9 72.6 59.6 73.2C59.4 73.6 59.6 73.9 59.9 74C60.1 74.1 60.2 74.1 60.4 74C60.5 74.2 60.8 74.3 61 74.2C61 74.4 61.1 74.7 61.4 74.7C61.5 74.7 61.7 74.7 61.8 74.7C61.8 74.8 62 74.8 62 74.8C62.7 75.3 63.2 74.5 62.8 74.1Z" fill="#C6C6C6"/>
<path d="M69.4 73.4C69.1 73.1 68.7 72.7 68.3 72.5C68.2 72.3 68.1 72.2 68 72C67.8 71.6 67.4 71.7 67.1 71.9C67 71.8 66.9 71.8 66.8 71.8C66.7 71.8 66.6 71.7 66.5 71.7C65.9 71.7 65.8 72.5 66.2 72.8C66.3 73.2 66.5 73.6 66.5 73.9C66.5 74.4 66.4 75.2 67.2 75.2C67.4 75.2 67.6 75.1 67.7 75C68 75.3 68.5 75.2 68.7 74.8C68.9 75 69.2 75.1 69.6 75.1C69.9 75.1 70.2 74.8 70.2 74.5C70.2 74.1 69.8 73.8 69.4 73.4Z" fill="#C6C6C6"/>
<path d="M74.5 69.4C73.8 69.5 73.1 69.2 72.4 69.2C71.9 69.1 71.4 69.2 71.2 69.7C71.2 69.8 71.2 69.8 71.1 69.9C70.8 70.1 70.7 70.8 71.3 70.9C71.9 71.1 72.5 71.3 73 71.5C73.2 71.6 73.3 71.8 73.5 72.1C73.8 72.8 74.8 72.2 74.5 71.5C74.5 71.4 74.5 71.4 74.5 71.3C74.5 71 74.3 70.6 74.7 70.5C75.2 70.4 75.1 69.3 74.5 69.4Z" fill="#C6C6C6"/>
<path d="M39.1 58C37.7 58.3 36.3 57.9 35 57.4C34.7 57.3 34.3 57.5 34.3 57.8C34.1 58.8 34.9 59.2 35.7 59.3C36.8 59.5 38.2 59.8 39.4 59.5C39.8 59.4 39.9 59.1 39.8 58.8C39.9 58.4 39.6 57.8 39.1 58Z" fill="#E30613"/>
<path d="M39.8 53.7C39 54 37.9 53.9 37.1 53.9C36.6 53.9 35.8 53.7 35.4 54.2C34.6 55.2 36 55.8 36.7 56C37.5 56.2 39.4 56.6 39.9 55.7C40.1 55.4 40.1 55.1 39.9 54.9C40.1 54.9 40.2 54.8 40.4 54.7C41.1 54.4 40.5 53.4 39.8 53.7Z" fill="#E30613"/>
<path d="M59.6 72.4V72.3C59.6 72.2 59.6 72.2 59.5 72.1C59.6 71.8 59.7 71.5 59.7 71.2C59.7 70.8 59.5 70.6 59.4 70.3C59.4 69.9 59.2 69.6 58.9 69.5C58.7 69.4 58.6 69.4 58.4 69.5C58.4 69.4 58.4 69.2 58.4 69.1C58.4 68.4 57.3 68.4 57.2 69.1C57.2 70 57.4 70.9 57.7 71.8C57.8 72.2 57.9 72.7 58.3 72.8C58.3 73 58.3 73.1 58.4 73.3C58.6 73.6 59 73.7 59.3 73.5C59.6 73.3 59.6 73 59.6 72.7C59.6 72.5 59.6 72.5 59.6 72.4Z" fill="#E30613"/>
<path d="M66.4 73.4C66.3 73.3 66.2 73.2 66.1 73.2C66.1 73 66 72.8 65.9 72.7C65.6 72.2 64.9 71.8 64.4 72.3L64.3 72.4C64.3 72.3 64.2 72.2 64.2 72.1C63.9 71.4 62.9 72 63.2 72.7C63.4 73.2 63.3 73.7 63.1 74.2C63 74.7 63.3 75.1 63.8 75.2C64 75.2 64.2 75.2 64.3 75.1C64.4 75.2 64.5 75.3 64.5 75.3C64.8 75.4 65 75.4 65.2 75.3C65.5 75.7 66.1 75.7 66.2 75.1C66.2 74.9 66.3 74.7 66.3 74.6C66.6 74.2 66.6 73.8 66.4 73.4Z" fill="#E30613"/>
<path d="M73.3 72.3C72.6 71.8 71.8 71.4 71 71C70.8 70.9 70.5 70.9 70.4 71.1C70.1 71 69.9 71 69.6 71.1C69.5 71.2 69.4 71.2 69.3 71.3C69.2 71.3 69.2 71.2 69.1 71.2C68.4 70.9 67.9 71.9 68.5 72.2C68.7 72.3 69 72.4 69.2 72.6C69.5 73.1 70 73.4 70.2 74V74.1V74.2C70.2 74.2 70.2 74.3 70.3 74.3C70.5 74.8 71.2 74.6 71.3 74.2C71.6 74.6 72.3 74.4 72.3 73.9C72.8 74 73.3 73.9 73.5 73.4C73.8 72.9 73.6 72.6 73.3 72.3Z" fill="#E30613"/>
<path d="M41.8 97.3C41.4 97.3 41.1 97.4 40.7 97.4C40.3 97.4 39.9 97.4 39.5 97.4C38.9 97.4 38.8 98.1 39.2 98.4C39.2 98.7 39.4 99 39.8 99C40.6 99 41.3 99.2 42.1 99.3C42.7 99.4 43 98.9 43 98.3C42.9 97.7 42.4 97.4 41.8 97.3Z" fill="#E30613"/>
<path d="M43 99.5C42.4 99.5 41.8 99.4 41.2 99.4C40.7 99.4 40.2 99.3 39.8 99.5C39.6 99.6 39.5 99.8 39.5 100C39.4 100.3 39.5 100.7 39.9 100.7C41 100.9 42.9 101.6 43.5 100.3C43.7 100 43.4 99.5 43 99.5Z" fill="#C6C6C6"/>
<path d="M49.2 64.5C44.4 64.3 39.6 64.5 34.8 65C34.8 64.7 34.6 64.5 34.2 64.5C33.2 64.5 32.2 64.6 31.2 64.6C30.4 64.6 29.6 64.6 28.9 64.9C27.6 65.5 27.1 66.8 27.3 68.1C27.3 68.3 27.5 68.4 27.6 68.5C27.5 68.8 27.5 69 27.4 69.3C26.8 71.8 27.1 74.5 26.7 77.1C26.6 77.8 27.7 78.1 27.8 77.4C28.2 75.1 28 72.8 28.3 70.6C28.5 69.5 28.7 68.1 29.5 67.3C30.4 66.5 32.1 66.6 33.2 66.4C38.5 65.8 43.8 65.6 49.1 65.8C50 65.7 50 64.5 49.2 64.5Z" fill="#A6C3D1"/>
<path d="M28.3 61.2C27 61.2 25.5 61.1 24.2 61.4C24 61.4 23.7 61.5 23.5 61.6C23.3 61.1 22.4 61.1 22.4 61.8C22.3 64.1 22.2 66.4 22.3 68.7C22.3 71 22.7 73.2 22.7 75.5C22.7 80 22.2 84.6 21.9 89.1C21.9 89.8 23 89.8 23.1 89.1C23.4 84.6 23.9 80 23.9 75.5C23.9 73.3 23.6 71.1 23.5 68.9C23.5 67.1 23.5 65.3 23.6 63.5C23.6 63.5 23.6 63.5 23.6 63.4C23.9 62.3 25 62.4 25.9 62.4C26.7 62.4 27.6 62.4 28.4 62.3C35 61.7 29.1 61.2 28.3 61.2Z" fill="#878787"/>
<path d="M59.1 93.2C59.1 93.1 59.1 93.1 59.1 93.2C59.3 91.6 58.7 89.7 58.3 88.2C57.8 86.3 58.1 84.3 58.3 82.4C58.4 81.7 56.8 71.4 57.1 82.4C57.2 83.9 56.7 85.5 56.9 87C57 88.5 57.7 89.9 57.8 91.3C57.9 92.1 58.2 93.1 57.4 93.6C56.9 94 56.3 94.2 55.7 94.5C54.3 95.1 52.7 95.4 51.2 95.7C44.2 97.2 50.5 96.9 51.2 96.9C52.9 96.7 54.5 96.3 56 95.7C56.4 95.5 56.8 95.4 57.2 95.1C57.2 95.3 57.4 95.6 57.7 95.5C58.3 95.5 58.9 95.2 59.2 94.7C59.7 94.3 59.6 93.6 59.1 93.2Z" fill="#878787"/>
<path d="M31.7 89.9C31.6 90.3 31.4 90.7 31.1 91C30.8 91.3 30.4 91.4 30.1 91.4C29.7 91.3 29.4 91 29.2 90.6C29 90.2 28.8 89.7 28.8 89.2C28.8 89 28.6 88.8 28.4 88.8C28.2 88.8 28 89 28 89.2C28 89.5 28.1 89.9 28.2 90.2C28.3 90.5 28.4 90.8 28.6 91C28.9 91.5 29.4 91.9 29.9 92C30.5 92.1 31.1 91.9 31.6 91.5C32.1 91.1 32.3 90.5 32.5 90C32.6 89.6 31.8 89.4 31.7 89.9Z" fill="#878787"/>
<path d="M46.9 89.1C46.7 89 46.5 89.1 46.4 89.2C46.2 89.5 46 89.9 45.8 90.2C45.6 90.5 45.2 90.6 44.8 90.8C44.4 91 43.9 91.1 43.4 91.2C42.9 91.3 42.4 91.2 41.9 91.2C40.9 91.2 39.9 91.2 38.9 91.2C38.3 91.2 36.8 91.2 36.8 90.3C36.8 89.8 36 89.8 36 90.3C36 91.2 36.8 91.7 37.5 91.8C38.4 92 39.3 91.9 40.2 91.9C41.1 91.9 42 91.9 42.9 91.9C43.8 91.9 44.6 91.7 45.3 91.3C45.7 91.1 46.1 90.9 46.3 90.5C46.5 90.2 46.7 89.8 46.9 89.5C47.2 89.5 47.1 89.2 46.9 89.1Z" fill="#878787"/>
<path d="M54.7 89.6C54.5 89.5 54.3 89.7 54.2 89.9C54.1 90.3 54.1 90.6 53.8 90.8C53.5 91 53.1 91.2 52.8 91.3C52.5 91.3 52.2 91.3 51.9 91C51.6 90.7 51.6 90.3 51.5 90C51.5 89.8 51.2 89.7 51 89.7C50.8 89.8 50.7 90 50.7 90.2C50.8 90.7 51 91.2 51.3 91.6C51.7 92 52.2 92.1 52.8 92.1C53.3 92 53.8 91.8 54.2 91.5C54.6 91.2 54.8 90.7 54.9 90.2C55 89.8 54.9 89.6 54.7 89.6Z" fill="#878787"/>
<path d="M30 30C28.9 30.1 27.8 30 26.8 30.2C26 30 25.2 30.3 24.5 30.6C23.7 30.9 23 31.1 22.2 31.4C21.5 31.7 21 32.2 20.3 32.6C19.7 33 19.1 33.6 19.3 34.4C19.3 34.5 19.3 34.5 19.4 34.5C19.4 34.6 19.3 34.7 19.3 34.8C19.1 35.3 18.9 35.8 18.8 36.2C18.7 36.4 18.7 36.7 18.6 36.9C18.6 37 18.5 37.2 18.5 37.3C18.4 37.6 18.4 37.9 18.4 38.2C18.3 38.5 18.3 38.8 18.1 39.1C18 39.3 18.1 39.4 18.3 39.5C18.2 40.4 18.2 41.4 18.3 42.3C18.4 43.3 18.4 44.4 18.6 45.4C18.6 45.4 18.6 45.4 18.6 45.5C18.5 45.6 18.5 45.7 18.5 45.8C18.2 45.7 17.8 45.9 18 46.3C18.2 47.1 18.5 47.8 18.7 48.6C18.9 49.3 19.1 50 19.6 50.6C20 51.2 20.6 51.6 21.1 52.1C21.6 52.5 22.1 53 22.7 53.3C23.4 53.7 24.1 53.9 24.8 54C25.2 54 25.3 53.4 24.9 53.2C22.9 52.6 21.6 50.9 20.9 49.1C20 47.1 19.6 44.8 19.5 42.6C19.4 40.4 19.7 38.2 20.3 36.2C20.9 34.4 22 32.8 23.8 31.9C25.7 30.9 27.9 30.8 30 30.7C37.4 30.4 30.5 29.9 30 30Z" fill="#878787"/>
<path d="M56.8 49.9C57 49.6 57.1 49.2 57.1 48.8V48.7C57.2 48.3 57.2 47.8 57 47.5C57 47.5 57 47.4 57.1 47.3C57.2 46.5 57.2 45.7 57.1 45C57.1 44.2 56.9 43.5 56.7 42.7C56.7 42.6 56.6 42.5 56.5 42.5C56.5 41.9 56.6 41.3 56.6 40.8C56.6 40.6 56.5 40.5 56.3 40.4C56.4 39.7 56.4 39 56.5 38.3C56.5 38.1 55.9 35.7 55.7 35.7C55.5 35.7 55.7 38.1 55.7 38.3C55.4 40.7 55.3 43.1 55.4 45.4C55.4 46 55.4 46.6 55.5 47.2C55.5 47.7 55.6 48.3 55.5 48.8C55.3 49.8 54.6 50.4 53.8 50.9C52.7 51.5 51.6 52 50.4 52.4C49.9 52.5 50.1 53.3 50.6 53.1C51.4 52.9 52.2 52.5 53 52.2C53 52.3 53.1 52.4 53.3 52.4C54 52.6 54.8 52.4 55.4 52C55.8 51.8 56.1 51.5 56.5 51.2C56.8 51 57.1 50.8 57.2 50.5C57.3 50.1 57.1 49.9 56.8 49.9Z" fill="#878787"/>
<path d="M15.2 79.1C15.2 78.9 14.9 78.8 14.7 78.8C14.5 78.9 14.4 79.1 14.4 79.3C14.4 79.4 14.4 79.4 14.4 79.5C14.4 79.6 14.3 79.8 14.3 79.9C14.2 80.2 14.1 80.4 14 80.7C13.9 80.9 14.1 81.1 14.3 81.2C14.5 81.2 14.7 81.1 14.8 80.9C14.9 80.6 15 80.3 15.1 80.1C15.2 79.8 15.3 79.5 15.2 79.1Z" fill="#878787"/>
<path d="M17.6 73.2C17.5 73.1 17.2 73 17.1 73.2C16.6 73.8 16.1 74.5 15.9 75.3C15.9 75.5 16 75.7 16.2 75.8C16.4 75.8 16.6 75.7 16.7 75.5C16.7 75.4 16.7 75.3 16.8 75.2V75.1C16.8 75.1 16.8 75.1 16.8 75C16.9 74.8 17 74.7 17.1 74.5C17.2 74.4 17.3 74.2 17.4 74.1L17.5 74C17.6 73.9 17.6 73.9 17.7 73.8C17.8 73.6 17.8 73.3 17.6 73.2Z" fill="#878787"/>
<path d="M20.1 68.9C19.9 68.8 19.7 68.9 19.6 69C19.4 69.2 19.3 69.5 19.1 69.7C19 69.8 18.9 69.9 18.8 70C18.7 70.1 18.7 70.2 18.7 70.3C18.7 70.4 18.7 70.5 18.8 70.6C18.9 70.7 19 70.7 19.1 70.7C19.2 70.7 19.3 70.7 19.4 70.6C19.7 70.2 20 69.8 20.3 69.4C20.3 69.3 20.2 69 20.1 68.9Z" fill="#878787"/>
<path d="M22.2 66.4C22.2 66.4 22.2 66.3 22.1 66.3C22 66.2 21.9 66.2 21.8 66.2C21.7 66.2 21.6 66.2 21.5 66.3C21.4 66.5 21.2 66.6 21.1 66.8C21 66.9 21 67 21 67.1C21 67.2 21 67.2 21 67.2C21 67.2 21 67.3 21.1 67.3C21.2 67.4 21.3 67.4 21.4 67.4C21.5 67.4 21.6 67.4 21.7 67.3C21.8 67.1 22 67 22.1 66.8C22.2 66.7 22.2 66.6 22.2 66.5C22.3 66.5 22.2 66.4 22.2 66.4Z" fill="#878787"/>
<path d="M16.1 75.8C15.9 75.8 15.7 75.9 15.6 76.1C15.3 76.9 15 77.8 14.7 78.6C14.6 78.8 14.8 79 15 79.1C15.2 79.2 15.4 79 15.5 78.8C15.8 78 16.2 77.1 16.4 76.3C16.5 76.1 16.3 75.8 16.1 75.8Z" fill="#C00D0D"/>
<path d="M18.9 70.6C18.7 70.5 18.5 70.4 18.4 70.6C17.9 71.1 17.5 71.7 17.2 72.3C17.1 72.5 17.1 72.7 17.3 72.8C17.5 72.9 17.7 72.9 17.8 72.7C17.9 72.4 18.1 72.1 18.3 71.9C18.3 71.8 18.4 71.8 18.4 71.7L18.5 71.6C18.6 71.5 18.7 71.3 18.8 71.2C19.1 71 19.1 70.8 18.9 70.6Z" fill="#C00D0D"/>
<path d="M21.3 67.4C21.3 67.3 21.2 67.2 21.1 67.2C21 67.2 20.9 67.1 20.8 67.2C20.7 67.2 20.6 67.3 20.6 67.4C20.5 67.6 20.3 67.8 20.1 68C20 68.1 19.9 68.2 19.8 68.3C19.7 68.4 19.6 68.7 19.8 68.8C20 68.9 20.2 69 20.3 68.8C20.6 68.5 20.9 68.1 21.2 67.7C21.3 67.6 21.3 67.5 21.3 67.4Z" fill="#C00D0D"/>
<path d="M59.7 72.5C59.6 72.3 59.4 72.2 59.2 72.1C59.1 72.1 58.9 72 58.8 72C58.8 72 58.8 72 58.7 72C58.6 72 58.6 71.9 58.5 71.9C58.5 71.9 58.4 71.9 58.4 71.8C58.3 71.8 58.3 71.7 58.3 71.6C58.2 71.5 58.1 71.3 57.9 71.2C57.8 71.1 57.7 71.1 57.6 71.2C57.5 71.2 57.4 71.3 57.4 71.4C57.4 71.5 57.3 71.6 57.4 71.7C57.4 71.8 57.5 71.9 57.6 71.9C57.5 71.8 57.6 71.9 57.6 71.9C57.6 71.9 57.6 72 57.7 72C57.7 72 57.8 72.1 57.8 72.2C57.7 72.3 57.7 72.5 57.9 72.6C58.1 72.8 58.4 73 58.6 73.2C58.8 73.3 58.9 73.4 59.1 73.4C59.3 73.4 59.5 73.3 59.6 73.1C59.7 72.8 59.7 72.6 59.7 72.5Z" fill="#C00D0D"/>
<path d="M66.5 74.6C66.5 74.5 66.6 74.4 66.5 74.3C66.5 73.6 65.6 73.7 65.2 73.7C64.7 73.7 64.1 73.6 63.6 73.4C63.4 73.4 63.2 73.5 63.1 73.7C63.1 73.9 63.2 74.1 63.3 74.2C63 74.4 63 74.8 63.4 75C63.7 75.1 64 75.2 64.3 75.3C65 75.4 65.7 75.5 66.4 75.4C66.6 75.4 66.8 75.2 66.8 75C66.8 74.8 66.7 74.7 66.5 74.6Z" fill="#C00D0D"/>
<path d="M73.3 72C73.2 72 73.1 72 73 72C72.9 71.9 72.8 71.8 72.6 71.8C72.6 71.7 72.6 71.6 72.5 71.5C72.4 71.4 72.1 71.3 72 71.5C71.4 72.2 70.5 72.6 69.9 73.3C69.7 73.5 69.8 73.9 70.1 74C70 74.3 70.2 74.5 70.5 74.6C70.7 74.6 71 74.6 71.3 74.5C71.8 74.4 72.2 74.1 72.6 73.8C73 73.5 73.5 73.1 73.6 72.5C73.6 72.3 73.5 72.1 73.3 72Z" fill="#C00D0D"/>
<path d="M40.4 54.1C40.4 54 40.3 53.9 40.2 53.9C40.1 53.9 40 53.8 39.9 53.9C39.8 53.8 39.6 53.8 39.5 53.9C39.4 53.9 39.4 54 39.3 54C39.2 53.9 38.9 53.9 38.8 54C38.3 54.6 37.9 55.3 37.8 56C37.8 56.2 38 56.4 38.2 56.4C38.4 56.4 38.5 56.3 38.6 56.1C38.6 56.1 38.6 56.1 38.7 56.1C38.8 56.1 38.9 56.1 38.9 56.1C38.9 56.2 39 56.2 39.1 56.3C39.2 56.3 39.3 56.3 39.4 56.3C39.5 56.2 39.5 56.2 39.6 56.1C39.6 56 39.7 55.9 39.7 55.9C39.7 55.9 39.7 55.8 39.8 55.8C39.9 55.7 39.9 55.5 40 55.4C40.1 55.1 40.3 54.9 40.4 54.6C40.4 54.3 40.4 54.2 40.4 54.1Z" fill="#C00D0D"/>
<path d="M39.5 59C39.5 58.8 39.5 58.6 39.4 58.4C39.4 58.3 39.3 58.2 39.2 58.1C39.1 58 38.9 57.9 38.7 58C38.6 58.1 38.5 58.2 38.4 58.3C38.3 58.3 38.2 58.3 38.1 58.3C38 58.1 37.7 58.1 37.6 58.2C37.4 58.3 37.4 58.5 37.5 58.7C37.6 58.9 37.7 59.2 37.8 59.4C37.9 59.6 38.1 59.9 38.3 59.9C38.5 60 38.8 59.8 38.8 59.6C39 59.6 39.1 59.6 39.2 59.4V59.3C39.4 59.3 39.5 59.1 39.5 59Z" fill="#C00D0D"/>
<path d="M62.9 74.2C62.8 74.2 62.8 74.1 62.7 74.1C62.8 74 62.9 73.9 62.9 73.8C62.9 73.6 62.7 73.4 62.5 73.4C62.1 73.4 61.7 73.2 61.3 73.1C61.1 73 60.9 72.9 60.7 72.8C60.5 72.7 60.2 72.6 59.9 72.6C59.7 72.7 59.6 72.8 59.6 73C59.6 73.2 59.6 73.3 59.7 73.5C59.7 73.7 59.7 73.8 59.9 73.9C60.7 74.5 61.7 74.9 62.7 75.1C62.9 75.1 63.2 75 63.2 74.7C63.2 74.4 63.1 74.3 62.9 74.2Z" fill="#878787"/>
<path d="M70.1 74.5C70.1 74.4 70 74.4 70 74.3C70.1 74 70 73.7 69.8 73.6C69.5 73.4 69.2 73.5 68.9 73.6C68.3 73.7 67.7 73.8 67.1 73.7C66.9 73.7 66.7 73.9 66.7 74.1C66.7 74.3 66.8 74.4 67 74.5C66.9 74.7 66.9 74.9 67 75.1C67.2 75.4 67.6 75.4 67.9 75.4C68.2 75.4 68.6 75.3 68.9 75.3C69.2 75.2 69.6 75.2 69.9 75.1C70.1 74.9 70.2 74.7 70.1 74.5Z" fill="#878787"/>
<path d="M74.8 69.6C74.8 69.4 74.6 69.2 74.4 69.2C74.2 69.2 74 69.4 74 69.6C73.9 69.5 73.8 69.5 73.7 69.5C73.5 69.4 73.3 69.6 73.2 69.8C73.2 69.8 73.2 69.8 73.2 69.9V70C73.2 70.1 73.1 70.1 73.1 70.2C73 70.3 73 70.5 72.9 70.6C72.9 70.7 72.8 70.7 72.8 70.8C72.8 70.8 72.8 70.9 72.7 70.9C72.6 71 72.5 71.1 72.4 71.2C72.3 71.3 72.3 71.6 72.4 71.7C72.5 71.8 72.7 71.9 72.9 71.8C72.9 71.8 73 71.8 73 71.7C73 71.8 73.1 71.9 73.1 72C73.2 72.1 73.4 72.2 73.5 72.1L73.6 72.2C73.7 72.2 73.8 72.3 73.9 72.2C74 72.2 74.1 72.1 74.1 72C74.2 71.9 74.2 71.8 74.2 71.6C74.2 71.5 74.2 71.5 74.2 71.4C74.4 71.2 74.5 71 74.6 70.8C74.8 70.4 74.8 70 74.8 69.6Z" fill="#878787"/>
<path d="M39.4 56.8C39.4 56.7 39.4 56.6 39.3 56.5C39.2 56.4 39.1 56.4 39 56.4C38.9 56.4 38.8 56.4 38.7 56.5L38.6 56.4C38.5 56.4 38.5 56.4 38.4 56.3C38.3 56.3 38.2 56.3 38.1 56.4C38 56.3 37.9 56.2 37.8 56.2C37.6 56.2 37.4 56.4 37.4 56.6V57V57.1C37.4 57.2 37.4 57.2 37.4 57.3V57.7C37.4 57.9 37.6 58.1 37.8 58.1C37.9 58.1 37.9 58.1 38 58.1C38.1 58.1 38.3 58.1 38.4 58L38.5 57.9C38.6 57.9 38.6 58 38.7 58C38.8 58 39 58.1 39.1 58C39.3 57.9 39.4 57.8 39.5 57.6C39.4 57.2 39.5 57 39.4 56.8Z" fill="#878787"/>
<path d="M43.6 100.7C43.5 100.4 43.3 100.1 43.2 99.7C43.2 99.6 43.1 99.5 43 99.5C42.9 99.5 42.8 99.4 42.7 99.5C42.6 99.5 42.5 99.6 42.5 99.7H42.4C42.3 99.7 42.2 99.8 42.2 99.9C42.2 100 42.2 100 42.2 100.1C42.2 100.2 42.2 100.3 42.3 100.4V100.5C42.3 100.6 42.3 100.7 42.4 100.8C42.4 100.9 42.5 101 42.6 101.1C42.8 101.3 43 101.3 43.2 101.2C43.3 101.2 43.4 101.3 43.5 101.2C43.6 101.2 43.7 101.1 43.7 101C43.6 100.9 43.6 100.7 43.6 100.7Z" fill="#878787"/>
<path d="M43 99C43 98.9 42.9 98.8 42.9 98.8V98.7C42.8 98.5 42.8 98.4 42.7 98.3C42.6 98.2 42.6 98.1 42.5 98L42.4 97.9C42.4 97.7 42.2 97.5 42 97.6C42 97.6 42 97.6 41.9 97.6C41.8 97.6 41.8 97.6 41.7 97.6C41.5 97.6 41.4 97.8 41.4 98C41.4 98.2 41.4 98.3 41.5 98.5C41.5 98.7 41.6 98.8 41.7 98.9C41.7 99 41.8 99.1 41.8 99.2C41.8 99.4 42 99.5 42.2 99.5C42.3 99.5 42.4 99.6 42.5 99.6C42.7 99.6 42.8 99.6 42.9 99.5C43.1 99.3 43.1 99.1 43 99Z" fill="#C00D0D"/>
<path d="M27.7 104.7C28.2 105 28.7 105.3 29.2 105.5C29.1 105.2 29 104.8 29 104.5C28.8 103.5 28.7 102.3 29.3 101.4C29.4 101.2 29.6 101 29.8 100.9C30.1 100.8 30.4 100.8 30.7 100.9C31.4 101 32.1 101.1 32.9 101.2C33.1 101.2 36.8 101.6 36.8 101.4C36.8 101.2 33.1 100.5 32.9 100.5C32.2 100.4 31.5 100.3 30.8 100.2C30.5 100.2 30.3 100.1 30 100.2C30 100 29.9 99.8 29.6 99.8C29.3 99.8 28.9 99.8 28.6 99.8C28.3 99.8 28 99.8 27.8 100C27.6 100.2 27.5 100.5 27.5 100.8C27.4 101.1 27.4 101.4 27.3 101.7C27.2 102.5 27.4 103.4 27.6 104.2C27.7 104.3 27.7 104.5 27.7 104.7Z" fill="#575756"/>
<path d="M55.3 99.7C55.1 99.6 54.8 99.6 54.5 99.7C54.1 99.8 53.7 100 53.3 100.2C53.1 100.3 53 100.4 53 100.5C52.8 100.4 52.5 100.3 52.2 100.3C51.9 100.3 51.6 100.4 51.4 100.2C51 100 50.6 100.6 51 100.9C51.4 101.1 51.9 101 52.4 101.1C52.8 101.1 53 101.4 53 101.8C53.2 102.7 52.7 103.7 52.3 104.5C51.8 105.5 51.3 106.6 50.7 107.6C50.4 108.1 50.2 108.6 49.9 109.1C49.7 109.5 49.5 110 49.1 110.3C48.4 111 47.4 111.3 46.4 111.6C45.9 111.7 46.1 112.5 46.6 112.3C47.6 112 48.6 111.7 49.4 111C49.6 110.8 49.8 110.6 49.9 110.4C50.1 110.6 50.4 110.6 50.5 110.4C51.2 109.4 51.9 108.4 52.6 107.4C53.2 106.5 53.8 105.6 54.1 104.5C54.2 104.3 54.1 104.1 53.9 104.1C54.1 103.8 54.2 103.5 54.3 103.2V103.1C54.8 102.4 55.1 101.7 55.2 100.9V100.8C55.3 100.7 55.4 100.5 55.4 100.3C55.7 100.1 55.6 99.8 55.3 99.7Z" fill="#575756"/>
<path d="M10.2 87.4C10.2 87.1 10.2 86.7 10.2 86.4C10.2 86.2 10.2 86 10.1 85.7C10.2 85.5 10.2 85.4 10.3 85.2L10.4 85.1C10.5 85 10.5 84.9 10.5 84.8C10.9 84.5 11.4 84.5 11.8 84.4C12.3 84.4 12.9 84.5 13.4 84.8C13.6 84.9 13.8 85.1 14 85.3C14.2 85.5 14.2 85.8 14.2 86.1C14.3 86.7 14.4 87.4 14.5 88C14.5 88.2 14.6 88.4 14.7 88.6C14.5 88.6 14.3 88.8 14.3 89C14.3 89.8 15.1 90.2 15.8 90C16.4 89.8 17.2 89.3 17.2 88.6C17.2 88.2 16.7 88.1 16.5 88.4C16.3 88.7 15.6 88.6 15.4 88.4C15.2 88.3 15.3 87.9 15.2 87.8C15.1 87.5 15.1 87.2 15 86.8C14.9 86.2 14.9 85.6 14.6 85.1C14.4 84.6 13.9 84.3 13.4 84.1C12.4 83.7 11.2 83.6 10.3 84C9.80003 84.2 9.50003 84.6 9.30003 85C9.30003 85.1 9.30003 85.1 9.30003 85.2C9.20003 85.3 9.10002 85.5 9.00002 85.6C8.90002 85.7 8.90002 85.8 8.90002 85.9C9.40002 86.4 9.70002 86.9 10.2 87.4Z" fill="#575756"/>
<path d="M79.7 65C79.9 64.5 80 63.9 80.1 63.4C80.2 62.9 79.5 62.7 79.4 63.2C79.1 64.2 78.6 65.2 78.1 66.1C77.9 66.5 77.6 66.9 77.2 67.1C76.8 67.3 76.3 67.5 75.8 67.6C74.1 68.1 72 67.7 70.9 66.2C70.3 65.3 70.1 64.2 69.9 63.1C69.9 62.9 69.6 62.8 69.4 62.8C69.2 62.9 69.1 63.1 69.1 63.3C69.2 64 69.4 64.7 69.6 65.4C69.4 65.5 69.3 65.7 69.4 65.9C69.5 66.7 70.1 67.4 70.7 67.8C71.4 68.3 72.3 68.7 73.1 68.9C74.9 69.3 76.8 69 78.2 67.8C79 67.2 79.5 66.3 80.1 65.5C80.4 65.2 80 64.9 79.7 65Z" fill="#575756"/>
<path d="M39.1 15C39.2 14.8 39.2 14.6 39.1 14.4C39.1 14.3 39.1 14.3 39 14.2C39 14.1 39 14 39 13.8C39 13.8 39 13.8 39 13.7V13.6C39 13.3 38.7 13.1 38.4 13.1C38.4 13 38.3 12.8 38.2 12.8C38 12.7 37.8 12.7 37.7 12.9C37.6 12.9 37.5 12.8 37.4 12.8C37.2 12.7 36.9 12.7 36.7 12.7C36.2 12.8 36.1 13.3 36.1 13.8C36.1 13.9 36.1 13.9 36.1 14C36.1 14.1 36.1 14.2 36.2 14.2C36.2 14.6 36.2 15.1 36 15.5C35.9 15.8 36.2 16.1 36.4 15.9C36.4 16.1 36.5 16.4 36.8 16.4C37 16.5 37.2 16.4 37.4 16.3C37.8 16.2 38.1 16 38.4 15.8C38.5 15.9 38.7 15.9 38.8 15.9C39 15.9 39.1 15.8 39.1 15.6C39.1 15.6 39.1 15.3 39.1 15Z" fill="#E30613"/>
<path d="M18.3 48.9C20 43.3 15.8 35.1 22.3 31.5C25 30 28.3 30.1 31.4 30.2C35.4 30.3 39.4 30.7 43.3 31.3C45 31.6 46.8 31.9 48.5 32.2C50.2 32.5 51.9 32.8 53.5 33.7C56.8 35.5 56.4 39.9 56.6 43.1C56.7 44.9 56.9 46.8 56.9 48.6C56.9 49.7 56.7 50.7 55.6 51.3C54.9 51.7 54 51.8 53.2 51.9C49.2 52.5 45.2 53 41.1 53.2C36.7 53.5 32.3 53.6 27.9 53.5C24.1 53.4 19.6 52.6 18.8 48.2C18.7 47.8 17.9 47.8 18 48.3C18.4 51.6 21.2 53.6 24.2 54.1C26.1 54.4 28.1 54.4 30.1 54.4C32.5 54.4 34.8 54.3 37.2 54.2C41.8 54 46.3 53.3 50.9 53C52.6 52.9 54.7 52.8 56.2 51.9C57.5 51.1 57.8 49.7 57.8 48.3C57.8 46.1 57.6 44 57.4 41.8C57.2 39.9 57.2 37.7 56.5 35.9C55.4 32.9 52 32.3 49.2 31.6C44.9 30.6 40.4 30.1 36 29.8C32.3 29.5 28.3 29.2 24.7 30C21.2 30.7 18.5 32.9 17.7 36.5C17.3 38.4 17.4 40.3 17.5 42.2C17.7 44.4 17.8 46.6 18 48.8C17.9 49.1 18.2 49.2 18.3 48.9Z" fill="black"/>
<path d="M22.8 61.6C31.3 62 39.8 61.7 48.3 61.8C50.3 61.8 53.2 61.4 54.8 62.8C56.1 64 56.4 66.1 56.6 67.8C57 71.9 57.4 76 57.7 80C58.1 84.8 58.6 89.5 59 94.3C59.1 95.1 60.3 95.1 60.3 94.3C59.4 85.3 58.8 76.3 57.6 67.4C57.2 64 55.9 61.1 52.1 60.8C47.6 60.5 43 60.7 38.5 60.8C33.3 60.9 28 61 22.8 61.1C22.5 61.2 22.5 61.6 22.8 61.6Z" fill="black"/>
<path d="M22.2 62.3C21.1 72 21.5 82.1 21.9 91.9C22 93.4 21.7 95.5 23.2 96.3C24 96.7 24.9 96.7 25.8 96.8C26.9 97 28.1 97.1 29.2 97.3C33.9 97.8 38.7 98 43.5 97.8C48.8 97.6 54 96.8 59.2 95.8C59.9 95.7 59.6 94.6 58.9 94.7C50.4 96.8 41.5 97.2 32.8 96.5C30.6 96.3 28.3 96.1 26.1 95.7C25.1 95.5 23.6 95.5 23.2 94.3C22.9 93.3 23.1 91.8 23 90.8C22.8 86.4 22.7 81.9 22.7 77.5C22.7 72.4 22.8 67.3 22.5 62.2C22.5 62.1 22.2 62.1 22.2 62.3Z" fill="black"/>
<path d="M57.2 67.9C58.5 70.9 61.9 72.2 65 72.4C66.5 72.5 68.1 72.2 69.6 71.5C70.8 71 71.6 70.1 71.8 68.8C72 68.1 70.8 67.7 70.7 68.5C70.5 69.6 69.8 70.2 68.8 70.6C67.5 71.1 66.1 71.4 64.7 71.3C62.2 71.1 58.9 69.9 57.6 67.6C57.5 67.4 57.1 67.6 57.2 67.9Z" fill="black"/>
<path d="M56.9 71.3C56.7 73.1 59.5 74.5 60.8 75.1C62.8 75.9 65 76.2 67.1 76.1C69.2 76 71.4 75.6 73.1 74.4C74.7 73.2 75.5 71.4 75.9 69.4C76 68.7 75 68.4 74.8 69.1C74.3 70.8 73.9 72.3 72.4 73.4C70.9 74.5 68.8 74.8 67 75C65.2 75.1 63.4 74.9 61.8 74.4C60.2 73.9 58.1 72.8 57.4 71.2C57.3 70.8 56.9 71 56.9 71.3Z" fill="black"/>
<path d="M21.6 62.5C20.1 63.5 18.8 64.8 17.7 66.2C16.5 67.7 15.2 69.2 14.1 70.9C12 74 10.2 77.8 10.8 81.7C10.9 82.3 11.9 82.2 11.9 81.6C11.8 77.8 13.1 74.5 15.2 71.4C16.2 69.9 17.2 68.5 18.3 67.1C19.4 65.7 20.5 64.3 22 63.2C22.3 62.8 22 62.2 21.6 62.5Z" fill="black"/>
<path d="M22 66.5C20.1 68.6 18.6 70.9 17.3 73.5C16.1 76 15 78.7 14.5 81.5C14.3 82.2 15.4 82.6 15.6 81.8C16.3 79.1 17.1 76.5 18.3 73.9C19.5 71.4 20.8 69 22.3 66.7C22.4 66.6 22.2 66.4 22 66.5Z" fill="black"/>
<path d="M10.6 86C10.9 85.2 11.7 84.8 12.5 85C13.4 85.2 13.6 86.2 13.6 87C13.6 87.9 13.3 88.8 13.5 89.6C13.7 90.5 14.6 91.1 15.5 90.9C17.2 90.6 18 88.9 18.2 87.3C18.3 86.4 18.2 85.6 18.1 84.7C17.9 83.7 17.6 82.8 16.9 82.1C15.5 80.7 13.2 80.7 11.3 80.8C10.5 80.8 10.5 82.1 11.3 82C12.8 81.9 14.6 81.8 15.8 82.8C17 83.8 17.2 85.8 17.1 87.3C17 88 16.8 88.7 16.4 89.2C16 89.6 15 90.2 14.7 89.4C14.5 88.7 14.8 87.8 14.8 87.1C14.8 86.3 14.6 85.4 14.1 84.8C12.9 83.3 10.3 83.7 9.50001 85.4C9.30001 86.1 10.3 86.7 10.6 86Z" fill="black"/>
<path d="M11.4 81.5C10.1 81.1 8.70002 81.7 7.80002 82.5C7.60002 82.7 7.60002 83 7.80002 83.2C8.00002 83.4 8.30002 83.4 8.50002 83.2C8.90002 82.9 9.30002 82.6 9.80002 82.4C10.3 82.2 10.8 82.2 11.4 82.2C11.8 82.2 11.8 81.6 11.4 81.5Z" fill="black"/>
<path d="M27.3 36.5C32.1 36.6 36.9 36.7 41.7 36.9C44 37 46.3 37.2 48.4 38.1C49.5 38.6 50.6 39.2 51 40.4C51.4 41.6 51.4 43 51.4 44.3C51.4 45.4 51.4 46.5 51.3 47.6C51.3 47.8 51.3 48.4 51.2 48.6C51 49 50.3 49 49.9 49.1C49.3 49.2 48.6 49.2 47.9 49.2C45.4 49.3 42.9 49.5 40.5 49.6C38 49.7 35.5 49.8 33.1 49.9C31.9 49.9 30.8 50 29.6 50C28.9 50 28.3 50 27.6 50.1C27 50.1 26.2 50.3 25.6 50.2C24.5 49.9 24.8 47.1 24.8 46.1C24.8 44.8 24.8 43.6 25 42.3C25.3 40.2 25.9 38 28 37C28.3 36.8 28.1 36.3 27.8 36.4C25.9 36.8 25 38.6 24.5 40.3C23.7 42.7 23.8 45.6 24 48.1C24.1 48.9 24 50.3 24.7 50.8C25.4 51.4 26.9 51.1 27.7 51C30.8 50.9 34 50.7 37.1 50.6C40.2 50.5 43.4 50.4 46.5 50.3C47.9 50.3 49.4 50.4 50.8 50.2C51.7 50.1 52.2 49.5 52.3 48.6C52.5 47.3 52.5 45.9 52.4 44.6C52.3 43.2 52.3 41.8 51.9 40.5C51.3 38.3 48.9 37.3 46.9 36.8C44 36 40.9 36.2 38 36.2C34.4 36.2 30.8 36.3 27.2 36.3C27.2 36.2 27.2 36.5 27.3 36.5Z" fill="black"/>
<path d="M28.8 99.9C33.1 101.2 37.6 101.6 42.1 101.6C44.4 101.6 46.7 101.5 49 101.2C50.9 101 53.3 100.9 55 100C55.3 99.9 55.1 99.4 54.8 99.4C52.7 99.3 50.6 100.1 48.5 100.3C46.4 100.5 44.2 100.7 42 100.7C37.6 100.7 33.2 100 28.9 99.3C28.6 99.4 28.4 99.8 28.8 99.9Z" fill="black"/>
<path d="M27.6 103C27.6 102.8 27.5 102.7 27.5 102.5V102.4C27.5 102.2 27.5 102.5 27.5 102.3C27.5 102.2 27.5 102.1 27.5 102C27.5 101.8 27.5 101.6 27.5 101.5C27.5 101.4 27.5 101.3 27.5 101.3V101.2C27.5 101.3 27.5 101.2 27.5 101.2C27.5 101 27.6 100.9 27.6 100.7C27.6 100.7 27.7 100.6 27.6 100.7V100.6C27.6 100.5 27.7 100.5 27.7 100.4C27.7 100.4 27.8 100.3 27.7 100.4L27.8 100.3L27.9 100.2C27.8 100.3 27.9 100.2 27.9 100.2C28 100.2 28 100.1 28.1 100.1C28 100.1 28.1 100.1 28.1 100.1C28.1 100.1 28.2 100.1 28.2 100C28.4 99.9 28.4 99.7 28.4 99.6C28.4 99.4 28.2 99.3 28 99.3C27.8 99.3 27.5 99.4 27.3 99.5C27.1 99.6 27 99.7 26.9 99.9C26.6 100.2 26.5 100.6 26.4 101C26.2 101.8 26.3 102.7 26.5 103.5C26.6 103.8 26.9 103.9 27.1 103.9C27.5 103.5 27.7 103.2 27.6 103Z" fill="black"/>
<path d="M55.2 99.6C55.6 99.8 55.2 100.8 55.1 101.1C54.9 101.7 54.7 102.3 54.5 102.9C54.1 104.1 53.6 105.3 53 106.4C52.1 108.3 50.9 110.4 48.9 111.2C48.3 111.5 48.5 112.5 49.2 112.3C51.8 111.2 53.2 108.6 54.3 106.1C54.7 105.2 57.5 99.2 55.4 99.2C55.2 99.2 55.1 99.5 55.2 99.6Z" fill="black"/>
<path d="M35.8 53.7C34.8 54.9 34.1 56.3 34 57.9C33.9 59.3 34.2 61 35.4 61.8C35.9 62.2 36.4 61.3 35.9 61C35.4 60.7 35.2 60.2 35.1 59.7C35 59.1 34.9 58.4 34.9 57.8C34.9 56.5 35.4 55.2 36.2 54.1C36.3 53.7 35.9 53.5 35.8 53.7Z" fill="black"/>
<path d="M40.7 53.5C40.4 53.8 40.1 54 39.9 54.3C39.7 54.6 39.5 55 39.4 55.3C39.1 55.9 39 56.6 39 57.3C39 58 39.2 58.7 39.4 59.3C39.7 60 40.1 60.8 40.6 61.3C41 61.7 41.6 61.2 41.3 60.7C41.1 60.4 40.9 60.1 40.7 59.8C40.5 59.5 40.4 59.2 40.2 58.9C40 58.3 39.8 57.7 39.8 57.1C39.7 55.8 40.3 54.6 41 53.6C41.3 53.6 40.9 53.3 40.7 53.5Z" fill="black"/>
<path d="M27.9 64.9C31 65 34.1 65 37.2 65C39.4 65 41.6 65 43.9 65C45.9 65 48 64.9 50 65.2C51.5 65.5 52.2 66.5 52.5 67.9C52.8 69.6 52.9 71.3 53.1 72.9C53.3 74.4 53.4 76 53.6 77.6C53.7 78.3 53.9 79.4 53.3 79.9C52.8 80.4 51.9 80.4 51.3 80.4C44.7 80.9 38 81.2 31.3 81.5C30.4 81.5 29.4 81.6 28.8 80.7C28.4 80.2 28.3 79.4 28.2 78.8C27.9 77 27.8 75.2 27.7 73.3C27.6 71.6 27.7 69.8 27.8 68.1C27.9 67.3 27.9 66 28.4 65.4C28.8 64.9 29.5 64.9 30.1 64.9C30.7 64.8 30.5 63.9 30 63.9C29.1 63.8 28.1 63.8 27.5 64.6C26.6 65.8 26.5 67.5 26.4 68.9C26.3 70.9 26.3 72.8 26.5 74.8C26.6 76.5 26.7 78.4 27.2 80C27.5 81 28.1 82 29.1 82.5C30.6 83.1 32.7 82.6 34.3 82.5C38.5 82.3 42.6 82 46.8 81.7C48.6 81.6 50.3 81.6 52.1 81.4C53.2 81.3 54.2 80.9 54.7 79.9C55.3 78.5 54.8 76.5 54.6 75C54.4 73 54.1 71 53.8 69C53.4 66.3 52.4 64.2 49.4 64C46.9 63.8 44.4 63.9 41.9 63.9C37.3 63.9 32.5 63.6 27.9 64.3C27.6 64.6 27.7 64.9 27.9 64.9Z" fill="black"/>
<path d="M37.1 88.5C38.7 88.4 40.3 88.2 41.9 87.9C42.7 87.8 43.4 87.6 44.2 87.6C44.7 87.5 45.5 87.5 45.9 87.9C46.4 88.3 46.2 89 45.8 89.5C45.3 90.1 44.6 90.3 43.9 90.3C42.4 90.5 40.8 90.4 39.2 90.5C38.5 90.5 37.4 90.8 36.9 90.3C36.6 90.1 36.5 89.7 36.7 89.3C36.9 88.9 37.3 88.8 37.7 88.7C37.9 88.6 38 88.3 37.8 88.2C37.1 87.8 36.3 88.4 36 89C35.7 89.7 35.9 90.5 36.5 90.9C37.2 91.5 38.2 91.3 39.1 91.3C40.2 91.3 41.4 91.2 42.5 91.2C44.1 91.1 46.3 91.1 46.9 89.3C47.1 88.6 47 87.9 46.5 87.4C45.9 86.9 45.1 86.8 44.4 86.8C43.3 86.9 42.1 87.1 41 87.3C39.7 87.5 38.4 87.8 37.2 88C36.8 88.1 36.9 88.5 37.1 88.5Z" fill="black"/>
<path d="M29.6 87.6C30.3 87.6 31 88 31.4 88.6C31.7 89.1 31.7 89.8 31.4 90.3C31.2 90.5 31 90.7 30.8 90.7C30.6 90.8 30.2 90.8 30 90.7C29.4 90.5 29.1 89.8 29.1 89.2C29.1 88.8 29.3 88.5 29.5 88.1C29.7 87.7 30 87.5 30.4 87.3C30.6 87.2 30.5 86.8 30.2 86.9C29.7 87 29.4 87.4 29 87.7C28.7 88 28.5 88.5 28.4 88.9C28.3 89.8 28.7 90.7 29.4 91.1C29.8 91.3 30.2 91.5 30.6 91.5C31.1 91.5 31.5 91.3 31.8 91C32.4 90.3 32.6 89.3 32.2 88.5C31.7 87.5 30.6 87 29.6 87.1C29.3 87.2 29.3 87.6 29.6 87.6Z" fill="black"/>
<path d="M42.2 97.3C42.3 98 42.4 98.6 42.7 99.3C42.8 99.6 43 99.9 43.1 100.2C43.3 100.5 43.4 101 43.8 101.2C44 101.3 44.2 101.2 44.3 101C44.4 100.7 44.4 100.5 44.2 100.3C44.1 100.1 44.1 100 44 99.9C43.9 99.6 43.7 99.3 43.6 99.1C43.3 98.5 43.1 98 42.9 97.4C42.8 97.2 42.7 97.1 42.5 97.1C42.3 97 42.1 97.1 42.2 97.3Z" fill="black"/>
<path d="M38.5 98C38.7 98.5 38.9 99 38.9 99.6C38.9 99.6 38.9 99.7 38.9 99.6V99.7C38.9 99.8 38.9 99.8 38.9 99.9C38.9 100 38.9 100.2 38.9 100.3C38.9 100.7 38.9 101.1 39.2 101.4C39.4 101.6 39.7 101.5 39.9 101.3C40.1 101 40 100.6 40 100.2C40 99.9 39.9 99.6 39.9 99.2C39.8 98.6 39.5 98 39.2 97.5C38.8 97.2 38.2 97.5 38.5 98Z" fill="black"/>
<path d="M74.8 69.2C76.2 69.7 77.9 69.1 79 68.1C80.2 67 80.8 65.3 80.7 63.6C80.6 62.7 80.4 61.9 80.1 61.1C79.7 60.2 78.9 60 78 60C77.2 59.9 76.4 60.1 75.9 60.8C75.3 61.6 75.7 62.3 76.1 63.1C76.8 64.4 75.8 66.1 74.2 65.7C72.4 65.1 73.4 62.7 73.5 61.5C73.6 60.7 73.2 59.9 72.5 59.6C71.8 59.3 70.9 59.5 70.3 60C69.1 60.8 68.7 62.3 68.5 63.7C68.3 65.4 68.5 67.5 70 68.7C71.4 69.8 73.2 70 74.9 70.1C75.7 70.1 75.7 68.9 74.9 68.9C73.7 68.8 72.3 68.7 71.2 68.1C69.9 67.4 69.7 66 69.7 64.6C69.7 63.5 69.8 62.1 70.7 61.3C71 61 71.9 60.5 72.3 61C72.7 61.5 72.3 62.5 72.2 63C72 64.3 72 65.8 73.2 66.6C74.2 67.3 75.6 67.3 76.6 66.5C77.6 65.7 77.8 64.3 77.4 63.1C77.2 62.5 76.4 61.8 77.3 61.4C77.6 61.3 78 61.3 78.4 61.4C78.9 61.4 79.2 61.5 79.4 62C80.1 63.6 80.2 65.5 79.2 67C78.3 68.4 76.8 69 75.2 68.8C74.6 68.5 74.4 69.1 74.8 69.2Z" fill="black"/>
<path d="M39.6 32.6C38.5 31.7 37 30.8 36.3 29.5C35.4 27.9 35.9 26.4 37.5 25.6C38.2 25.2 39.4 24.8 40.1 25.4C40.8 25.9 40.5 26.8 39.7 26.8C38.2 26.9 36.4 26.3 35.2 25.4C34.6 24.9 34 24.3 34 23.5C34.1 22.7 34.7 21.9 35.3 21.4C35.8 21 37.4 20.4 37.4 21.6C37.4 22.3 35.8 22.4 35.3 22.5C31.4 22.8 32.9 17.2 35.5 16.4C36.2 16.2 35.9 15.2 35.2 15.3C32.1 16 30.1 21.8 33.7 23.1C35 23.6 37.9 23.7 38.4 22.1C39 20.3 37 19.2 35.5 19.8C33.9 20.4 32.5 22.6 33 24.4C33.6 26.2 35.8 27.2 37.5 27.6C38.9 28 41.6 28.3 41.6 26.1C41.6 24.2 39.6 23.6 38 24C35.9 24.6 34.3 26.2 34.7 28.5C35.1 30.9 37.2 32.1 39.2 33C39.6 33.2 39.8 32.8 39.6 32.6Z" fill="black"/>
<path d="M37.3 13.3C37.6 13.2 38 13.3 38.3 13.5C38.6 13.7 38.8 13.9 38.9 14.2C39.1 14.5 39.1 14.8 39.1 15.1C39.1 15 39.1 15.2 39.1 15.2C39.1 15.3 39.1 15.3 39.1 15.4C39.1 15.4 39.1 15.5 39.1 15.4C39.1 15.5 39 15.6 39 15.6C39 15.6 38.9 15.7 39 15.6L38.9 15.7C38.8 15.8 38.8 15.8 38.7 15.9C38.6 16 38.8 15.8 38.7 15.9C38.7 15.9 38.6 15.9 38.6 16C38.4 16.1 38.4 16.1 38.2 16.2C38.1 16.2 38 16.3 37.9 16.3C37.9 16.3 37.7 16.3 37.8 16.3C37.6 16.3 37.4 16.3 37.2 16.3H37.1C37 16.3 37.2 16.3 37 16.3C36.9 16.3 36.8 16.3 36.8 16.2C36.8 16.2 36.7 16.1 36.8 16.2C36.8 16.2 36.7 16.1 36.8 16.2C36.8 16.2 36.8 16.1 36.7 16.1C36.7 16.2 36.7 16 36.7 16C36.6 15.6 36.5 15.2 36.6 14.8C36.6 14.8 36.6 14.6 36.6 14.7C36.6 14.6 36.6 14.6 36.6 14.5C36.6 14.4 36.7 14.3 36.7 14.2C36.7 14.3 36.7 14.2 36.7 14.2C36.7 14.1 36.8 14.1 36.8 14C36.8 14 36.8 13.9 36.9 13.9C36.8 14 36.9 13.9 36.9 13.9C37 13.8 37.1 13.8 37.1 13.7L37.2 13.6C37.1 13.7 37.2 13.6 37.3 13.6C37.3 13.6 37.4 13.6 37.4 13.5C37.4 13.5 37.6 13.4 37.5 13.5C37.7 13.4 37.8 13.4 37.9 13.3C38.1 13.1 38 12.8 37.8 12.6C37.3 12.2 36.5 12.6 36.2 12.9C35.8 13.3 35.5 13.8 35.4 14.3C35.3 14.9 35.3 15.6 35.5 16.2C35.7 16.8 36 17.3 36.7 17.4C37.7 17.6 38.9 17.5 39.7 16.9C40.6 16.2 40.9 14.9 40.4 13.9C40.1 13.4 39.7 12.9 39.1 12.8C38.6 12.7 38 12.7 37.5 12.9C36.8 12.9 36.9 13.3 37.3 13.3Z" fill="black"/>
<path d="M31.1 40C31.3 39.8 31.4 39.7 31.6 39.6C31.3 39.5 31.1 39.5 30.8 39.4C31.2 40 31.6 40.6 31.7 41.3C31.8 42 31.8 42.7 31.5 43.3C31.5 43.4 31.4 43.5 31.3 43.7C31.3 43.7 31.1 44 31.1 44.1C31.1 44.1 31.3 44 31.3 44.1C31.3 44.1 31.2 43.9 31.3 44.1C31.3 44 31.2 44 31.1 43.9C31 43.8 30.9 43.6 30.9 43.5C30.6 42.8 30.7 42 30.7 41.2C30.7 40.8 30.7 40.5 30.9 40.1C31 39.8 31.1 39.5 31.4 39.5C31.3 39.5 31.2 39.5 31 39.5L30.8 39.3L30.9 39.5C31 39.7 31.1 39.8 31.1 40C31.2 40.2 31.2 40.5 31.2 40.8C31.2 41.4 31.2 42 31.1 42.6C31.1 42.7 31 42.9 31 43V43.1C31.2 43.1 31.4 43 31.6 43L31.7 43.1C31.6 43.1 31.7 43 31.7 43C31.7 42.9 31.7 42.9 31.6 42.8C31.6 42.6 31.5 42.5 31.5 42.3C31.4 41.7 31.5 41.1 31.7 40.6C31.2 40.6 30.7 40.6 30.3 40.6C30.6 41.5 30.6 42.4 30.4 43.3C30.3 43.7 30.5 44.1 30.9 44.2C31.3 44.3 31.7 44.1 31.8 43.7C32.1 42.5 32.1 41.3 31.7 40.2C31.5 39.5 30.5 39.5 30.3 40.2C30 41.2 30 42.3 30.3 43.4C30.5 43.9 30.8 44.4 31.4 44.4C32 44.4 32.4 43.9 32.5 43.4C32.8 42.4 32.9 41.4 32.7 40.3C32.6 39.8 32.5 39.3 32.3 38.9C32.2 38.6 32.1 38.4 31.8 38.3C31.5 38.1 31.1 38.2 30.8 38.3C30 38.7 29.7 39.6 29.6 40.4C29.5 41.2 29.4 42.1 29.6 43C29.7 43.9 30.1 45 30.9 45.4C32 46 32.7 44.8 33.1 43.9C33.7 42.2 33.4 39.8 31.8 38.7C31.5 38.5 31.1 38.7 31 39C30.9 39.2 30.8 39.4 30.7 39.5C30.2 39.9 30.8 40.3 31.1 40Z" fill="black"/>
<path d="M43.7 38.9C44.1 39.2 44.1 39.8 44.1 40.2C44.1 41 43.9 41.7 44.1 42.5C44.2 42.8 44.3 43.1 44.3 43.4C44.3 43.5 44.2 43.8 44.1 43.8C44.2 43.8 44.1 43.8 44 43.8C43.9 43.8 43.9 43.7 43.9 43.6C43.7 43.3 43.7 43 43.7 42.7C43.6 42.1 43.6 41.4 43.7 40.7C43.7 40.4 43.8 40 44 39.7C44 39.6 44.1 39.5 44.1 39.4C44.1 39.4 44.1 39.4 44.1 39.3L43.7 39.2L43.9 39.6C44 39.7 44 39.8 44.1 40C44.2 40.3 44.3 40.6 44.3 40.8C44.4 41.4 44.3 42 44.2 42.6C44.2 42.7 44.1 42.8 44.1 42.9C44 43.1 44 42.9 44.1 43C44.2 43 44.3 43 44.3 43.1C44.3 43.1 44.3 43 44.3 43.1C44.3 43.1 44.2 42.9 44.3 43C44.3 42.8 44.3 42.6 44.3 42.4C44.3 41.6 44.5 40.8 44.8 40.1C44.3 40.1 43.9 40.1 43.4 40.1C43.5 40.4 43.6 40.8 43.7 41.2C43.7 41.4 43.7 41.6 43.7 41.8C43.7 41.9 43.7 42 43.7 42.1C43.7 42.3 43.7 42.1 43.8 42C43.9 41.9 44 41.9 44.1 41.8C44.1 41.8 44.1 41.8 44 41.8C44.2 41.8 44.3 41.8 44.5 41.9C44.5 41.9 44.5 41.9 44.4 41.9C44.5 42 44.6 42.1 44.6 42.1C44.6 42.3 44.6 42.4 44.7 42.6C44.9 42 44.1 41.5 43.6 42C43.2 42.4 43.4 43.1 44 43.2C44.6 43.3 44.9 42.9 45 42.4C45.1 41.5 45.1 40.7 44.7 39.8C44.4 39.1 43.6 39.1 43.3 39.8C42.9 40.8 42.8 41.8 42.8 42.9C42.8 43.4 42.9 43.9 43.3 44.2C43.7 44.6 44.3 44.6 44.7 44.3C45.5 43.8 45.7 42.5 45.8 41.6C45.8 40.6 45.6 39.7 45.1 38.8C44.8 38.3 44.4 37.9 43.8 38C43.2 38.1 42.9 38.6 42.7 39.1C42.3 40 42.3 41 42.4 42C42.5 43 42.5 44.2 43.4 44.8C44.3 45.4 45.3 44.8 45.5 43.8C45.6 43.2 45.5 42.7 45.3 42.1C45.2 41.5 45.3 41 45.3 40.4C45.3 39.4 45 38.4 44 38.1C43.6 38.1 43.3 38.7 43.7 38.9Z" fill="black"/>
<path d="M45.5 34.7C45.8 34.6 46.2 34.7 46.5 34.7C46.9 34.8 47.2 34.8 47.6 34.9C47.9 35 48.3 35.1 48.6 35.2H48.7C48.7 35.2 48.6 35.2 48.7 35.2C48.8 35.2 48.8 35.3 48.9 35.3C49 35.3 49 35.4 49 35.4C48.9 35.3 49 35.4 49.1 35.5C49 35.4 49.2 35.6 49.3 35.7C49.4 35.8 49.5 35.8 49.6 35.9C49.9 36 50.1 35.9 50.3 35.6C50.5 35.2 50.3 34.7 50 34.5C49.5 34.1 48.7 33.9 48.1 33.8C47.7 33.7 47.2 33.7 46.8 33.7C46.4 33.7 45.9 33.8 45.5 34C44.8 34.1 45 34.7 45.5 34.7Z" fill="black"/>
<path d="M30 33.3C29.6 33.2 29.1 33.1 28.6 33.1C28.1 33.1 27.7 33.1 27.2 33.2C26.5 33.4 25.4 33.9 25.5 34.7C25.5 35.1 25.9 35.2 26.2 35C26.3 35 26.3 34.9 26.3 34.9C26.4 34.8 26.4 34.8 26.4 34.8C26.4 34.8 26.4 34.7 26.5 34.7C26.6 34.6 26.7 34.5 26.8 34.5C27.1 34.3 27.3 34.2 27.6 34.2C27.9 34.1 28.3 34.1 28.7 34.1C29.1 34.1 29.5 34.1 29.9 34C30.2 33.9 30.3 33.4 30 33.3Z" fill="black"/>
<path d="M35.7 46.4C35.9 47 36.3 47.5 36.9 47.9C37.5 48.3 38.2 48.4 38.9 48.3C39.5 48.2 40.1 47.9 40.6 47.4C40.8 47.2 41 46.9 41.2 46.6C41.4 46.3 41.5 45.9 41.5 45.6C41.4 45.3 41 45.2 40.8 45.4C40.6 45.6 40.6 45.9 40.5 46.1C40.4 46.3 40.3 46.5 40.1 46.6C39.8 46.9 39.4 47.2 38.9 47.3C38 47.5 36.9 46.9 36.4 46.2C36 45.9 35.5 46.1 35.7 46.4Z" fill="black"/>
<path d="M35.1 55.6C35.4 55.8 35.7 56.1 36 56.3C36.4 56.5 36.7 56.6 37.1 56.7C37.5 56.8 37.9 56.8 38.3 56.8C38.7 56.8 39.1 56.8 39.5 56.6C39.9 56.4 39.8 55.9 39.3 55.9C38.9 55.9 38.6 56 38.3 56C38 56 37.6 56 37.3 55.9C36.6 55.8 35.9 55.5 35.3 55.2C35.1 55.1 34.9 55.4 35.1 55.6Z" fill="black"/>
<path d="M34.3 57.1C34.6 57.4 34.9 57.6 35.3 57.8C35.7 58 36 58.1 36.4 58.2C37.2 58.4 38.1 58.5 38.9 58.3C39.3 58.2 39.3 57.4 38.8 57.5C38.1 57.6 37.4 57.6 36.7 57.5C36 57.4 35.3 57.1 34.6 56.8C34.3 56.7 34.1 56.9 34.3 57.1Z" fill="black"/>
<path d="M34.5 59.2C35.5 59.8 36.7 60 37.8 60.1C38.3 60.2 38.9 60.3 39.3 60.1C39.5 60 39.7 59.9 39.8 59.7C39.9 59.5 39.9 59.2 39.7 59C39.6 58.9 39.4 58.9 39.3 59C39.2 59.1 39.2 59.2 39.1 59.2C39 59.3 38.8 59.2 38.6 59.2C38.2 59.2 37.7 59.2 37.3 59.1C36.4 59 35.5 58.7 34.7 58.5C34.4 58.7 34.2 59.1 34.5 59.2Z" fill="black"/>
<path d="M39.4 99.4C39.7 99.5 39.9 99.6 40.2 99.7C40.5 99.8 40.8 99.8 41.1 99.8C41.4 99.8 41.7 99.8 41.9 99.8C42.2 99.8 42.6 99.8 42.8 99.6C43 99.4 43 99.1 42.7 99C42.4 98.9 42.1 99 41.9 99C41.6 99 41.4 99 41.1 99C40.8 99 40.6 98.9 40.3 98.9C40 98.9 39.8 98.9 39.5 98.8C39.2 98.8 39 99.3 39.4 99.4Z" fill="black"/>
<path d="M52 87.6C52.7 87.6 53.4 88 53.8 88.6C54.1 89.1 54.1 89.8 53.8 90.3C53.6 90.5 53.4 90.7 53.2 90.7C53 90.8 52.6 90.8 52.4 90.7C51.8 90.5 51.5 89.8 51.5 89.2C51.5 88.8 51.7 88.5 51.9 88.1C52.1 87.7 52.4 87.5 52.8 87.3C53 87.2 52.9 86.8 52.6 86.9C52.1 87 51.8 87.4 51.4 87.7C51.1 88 50.9 88.5 50.8 88.9C50.7 89.8 51.1 90.7 51.8 91.1C52.2 91.3 52.6 91.5 53 91.5C53.5 91.5 53.9 91.3 54.2 91C54.8 90.3 55 89.3 54.6 88.5C54.1 87.5 53 87 52 87.1C51.7 87.1 51.7 87.6 52 87.6Z" fill="black"/>
<path d="M19.7 64.5C19.5 65.2 19.6 66 20 66.6C20.2 66.9 20.4 67.2 20.7 67.4C21 67.6 21.5 68 21.8 67.8C22 67.7 22 67.5 21.9 67.4C21.8 67.2 21.6 67.2 21.5 67.1C21.4 67 21.3 67 21.1 66.9C20.9 66.7 20.7 66.5 20.5 66.2C20.2 65.7 20 65.1 20 64.5C20.1 64.4 19.8 64.3 19.7 64.5Z" fill="black"/>
<path d="M17.7 66.9C17.7 67.1 17.8 67.4 17.8 67.6C17.9 67.8 18 68.1 18.2 68.3C18.4 68.5 18.5 68.7 18.7 68.8C18.9 68.9 19.1 69 19.3 69.1C19.4 69.1 19.5 69.2 19.6 69.2C19.7 69.2 19.9 69.2 20 69.2C20.1 69.2 20.2 69.1 20.2 69C20.2 68.9 20 68.8 19.9 68.8C19.7 68.7 19.5 68.6 19.3 68.5C19.4 68.6 19.3 68.5 19.3 68.5L19.2 68.4C19.1 68.3 19 68.2 19 68.2C18.9 68.1 18.8 68 18.8 67.9C18.9 68 18.8 67.9 18.8 67.9C18.8 67.9 18.8 67.8 18.7 67.8C18.7 67.7 18.6 67.7 18.6 67.6C18.5 67.5 18.5 67.4 18.4 67.3C18.4 67.2 18.3 67.2 18.3 67.1C18.3 67 18.3 67.2 18.3 67.1V67C18.3 66.9 18.1 66.8 18 66.8C17.8 66.6 17.7 66.7 17.7 66.9Z" fill="black"/>
<path d="M16.3 69.2C16.6 69.7 17 70.1 17.4 70.4C17.6 70.6 17.9 70.7 18.1 70.8C18.2 70.8 18.4 70.9 18.5 70.9C18.6 70.9 18.7 70.9 18.8 70.9C18.8 70.9 19 70.9 18.9 70.9C19 70.9 19 70.9 19 70.8C19.1 70.7 19.1 70.6 19.1 70.5C19.1 70.4 19 70.4 19 70.4C19 70.4 19 70.5 19.1 70.5C19 70.3 18.9 70.3 18.7 70.2C18.6 70.2 18.5 70.1 18.4 70.1C18.2 70 18 69.9 17.7 69.8C17.3 69.6 16.9 69.3 16.6 68.9C16.5 68.7 16.2 69 16.3 69.2Z" fill="black"/>
<path d="M14.2 71.8C14.7 72.3 15.3 72.8 15.9 73.1C16.2 73.2 16.6 73.3 16.9 73.4C17.2 73.5 17.7 73.6 18 73.4C18.2 73.3 18.2 73 18 72.9C17.8 72.8 17.7 72.8 17.5 72.8C17.4 72.8 17.2 72.8 17.1 72.8C16.8 72.7 16.5 72.7 16.2 72.5C15.6 72.3 15.1 72 14.6 71.5C14.3 71.2 14 71.6 14.2 71.8Z" fill="black"/>
<path d="M12.5 75.2C13.1 75.7 13.8 76.1 14.7 76.2C15.1 76.2 15.5 76.2 15.9 76.2C16.3 76.1 16.7 76 16.9 75.7C17 75.6 16.9 75.5 16.8 75.5C16.5 75.4 16.2 75.4 15.8 75.4C15.5 75.4 15.1 75.4 14.8 75.3C14.1 75.2 13.5 75 12.9 74.7C12.5 74.5 12.2 74.9 12.5 75.2Z" fill="black"/>
<path d="M11.7 78.4C12.1 78.8 12.6 79.1 13.2 79.2C13.5 79.3 13.8 79.3 14 79.3C14.3 79.3 14.7 79.3 14.9 79.1C15 79 14.9 78.9 14.9 78.8C14.7 78.6 14.4 78.7 14.2 78.6C13.9 78.6 13.7 78.5 13.5 78.5C13 78.4 12.6 78.2 12.1 77.9C11.8 77.9 11.5 78.2 11.7 78.4Z" fill="black"/>
<path d="M59.3 70.4C59.3 70.7 59.4 71 59.4 71.2C59.4 71.5 59.4 71.7 59.4 72C59.4 72.3 59.4 72.5 59.4 72.8C59.4 73.1 59.3 73.4 59.3 73.7C59.3 74.1 59.8 74.3 60 73.9C60.2 73.6 60.2 73.3 60.2 72.9C60.2 72.6 60.2 72.3 60.2 72C60.2 71.7 60.2 71.4 60.1 71.1C60 70.8 59.9 70.5 59.8 70.2C59.8 69.9 59.3 70.1 59.3 70.4Z" fill="black"/>
<path d="M62.6 71.9C62.7 72.4 62.7 72.9 62.7 73.3C62.7 73.5 62.7 73.8 62.7 74C62.7 74.3 62.7 74.5 62.7 74.8C62.8 75.1 63.1 75.1 63.3 74.9C63.5 74.6 63.5 74.3 63.5 74C63.5 73.7 63.5 73.5 63.5 73.2C63.5 72.7 63.3 72.1 63 71.6C63 71.5 62.8 71.5 62.7 71.5C62.6 71.6 62.6 71.7 62.6 71.9Z" fill="black"/>
<path d="M65.6 72.4C65.9 72.9 66 73.4 66.2 73.9C66.3 74.1 66.3 74.4 66.3 74.6C66.3 74.9 66.3 75.1 66.3 75.4C66.3 75.5 66.4 75.7 66.5 75.7C66.6 75.7 66.7 75.8 66.8 75.7C66.9 75.7 67 75.6 67.1 75.4C67.2 74.8 67.1 74.1 66.9 73.5C66.7 72.9 66.4 72.4 65.9 72C65.8 72 65.5 72.2 65.6 72.4Z" fill="black"/>
<path d="M67.9 72.4C68.4 72.7 68.9 73.2 69.3 73.6C69.5 73.8 69.7 74.1 69.8 74.3C69.9 74.4 69.9 74.6 70 74.7C70.1 74.9 70.2 75.1 70.3 75.1C70.5 75.2 70.7 75.1 70.8 74.9C70.9 74.7 70.8 74.5 70.7 74.3C70.6 74.1 70.6 74 70.5 73.8C70.3 73.5 70.1 73.2 69.9 72.9C69.4 72.4 68.8 72 68.2 71.8C67.8 71.9 67.7 72.2 67.9 72.4Z" fill="black"/>
<path d="M70.4 71.1C70.9 71.2 71.5 71.4 71.9 71.6C72.1 71.7 72.4 71.9 72.6 72C72.8 72.2 73 72.3 73.2 72.5C73.4 72.7 73.7 73.1 74 72.8C74.2 72.5 73.9 72.2 73.7 72C73.5 71.8 73.3 71.6 73 71.4C72.8 71.2 72.5 71.1 72.2 71C71.6 70.8 71 70.7 70.3 70.7C70.2 70.7 70.2 71.1 70.4 71.1Z" fill="black"/>
<path d="M40.2 67.5C38.8 67.2 37.2 67.4 35.8 67.6C35.1 67.7 34.3 67.8 33.6 67.9C33 68 32.3 68.1 31.8 68.5C31.3 68.9 31.1 69.4 31.1 70C31 70.7 31 71.5 31 72.2C31 73.8 31 75.3 31.2 76.8C31.2 77.1 31.7 77.4 31.9 77.1C33.4 75.3 32.1 72.7 33.4 70.8C34 70 34.9 69.4 35.9 69.1C37.1 68.7 38.3 68.7 39.6 68.6C39.9 68.6 42 68 42 68C43 67.6 40.6 67.6 40.2 67.5Z" fill="white"/>
<path d="M57.3 112.6C88.1175 112.6 113.1 87.6175 113.1 56.8C113.1 25.9825 88.1175 1 57.3 1C26.4825 1 1.5 25.9825 1.5 56.8C1.5 87.6175 26.4825 112.6 57.3 112.6Z" stroke="black" stroke-width="2" stroke-miterlimit="10"/>
</svg>
