<svg width="115" height="115" viewBox="0 0 115 115" fill="none" xmlns="http://www.w3.org/2000/svg">
<path d="M57.1 113.3C87.9175 113.3 112.9 88.3175 112.9 57.5C112.9 26.6825 87.9175 1.7 57.1 1.7C26.2825 1.7 1.29999 26.6825 1.29999 57.5C1.29999 88.3175 26.2825 113.3 57.1 113.3Z" fill="#F59D0F"/>
<path opacity="0.46" d="M52.4 100.3C78.9649 100.3 100.5 78.7649 100.5 52.2C100.5 25.6351 78.9649 4.10001 52.4 4.10001C25.8351 4.10001 4.29999 25.6351 4.29999 52.2C4.29999 78.7649 25.8351 100.3 52.4 100.3Z" fill="white"/>
<path d="M73.5 33.5C73.2 32.3 71.9 32.3 71.2 32.9C71.1 32.3 70.9 31.8 70.7 31.3C70 29.6 68.8 28.1 68.6 26.2C68.4 24.8 66.8 24.3 66 25.5C65.2 26.6 64.1 26.1 62.9 26.2C62.3 26.3 60.9 27.1 60.1 27C59.8 26.2 58.8 25.8 58.1 26.2C56.8 27 55.3 27.4 53.8 27.7C53.1 27.8 52.4 27.9 51.6 28.1C51.4 28.1 51.2 28.2 51 28.2C50.9 27.5 50.2 26.8 49.3 26.9C47.7 27.1 46 27.4 44.4 27.6C43.6 27.7 43.3 28.7 43.4 29.3C43.6 30 43.6 30.8 43.6 31.5C43.1 31.9 42.9 32.7 43.2 33.3C43 33.5 42.8 33.7 42.7 34C42.7 34 42.7 34 42.7 34.1C41.1 33.8 39.1 35.1 39.7 37.1C40 38.3 40.2 39.7 41.1 40.6C41.7 41.2 42.5 41.4 43.3 41.3C43.1 41.9 43.1 42.5 43.3 43.2C43.1 44.6 42.7 46.1 43.8 47.2C44.5 48 45.6 48.7 46.5 49.3C48.7 50.8 51.6 50.8 54.1 51.2C54.6 51.3 55.1 51.3 55.6 51.4C55.4 51.7 55.2 52.1 55.2 52.5C55.2 53.4 55 54.3 54.9 55.2C54.8 55.4 54.6 55.7 54.5 56C54.1 56.1 54.2 56.6 53.8 56.8C53.4 57 53.1 57.1 52.9 57.5C52.9 57.5 53 57.3 52.6 57.3C51.2 57.5 51.2 59.5 52.6 59.5C52.6 59.5 52.6 59.5 52.7 59.5V59.6C53.1 60.9 54.2 61.5 55.4 61.5C56.7 62 58.3 62 59.7 61.7C61.5 61.2 62.5 59.6 61.9 57.8C61.7 57.1 61.2 56.6 60.6 56.1C60.3 55.8 59.6 55.4 59.5 54.9C59.4 54.6 59.2 54.4 59.1 54.1C59.1 53.5 59.2 52.9 59.2 52.3C59.2 51.9 59.1 51.5 59 51.2C59.9 51.2 60.9 51 61.8 50.8C63 50.5 64.2 50 65.2 49.2C66 48.5 66.5 47.4 67.4 46.9C68.6 46.3 68.8 45.2 68.5 44.2C69 43.3 69.4 42.2 69.5 41.2C69.7 40.9 69.9 40.5 69.9 40.1C70.3 39.4 70.6 38.6 70.7 37.7C71.4 38.4 72.3 39 73.3 38.3C75 37.6 73.8 34.9 73.5 33.5Z" fill="#FFFCE5"/>
<path d="M73.2 30.7C72.7 29.2 72.4 27.7 71.5 26.3C70.8 25.2 70.2 23.6 69.2 22.8C68.3 22.1 67.2 21.9 66.1 22C65.9 21.8 65.6 21.6 65.3 21.5C64 21.2 62.2 22.1 61 22.5C60.9 22.5 60.9 22.4 60.8 22.4C59.8 22.1 58.4 22.6 58.1 23.7C58.1 23.9 58 24 58.1 24.2C57.6 24.6 57.1 24.9 56.5 25.2C55.9 25.3 55.4 25.4 54.8 25.6C54.8 25.2 54.4 24.9 54 24.9C53.7 24.9 53.4 25 53.1 25C53 24.8 52.9 24.6 52.6 24.4C52.2 24.2 51.8 24 51.4 23.8C51.4 23.4 51.2 23 50.6 22.9C48.9 22.6 47.2 22.5 45.5 22.7C44.6 22.8 43.2 23.1 42.9 24.1C42.5 24.2 42.2 24.4 42 24.8C41.8 24.9 41.7 25 41.5 25.2C39.8 27.6 39.6 30.2 39.7 33.1C39.8 33.9 40.9 34.7 41.6 33.9C41.6 33.9 42.5 33.8 42.8 33.6C43.5 33 43.3 32.2 43.3 31.4C43.3 29.9 43.8 28.4 44 27C45.8 27.7 49.3 27.5 50.5 27C50.6 27.2 50.7 27.3 50.8 27.4C50.7 27.4 50.7 27.4 50.6 27.5C49.9 27.8 50.3 28.9 51 28.9C51.7 28.9 52.3 28.7 52.9 28.3C53.1 28.2 53.4 28.2 53.6 28.1C54.4 27.9 55.1 27.6 55.8 27.3C56.2 27.1 56.6 26.9 56.9 26.7C57.6 26.6 58.3 26.5 58.9 26.3C59.4 26.1 59.5 25.6 59.4 25.2C59.6 25.1 59.8 24.9 59.9 24.7C60 25 60.1 25.2 60.2 25.5C60.1 25.7 60.1 25.9 60.1 26V26.1V26.2V26.3C60.1 26.3 60.1 26.4 60 26.4L59.9 26.5C59.9 26.5 59.8 26.5 59.8 26.6H59.7C59.5 26.6 59.3 26.8 59.2 27C59.1 27.2 59.1 27.4 59.1 27.6C59.2 28 59.6 28.2 60.1 28.1C60.6 28 61 27.7 61.2 27.3C61.3 27.3 61.5 27.3 61.6 27.3C61.8 27.2 62 27.1 62.1 26.9V26.8C63.1 26.9 63.8 26.4 64.5 25.9C65.3 26.2 66.2 25.9 66.5 25.1C66.7 25.1 66.9 25.1 67 25.2C67.5 25.5 67.7 26.3 68 26.8C68.5 27.6 69 28.2 69.3 29C69.6 29.8 69.8 30.6 70.1 31.5C70.8 33.5 73.8 32.7 73.2 30.7Z" fill="#D16315"/>
<path d="M74 13.2C73.7 12.8 72.9 12.7 72.5 13C70.4 14.5 67.4 15 64.9 15.7C64.4 15.8 64 16 63.5 16.1C60.6 16.1 57.8 16.1 54.9 16.1C54.1 16.1 53.7 16.7 53.7 17.4C51.9 17.4 50 17.3 48.2 16.9C46.2 16.5 42.1 16.7 41.2 14.4C40.7 13 38.5 13.5 38.7 14.8C37.4 14.7 36.9 16.9 38.3 17.2C39.1 17.4 39.9 17.7 40.7 18.1C41.1 18.3 41.6 18.3 41.9 18.1C42.8 18.4 43.7 18.6 44.7 18.8C46.3 19 47.8 19.4 49.4 19.7C51.1 19.9 52.9 19.8 54.6 19.8C56.1 19.9 57.6 20 59.1 19.7C60.5 19.5 61.9 19.1 63.3 18.6C64.9 18.5 66.4 18.4 67.9 18.1C68.9 17.9 69.9 17.6 70.9 17.4C71.7 17.2 72.7 17.1 73.5 16.7C75.4 15.9 74.9 14.3 74 13.2Z" fill="#282727"/>
<path d="M68.5 11.7C68.4 11.7 68.3 11.8 68.2 11.8C68.3 11.3 68.2 10.8 67.7 10.4C67.2 9.99999 66.6 9.89999 66 9.89999C66 9.79999 65.9 9.70001 65.8 9.60001C65.1 8.90001 64.2 8.59999 63.2 8.39999C63.1 8.29999 63 8.2 62.9 8.2C57.9 5.9 52.1 6.8 47.9 10.2C47.1 10.5 46.4 10.9 45.6 11.3C45.1 11.6 45 12 45 12.5C44.8 12.5 44.7 12.5 44.5 12.4C43.6 12.3 43 12.8 43 13.5C41.9 14 42.1 15.9 43.5 15.9C43.7 15.9 43.9 15.9 44.1 15.9C44.2 16 44.4 16.1 44.6 16.2C45.9 16.7 47.4 16.8 48.9 16.7C48.9 16.7 48.9 16.7 49 16.7C51 17 53 16.8 54.9 16.2C59.9 16.1 65.2 15.8 69.8 13.9C71.2 13.2 69.9 11.1 68.5 11.7Z" fill="white"/>
<path d="M74.2 56.7C73.6 55.5 72.4 54.7 72.4 53.3C72.4 51.6 72.9 49.8 73.1 48.1C73.3 46.5 73.5 45 73.9 43.4C74.2 42.1 74.5 40.8 74 39.5C73.8 38.8 73.2 38.5 72.5 38.6C72.1 38.7 71.8 38.8 71.5 39C71.1 39.2 70.8 39.5 70.7 40C70.5 40.3 70.4 40.7 70.3 41.1C69.8 43 69.4 44.8 68.3 46.5C66.3 49.8 62.5 49.6 59.6 51.4C59.1 51.7 58.9 52.5 59.1 53.1C58.7 53.5 58.9 54 59.3 54.5C59.9 55.4 60.3 56.8 61.3 57.3C62.2 57.7 62.8 57 63.7 57C65.1 57 66.6 57.5 68 57.7C69.6 58 71.2 58.2 72.9 58.5C73.9 58.7 74.7 57.7 74.2 56.7Z" fill="#9C9795"/>
<path d="M54.6 51.1C53.7 50.5 52.3 50.6 51.3 50.4C50 50.2 48.6 49.8 47.4 49.3C46.2 48.7 45.3 47.7 44.1 47C43.9 45.4 43.6 43.7 43.3 42.2C43.1 40.6 40.7 41.3 40.9 42.9C41.3 45.7 42 48.7 42 51.6C41.9 51.7 41.8 51.9 41.8 52C41 53.5 40.4 55.3 39.8 56.9C39.4 57.8 40.5 58.7 41.3 58.4C44.4 57.4 47.4 57.5 50.6 57.6C53.4 57.7 54.6 56.1 55.1 53.5C55.2 52.7 55.4 51.7 54.6 51.1Z" fill="#9C9795"/>
<path d="M93.2 95.5C93.4 95 93.5 94.3 93.4 93.7C93.2 92.5 92.9 91.4 92.5 90.3C92.3 89.8 92 89.3 91.5 88.9C91.5 88.6 91.5 88.4 91.5 88.1C91.4 87 91.1 86 90.6 85C89.7 83.2 89.2 81.4 88.4 79.5C88 78.4 87.5 77.3 87 76.3V76.2C86.3 74.2 85.5 72.2 84.6 70.2C83.8 68.4 83 66.5 81.6 65.1C81.6 64.9 81.7 64.7 81.7 64.5V64.4C82.1 64.3 82.3 63.9 82.2 63.5C82.1 63.1 82 62.8 82 62.4V62.3C82.1 62.2 82.2 62 82.2 61.8C82.2 61.7 82.2 61.5 82.1 61.4C82.3 61.3 82.4 61.1 82.6 60.9C83.7 59.2 83.5 56.5 83.3 54.6C83.3 54.2 83.2 53.9 83 53.6C83.2 52.6 83.3 51.7 83.4 51C83.8 48.2 83.3 45.5 83 42.7C83 42.3 82.9 42 82.7 41.7C82.7 37.8 82.3 34.1 80.7 30.4C79.8 28.4 78.9 26.3 78 24.3C77.2 22.5 76.6 20.4 74.7 19.4C74.6 19.3 74.4 19.3 74.3 19.2C74.4 18.4 73.8 17.5 72.8 17.9C72.1 18.2 71.4 18.5 70.7 18.8C70.5 18.6 70.2 18.5 69.8 18.5C68.5 18.6 67.4 18.9 66.2 19.4C65.9 19.2 65.6 19.1 65.2 19.2C62.8 19.9 60.3 19.1 58 20.1C57.7 19.9 57.4 19.7 56.9 19.8C55.2 20.2 53.5 19.9 52.1 20.4C51.9 20.2 51.6 20 51.2 20C49.2 19.9 47.2 19.6 45.3 19.1C43.5 18.6 41.7 18.1 39.8 18.2C38.9 18.3 38.5 19.1 38.6 19.8C38.3 20 38.1 20.3 38 20.6C37.4 21.1 37 21.8 36.5 22.4C35.9 23.3 35.1 24.1 34.8 25.2C34.7 25.6 34.7 26.1 34.6 26.6C34.5 27 34.4 27.4 34.2 27.8C33.9 28 33.6 28.3 33.4 28.7C32.9 30.1 32.3 31.5 31.6 32.9C31 34.1 30.3 35.2 30.1 36.6C29.9 38 30 39.5 30.1 40.9C30.2 41.5 30.2 42.1 30.4 42.7C30.1 44.3 30 46 30.1 47.6C29.7 47.8 29.4 48.3 29.5 48.9C29.9 52.7 29 56.5 29.3 60.3C29.4 61.5 29.3 63.2 30.2 64.1V64.2C30 64.6 30 65.1 30 65.6C30 65.8 30 66.1 30 66.3C30 66.4 30.1 66.7 30 66.8C29.6 67.6 30.4 68.4 31.1 68.2C31.1 68.6 31.1 69.1 31 69.5C30.4 70 30.1 70.6 30 71.5C29.6 71.8 29.4 72.2 29.2 72.8C28.6 74.9 27.2 76.7 26.5 78.7C25.8 80.7 25.7 83 24.8 85C24.7 85.2 24.6 85.5 24.6 85.7C23.9 87.3 23.2 88.9 22.6 90.6C21.8 92.8 21.5 95.3 21.2 97.6C21.1 98 21.1 98.3 21.2 98.6C21.1 99 21 99.5 20.9 99.9C22.8 100.9 24.5 102.3 26.2 103.8C27.5 104.9 28.5 105.9 29.7 106.8C30.9 102.7 32.1 98.6 33.3 94.4C35.1 88.1 37.2 82 36.9 75.4C36.9 75.2 36.9 75 36.8 74.8C41 72.6 40.1 64.3 38.3 60.9C38 60.4 37.6 60 37.2 59.8C37.5 59.5 37.8 59.1 38 58.6C38.7 58.4 39.3 57.8 39.4 56.9C39.9 56.4 40.4 55.8 40.8 55.1C41.5 53.8 41.9 52.4 42.1 50.9C42.5 47.6 41.9 44.4 41 41.3C40.9 41 40.8 40.8 40.6 40.6C40.6 40.3 40.6 40 40.6 39.8C40.4 37.1 40.1 34.5 39.8 31.8C39.8 31.7 39.8 31.5 39.7 31.4C39.9 31.3 40 31.1 40.1 30.9C40.7 29.8 41.1 28.4 41.5 27.2C41.9 26.1 42.3 24.3 43.5 23.9C44.1 23.7 44.4 23.3 44.5 22.8C44.8 22.8 45 22.9 45.3 22.9C46 23 46.5 22.6 46.7 22.1C47.9 22.3 49.1 22.5 50.3 22.6C50.3 23 50.5 23.4 50.9 23.7C51.9 24.3 53 25.2 54.2 25.4C55.5 25.6 56.5 24.8 57.4 24C58.7 22.8 59.8 22.1 61.6 22.1C63.1 22.1 64.6 22.2 66.1 21.7C66.2 21.7 66.3 21.6 66.4 21.6C66.6 21.7 66.8 21.8 67.1 21.8C67.3 21.8 67.6 21.8 67.9 21.8C68.1 22.1 68.3 22.3 68.7 22.5C70.5 23.3 71.6 25.5 72.5 27.2C73.5 29 74.1 31 74.6 33C75.2 35.5 75.4 38.1 75.6 40.6C75 41.2 74.7 42.1 75.3 43V43.1C74.8 43.5 74.5 44.2 74.8 45.1C75.4 46.6 74.7 48.4 74.3 49.9C73.9 51.5 73.5 53.1 73.6 54.8C73.8 56.3 74.5 57.5 75.8 58.4C76.5 58.9 77.6 59.2 78.3 59.8C77 60.4 76.5 61.7 76.7 63.1C76.8 63.7 76.4 64.3 76.3 64.8C76.1 65.8 76.2 66.7 76.3 67.7C76.5 69.6 76.6 71.4 77.4 73.2C78.1 74.6 78.9 75.8 79.3 77.4C79.2 77.6 78.9 80.1 79 80.3C79.6 86.6 82.1 90.4 83.1 96.6C83.3 98 83.4 99.5 83.8 100.9C83.9 101.5 84.2 102.1 84.4 102.6C84.5 104.1 84.9 105.4 85.3 106.6C85.7 106.4 86.1 106.1 86.5 105.9C88 105.1 89.6 104.3 90.9 103.2C92.2 102.1 93.1 100.6 94.5 99.4C94.6 99.3 94.6 99.3 94.7 99.3C94.1 97.7 93.8 96.5 93.2 95.5Z" fill="white"/>
<path d="M62.9 57.3C62.7 58.2 62.5 59.1 62.4 60C62.1 59.9 61.8 60 61.5 60.3C61 60.9 60.4 61.6 59.9 62.2C59.6 62.3 59.4 62.4 59.1 62.6C57.8 62.4 56.3 62 54.9 62C54.7 61.7 54.4 61.6 54.1 61.4C54 61.2 53.9 61 53.6 60.8C53.4 60.7 53.2 60.6 53 60.5C53 60.5 52.9 60.4 52.9 60.3C52.7 60 52.6 59.8 52.3 59.6C52.3 59.6 52.3 59.6 52.2 59.6C52.2 58.9 52.1 58.2 51.7 57.6C51 56.4 49.1 57.5 49.8 58.7C50 59.1 49.9 59.6 49.9 60C49.9 60.6 49.9 61.2 50 61.8C50 62.2 50.1 62.8 50.2 63.3C50.1 63.7 50.1 64.2 50.2 64.7C50.6 66.3 51.1 67.9 51.3 69.5C51.5 71.3 51.1 73.2 51.2 75C51.3 76.6 51.4 78.3 51.8 79.9C51.5 80.3 51.3 80.8 51.3 81.4C51.2 84.5 51.1 87.5 51.1 90.6C51 93.5 51.3 96.7 50.7 99.6C50.3 101.5 51.9 103 53.8 102.7C54.5 102.6 55.2 102.4 55.8 102.3C55.8 102.3 55.8 102.3 55.9 102.3C57.7 103.4 60.6 103.3 62.5 102.8C64.3 102.3 64.7 100.4 63.9 99.1C63.9 99 63.8 98.5 63.8 98.3C63.8 97.8 63.8 97.3 63.8 96.8C63.8 95.8 63.8 94.7 63.8 93.7C63.8 91.8 63.8 89.8 63.7 87.9C63.6 84.2 63 80.6 63.4 76.9C63.5 76.4 63.3 75.8 62.9 75.4C63.2 72 63.9 68.6 63.8 65.2C64.4 64.4 64.3 63.4 64.4 62.4C64.6 60.9 64.8 59.4 65.2 57.9C65.3 56.6 63.2 56 62.9 57.3Z" fill="white"/>
<path d="M32.9 108.6C33.2 108.8 33.6 108.9 33.9 109.1C36.7 110.4 39.8 111.7 42.9 112.2C44.5 112.5 46.2 112.6 47.7 113.1C47.9 113 48 112.9 48.2 112.8C49.8 111.6 49.7 109 49.9 107.2C50.2 104.5 50.8 101.8 50.6 99.1C50.6 99 50.6 98.9 50.6 98.8C51.1 97.9 51.3 96.9 51.4 96C51.4 95.6 51.3 95.3 51.1 95.1C51.2 94.2 51 93.3 50.8 92.4C51.2 91.8 51.3 91 51.2 90.2C51.2 90 51.1 89.8 51 89.7C51.6 88.6 51.7 87.1 51.2 85.5C51.2 85.4 51.2 85.4 51.1 85.3C51.7 84.7 51.5 83.9 51 83.4C51.3 82.9 51.3 82.3 51.1 81.9C52.2 80.9 51.6 79.2 51.4 77.9C51.4 77.6 51.3 77.4 51.1 77.2C51.4 76.1 51.3 74.9 51.2 73.8C51.1 72.5 51.4 70.2 50.6 69.1C50.8 67.5 50.5 65.8 50.4 64.2C50.3 62.6 50.5 60.5 49.9 58.9C49.9 58.8 49.8 58.8 49.8 58.7C50.1 58 49.7 57 48.7 57C48.5 57 48.3 57 48.2 57.1C45.9 56.1 42.2 57.7 40.1 58.4C40 58.4 39.9 58.5 39.8 58.5C39.7 58.5 39.6 58.5 39.5 58.5C37.7 58.5 37.4 60.9 38.6 61.7C38.4 62.3 38.5 63.1 38.8 63.7C39.4 65 39.1 67 39.3 68.4C39.3 68.5 39.3 68.6 39.3 68.7L39.2 68.8C38.6 69.6 38.3 70.5 38.2 71.5C38.1 72.4 37.8 74.4 36.9 74.9C36.3 75.2 36.2 75.9 36.4 76.4C35.7 77 35.9 77.8 36.3 78.4C36.1 78.6 36 79 36 79.4C36 80.7 35 81.7 36 82.9C36.1 83 36.1 83 36.2 83.1C36.1 83.2 36.1 83.3 36 83.5C35.8 84.5 35.5 85.8 35.9 86.8C35.8 87.1 35.8 87.4 35.8 87.6C35.5 87.9 35.4 88.3 35.4 88.8C35.4 89.1 35.5 89.3 35.6 89.6C34.9 90.6 34.9 91.6 35.2 92.5C35.1 92.9 35.1 93.3 35.1 93.7C34.7 94.2 34.6 94.9 34.9 95.5C34.8 95.7 34.8 95.9 34.8 96.2C34.8 98 34.1 99.9 33.7 101.7C33.3 103.6 33 105.5 32.7 107.4C32.6 107.8 32.7 108.2 32.9 108.5C32.9 108.5 32.9 108.5 32.9 108.6Z" fill="#282727"/>
<path d="M62.9 83.8C63.2 85.7 63.7 87.4 63.3 89.4C62.5 92.9 63.1 95.8 64.1 99.2C64.3 99.8 64.4 100.4 64.6 101C64.4 101.3 64.3 101.7 64.3 102.2C64.4 104.3 64.5 106.3 64.6 108.4C64.7 110 64.4 112.2 65.9 113.2C66.1 113.3 66.4 113.4 66.6 113.5C69.8 112.8 72.8 111.5 75.8 110.2C77.6 109.4 79.5 108.9 81.3 108.2C81.4 108.2 81.5 108.1 81.7 108C81.3 105.8 81.2 103.4 79.9 101.7V101.6C79.9 98.9 79.4 96.3 79 93.7C78.5 91 78.9 88 79 85.2C79 84.5 78.7 83.9 78.3 83.6C78.5 82.3 78.8 80.8 78.5 79.7C78.8 78.8 78.8 77.7 78.5 76.7C78.7 76.1 78.4 75.2 77.7 75.1C77.4 75.1 77.2 75 76.9 75C77.1 74.2 77 73.3 76.5 72.4C76.4 72.2 76.3 72.1 76.1 72C76.3 71.4 76.1 70.8 75.6 70.5C75.9 69.9 75.9 69.1 75.7 68.1C75.7 67.9 75.6 67.8 75.5 67.7C75.5 67.6 75.6 67.5 75.6 67.5C75.7 67.3 75.7 67.1 75.6 66.9C76 66.4 75.8 65.7 75.5 65.3C75.5 65.3 75.5 65.3 75.6 65.2C76.3 64.5 76.4 62.9 76.4 62C76.4 61.9 76.4 61.7 76.4 61.6C77.2 60.9 77.3 59.3 75.9 58.8C74.4 58.4 73 58 71.5 57.9C70 57.8 68.5 57.9 67 57.4C66.7 57.3 66.4 57.3 66.2 57.4C66.1 57.3 66 57.3 65.8 57.3C65.3 57.3 65.1 57.9 65.3 58.2C65.2 58.4 65.1 58.7 65.1 58.9C65 59.6 64.9 60.3 64.9 61C64.8 61.1 64.8 61.2 64.8 61.4C64.6 62.2 64.5 63 64.7 63.7C64.5 64.1 64.4 64.6 64.6 65C64.6 65.1 64.7 65.1 64.7 65.2C64.4 65.4 64.3 65.7 64.3 66.1C64.3 67.8 63 69.4 64.3 70.8C63.9 71.2 63.7 71.8 63.8 72.6C63.9 73 64 73.4 64.2 73.8C64 74.2 63.9 74.7 64.1 75.2C64.1 75.2 64.1 75.2 64.1 75.3C63.8 75.6 63.6 76 63.7 76.5C63.7 76.6 63.8 76.7 63.8 76.8C63.4 77.2 63.2 78 63.8 78.5L63.9 78.6C63.9 78.7 63.8 78.7 63.8 78.8C62.8 80.3 62.6 81.9 62.9 83.8Z" fill="#282727"/>
<path d="M65 110.5C64.8 109.4 64.7 108.4 64.7 107.2C64.7 106.7 64.6 106.2 64.3 105.8C65.4 104.2 63.6 101.3 61.6 102.4C60.5 103 58.8 102.6 57.7 102.5C56.1 102.4 54.5 102.2 52.9 101.9C51.9 101.7 51.2 102 50.6 103C49.8 104.3 49.6 106.1 50.3 107.5C50.3 107.5 50.3 107.6 50.4 107.6C50.1 108 49.9 108.6 49.9 109.1C49.4 110.5 50 112.4 51.7 112.4C52.1 112.4 52.4 112.3 52.6 112.2C54 112.6 55.6 112.6 57 113C58 113.3 58.9 113.7 59.9 113.7C61 113.7 62.1 113.1 63.2 113.2C64.4 113.4 65.3 111.9 65 110.5Z" fill="#E30613"/>
<path d="M46.6 58.1C46.5 56.9 44.7 56.9 44.7 58.1C44.7 59.1 44.8 60 44.8 61C44.9 62.2 46.7 62.2 46.7 61C46.7 60 46.7 59 46.6 58.1Z" fill="#9C9795"/>
<path d="M47.1 64.4C47.1 63.2 45.2 63.2 45.2 64.4C45.3 67.1 45.3 69.8 45.2 72.5C45.2 73.7 47 73.7 47.1 72.5C47.1 69.7 47.1 67.1 47.1 64.4Z" fill="#9C9795"/>
<path d="M47.5 76.3C47.5 75.1 45.6 75.1 45.6 76.3C45.7 79.8 45.7 83.3 45.6 86.7C45.6 87.9 47.4 87.9 47.5 86.7C47.6 83.2 47.6 79.8 47.5 76.3Z" fill="#9C9795"/>
<path d="M47.1 91.4C47 89.5 45.2 89.4 45.2 91.4C45.3 94 44.9 96.6 44.7 99.2C44.5 101.8 44.4 104.3 44.4 106.9C44.4 108.9 46.2 108.9 46.3 106.9C46.4 104.1 46.4 101.4 46.7 98.6C46.8 96.2 47.2 93.9 47.1 91.4Z" fill="#9C9795"/>
<path d="M70.1 58.3C69.9 57.1 68.0999 57.6 68.2999 58.8C68.3999 59.7 67.9999 60.5 67.8999 61.3C67.7999 62.2 67.7 63.2 67.6 64.2C67.5 65.4 69.3 65.4 69.5 64.2C69.6 63.1 69.6999 62 69.8999 61C70.0999 60 70.2 59.2 70.1 58.3Z" fill="#9C9795"/>
<path d="M69.4 67.4C69.4 66.2 67.5 66.2 67.5 67.4C67.6 69.4 67.3 71.4 67.2 73.3C67.1 74.5 69 74.5 69.1 73.3C69.3 71.4 69.5 69.4 69.4 67.4Z" fill="#9C9795"/>
<path d="M69.1 76.9C69 75.7 67.2 75.7 67.2 76.9C67.3 79.2 67.3 81.5 67.1 83.8C67 85 68.9 85 69 83.8C69.1 81.4 69.2 79.2 69.1 76.9Z" fill="#9C9795"/>
<path d="M70.2 95.2C69.3 92.7 69.8 90.1 69.5 87.6C69.4 86.4 67.5 86.4 67.6 87.6C67.9 90.3 67.4 93.1 68.4 95.7C68.8 96.8 70.6 96.4 70.2 95.2Z" fill="#9C9795"/>
<path d="M70.7 105.5C70.4 103.3 70.6 101 70.2 98.9C69.9 97.1 68.1 97.8 68.4 99.7C68.6 100.8 68.6 101.9 68.6 103.1C68.6 104.2 68.8 105.3 68.9 106.4C69.1 108.2 70.9 107.4 70.7 105.5Z" fill="#9C9795"/>
<path d="M66 36.5C65.8 35.8 65.6 35.2 65.7 34.4C65.8 33.8 65.9 33.2 65.6 32.6C65 31.6 63.6 31.5 62.6 31.5C61.4 31.5 60.2 31.9 60 33.1C59.7 34.4 60.7 35.9 61.2 37.1C61.4 37.6 61.9 38 62.5 37.9C63 37.8 63.5 37.1 63.3 36.6C63 35.8 62.6 35 62.4 34.3C62.3 34.1 62.3 34 62.2 33.8C62.5 33.9 62.9 33.8 63.2 33.8C63.4 33.8 63.7 33.9 63.7 33.8C63.7 34.1 63.6 34.6 63.6 34.8C63.6 35.6 63.7 36.4 64 37.1C64.4 38.4 66.5 37.8 66 36.5Z" fill="white"/>
<path d="M53.5 36.7C53.2 36 53 35.3 53 34.5C53 34 52.9 33.4 52.6 32.9C51.8 31.8 50.1 32.2 49 32.5C48.4 32.6 47.7 32.8 47.5 33.5C47.3 34 47.6 34.7 47.7 35.2C47.9 36.3 48 38.1 49.3 38.3C50.6 38.5 51.2 36.7 50.1 36.3C50.1 36.2 50.1 36.1 50 36C50 35.8 49.9 35.6 49.9 35.4C49.8 35.2 49.8 34.9 49.8 34.7C49.8 34.7 49.8 34.7 49.8 34.6C50 34.6 50.2 34.5 50.4 34.5C50.4 34.5 50.7 34.5 50.9 34.5C51 35.5 51.2 36.4 51.5 37.4C51.9 38.6 54 38 53.5 36.7Z" fill="white"/>
<path d="M59.8 39.5C59.7 39.4 59.6 39.2 59.4 39.2C59.2 39.2 59.1 39.2 58.9 39.3C58.8 39.4 58.6 39.5 58.6 39.7C58.6 39.8 58.6 39.9 58.5 40C58.5 40.1 58.5 40.1 58.4 40.2C58.4 40.2 58.4 40.2 58.4 40.3C58.4 40.3 58.4 40.3 58.4 40.4C58.4 40.4 58.4 40.5 58.3 40.5C58.2 40.6 58.2 40.7 58.1 40.8C58.1 40.8 58.1 40.8 58.1 40.9C58.1 40.9 58.1 40.9 58.1 41C58 41.1 58 41.2 57.9 41.2C57.8 41.3 57.8 41.3 57.7 41.4H57.6C57.5 41.4 57.4 41.4 57.3 41.3C57 41.2 56.6 41.4 56.5 41.7C56.4 42 56.6 42.4 56.9 42.5C57.3 42.6 57.8 42.7 58.2 42.5C58.5 42.3 58.7 42.1 58.9 41.8C59.3 41.3 59.7 40.7 59.8 40C59.9 39.8 59.9 39.6 59.8 39.5Z" fill="#DAD7C5"/>
<path d="M74.5 36.3C74.4 36.2 74.3 36.1 74.1 36C73.9 36 73.8 36 73.6 36.1C73.5 36.1 73.4 36.2 73.3 36.2C73.5 36.1 73.3 36.2 73.3 36.2C73.3 36.2 73.2 36.2 73.2 36.3C73 36.4 72.9 36.4 72.7 36.5C72.3 36.6 72 36.7 71.6 36.8C71.4 36.8 71.3 36.9 71.2 37.1C71 37.2 70.8 37.4 70.8 37.6C70.8 37.8 70.9 38.1 71.1 38.2C71.4 38.3 71.7 38.4 72 38.4C72.1 38.4 72.1 38.4 72.2 38.4C72.5 38.5 72.8 38.4 73.1 38.3C73.3 38.2 73.5 38.1 73.7 37.9C73.9 37.8 74 37.7 74.1 37.6C74.2 37.5 74.2 37.4 74.2 37.3H74.3C74.4 37.2 74.5 37.1 74.6 36.9C74.6 36.6 74.6 36.4 74.5 36.3Z" fill="#DAD7C5"/>
<path d="M42.7 40C42.7 39.6 42.4 39.3 42.1 39.3C41.9 39.3 41.8 39.2 41.6 39.2C41.4 39.1 41.2 39.1 41 39C40.6 38.9 40.2 39.2 40.2 39.6C40.2 40.1 40.5 40.6 41 40.9C41.5 41.2 42 41.2 42.5 41.2C42.8 41.2 43.1 40.9 43.1 40.6C43.1 40.3 43 40.1 42.7 40Z" fill="#DAD7C5"/>
<path d="M59.2 52.6C59.2 52.5 59.1 52.4 58.9 52.3C58.9 52.3 58.9 52.3 58.9 52.2C58.9 52 58.8 51.8 58.6 51.6C58.4 51.5 58.2 51.5 58 51.5C57.7 51.5 57.3 51.5 57 51.5C56.7 51.5 56.4 51.4 56.1 51.4C55.8 51.3 55.4 51.2 55.1 51.4C54.8 51.6 54.8 51.9 55 52.1C55.1 52.2 55.1 52.3 55.1 52.4C55.2 52.6 55.3 52.8 55.5 52.9C55.8 53.1 56.2 53.2 56.6 53.2C57.3 53.3 58.1 53.3 58.8 53C59.1 53.1 59.3 52.8 59.2 52.6Z" fill="#DAD7C5"/>
<path d="M70.4 12.9C70.3 12.5 69.8 12.2 69.4 12.4C66.2 13.5 62.7 14 59.4 14.4C55.9 14.8 52.4 15.3 48.9 15C46.9 14.8 45 14.4 43.1 13.9C42.1 13.6 41.7 15.1 42.7 15.4C46.1 16.4 49.7999 16.9 53.2999 16.7C55.0999 16.6 56.9 16.3 58.7 16.1C60.5 15.9 62.3 15.7 64 15.4C66 15.1 67.8999 14.6 69.7999 14C70.1999 13.7 70.5 13.3 70.4 12.9Z" fill="#CDCCCC"/>
<path d="M39.4 52.1C39.3 52.4 39.1 52.7 39 53C38.6 53.8 38 54.6 37.4 55.3C36.5 56.3 35.6 57.3 34.7 58.3C32.9 60.4 31.2 62.7 29.7 65.1C29.4 65.6 29.7 66.1 30.2 66.2C30.1 66.4 29.9 66.7 29.8 66.9C29.3 67.8 30.6 68.5 31.1 67.7C31.9 66.3 32.7 65 33.6 63.7C34 63.1 34.4 62.5 34.9 61.9C35.4 61.3 36 60.9 36.5 60.4C37.5 59.4 38.7 58.6 39.4 57.3C40 56.2 40 54.6 40.6 53.5C40.8 53.2 40.9 52.9 41 52.6C41.1 51.8 41.5 43.4 39.4 52.1Z" fill="#CDCCCC"/>
<path d="M82.1 61.8C82.2 61.6 82.3 61.4 82.2 61.2C82.2 61.2 82.2999 61.2 82.2999 61.1C82.5999 60.8 82.5999 60.3 82.2999 60C78.8999 57.3 75 54.2 74.5 49.5C74.5 49.1 74.7 45.7 74.2 45.7C74.1 45.7 73.5 48.7 73.5 48.8C73.3 48.8 73.1 48.9 73 49.2C72.4 50.4 72.5 51.6 73 52.6C73 53.1 73 53.7 73.1 54.2C73.2 55 73.6 55.5 74.1 56.2C74.6 56.8 75.1 57.4 75.5 58C76 58.6 76.4 59.1 77 59.5C77.1 59.5 77.1 59.6 77.2 59.6C77 59.7 76.8 59.9 76.7 60.1C75.8 62.5 75.4999 65.1 75.7999 67.6C75.9999 68.9 76.1 70.2 76.6 71.4C76.8 72 77.0999 72.5 77.2999 73.1C77.4999 73.7 77.6999 74.4 77.7999 75C77.8999 75.4 78.3999 75.6 78.7999 75.5C79.1999 75.4 79.3999 75 79.2999 74.5C79.0999 73.3 78.7 72.1 78.2 71C77.7 69.9 77.5 68.7 77.4 67.5C77.1 65.1 77.3999 62.7 78.2999 60.4C78.2999 60.3 78.2999 60.2 78.2999 60.1C78.4999 60.2 78.6999 60.3 78.7999 60.5C79.1999 60.8 79.6 61.2 80 61.5C80 61.6 80 61.6 80 61.7C80.2 62.5 80.4 63.2 80.7 63.9C81 64.5 81.7 64.3 82 63.9C82.4 63.3 82.4 62.5 82.1 61.8C82.1 61.9 82.1 61.9 82.1 61.8Z" fill="#CDCCCC"/>
<path d="M63.9 65.5C63.9 65.4 63.9 65.4 63.9 65.4C64 65.2 64 65.1 64.1 64.9C64.4 64.2 63.7 63.4 63 63.8C62.1 64.3 61.5 65.2 60.5 65.5C60.1 65.6 59.6 65.8 59.2 65.5C59.1 65.4 58.8 65.3 58.6 65.2C58.7 64.7 58.4 64.1 57.9 64C57.4 63.9 56.8999 64.2 56.7999 64.7C56.4999 64.8 56.3 65 56.2 65.2C56 65.4 56 65.6 56.1 65.8C55.4 65.9 54.7 65.9 54.1 65.6C53.1 65.2 52.5 64.2 51.9 63.4C52 63 51.8 62.4 51.2 62.4C50.5 62.4 50.3 63.1 50.5 63.5C50.4 63.7 50.4 63.9 50.6 64.1C51.4 65.2 52.2 66.3 53.5 66.9C54.6 67.4 55.9 67.4 57 67.1C57.2 67 57.4999 66.9 57.7999 66.9C58.0999 66.9 58.4 67 58.6 67.1C59.3 67.3 59.9 67.4 60.6 67.5C61.9 67.6 63.2 67.4 64.1 66.5C64.4 66.4 64.3 65.8 63.9 65.5Z" fill="#CDCCCC"/>
<path d="M38.8 68.3C38.8 68 38.6 67.7 38.4 67.6C38.5 67.1 38.5 66.6 38.6 66.2C38.7 64.4 38.6 62.5 38.2 60.7C38 59.7 36.5 60.1 36.7 61.1C37.4 64.2 37.1 67.5 36.1 70.5C35.8 71.3 35.5 72 35.2 72.8C35 73.6 34.9 74.4 34.9 75.3C34.9 77.1 34.8 78.8 34.7 80.6C34.6 82.6 34.4 84.6 34.2 86.6C34.2 87 34.6 87.4 35 87.4C35.5 87.4 35.7 87 35.8 86.6C36.2 83 36.4 79.4 36.5 75.8C36.5 75.4 36.5 75 36.5 74.7C37.2 74.8 37.8 74.3 38 73.6C38.1 73.3 38.1 73 38.1 72.6C38.1 72.5 38.1 72.3 38.1 72.2C38.1 72.1 38.1 72 38.1 72C38.1 71.9 38.1 71.9 38.1 71.9C38.4 70.6 39 69.5 38.8 68.3Z" fill="#CDCCCC"/>
<path d="M63.7999 56.5C62.4999 56.7 62.6 58.3 62.4 59.3C62.2 60.2 61.9999 61.1 61.2999 61.6C60.5999 62.2 59.5999 62.3 58.7999 62.3C58.4999 62.3 58.2 62.5 58 62.8C57.9 62.4 57.6 62.1 57.1 62.1C55.8 62.1 54.1 61.9 53.2 61C52.2 60 51.9 58.9 51.6 57.6C51.3 56.4 49.4999 56.9 49.7999 58.1C49.9999 58.9 50.2 59.6 50.4 60.2C50.2 60.5 50.1 60.8 50.2 61.3C50.3 61.4 50.3 61.6 50.4 61.7C50.5 61.9 50.8 62.1 51 62.1C51.3 62.6 51.6 63 52.1 63.4C52.7 63.8 53.3 64.4 53.9 64.8C54.4 65.2 55 65.3 55.7 65.1C56 65 56.2 64.9 56.4 64.7C56.7 64.5 56.9 64 57.2 63.9C57.4 63.8 57.6 63.7 57.7 63.5C57.7 63.6 57.8 63.7 57.9 63.8C58.7 64.5 59.6 65.2 60.7 64.8C61.7 64.4 62.5999 63.6 63.2999 62.8C63.6999 62.7 64.1 62.4 64.1 61.9C64.3 60.5 64.4 59.2 64.6 57.8C65.3 57.4 64.7999 56.3 63.7999 56.5Z" fill="#C5BCBA"/>
<path d="M65 57C65 56.6 64.3 56.6 64.4 57C64.4 57.5 64.3 57.9 64.2 58.4C64.1 58.9 64 59.4 63.9 59.8C63.8 60.7 63.7 61.7 63.7 62.7C63.7 63.1 64.3 63.1 64.3 62.7C64.3 61.7 64.3 60.8 64.5 59.8C64.7 58.9 65.1 57.9 65 57Z" fill="#595857"/>
<path d="M51.2 62.3C50.9 60.7 51 59.1 50.3 57.6C50.1 57.2 49.6 57.6 49.8 57.9C50.5 59.3 50.3 61 50.6 62.4C50.6 62.8 51.2 62.7 51.2 62.3Z" fill="#595857"/>
<path d="M43.6 27.2C43 29.8 42.6 32.4 42.4 35.1C42.2 37.5 42 40.1 42.3 42.5C42.5 44.4 43.1 46.3 44.3 47.7C45.7 49.4 47.7 50.3 49.8 50.8C54.3 51.9 59.6 52.5 64 50.5C68.4 48.5 70.4 43.9 71.2 39.4C72.1 34.2 71 28.8 68.1 24.3C67.7 23.7 66.9 24.2 67.2 24.8C69.3 28.7 70.6 32.6 70.3 37.1C70 41.2 68.6 46.3 64.9 48.7C61 51.2 55.9 50.7 51.5 49.9C49.5 49.5 47.4 49 45.8 47.5C44.3 46.1 43.7 44 43.4 42C42.8 37.1 43.6 32 44.2 27.2C44.2 27 43.7 26.9 43.6 27.2Z" fill="black"/>
<path d="M54.9 51.8C55.1 52.8 54.8 53.9 54.4 54.9C54.2 55.5 53.9 56 53.5 56.5C53.2 57 52.7 57.2 52.3 57.6C52.2 57.7 52.3 58 52.5 58C53.1 57.9 53.6 57.4 54 57C54.4 56.5 54.7 55.8 55 55.2C55.4 54.2 55.7 52.9 55.4 51.8C55.3 51.4 54.9 51.5 54.9 51.8Z" fill="black"/>
<path d="M58.8 51.2C58.3 52.3 58.8 53.8 59.2 54.9C59.7 56 60.3 57.5 61.4 58C61.9 58.2 62.3 57.5 61.8 57.2C61.7 57.1 61.5 57 61.4 56.9C61.2 56.7 61.1 56.5 60.9 56.3C60.5 55.8 60.3 55.2 60 54.6C59.8 54 59.6 53.4 59.4 52.8C59.3 52.4 59.2 51.9 59.3 51.5C59.6 51.1 59 50.8 58.8 51.2Z" fill="black"/>
<path d="M49.3 57C47 56.7 44.9 56.7 42.6 57C41.5 57.2 40.3 57.4 39.2 57.7C38.3 57.9 37 58.2 36.4 58.9C36.3 59 36.3 59.2 36.5 59.2C37.4 59.3 38.5 58.8 39.4 58.6C40.4 58.3 41.5 58.1 42.5 57.9C44.7 57.5 47 57.3 49.2 57.3C49.5 57.4 49.5 57.1 49.3 57Z" fill="black"/>
<path d="M37 59C37.8 61.9 38.6 64.6 38.5 67.6C38.4 69.1 38 70.4 37.7 71.8C37.5 72.4 37.4 73 37.1 73.5C36.8 74 36.4 74.3 35.9 74.7C35.5 75 35.9 75.6 36.4 75.5C37.6 75.2 38.2 73.9 38.5 72.9C39 71.4 39.4 69.9 39.5 68.4C39.6 66.7 39.5 64.9 39.2 63.3C38.8 61.7 38.2 60.3 37.4 58.9C37.3 58.7 37 58.8 37 59Z" fill="black"/>
<path d="M35.5 75.1C35 86 34.6 97.1 32.2 107.8C32 108.8 33.5 109.2 33.7 108.2C36.1 97.3 36.5 86.2 37.1 75.1C37.1 74.1 35.5 74.1 35.5 75.1Z" fill="black"/>
<path d="M49.5 56.7C51 71.5 51.3 86.5 50 101.3C49.6 105.2 49 108.9 48.5 112.8C48.4 113.5 49.4 113.8 49.6 113.1C50.4 109.9 50.7 106.5 51 103.3C51.4 99.4 51.6 95.6 51.8 91.7C52.1 83.8 52 75.8 51.4 67.9C51.1 64.1 50.6 60.4 49.7 56.8C49.6 56.6 49.5 56.6 49.5 56.7Z" fill="black"/>
<path d="M47.6 57.2C47.5 58.5 47.7 59.8 47.8 61.1C47.9 62.4 48 63.7 48.1 65C48.2 67.5 48.3 69.9 48.3 72.4C48.4 77.4 48.3 82.3 48.2 87.3C48.1 95.5 47.6 103.7 45.9 111.7C45.7 112.5 46.9 112.8 47.1 112C48.2 108.1 48.6 104 48.9 99.9C49.2 95.7 49.4 91.6 49.5 87.4C49.6 82.4 49.6 77.4 49.5 72.4C49.4 69.8 49.2 67.1 49 64.5C48.9 63.2 48.8 61.9 48.6 60.6C48.4 59.5 48.4 58.2 47.9 57.1C47.8 57 47.6 57 47.6 57.2Z" fill="black"/>
<path d="M38.2 58.6C38.5 58.8 38.5 59 38.5 59.4C38.6 59.7 38.7 60 38.8 60.4C39.1 61.2 39.4 62 39.7 62.8C40.2 64.6 40.6 66.5 40.3 68.4C40.1 69.8 39.8 71.2 39.1 72.4C38.3 73.7 37.2 74.1 36.1 74.8C35.8 75 35.9 75.4 36.3 75.4C37.8 75.5 39 74.4 39.8 73.2C40.7 71.9 41.1 70.2 41.3 68.6C41.6 66.5 41.2 64.3 40.5 62.2C40.2 61.2 39.7 60.3 39.4 59.3C39.2 58.8 39.1 58.4 38.5 58.1C38.2 58 37.9 58.4 38.2 58.6Z" fill="black"/>
<path d="M50.4 102.5C51.9 102.8 53.6 102.7 55.2 102.9C56.3 103 57.3 103.2 58.4 103.3C59.3 103.4 60.2 103.4 61.2 103.3C62.3 103.2 63.6 103 64.4 102.3C64.6 102.1 64.4 101.7 64.2 101.7C63.1 101.7 62 102.2 60.9 102.3C60 102.4 59.1 102.4 58.2 102.3C57.2 102.2 56.1 102.1 55.1 102C53.6 101.9 51.9 101.7 50.4 102C50.1 102 50.1 102.5 50.4 102.5Z" fill="black"/>
<path d="M40.5 41.5C40.7 41.6 40.9 41.8 41.1 41.8C41.2 41.8 41.3 41.8 41.4 41.8C41.5 41.8 41.7 41.8 41.8 41.8C41.7 41.8 41.7 41.8 41.6 41.8H41.7C41.7 41.8 41.7 41.8 41.8 41.8C42 41.8 42 41.8 42.1 41.7C42.1 41.7 42 41.7 42 41.8H42.1C42.1 41.8 42.2 41.8 42.2 41.7C42.3 41.7 42.3 41.6 42.4 41.6C42.5 41.5 42.5 41.4 42.5 41.3C42.5 41.2 42.5 41.1 42.4 41C42.3 40.9 42.2 40.8 42.1 40.7C42 40.7 41.9 40.7 41.8 40.7C41.7 40.7 41.6 40.7 41.5 40.7C41.4 40.7 41.3 40.7 41.3 40.7C41.4 40.7 41.4 40.7 41.5 40.7C41.4 40.7 41.4 40.7 41.3 40.7C41.4 40.7 41.4 40.7 41.5 40.7C41.4 40.7 41.4 40.7 41.3 40.7C41.3 40.7 41.4 40.7 41.4 40.8C41.3 40.8 41.2 40.7 41.1 40.6C41 40.5 40.8 40.5 40.6 40.5C40.5 40.5 40.3 40.6 40.2 40.8C40.1 40.9 40.1 41.1 40.1 41.3C40.1 41.3 40.1 41.4 40.2 41.4C40.3 41.4 40.4 41.4 40.5 41.5Z" fill="black"/>
<path d="M43.5 34.2C43.4 34.1 43.2 34.1 43.1 34C43 34 43 33.9 42.9 33.9C42.8 33.8 42.7 33.8 42.6 33.8C42.3 33.7 42 33.6 41.7 33.6C41.4 33.6 41.1 33.7 40.8 33.8C40.5 34 40.2 34.2 40 34.4C39.8 34.6 39.8 35 40 35.2C40.2 35.4 40.6 35.4 40.8 35.2C40.9 35.1 41 35 41.1 34.9C41.2 34.8 41.1 34.9 41.1 34.9C41.1 34.9 41.1 34.9 41.2 34.9C41.3 34.9 41.3 34.8 41.4 34.8C41.5 34.8 41.5 34.7 41.6 34.7C41.6 34.7 41.7 34.6 41.8 34.6C41.7 34.6 41.7 34.6 41.8 34.6H41.9C42 34.6 42 34.6 42.1 34.6C42.2 34.6 42.2 34.6 42.3 34.6H42.4C42.5 34.6 42.6 34.6 42.8 34.6C42.9 34.6 43 34.6 43.2 34.6C43.3 34.6 43.5 34.7 43.6 34.7C43.6 34.6 43.7 34.3 43.5 34.2Z" fill="black"/>
<path d="M73.9 37.7C73.9 37.7 73.8 37.7 73.9 37.7C73.7 37.8 73.9 37.7 73.9 37.7C73.8 37.8 73.7 37.8 73.7 37.9C73.6 37.9 73.6 38 73.5 38H73.4C73.3 38.1 73.5 38 73.4 38C73.3 38 73.2 38.1 73.1 38.1H73C72.9 38.1 73.1 38.1 73 38.1C72.9 38.1 72.9 38.1 72.8 38.1C72.6 38.1 72.3 38.1 72.1 38.1C71.8 38.1 71.4 38 71.1 38.1C70.9 38.2 70.7 38.4 70.6 38.6C70.6 38.9 70.7 39.1 70.9 39.2C71 39.3 71.3 39.4 71.4 39.4C71.6 39.4 71.8 39.5 72 39.5C72.3 39.5 72.6 39.5 72.8 39.5C73.5 39.4 74.1 39.2 74.6 38.6C74.8 38.3 74.9 37.9 74.6 37.6C74.6 37.4 74.2 37.4 73.9 37.7Z" fill="black"/>
<path d="M71.3 34.1C71.3 34.1 71.3 34 71.3 34.1C71.4 34 71.4 34 71.4 33.9L71.5 33.8C71.5 33.7 71.6 33.6 71.6 33.6C71.6 33.6 71.6 33.7 71.5 33.7C71.5 33.6 71.6 33.5 71.7 33.4L71.6 33.5C71.7 33.4 71.8 33.3 71.9 33.2L71.8 33.3C71.9 33.2 72.1 33.1 72.3 33C72.3 33 72.2 33 72.2 33.1C72.3 33.1 72.3 33.1 72.4 33C72.5 33 72.6 32.9 72.7 32.9C72.7 32.9 72.6 32.9 72.6 33C72.7 33 72.8 32.9 72.8 32.9C73 32.8 73.2 32.6 73.1 32.4C73.1 32.2 72.9 32 72.6 32C72.5 32 72.4 32 72.3 32C72.1 32 71.9 32.1 71.7 32.2C71.5 32.3 71.2 32.5 71 32.7C70.8 32.9 70.6 33.2 70.5 33.4C70.4 33.7 70.5 34 70.6 34.3C70.9 34.4 71.2 34.4 71.3 34.1Z" fill="black"/>
<path d="M51.5 58.3C52.4 61 55 63 57.9 63C59.3 63 60.7 62.5 61.7 61.5C62.8 60.3 62.9 58.5 63.3 57C63.5 56.4 62.6 56 62.3 56.6C61.7 57.8 61.9 59.3 61.1 60.4C60.4 61.4 59.1 61.8 58 61.8C55.5 61.8 53.5 60 52.2 58.1C51.9 57.8 51.4 58 51.5 58.3Z" fill="black"/>
<path d="M62.6 57.1C62.7 57.2 62.8 57.2 62.9 57.2C63 57.2 63 57.2 63.1 57.2C63.2 57.2 63.3 57.2 63.4 57.2C63.6 57.2 63.8 57.1 63.9 57C64 56.9 64 56.9 64 56.8V56.7V56.8C64 56.9 63.9 57 63.7 57.1C63.8 57.1 63.6 57.1 63.6 57.1C63.6 57.1 63.6 57.1 63.7 57.1H63.8C63.8 57.1 63.8 57.1 63.9 57.1C64 57.1 63.8 57.1 63.8 57.1C64 57.1 64.1 57.1 64.3 57.2C64.5 57.2 64.7 57 64.7 56.9C64.7 56.7 64.6 56.5 64.4 56.5C64.3 56.5 64.1 56.4 64 56.4C63.9 56.4 63.8 56.4 63.7 56.3C63.6 56.3 63.4 56.3 63.3 56.4C63.2 56.5 63.1 56.6 63.1 56.7C63.1 56.7 63.2 56.6 63.1 56.6L63.2 56.5C63.2 56.5 63.2 56.5 63.3 56.4C63.3 56.4 63.2 56.4 63.2 56.5L63.3 56.4H63.4H63.3C63.3 56.4 63.3 56.4 63.2 56.4C63.1 56.4 63.3 56.4 63.2 56.4C63.1 56.4 63.1 56.4 63 56.4C62.9 56.4 62.9 56.4 62.8 56.4C62.7 56.4 62.7 56.5 62.6 56.5C62.4 56.7 62.4 57 62.6 57.1Z" fill="black"/>
<path d="M52.1 57.5C52 57.4 52 57.4 51.9 57.3C52 57.4 52 57.4 52.1 57.5C52 57.3 51.8 57.2 51.7 57.1C51.6 57.1 51.6 57 51.5 57C51.3 56.9 51.1 56.9 50.9 56.8C50.7 56.8 50.5 56.7 50.3 56.7C50.2 56.7 50.2 56.7 50.1 56.7H50C50 56.7 49.9 56.7 50 56.7C50.1 56.7 50 56.7 50 56.7H49.9C49.8 56.7 49.7 56.7 49.6 56.7C49.2 56.8 49.2 57.3 49.5 57.5C49.6 57.5 49.7 57.6 49.8 57.6C49.9 57.6 50 57.6 50.1 57.6C50.2 57.6 50.3 57.6 50.4 57.6C50.6 57.6 50.8 57.6 51 57.6C51.1 57.6 50.9 57.6 50.9 57.6C50.9 57.6 50.9 57.6 51 57.6H51.1C51.2 57.6 51.2 57.6 51.3 57.7C51.5 57.7 51.7 57.9 51.9 57.8C51.8 57.8 51.8 57.8 51.7 57.8H51.8C51.7 57.8 51.9 57.8 51.9 57.8C52.1 58.1 52.4 57.8 52.1 57.5Z" fill="black"/>
<path d="M36 59C26.7 70.1 22.5 84.5 19.7 98.5C19.5 99.5 21 99.9 21.2 98.9C23.9 85.2 28 71 37.1 60.1C37.8 59.4 36.7 58.3 36 59Z" fill="black"/>
<path d="M30 106.1C31.2 102.5 32.3 98.8 33.4 95.1C34 93.2 34.5 91.3 35.1 89.4C35.4 88.4 35.8 87.4 35.9 86.4C36 85.8 35.1 85.5 35 86.1C34.3 89.1 33.4 92 32.6 94.9C31.5 98.6 30.5 102.2 29.3 105.9C29.1 106.4 29.9 106.6 30 106.1Z" fill="black"/>
<path d="M40.8 37.4C40.8 37.5 40.8 37.6 40.8 37.7C40.8 37.8 40.9 37.9 40.9 37.9C41 38 41.1 38.2 41.2 38.3C41.3 38.4 41.5 38.5 41.6 38.6C41.7 38.6 41.8 38.7 41.9 38.7C42 38.7 42.2 38.7 42.3 38.7C42.4 38.7 42.5 38.6 42.6 38.4C42.6 38.3 42.6 38.1 42.5 38C42.4 37.9 42.4 37.9 42.3 37.8C42.2 37.8 42.2 37.7 42.1 37.7C42 37.6 41.9 37.6 41.8 37.5C41.8 37.5 41.9 37.5 41.9 37.6C41.8 37.5 41.7 37.4 41.5 37.2C41.5 37.2 41.5 37.3 41.6 37.3C41.5 37.2 41.5 37.2 41.4 37.1C41.4 37.1 41.3 37.1 41.3 37C41.1 36.9 40.8 37.1 40.8 37.4Z" fill="black"/>
<path d="M72.3 36.2C72.4 36.1 72.4 36.1 72.4 36.1C72.4 36.1 72.3 36.1 72.3 36.2C72.4 36.1 72.4 36.1 72.4 36.1C72.4 36 72.5 36 72.6 35.9C72.6 35.9 72.6 35.9 72.5 35.9C72.6 35.8 72.6 35.8 72.7 35.8C72.7 35.8 72.7 35.8 72.8 35.8L72.9 35.7L73 35.6C73 35.6 73 35.6 72.9 35.7C73 35.6 73 35.6 73.1 35.6C73.2 35.6 73.2 35.5 73.2 35.4C73.2 35.3 73.2 35.3 73.2 35.2C73.2 35.1 73.1 35.1 73.1 35C73 35 72.9 35 72.8 35C72.7 35 72.7 35 72.6 35.1C72.5 35.1 72.3 35.2 72.2 35.3C72.1 35.5 72 35.6 71.9 35.8C71.9 35.8 71.9 35.8 71.9 35.7C71.8 35.8 71.8 36 71.8 36.1C71.8 36.2 71.8 36.3 71.9 36.3C72.1 36.4 72.2 36.3 72.3 36.2Z" fill="black"/>
<path d="M77.2 59.4C76.3 60.5 75.7 61.6 75.5 63C75.2 64.6 75.1 66.4 75.2 68C75.3 69.6 75.7 71.1 76.2 72.7C76.5 73.8 77.1 75.3 78.4 75.6C78.8 75.7 79.3 75.1 78.9 74.8C78.4 74.4 78 74.2 77.7 73.6C77.4 73.1 77.3 72.5 77.1 72C76.7 70.5 76.3 69.1 76.2 67.6C76.1 64.9 76.4 62.1 77.6 59.7C77.6 59.5 77.3 59.3 77.2 59.4Z" fill="black"/>
<path d="M77.6 75.2C77.8 86.1 77.6 97.1 80.5 107.7C80.8 108.7 82.3 108.3 82 107.3C79.2 96.9 79.4 86 79.2 75.2C79.2 74.2 77.6 74.2 77.6 75.2Z" fill="black"/>
<path d="M65 56.8C63.3 63.6 63 70.7 62.8 77.7C62.6 85.5 62.8 93.3 63.6 101C64 104.7 64.3 108.4 65.2 112C65.4 112.7 66.4 112.4 66.3 111.7C65.3 104.7 64.4 97.8 64.1 90.8C63.8 83.2 63.8 75.5 64.3 67.9C64.5 64.2 64.8 60.5 65.2 56.8C65.1 56.7 65 56.7 65 56.8Z" fill="black"/>
<path d="M66.8 57.2C66.4 58.3 66.3 59.5 66.1 60.7C65.9 62 65.8 63.3 65.7 64.6C65.5 67.2 65.3 69.8 65.2 72.5C65.1 77.5 65.1 82.5 65.2 87.5C65.3 95.6 65.7 103.8 67.5 111.7C67.7 112.5 68.9 112.2 68.7 111.4C66.9 103.6 66.6 95.3 66.4 87.3C66.3 82.4 66.2 77.4 66.3 72.5C66.3 70 66.4 67.6 66.5 65.1C66.6 63.8 66.7 62.5 66.8 61.2C66.9 59.9 67.2 58.5 67 57.3C67.1 57.1 66.9 57.1 66.8 57.2Z" fill="black"/>
<path d="M75.9 58.8C74.8 60 74.3 61.5 73.9 63C73.5 64.7 73.2 66.5 73.3 68.3C73.4 69.9 73.8 71.7 74.7 73.1C75.5 74.3 76.8 75.6 78.4 75.5C78.7 75.5 78.8 75.1 78.6 74.9C78 74.5 77.3 74.3 76.7 73.8C76.2 73.4 75.7 72.8 75.4 72.2C74.7 70.9 74.3 69.3 74.3 67.8C74.2 64.9 74.9 61.6 76.4 59.1C76.5 58.8 76.1 58.5 75.9 58.8Z" fill="black"/>
<path d="M64.7999 57C66.8999 58 69.3 58.1 71.6 58.2C72.6 58.3 73.5 58.3 74.5 58.7C75.4 59.1 76.2 59.6 77.1 60C77.7 60.2 78.2 59.5 77.6 59.2C76 58.3 74.2999 57.4 72.3999 57.3C69.8999 57.2 67.4 57.2 65 56.7C64.8 56.6 64.5999 56.9 64.7999 57Z" fill="black"/>
<path d="M77.2 60.1C86.3 70.9 90.5 85 93.3 98.6C93.5 99.6 95 99.2 94.8 98.2C92 84.3 87.6 70 78.3 59C77.7 58.2 76.6 59.3 77.2 60.1Z" fill="black"/>
<path d="M85.8 105.4C83.4 97.2 81.2 89 79.3 80.6C79.1 79.6 77.6 80 77.8 81C79.7 89.3 81.9 97.6 84.3 105.8C84.6 106.8 86.1 106.3 85.8 105.4Z" fill="black"/>
<path d="M47.5 33.6C47.5 33.3 47.9 33.1 48.1 33C48.5 32.8 48.9 32.7 49.3 32.6C50.1 32.4 51.1 32.3 51.9 32.5C52 32.5 52.1 32.5 52.2 32.6L52.4 32.7C52.5 32.7 52.6 32.9 52.8 32.8C52.9 32.7 52.9 32.7 52.9 32.6C52.8 32.3 52.5 32.1 52.1 32.1C51.6 32 51.2 32 50.7 32.1C49.8 32.2 48.6 32.4 47.8 32.9C47.5 33.1 47.2 33.4 47.2 33.8C47.3 33.8 47.5 33.8 47.5 33.6Z" fill="black"/>
<path d="M48.6 38.4C49.1 38.5 49.5 38.6 50 38.7C50.5 38.7 50.9 38.7 51.4 38.7C51.9 38.7 52.3 38.6 52.8 38.5C53.2 38.4 53.8 38.3 54 38C54.1 37.8 54 37.7 53.8 37.6C53.6 37.5 53.4 37.6 53.2 37.6C53 37.7 52.8 37.7 52.6 37.7C52.2 37.8 51.8 37.9 51.3 37.9C50.9 37.9 50.4 38 50 38C49.6 38 49.1 38 48.7 38.1C48.4 38 48.3 38.3 48.6 38.4Z" fill="black"/>
<path d="M56.8 34.3C56.8 35.2 56.8 36 56.9 36.9C56.9 37.3 56.9 37.7 56.9 38.2C56.9 38.6 56.8 39.1 57 39.5C57.1 39.9 57.8 40 57.9 39.5C58 39.1 58.9 39.4 59.1 39.5C59.6 39.9 59.6 40.5 59.4 41C59.1 42 57.9 42.8 57 42.1C56.6 41.8 56.2 42.4 56.5 42.7C57.1 43.4 58.1 43.3 58.8 42.9C59.6 42.5 60.2 41.7 60.3 40.8C60.4 39.9 60.2 39 59.3 38.5C58.9 38.3 58.5 38.2 58.1 38.3C57.7 38.4 57.5 38.6 57.1 38.8C57.3 39 57.6 39.1 57.8 39.3C58 38.9 57.9 38.4 57.9 38C57.9 37.6 57.9 37.1 57.8 36.7C57.7 35.8 57.6 35 57.3 34.1C57.3 33.9 56.7 34 56.8 34.3Z" fill="black"/>
<path d="M51.6 44.9C51.7 45.5 51.7 46 52.1 46.5C52.4 46.9 52.9 47.2 53.4 47.3C54.7 47.6 56.3 47.4 57.7 47.3C59.2 47.2 60.7 47 62.2 46.6C62.7 46.5 63.3 46.4 63.6 45.9C63.9 45.5 63.8 44.9 64 44.5C64.2 44.1 63.8 43.7 63.4 43.9C63.1 44.1 63 44.4 62.9 44.7C62.9 45 62.9 45.2 62.6 45.4C62.4 45.5 62.1 45.6 61.9 45.6C60.7 45.9 59.4 46.1 58.1 46.3C56.8 46.5 55.6 46.6 54.3 46.6C53.7 46.6 53.1 46.6 52.6 46.2C52.2 45.8 51.9 45.2 51.7 44.7C51.8 44.7 51.6 44.8 51.6 44.9Z" fill="black"/>
<path d="M50.2 37.5C50.2 37.4 50.1 37.3 50.1 37.2C50.1 37.1 50.1 37 50.1 36.9C50.1 36.7 50 36.5 50 36.3C50 36.2 49.9 35.9 49.9 35.8C49.9 35.6 49.9 35.4 49.9 35.3V35.2C49.9 35 49.9 35.3 49.9 35.2C49.9 35.1 49.9 35.1 49.9 35C49.9 34.9 49.9 34.9 50 34.8C50 34.9 50 34.8 50 34.8L50.1 34.7C50.1 34.6 50 34.8 50.1 34.7L50.2 34.6C50.2 34.6 50.3 34.6 50.2 34.6H50.3C50.2 34.7 50.2 34.6 50.3 34.6C50.3 34.6 50.4 34.6 50.3 34.6C50.2 34.6 50.4 34.6 50.4 34.6C50.3 34.6 50.4 34.6 50.4 34.6C50.3 34.6 50.5 34.6 50.5 34.7C50.4 34.6 50.5 34.7 50.5 34.7L50.6 34.8L50.7 34.9C50.7 34.9 50.6 34.8 50.7 34.9C50.8 35 50.8 35.1 50.9 35.2C51 35.4 51.1 35.5 51.2 35.7C51.2 35.6 51.2 35.7 51.2 35.7C51.2 35.8 51.2 35.8 51.3 35.9C51.3 36 51.4 36.1 51.4 36.2C51.5 36.6 51.6 36.9 51.6 37.3V37.4C51.6 37.5 51.6 37.4 51.6 37.4C51.6 37.3 51.7 37.2 51.8 37.2C51.8 37.2 52 37.1 51.9 37.2C51.9 37.2 52 37.2 51.9 37.2C52 37.2 51.9 37.2 51.9 37.2C51.9 37.2 51.8 37.1 51.8 37.2C51.9 37.3 51.8 37.2 51.7 37.1C51.7 37.1 51.6 37 51.7 37C51.7 37.1 51.7 36.9 51.6 36.9C51.6 36.9 51.6 36.8 51.5 36.8C51.4 36.7 51.5 36.8 51.5 36.8C51.4 36.6 51.4 36.4 51.3 36.3C51.3 36.1 51.2 35.9 51.2 35.6C51.2 35.5 51.2 35.4 51.1 35.2C51.1 35.1 51.1 35.1 51.1 35V34.9C51.1 35.1 51.1 35.2 50.9 35.3C50.8 35.3 50.7 35.4 50.6 35.4C50.5 35.4 50.5 35.4 50.4 35.3C50.4 35.3 50.4 35.3 50.3 35.2L50.4 35.3C50.4 35.2 50.4 35.3 50.4 35.4V35.5C50.4 35.6 50.4 35.6 50.4 35.7C50.4 35.8 50.4 35.8 50.4 35.7C50.4 35.8 50.4 35.9 50.4 36C50.4 36 50.4 36.2 50.4 36.1V36.2C50.4 36.3 50.3 36.4 50.3 36.5C50.2 36.7 50.4 36.4 50.3 36.6L50.2 36.7L50.1 36.8C50 36.9 50.2 36.7 50.1 36.8C49.9 37 49.8 37.4 50.1 37.7C50.3 37.9 50.7 38 51 37.7C51.5 37.2 51.7 36.5 51.7 35.8C51.7 35.5 51.7 35.2 51.5 34.9C51.4 34.5 51.1 34.1 50.7 34C50.1 33.9 49.7 34.4 49.8 34.9C49.9 35.3 49.9 35.7 50 36C50.1 36.6 50.3 37.2 50.7 37.7C51 38 51.3 38.2 51.7 38.1C52.2 38.1 52.5 37.8 52.6 37.3C52.7 36.9 52.6 36.5 52.5 36.1C52.4 35.8 52.4 35.4 52.2 35.1C52 34.5 51.7 33.8 51.1 33.3C50.8 33.1 50.5 32.9 50.1 32.9C49.8 32.9 49.4 33.1 49.2 33.3C48.7 33.7 48.6 34.5 48.6 35.1C48.6 35.5 48.7 35.9 48.8 36.3C48.9 36.5 48.9 36.7 49 36.9C49.1 37 49.1 37.1 49.2 37.1C49.3 37.2 49.3 37.3 49.4 37.3C49.8 38 50.3 37.9 50.2 37.5Z" fill="black"/>
<path d="M45.5 31.6C45.7 31.4 45.9999 31.3 46.2999 31.2C46.5999 31.1 46.8 31 47.1 30.9C47.4 30.8 47.7 30.7 47.9 30.7C48.2 30.7 48.6 30.7 48.9 30.4C49.1 30.2 48.9999 29.9 48.7999 29.8C48.8999 29.9 48.9 30 49 30V29.9C49 29.8 48.8999 29.8 48.7999 29.7C48.6999 29.6 48.6 29.6 48.5 29.6C48.3 29.6 48.0999 29.6 47.7999 29.6C47.4999 29.7 47.0999 29.7 46.7999 29.9C46.0999 30.1 45.5 30.6 45 31.1C44.9 31.4 45.2 31.8 45.5 31.6Z" fill="black"/>
<path d="M62.2 28.6C62.9 28.7 63.6 28.9 64.3 29.2C64.6 29.3 64.9 29.5 65.2 29.6C65.5 29.8 65.9 30.2 66.3 30.1C66.2 30.1 66.1 30.1 66.1 30.1C66.1 30.1 66.1 30.1 66.2 30.1C66.5 30.1 66.8 29.9 66.7 29.6C66.7 29.6 66.7 29.6 66.7 29.5C66.7 29.6 66.7 29.7 66.7 29.7C66.8 29.4 66.6 29.2 66.4 29C66.2 28.9 66.1 28.8 65.9 28.6C65.5 28.4 65.1 28.2 64.8 28.1C64 27.8 63.2 27.8 62.4 27.9C61.9 28 61.9 28.5 62.2 28.6Z" fill="black"/>
<path d="M61.1 37.7C61.5 37.9 61.9 38 62.4 38.1C62.9 38.2 63.3 38.2 63.8 38.2C64.2 38.2 64.7 38.2 65.1 38.1C65.5 38.1 66.1 38 66.4 37.7C66.5 37.6 66.5 37.4 66.3 37.3C65.9 37.1 65.4 37.3 65 37.3C64.6 37.3 64.1 37.4 63.7 37.4C62.8 37.4 61.9 37.4 61.1 37.3C60.9 37.3 60.9 37.6 61.1 37.7Z" fill="black"/>
<path d="M62.8 36.9C62.8 36.8 62.8 36.7 62.8 36.6C62.8 36.5 62.8 36.4 62.8 36.3C62.8 36.1 62.7 35.9 62.7 35.7C62.7 35.5 62.7 35.3 62.7 35.1C62.7 35 62.7 34.9 62.7 34.8V34.7C62.7 34.6 62.7 34.8 62.7 34.7C62.7 34.6 62.7 34.6 62.8 34.5V34.4C62.8 34.4 62.8 34.3 62.8 34.4C62.8 34.5 62.8 34.3 62.8 34.3V34.2C62.8 34.2 62.8 34.1 62.9 34.1C63 34 62.8 34.2 62.9 34.1C62.9 34.1 62.9 34.1 63 34C63 34 62.9 34.1 63 34H63.1C63 34.1 63 34 63.1 34H63.2C63 34 63.2 34 63.2 34C63.2 34 63.2 34 63.3 34C63.2 34 63.2 34 63.3 34C63.4 34 63.2 33.9 63.3 34C63.3 34 63.4 34 63.4 34.1C63.3 34 63.4 34.1 63.4 34.1L63.5 34.2C63.6 34.3 63.5 34.1 63.5 34.2C63.6 34.4 63.7 34.5 63.8 34.7C63.9 35 64.1 35.4 64.1 35.8C64.2 36.2 64.2 36.5 64.2 37C64.2 37 64.2 37.1 64.2 37C64.2 37.1 64.2 37.1 64.2 37C64.3 36.9 64.3 36.9 64.5 36.8C64.6 36.8 64.5 36.8 64.5 36.8C64.6 36.9 64.5 36.8 64.5 36.8C64.4 36.7 64.5 36.8 64.5 36.8C64.5 36.8 64.5 36.7 64.4 36.7C64.4 36.7 64.4 36.8 64.4 36.7C64.4 36.7 64.4 36.6 64.3 36.6C64.3 36.6 64.3 36.5 64.3 36.6C64.3 36.5 64.2 36.4 64.2 36.3C64.2 36.2 64.2 36.1 64.1 36C64.1 35.9 64.1 36 64.1 36C64.1 35.9 64.1 35.9 64.1 35.8C64.1 35.6 64.1 35.3 64 35.1C64 35 64 34.9 64 34.8C64 34.7 64 34.7 64 34.6C64 34.4 64.1 34.6 63.9 34.8C63.8 34.9 63.7 34.9 63.6 35C63.4 35 63.3 35 63.2 34.9C63.2 34.8 63.2 34.8 63.2 34.9V35C63.2 35.1 63.3 35.2 63.3 35.3V35.4V35.5C63.3 35.6 63.3 35.6 63.3 35.7C63.3 35.7 63.3 35.9 63.3 35.8C63.3 35.9 63.3 36 63.2 36.1V36.2C63.2 36.1 63.2 36.2 63.2 36.3C63.1 36.4 63.1 36.5 63 36.6C63.1 36.5 63 36.6 63 36.6L62.9 36.7C62.7 36.9 62.7 37.4 62.9 37.6C63.2 37.8 63.5 37.8 63.8 37.6C64.3 37.1 64.6 36.5 64.6 35.8C64.7 35.2 64.5 34.3 64 33.9C63.5 33.6 62.9 34 62.8 34.6C62.8 34.9 62.9 35.3 62.9 35.6C63 36.2 63 36.9 63.4 37.5C63.6 37.8 63.9 38.1 64.3 38.2C64.8 38.3 65.3 38.1 65.5 37.6C65.6 37.3 65.6 36.9 65.6 36.6C65.6 36.2 65.5 35.8 65.4 35.4C65.2 34.7 65 34 64.5 33.5C64 33 63.2 32.8 62.6 33.2C62 33.6 61.8 34.3 61.8 35C61.8 35.4 61.8 35.9 61.9 36.3C62 36.5 62 36.7 62.1 36.9C62.2 37 62.2 37.1 62.3 37.2C62.4 37.3 62.4 37.4 62.4 37.5C62.4 37.5 62.9 37.3 62.8 36.9Z" fill="black"/>
<path d="M60.2 32.5C60.3 32.2 60.6 32.1 60.9 32C61.4 31.9 61.8 31.8 62.3 31.8C62.8 31.8 63.3 31.8 63.8 31.9C64.2 32 64.6 32 64.9 32.2C65 32.2 65 32.3 65.1 32.3C65.1 32.3 65.2 32.3 65.2 32.4C65.3 32.5 65.3 32.6 65.4 32.5C65.5 32.5 65.6 32.4 65.6 32.3C65.6 31.9 65.2 31.7 64.9 31.6C64 31.3 63 31.3 62 31.4C61.3 31.5 59.9 31.7 59.8 32.6C60 32.6 60.2 32.6 60.2 32.5Z" fill="black"/>
<path d="M68.8 59.3C68.8 59.4 68.8 59.5 68.8 59.6C68.8 59.7 68.8 59.8 68.7 59.9C68.7 60.1 68.6 60.3 68.6 60.5V60.6C68.6 60.7 68.6 60.7 68.6 60.8C68.6 60.7 68.6 60.7 68.6 60.8C68.6 60.9 68.6 61 68.5 61.1C68.5 61.2 68.4 61.4 68.4 61.5C68.4 61.6 68.4 61.7 68.4 61.8C68.4 61.9 68.5 62 68.5 62.1C68.6 62.2 68.8 62.3 68.9 62.2C69 62.2 69.1 62.1 69.2 62C69.3 61.9 69.3 61.9 69.3 61.8C69.3 61.9 69.3 61.9 69.3 61.8C69.4 61.7 69.4 61.5 69.4 61.4C69.4 61.2 69.5 60.9 69.5 60.6C69.5 60.4 69.5 60.1 69.4 59.9C69.4 59.8 69.3 59.7 69.3 59.6C69.3 59.5 69.2 59.4 69.2 59.2C69.2 59 68.8 59 68.8 59.3Z" fill="black"/>
<path d="M68.3 64.3V64.4C68.3 64.4 68.2 64.5 68.3 64.5C68.4 64.5 68.5 64.4 68.6 64.4C68.4 64.4 68.2 64.6 68.2 64.7V64.8C68.2 64.7 68.3 64.7 68.3 64.6C68.2 64.7 68.2 64.8 68.1 64.9C68.1 65 68.1 65 68 65.1C68 65.2 67.9 65.3 67.9 65.5C67.9 65.8 67.8 66.1 67.8 66.4C67.8 66.6 67.9 66.8 68.1 66.9C68.2 67 68.4 67 68.5 67C68.7 66.9 68.9 66.8 68.9 66.6C69 66.3 69 66 69 65.7C69 65.6 69 65.5 69 65.3C69 65.2 69 65.2 69 65.1C69 65 69 65 69 64.9C69 64.8 68.9 64.8 68.9 64.7C68.9 64.8 68.9 64.9 69 64.9V64.8C69 64.6 68.9 64.4 68.7 64.4C68.8 64.5 68.9 64.5 68.9 64.6C68.9 64.7 68.9 64.5 68.9 64.5V64.4C68.9 64.1 68.5 64 68.3 64.3Z" fill="black"/>
<path d="M68.4 69.2C68.4 69.5 68.3 69.9 68.3 70.2C68.3 70.4 68.3 70.5 68.3 70.7C68.3 70.8 68.3 70.9 68.3 70.9C68.3 71.2 68.5 71.4 68.7 71.5C68.6 71.4 68.5 71.3 68.4 71.3C68.4 71.3 68.4 71.4 68.5 71.4C68.6 71.7 69.1 71.7 69.3 71.4C69.3 71.4 69.3 71.3 69.4 71.3C69.3 71.4 69.2 71.5 69.1 71.5C69.3 71.4 69.5 71.2 69.5 71C69.5 70.9 69.5 70.8 69.5 70.7C69.5 70.5 69.5 70.4 69.5 70.2C69.5 69.9 69.4 69.5 69.4 69.2C69.4 69.1 69.4 69 69.3 68.9C69.2 68.8 69.1 68.8 69 68.8C68.6 68.8 68.4 69 68.4 69.2Z" fill="black"/>
<path d="M68 74.3C68 74.7 67.9 75 67.9 75.4C67.9 75.6 67.9 75.7 67.9 75.9C67.9 76 67.9 76.1 67.9 76.3V76.4C67.9 76.5 68 76.6 68.1 76.7C68.2 76.9 68.6 76.9 68.7 76.7C68.8 76.6 68.8 76.5 68.9 76.3C68.9 76.2 68.9 76.1 68.9 76C68.9 75.8 68.9 75.6 68.9 75.5C68.9 75.1 68.8 74.8 68.8 74.4C68.8 74.2 68.7 74 68.4 74C68.2 73.9 68.1 74.1 68 74.3Z" fill="black"/>
<path d="M67.7 79C67.7 79.2 67.7 79.4 67.7 79.6C67.7 79.8 67.7 80 67.7 80.3C67.7 80.5 67.7 80.8 67.7 81C67.7 80.9 67.7 81 67.7 81.1C67.7 81.2 67.7 81.2 67.7 81.3C67.7 81.4 67.6 81.6 67.6 81.7C67.6 82.2 68.3 82.4 68.5 81.9C68.7 81.6 68.7 81.3 68.7 81C68.7 80.7 68.8 80.4 68.7 80.2C68.7 79.9 68.6 79.7 68.5 79.5C68.4 79.3 68.2 79.1 68.1 78.9C67.9 78.6 67.6 78.7 67.7 79Z" fill="black"/>
<path d="M68.3 84.9C68.1 85.3 68 85.7 67.9 86.1C67.9 86.3 67.8 86.6 67.8 86.8C67.8 86.9 67.8 87.1 67.8 87.2C67.8 87.3 67.8 87.3 67.9 87.4C67.9 87.3 67.9 87.3 67.9 87.4C68 87.5 68 87.6 68.1 87.7C68.3 87.9 68.6 87.9 68.8 87.6L68.9 87.5V87.4C68.9 87.5 68.9 87.5 68.9 87.4C68.9 87.3 68.9 87.3 68.9 87.2C68.9 87.1 68.9 87 68.9 86.9C68.9 86.7 68.9 86.5 68.9 86.3C68.9 86.1 68.9 85.9 68.9 85.7C68.9 85.5 68.9 85.4 69 85.2C69 85 69 84.9 68.8 84.8C68.6 84.7 68.4 84.7 68.3 84.9Z" fill="black"/>
<path d="M68.2 90.5C68.2 90.7 68.3 91 68.3 91.2C68.3 91.4 68.3 91.7 68.3 91.9C68.3 92.2 68.3 92.4 68.3 92.7C68.3 92.8 68.3 93 68.3 93.2C68.4 93.5 68.7 93.6 68.9 93.6C69.3 93.5 69.3 93 69.4 92.7C69.4 92.4 69.4 92.2 69.4 91.9C69.4 91.4 69.2 90.8 69 90.3C68.9 90.1 68.7 89.9 68.5 90C68.2 90 68.1 90.3 68.2 90.5Z" fill="black"/>
<path d="M68.8 95.2C68.7 95.4 68.7 95.7 68.6 95.9C68.6 96.2 68.6 96.4 68.6 96.7C68.6 97 68.6 97.2 68.7 97.5C68.7 97.6 68.7 97.7 68.8 97.9C68.8 98 68.9 98.1 68.9 98.2C69 98.3 69.1 98.4 69.2 98.5C69.4 98.6 69.6 98.5 69.7 98.4C70 98.1 69.9 97.7 69.8 97.4C69.8 97.4 69.8 97.3 69.8 97.2C69.8 97.3 69.8 97.1 69.8 97.1C69.8 97 69.8 96.9 69.8 96.8C69.8 96.5 69.8 96.3 69.7 96C69.7 95.8 69.6 95.6 69.6 95.4C69.6 95.2 69.5 95 69.3 95C69.1 94.9 68.9 95 68.8 95.2Z" fill="black"/>
<path d="M69 100.8C69 100.9 69 101 69 101.1V101.2V101.3C69 101.4 68.9 101.4 68.9 101.5V101.6C68.9 101.7 68.9 101.8 68.8 101.9C68.8 102.1 68.7 102.3 68.7 102.6C68.7 102.8 68.7 103.2 68.8 103.4C69 103.7 69.5 103.7 69.7 103.4C69.8 103.2 69.8 102.9 69.8 102.6C69.8 102.4 69.8 102.1 69.7 101.9C69.7 101.7 69.6 101.5 69.6 101.3C69.6 101.2 69.6 101.2 69.6 101.3V101.2V101.1C69.6 101 69.6 100.9 69.6 100.8C69.5 100.5 69.1 100.5 69 100.8Z" fill="black"/>
<path d="M69.8 106.3C69.8 106.5 69.8 106.7 69.7 106.9V107V107.1C69.7 107.2 69.7 107.3 69.7 107.4C69.7 107.6 69.7 107.8 69.7 108.1C69.7 108.3 69.7 108.6 69.8 108.8C70 109.1 70.5 109.1 70.7 108.8C70.8 108.6 70.8 108.3 70.8 108.1C70.8 107.9 70.8 107.7 70.8 107.4C70.8 107.3 70.8 107.2 70.8 107.1C70.8 107 70.8 107 70.8 107.1C70.8 107.1 70.8 107.1 70.8 107C70.8 106.9 70.8 106.9 70.8 106.8C70.8 106.6 70.8 106.4 70.7 106.2C70.7 106 70.5 105.8 70.3 105.8C70 105.9 69.9 106.1 69.8 106.3Z" fill="black"/>
<path d="M45.4 59.1C45.4 59.2 45.3 59.3 45.3 59.5C45.3 59.6 45.2 59.7 45.2 59.8C45.1 60 45.1 60.3 45.1 60.5C45.1 60.8 45.1 61 45.2 61.3C45.2 61.4 45.2 61.6 45.3 61.7C45.3 61.8 45.3 61.8 45.3 61.7C45.3 61.8 45.4 61.9 45.4 61.9C45.5 62 45.6 62 45.7 62.1C45.8 62.1 46 62.1 46.1 62C46.2 61.9 46.2 61.8 46.2 61.7C46.2 61.6 46.2 61.6 46.2 61.5C46.2 61.4 46.2 61.4 46.2 61.5C46.2 61.4 46.2 61.2 46.1 61.1C46.1 61 46.1 60.9 46 60.8C46 60.7 46 60.7 46 60.8V60.7C46 60.6 46 60.6 46 60.5C46 60.3 45.9 60.1 45.9 59.9C45.9 59.8 45.9 59.7 45.8 59.6C45.8 59.5 45.8 59.4 45.8 59.3C46 58.8 45.5 58.8 45.4 59.1Z" fill="black"/>
<path d="M45.8 64.2C45.8 64.3 45.8 64.3 45.8 64.3C45.8 64.3 45.8 64.5 45.8 64.4C45.9 64.3 46 64.3 46 64.2C45.8 64.2 45.7 64.4 45.7 64.6V64.7C45.7 64.6 45.7 64.5 45.8 64.5C45.7 64.6 45.7 64.7 45.7 64.9C45.7 65 45.7 65 45.7 65.1C45.7 65.2 45.7 65.4 45.7 65.5C45.7 65.8 45.8 66.1 45.8 66.4C45.9 66.6 46 66.8 46.2 66.8C46.4 66.8 46.5 66.8 46.6 66.7C46.8 66.6 46.9 66.4 46.9 66.2C46.9 65.9 46.8 65.6 46.8 65.3C46.8 65.2 46.8 65.1 46.7 64.9C46.7 64.8 46.7 64.8 46.6 64.7C46.6 64.6 46.5 64.5 46.4 64.4C46.4 64.5 46.5 64.5 46.5 64.6V64.5C46.4 64.3 46.3 64.2 46.1 64.2C46.2 64.2 46.3 64.3 46.4 64.3C46.5 64.4 46.4 64.2 46.4 64.2V64.1C46.3 63.8 45.9 63.9 45.8 64.2Z" fill="black"/>
<path d="M45.5 69C45.5 69.3 45.4 69.7 45.4 70C45.4 70.2 45.4 70.3 45.4 70.5C45.4 70.6 45.4 70.7 45.4 70.7C45.4 71 45.6 71.2 45.8 71.3C45.7 71.2 45.6 71.1 45.5 71.1C45.5 71.1 45.5 71.2 45.6 71.2C45.7 71.5 46.2 71.5 46.4 71.2C46.4 71.2 46.4 71.1 46.5 71.1C46.4 71.2 46.3 71.3 46.2 71.3C46.4 71.2 46.6 71 46.6 70.8C46.6 70.7 46.6 70.6 46.6 70.5C46.6 70.3 46.6 70.2 46.6 70C46.6 69.7 46.5 69.3 46.5 69C46.5 68.9 46.5 68.8 46.4 68.7C46.3 68.6 46.2 68.6 46.1 68.6C45.6 68.6 45.5 68.8 45.5 69Z" fill="black"/>
<path d="M46 74.1C46 74.5 45.9 74.8 45.9 75.2C45.9 75.4 45.9 75.5 45.9 75.7C45.9 75.8 45.9 75.9 45.9 76.1V76.2C45.9 76.3 46 76.4 46.1 76.5C46.2 76.7 46.6 76.7 46.7 76.5C46.8 76.4 46.8 76.3 46.9 76.1C46.9 76 46.9 75.9 46.9 75.8C46.9 75.6 46.9 75.4 46.9 75.3C46.9 74.9 46.8 74.6 46.8 74.2C46.8 74 46.7 73.8 46.4 73.8C46.2 73.7 46 73.9 46 74.1Z" fill="black"/>
<path d="M46.7 78.6C46.6 78.8 46.4 79 46.3 79.2C46.2 79.4 46.1 79.7 46.1 80C46.1 80.3 46.1 80.5 46.1 80.8C46.1 81.1 46.2 81.4 46.3 81.7C46.5 82.1 47.2 81.9 47.2 81.5C47.2 81.4 47.2 81.2 47.1 81.1C47.1 81 47.1 81 47.1 80.9C47.1 80.9 47.1 80.7 47.1 80.8C47.1 80.6 47.1 80.3 47.1 80.1C47.1 79.9 47.1 79.7 47.1 79.4C47.1 79.2 47.1 79 47.1 78.8C47.1 78.5 46.8 78.4 46.7 78.6Z" fill="black"/>
<path d="M45.8 85C45.9 85.3 45.9 85.7 45.9 86.1C45.9 86.3 45.9 86.5 45.9 86.7C45.9 86.8 45.9 86.9 45.9 87C45.9 87.1 45.9 87.1 45.9 87.2C45.9 87.3 45.9 87.3 45.9 87.2V87.3C45.9 87.4 45.9 87.4 46 87.4C46.2 87.6 46.5 87.7 46.7 87.5C46.8 87.4 46.8 87.3 46.9 87.2C46.9 87.1 46.9 87.1 46.9 87.2C46.9 87.1 47 87.1 47 87C47 86.9 47 86.7 47 86.6C47 86.4 47 86.1 46.9 85.9C46.8 85.5 46.7 85.1 46.5 84.7C46.4 84.5 46.2 84.5 46.1 84.6C45.9 84.6 45.8 84.8 45.8 85Z" fill="black"/>
<path d="M45.8 90.1C45.6 90.6 45.4 91.1 45.4 91.7C45.4 92 45.4 92.2 45.4 92.5C45.4 92.8 45.4 93.3 45.9 93.4C46.2 93.5 46.5 93.3 46.5 93C46.5 92.9 46.5 92.7 46.5 92.5C46.5 92.2 46.5 92 46.5 91.7C46.5 91.5 46.5 91.2 46.5 91C46.5 90.7 46.5 90.5 46.6 90.3C46.6 90.1 46.5 89.8 46.3 89.8C46 89.7 45.9 89.8 45.8 90.1Z" fill="black"/>
<path d="M45.2 95.1C45.2 95.4 45.2 95.5 45.1 95.7C45.1 96 45.1 96.2 45 96.5C45 96.6 45 96.7 45 96.8C45 96.8 45 97 45 96.9C45 97 45 97 45 97.1C44.9 97.4 44.8 97.8 45.1 98.1C45.2 98.2 45.4 98.3 45.6 98.2C45.7 98.1 45.9 98.1 45.9 97.9C45.9 97.8 46 97.8 46 97.7C46.1 97.6 46.1 97.4 46.1 97.3C46.1 97 46.2 96.8 46.2 96.5C46.2 96.2 46.2 96 46.2 95.7C46.2 95.5 46.1 95.2 46 95C45.9 94.8 45.8 94.7 45.6 94.7C45.3 94.7 45.2 94.9 45.2 95.1Z" fill="black"/>
<path d="M45.2 100.6C45.2 100.7 45.2 100.8 45.2 100.9V101V101.1C45.2 101.2 45.1 101.2 45.1 101.3V101.4C45.1 101.5 45.1 101.6 45 101.7C45 101.9 44.9 102.1 44.9 102.4C44.9 102.6 44.9 103 45 103.2C45.2 103.5 45.7 103.5 45.9 103.2C46 103 46 102.7 46 102.4C46 102.2 46 101.9 45.9 101.7C45.9 101.5 45.8 101.3 45.8 101.1C45.8 101 45.8 101 45.8 101.1V101V100.9C45.8 100.8 45.8 100.7 45.8 100.6C45.7 100.3 45.2 100.3 45.2 100.6Z" fill="black"/>
<path d="M44.2 106.1C44.2 106.3 44.2 106.5 44.1 106.7V106.8V106.9C44.1 107 44.1 107.1 44.1 107.2C44.1 107.4 44.1 107.6 44.1 107.9C44.1 108.1 44.1 108.4 44.2 108.6C44.4 108.9 44.9 108.9 45.1 108.6C45.2 108.4 45.2 108.1 45.2 107.9C45.2 107.7 45.2 107.5 45.2 107.2C45.2 107.1 45.2 107 45.2 106.9C45.2 106.8 45.2 106.8 45.2 106.9C45.2 106.9 45.2 106.9 45.2 106.8C45.2 106.7 45.2 106.7 45.2 106.6C45.2 106.4 45.2 106.2 45.1 106C45.1 105.8 44.9 105.6 44.7 105.6C44.3 105.7 44.2 105.9 44.2 106.1Z" fill="black"/>
<path d="M42.7 110.1C42.2 110 41.7 110 41.2 109.9C41 109.9 40.7 109.8 40.5 109.8C40.2 109.8 40 109.8 39.7 109.8C39.4 109.8 39.2 110 39.2 110.3C39.2 110.6 39.4 110.8 39.7 110.8C39.9 110.8 40.2 110.8 40.4 110.8C40.6 110.8 40.9 110.8 41.1 110.7C41.6 110.6 42.1 110.6 42.6 110.5C43 110.6 43 110.2 42.7 110.1Z" fill="black"/>
<path d="M57.7 64C57 70.2 56.4 76.4 56.1 82.6C55.8 88.5 55.6 94.8 56.7 100.6C56.8 101.2 57.7999 101.1 57.7999 100.5C57.4999 97.5 57.1 94.6 57 91.6C56.9 88.5 56.9 85.5 57 82.4C57.2 76.3 57.5999 70.2 57.7999 64.1C57.8999 63.9 57.7 63.9 57.7 64Z" fill="black"/>
<path d="M50.3 62.2C50.8 63.1 51.4 63.8 52.2 64.5C52.6 64.8 52.9 65.1 53.3 65.4C53.7 65.7 54.1 66 54.6 66.2C55.4 66.4 56.2 66.1 56.8 65.5C57.1 65.2 57.3 64.9 57.6 64.7C57.9 64.4 58.1 64.2 58.4 63.9C58.7 63.5 58.4 62.9 57.9 63.1C57.2 63.3 56.8 63.9 56.3 64.4C55.9 64.8 55.5 65.3 54.9 65.1C54.5 65 54.2 64.7 53.8 64.5C53.4 64.2 53.1 64 52.7 63.7C52 63.1 51.3 62.5 50.7 61.9C50.5 61.6 50.1 61.9 50.3 62.2Z" fill="black"/>
<path d="M57.3 63.4C57.3 63.5 57.3 63.6 57.4 63.7C57.4 63.8 57.5 63.8 57.5 63.9C57.6 64 57.7 64.2 57.8 64.3C58 64.5 58.1 64.7 58.3 64.9C58.6 65.3 59 65.6 59.3 66C59.5 66.2 59.9 66.2 60.1 66C60.3 65.8 60.3 65.5 60.1 65.2C59.8 64.8 59.4 64.5 59.1 64.1C58.9 63.9 58.8 63.8 58.6 63.6C58.4 63.4 58.2 63.2 57.9 63.1C57.5 63 57.3 63.2 57.3 63.4Z" fill="black"/>
<path d="M59.8 65.9C60 65.8 60.2 65.8 60.4 65.7C60.6 65.6 60.8 65.5 61 65.4C61.4 65.2 61.7 65 62.1 64.8C62.8 64.4 63.5 64 64.2 63.6C64.8 63.3 64.3 62.4 63.7 62.7C63 63.1 62.3 63.5 61.5 63.9C61.2 64.1 60.8 64.3 60.5 64.5C60.3 64.6 60.2 64.7 60 64.8C59.8 64.9 59.7 65.1 59.5 65.3C59.3 65.6 59.5 66 59.8 65.9Z" fill="black"/>
<path d="M41.6 25.4C43 23.9 45 22.9 47.1 22.8C49.5 22.7 51 24.2 53.1 25.1C54.9 25.9 56.7 25.8 58 24.3C58.9 23.3 59.5 22.7 60.9 22.5C62.1 22.3 63.3 22.2 64.5 22.2C67.2 22.3 69 23.6 70.3 26C71.4 28.1 72.2 30.3 72.8 32.6C74 37.4 74 42.3 72.9 47.1C72 51.1 71.2 56.8 75.7 59C76.5 59.4 77.2 58.2 76.4 57.8C71.3 55.4 74.2 48.3 74.8 44.2C75.4 39.3 74.9 34.3 73.3 29.7C71.9 25.8 69.9 21.4 65.3 21C64.1 20.9 62.9 21 61.7 21.2C60.7 21.3 59.6 21.4 58.7 22C57.8 22.6 57.4 23.6 56.5 24.2C55.1 25.1 53.4 24 52.1 23.3C50.2 22.1 48.4 21.5 46.1 21.9C44.1 22.3 42.3 23.4 41.3 25.3C41.2 25.3 41.4 25.6 41.6 25.4Z" fill="black"/>
<path d="M38.4 17.6C33.7 23.5 30.8 30.2 29.4 37.6C28.2 44.1 27.9 50.9 28.2 57.4C28.3 61.1 28.7 64.8 29.3 68.5C29.5 69.5 30.9 69 30.8 68.1C29.8 61.5 29.6 54.9 29.9 48.3C30.2 41.9 31 35.6 33.2 29.6C34.7 25.5 36.9 21.9 39.6 18.4C40.1 17.8 39 17 38.4 17.6Z" fill="black"/>
<path d="M70.9 12.1C66.9 7.60001 61.1 5.4 55.1 6.2C49.8 6.9 45 9.8 41.7 14C41.1 14.7 42.4 15.4 42.9 14.7C45.9 10.8 50.4 8.20001 55.2 7.60001C60.7 6.90001 66 9.1 69.7 13.2C70.5 14 71.6 12.9 70.9 12.1Z" fill="black"/>
<path d="M82 65.1C84.8 53 85.1 39.9 80.6 28.2C79.2 24.5 77.3 21 74.9 17.7C74.3 16.9 72.9 17.7 73.5 18.5C78.7 25.5 81.6 33.8 82.5 42.4C83.3 49.9 82.6 57.5 81.3 64.9C81.3 65.3 81.9 65.5 82 65.1Z" fill="black"/>
<path d="M42.8 23.5C40.9 24.6 39.9 27.4 39.4 29.5C38.7 32.5 39.6 35.9 40 38.9C40.7 45.3 43 54.8 36.8 59.3C36.2 59.7 36.8 60.8 37.4 60.3C43.2 56.2 42.2 48.6 41.4 42.4C41.2 40.6 41 38.7 40.7 36.9C40.5 35.1 40.1 33.3 40.1 31.6C40 28.8 41.4 26 43.1 23.9C43.3 23.7 43.1 23.3 42.8 23.5Z" fill="black"/>
<path d="M42.9 26.9C44 28 45.7 28.2 47.1 28.1C47.9 28 48.6 27.9 49.3 27.6C49.7 27.5 50.1 27.3 50.4 27.1C50.7 26.9 51 26.8 51 26.4C51 26.3 51 26.2 50.9 26.2C50.6 26.1 50.4 26.2 50.1 26.3C49.8 26.5 49.4 26.6 49.1 26.8C48.4 27 47.8 27.2 47.1 27.3C45.7 27.4 44.4 27 43.1 26.5C42.9 26.4 42.7 26.8 42.9 26.9Z" fill="black"/>
<path d="M50.3 26.7C50.2 27.4 49.9 28.1 49.6 28.7C49.5 28.9 49.6 29.3 49.9 29.3C50.9 29.3 51.8 29 52.7 28.9C53.8 28.7 54.8 28.4 55.9 28C56.9 27.7 57.8 27.2 58.7 26.7C59.4 26.3 60.3 25.7 60.7 25C60.9 24.6 60.4 24.2 60.1 24.5C59.5 25 58.9 25.6 58.2 26C57.4 26.5 56.5 26.9 55.5 27.3C53.7 28 51.9 28.5 49.9 28.5C50 28.7 50.1 28.9 50.2 29.1C50.6 28.3 50.7 27.6 50.7 26.7C50.7 26.5 50.4 26.5 50.3 26.7Z" fill="black"/>
<path d="M60.1 25.3C60 25.5 59.8999 25.7 59.7999 25.9C59.6999 26.1 59.6 26.3 59.5 26.5C59.3 26.9 59 27.2 58.7 27.5C58.6 27.6 58.5 27.7 58.4 27.8C58.3 27.9 58.3 28.2 58.4 28.3C58.7 28.5 59 28.2 59.1 28C59.4 27.7 59.7 27.3 59.9 26.9C60 26.7 60.1 26.4 60.2 26.2C60.3 25.9 60.2999 25.7 60.2999 25.4C60.4999 25.2 60.2 25.2 60.1 25.3Z" fill="black"/>
<path d="M58.9 28.3C59.7 28.3 60.4 28.2 61.2 28C62.1 27.8 62.9 27.5 63.7 27.2C64.5 26.9 65.3 26.6 66 26.2C66.4 26 66.7 25.8 67.1 25.6C67.4 25.4 67.8 25.2 67.9 24.8C68 24.6 67.8 24.4 67.5 24.3C67.1 24.3 66.9 24.6 66.6 24.7C66.3 24.9 66 25.1 65.6 25.3C64.9 25.7 64.1 26.1 63.4 26.4C62.6 26.7 61.9 27 61.1 27.3C60.4 27.5 59.6 27.8 58.9 28C58.7 28.1 58.7 28.3 58.9 28.3Z" fill="black"/>
<path d="M41.6 14.7C42.1 14.6 42.1 14 41.9 13.6C41.8 13.3 41.5 13 41.2 12.9C40.6 12.6 39.8 12.6 39.2 13C38.6 13.3 38.2 13.8 37.9 14.4C37.7 14.7 37.6 15 37.5 15.3C37.4 15.7 37.2 16 37.2 16.4C37.2 16.8 37.3 17.2 37.5 17.6C37.8 18 38.3 18.1 38.7 17.8C38.8 17.7 38.9 17.4 38.8 17.3L38.7 17.2C38.6 17.1 38.6 17.1 38.6 17.1C38.5 17 38.5 17 38.4 16.9C38.5 17 38.4 16.8 38.4 16.8C38.5 16.9 38.3 16.6 38.4 16.8C38.3 16.6 38.4 16.3 38.5 16C38.7 15.5 38.9 14.8 39.3 14.4C39.3 14.3 39.4 14.3 39.5 14.2L39.6 14.1L39.7 14C39.7 14 39.9 13.9 39.8 13.9C39.9 13.8 40.1 13.8 40.2 13.8C40.1 13.8 40.3 13.8 40.3 13.8H40.4C40.3 13.8 40.3 13.8 40.4 13.8C40.5 13.8 40.5 13.8 40.6 13.8H40.7C40.6 13.8 40.6 13.8 40.7 13.8C40.7 13.8 40.8 13.9 40.8 13.8C40.8 13.8 41 14 40.9 13.9C40.9 14 41 14 41 14.1L41.1 14.2C41.2 14.6 41.4 14.7 41.6 14.7Z" fill="black"/>
<path d="M41.1 14.8C42.2 16.6 44.4 17.1 46.4 17.3C49.6 17.6 52.9 17.5 56 17.3C59.1 17.1 62.2 16.8 65.3 16.3C67.7 15.9 70.4 15.2 72.2 13.5C72.7 13 72 12.1 71.5 12.5C69.6 13.9 67.5 14.6 65.2 15C62.3 15.5 59.4 15.8 56.5 16C53.7 16.2 50.9 16.2 48.2 16.2C45.8 16.1 43.5 16 41.6 14.5C41.3 14.2 40.9 14.5 41.1 14.8Z" fill="black"/>
<path d="M71.4 13.4C71.6 13.3 71.8 13.2 72 13.2C72.2 13.2 72.4 13.2 72.6 13.2C72.7 13.2 72.7 13.2 72.8 13.2C72.9 13.2 72.8 13.2 72.9 13.2H73C73 13.2 73.1 13.3 73.1 13.2C73.1 13.2 73.3 13.3 73.2 13.2C73.2 13.2 73.3 13.3 73.2 13.2C73.2 13.2 73.3 13.3 73.2 13.3C73.2 13.4 73.2 13.4 73.3 13.5C73.4 14.1 73.8 14.5 74.1 15C74.2 15.1 74.3 15.2 74.3 15.3C74.3 15.3 74.4 15.5 74.3 15.4C74.3 15.5 74.4 15.5 74.4 15.6C74.4 15.6 74.4 15.8 74.4 15.7C74.4 15.8 74.4 15.8 74.4 15.9C74.4 15.9 74.4 16.1 74.4 16C74.4 16.1 74.4 16.2 74.4 16.3C74.4 16.5 74.6 16.7 74.7 16.8C74.9 16.9 75.1 16.8 75.3 16.7C76 16.1 75.6 15.1 75.1 14.5C74.9 14.2 74.7 14 74.5 13.7C74.5 13.6 74.4 13.6 74.4 13.5C74.4 13.6 74.4 13.4 74.3 13.4C74.2 13.2 74.2 13.1 74.1 12.9C73.7 12.3 73.1 12.1 72.4 12.2C71.8 12.3 70.9 12.4 70.8 13.1C71 13.3 71.3 13.4 71.4 13.4Z" fill="black"/>
<path d="M75 16C73.7 16.2 72.5 17 71.1 17.3C69.7 17.6 68.1999 17.8 66.7999 18C63.6999 18.5 60.4999 18.9 57.2999 19.2C51.0999 19.7 44.9 19.3 39.1 17C38.5 16.7 38.1999 17.8 38.7999 18C44.8999 20.4 51.5 20.7 57.9 20.3C61.1 20.1 64.3 19.7 67.5 19.2C69 19 70.6 18.8 72.1 18.3C73.2 18 74.6 17.5 75.2 16.6C75.6 16.3 75.3 16 75 16Z" fill="black"/>
<path d="M57.3 113.3C88.1175 113.3 113.1 88.3175 113.1 57.5C113.1 26.6825 88.1175 1.7 57.3 1.7C26.4825 1.7 1.5 26.6825 1.5 57.5C1.5 88.3175 26.4825 113.3 57.3 113.3Z" stroke="black" stroke-width="2" stroke-miterlimit="10"/>
</svg>
