<svg width="114" height="114" viewBox="0 0 114 114" fill="none" xmlns="http://www.w3.org/2000/svg">
<path d="M56.9 113.4C87.7175 113.4 112.7 88.4175 112.7 57.6C112.7 26.7825 87.7175 1.8 56.9 1.8C26.0825 1.8 1.10001 26.7825 1.10001 57.6C1.10001 88.4175 26.0825 113.4 56.9 113.4Z" fill="#E73331"/>
<path opacity="0.46" d="M52.2 100.4C78.7649 100.4 100.3 78.8649 100.3 52.3C100.3 25.7351 78.7649 4.2 52.2 4.2C25.6351 4.2 4.10001 25.7351 4.10001 52.3C4.10001 78.8649 25.6351 100.4 52.2 100.4Z" fill="white"/>
<path d="M99.4 42.6C99.3 40.8 99.1 41.2 98.3 41C97.5 40.8 97.1 40.3 96.7 40C95.9 39.3 93.7 37.9 91.7 38C90.3 38.1 90.3 38.8 88.1 39.1C86.5 39.3 86.1 39 85.3 39.3C84.9 39.5 83.8 40.5 83.1 41.5C83.2 42.1 83.1 42.6 82.7 43.1C82.7 43.2 82.7 43.2 82.7 43.3C82.7 43.5 82.7 43.6 82.7 43.8C82.8 43.8 82.9 43.8 83 43.9C82.9 43.9 82.8 43.9 82.7 43.9V44C82.8 44.4 82.8 44.7 82.9 45.1C82.9 45.2 83 45.3 83.1 45.4C83.2 45.6 83.3 45.8 83.4 46C83.5 46.1 83.6 46.3 83.7 46.5C83.8 46.6 84 46.7 84.1 46.8C84.3 46.9 84.6 47 84.8 47.1C85.1 47.3 85.4 47.5 85.7 47.7C85.7 47.7 85.7 47.7 85.8 47.8C85.9 47.9 86.1 48 86.2 48.1C86.7 48.5 87 49 87.3 49.6C87.4 49.7 87.5 49.7 87.6 49.7C88.7 50 88.4 56.1 86.7 67.7C85 77.9 84.4 77.8 83.3 80.3C82.6 80 81.8 79.9 80.9 80C77.5 80.5 74.5 79 71.4 77.6C67.8 76 64.6 74.1 60.6 74.1C56.8 74 52.9 74.3 49.3 72.7C49.2 72.6 49 72.6 48.9 72.6C48.5 70.8 47.3 69.2 47.4 67.3C47.4 67.1 47.4 67 47.4 66.8C49.1 66.5 50.7 66 52.3 65.3C52.3 65.3 52.4 65.3 52.4 65.2H52.5C54.3 65.1 56.3 65.1 57.9 64.2C59.6 63.2 59.9 61.8 60.1 60.1C60.1 60 60.2 59.8 60.2 59.7C61.8 58.2 62.3 55.7 61 53.9C61.3 53.6 61.5 53.2 61.6 52.8C61.6 52.7 61.6 52.7 61.6 52.6C61.9 52.7 62.3 52.7 62.7 52.6C65.7 52.2 66.8 48.2 66.6 45.7C66.5 44.5 65.8 43.4 64.6 43.1C63.6 42.8 62.6 42.9 61.6 43.3C61.4 43.4 61.2 43.5 61.1 43.6C61 43.4 61 43.3 61 43.1C60.7 42.1 60.4 41.2 60.2 40.2C59.6 38.2 59.1 36.1 58.4 34.1C57.8 32.3 56.6 30.8 54.5 30.8C52.7 30.8 51.9 32.6 50.2 32.9C49.1 33.1 47.3 33.4 46.3 32.8C44.7 31.8 43.4 31 41.4 31C39.7 31 38 31.5 36.4 32.1C35.1 32.6 33 33.7 31.6 33.1C31.3 32.9 30.9 32.9 30.6 32.8C30.4 30.4 27 28.9 25.7 31.6C25.6 31.8 25.6 31.9 25.5 32.1C24.4 34.4 23.4 36.8 23.1 39.4C22.9 41.4 23.1 43.3 23.6 45.3C23.4 45.5 23.2 45.6 23.1 45.8C22.8 45.5 22.4 45.2 21.9 45.1C20.4 44.7 19.1 45.6 18.6 47C18 48.5 17.6 50.5 18.5 52C18.7 52.3 19 52.6 19.2 52.9C19.2 52.9 19.2 52.9 19.3 53C20 53.9 20.8 54.5 22 54.5C22.7 54.5 23.3 54.3 23.9 53.8C23.9 53.9 23.9 53.9 23.9 54C23.9 54.8 24.2 55.4 24.7 55.9C25 59 26.4 61.9 29 63.7C30.5 64.8 32.3 65.2 34.2 65.4C34.3 65.4 34.3 65.5 34.4 65.5C36.9 66.3 39.3 66.8 41.8 67C41.7 67.3 41.6 67.7 41.7 68.1C41.8 69.4 41.9 70.6 41.4 71.8C41.2 72.3 40.9 72.8 40.6 73.3C40 73.3 39.4 73.6 38.9 74.1C37.8 75.2 35.4 75.3 33.9 75.6C32 76 30.2 76.4 28.6 77.4C28.1 77.3 27.6 77.5 27 77.8C25.7 78.6 24.5 79.6 23.7 80.9C23 81.9 22.9 82.9 22.9 83.9C22.8 84.1 22.7 84.3 22.6 84.5C21.7 87.1 20.8 89.8 20.1 92.4C19.5 94.6 19.6 96.8 19.5 99C22.1 101.6 25.2 103.7 28.3 105.7C28.9 104 29.3 102.2 29.2 100.5C29.6 102.1 29.9 103.6 30.2 105.2C30.3 105.8 30.4 106.4 30.5 107C31.5 107.5 32.5 108 33.6 108.4C35.2 109 37 109.4 38.6 110C39.2 110.3 39.8 110.5 40.5 110.9C40.9 111 41.3 111.1 41.7 111.2C44 111.8 46.4 112.1 48.8 112.5C50.9 112.8 53 113.1 55.1 113.3C57.3 113.3 59.4 113.2 61.6 113C62.6 112.9 63.7 112.7 64.8 112.5C66.3 108 67 103.4 66.7 98.6C66.7 97.9 66.4 97.3 66 96.9C66.2 95.9 66.3 94.9 66.4 93.9C66.5 92.5 66.6 91 66.6 89.6C72.1 91.9 77.5 93.7 83.5 93.1C88.3 92.7 98.1 93.1 97.1 85.9C97.2 85.2 97.1 84.4 96.9 83.7C96.3 81.3 97.3 53.6 96.4 53C96 51.1 97.7 52.6 99 49.9C99.6 48.1 99.5 44.4 99.4 42.6Z" fill="#FFE9C0"/>
<path d="M65.5 104.4C66 100.5 66.5 96.6 67 92.7C67.1 91.6 65.5 91.4 65.1 92.4C64.4 91.6 63.5 91.1 62.8 90.3C59 86.1 59.9 79.9 61.4 75C61.6 74.2 60.9 73.5 60.1 73.7C58.3 74.1 56.5 74.2 54.8 73.9C54 73.8 53.3 74.3 53.5 75.2C54.5 79.9 51.1 84.5 46.3 84.8C41.5 85.1 37.6 81.2 37.6 76.4C37.6 76.2 37.5 76 37.4 75.8C37.6 75.1 37.1 74.3 36.2 74.5C34.3 75 32.4 75.5 30.5 76.1C29.9 76.3 29.6 76.8 29.8 77.4C30.3 79.8 30.8 82.3 31.3 84.7C31.7 86.8 32.3 88.9 32.3 91C32.3 92 32.1 93 31.5 93.9C31 94.7 30.2 95.4 29.8 96.3C29.1 98 29.5 100 29.9 101.8C30.2 103.5 30.7 105.3 31.9 106.7C33.1 108.2 34.9 109 36.7 109.7C40.7 111.3 45 112.2 49.3 112.7C54.3 113.3 59.4 113.2 64.4 113C65.1 113 65.5 112.4 65.4 111.7C65.1 109.6 65 107.4 65 105.2C65.1 105.2 65.4 104.9 65.5 104.4Z" fill="#52AE32"/>
<path d="M86.8 37.8C86.9 37.6 86.9 37.4 86.8 37.2C86.2 36.3 85.4 35.5 84.6 34.8C83 33.3 81.1 32.1 78.8 32.2C77.6 32.2 76.6 32.7 75.8 33.3C75.6 33.2 75.3 33.2 75 33.4C74.7 33.7 74.4 34 74.1 34.4C73.7 34.8 73.4 35.2 73 35.6C72.8 35.8 72.8 36 72.8 36.2C72.5 36.8 72.2 37.4 72 38C71.9 38.1 71.8 38.2 71.7 38.4C71.6 38.8 71.6 39.1 71.5 39.5C71.4 39.9 71.3 40.3 71.3 40.8C71.3 41 71.4 41.2 71.5 41.3C71.1 42.6 71.4 44.1 72.2 45.3C73.2 46.8 74.7 47.6 76.4 47.9C77.4 48 78.3 48.1 79.3 48C80.2 47.9 81.1 47.8 81.9 47.4C82.7 47 83.2 46.4 83.2 45.5C83.2 44.8 83 44.2 82.8 43.5C83.1 41.6 84.1 39.9 85.8 38.9C86 38.9 86.2 38.8 86.3 38.8C86.9 38.8 87.1 38.1 86.8 37.8Z" fill="#5D514C"/>
<path d="M77.5 34.9C77.3 34.6 76.8 34.5 76.4 34.5C76.1 34.5 75.8 34.4 75.5 34.4C75.2 34.3 74.9 34.2 74.6 34.1C74.5 34.1 74.5 34 74.4 34H74.3C74.3 34 74.2 34 74.2 33.9C74.3 34 74.2 33.9 74.1 33.8C74 33.7 73.8 33.7 73.7 33.7C73.5 33.7 73.3 33.8 73.2 34C73.1 34.2 73.1 34.4 73.2 34.6C73.3 34.8 73.5 34.9 73.7 35C74.3 35.2 74.9 35.4 75.5 35.6C75.8 35.7 76.2 35.7 76.6 35.7C77 35.7 77.5 35.7 77.7 35.3C77.6 35.1 77.6 35 77.5 34.9Z" fill="#9D9D9C"/>
<path d="M75.2 36.6C74.7 36.5 74.2 36.3 73.7 36.2C73.2 36.1 72.6 35.9 72 36.1C71.8 36.2 71.7 36.5 71.9 36.7C72.3 37.1 72.9 37.3 73.4 37.4C73.9 37.6 74.4 37.7 74.9 37.8C75.2 37.9 75.6 37.7 75.6 37.4C75.7 37 75.5 36.6 75.2 36.6Z" fill="#9D9D9C"/>
<path d="M82.5 32.8C82.3 32.7 82.1 32.6 81.9 32.6C81.7 32.5 81.6 32.5 81.4 32.5C81 32.4 80.6 32.3 80.3 32.2C79.6 32 78.8 31.8 78.1 31.6C77.8 31.5 77.5 31.7 77.4 32C77.3 32.3 77.5 32.6 77.8 32.7C78.6 32.8 79.3 33 80.1 33.1C80.9 33.3 81.6 33.5 82.4 33.5C82.7 33.5 82.9 33 82.5 32.8Z" fill="#9D9D9C"/>
<path d="M85 39.4C84.9 39.3 84.7 39.2 84.6 39.1C84.5 39 84.3 38.9 84.2 38.9C83.9 38.8 83.6 38.6 83.3 38.5C82.7 38.2 82.1 37.9 81.6 37.7C81.3 37.6 80.9 37.6 80.8 37.9C80.7 38.2 80.7 38.6 81 38.7C81.6 39 82.2 39.2 82.8 39.5C83.1 39.6 83.4 39.8 83.7 39.9C83.9 40 84 40.1 84.2 40.1C84.4 40.2 84.5 40.2 84.7 40.2C84.9 40.2 85.1 40.2 85.2 40C85.2 39.8 85.2 39.5 85 39.4Z" fill="#9D9D9C"/>
<path d="M86.7 37.7C86.7 37.7 86.6 37.7 86.7 37.7C86.7 37.4 86.8 37.2 86.6 36.9C84.9 34.1 80.8 33.4 78.1 35.3C77 36.1 76.1 37.2 75.5 38.5C73.6 40.4 73.3 43.6 74.9 45.8C76.6 48.1 80.4 48.8 82.7 46.9C83.4 46.4 83.7 45.2 82.8 44.7C82.8 44.1 82.5 43.5 81.8 43.1C81.2 42.7 80.4 42.6 79.8 42.3C79.1 42 78.9 41.4 78.6 40.7C78.2 40 78 39.2 78.6 38.6C79.1 38.1 79.7 37.8 80.4 37.7C82.3 37.4 84.8 38.2 86.5 39C87.2 39.3 87.3 38.1 86.7 37.7Z" fill="#423A35"/>
<path d="M60.5 77.5C59.2 77.6 57.8 77.7 56.5 77.8C55.2 77.8 53.9 77.7 52.6 77.9C52.2 78 52.3 78.6 52.6 78.7C52.7 78.7 52.9 78.8 53 78.8C52.6 79.1 52.8 79.8 53.3 79.9C55.6 80.5 58 80.7 60.4 80.4C60.8 80.4 61 80.1 61.1 79.7C61.1 79.2 61.2 78.7 61.2 78.2C61.1 77.8 60.8 77.4 60.5 77.5Z" fill="#FFFCE5"/>
<path d="M38 79.6C37.9 79.6 37.9 79.6 37.8 79.6H37.7C38.2 79.4 38.1 78.7 37.5 78.6C36.3 78.5 35.1 78.7 34 78.9C33.4 79 32.8 79 32.3 79.1C31.9 79.2 31.4 79.2 31 79.5C30.1 80.1 30.2 81.3 31.1 81.9C32.1 82.5 33.3 81.9 34.3 81.6C34.4 81.6 34.6 81.5 34.7 81.5C35.9 81.3 37 81.1 38.2 80.8C38.8 80.7 38.7 79.5 38 79.6Z" fill="#FFFCE5"/>
<path d="M65.3 38.5C65.2 36.8 64.4 35.4 63.6 34C63.2 33.3 62.7 32.1 62 31.5C62.4 30.8 62.4 29.9 62.6 29.1C62.9 27.9 63.2 26.6 63.1 25.4C63 23.8 62 21.2 60.4 20.4C59.7 20.1 58.9 20.5 58.9 21.3C58.9 21.8 59 23.2 58.5 23.4C58.2 23.6 57.5 23.1 57 22.8C56.9 21.2 56.4 19.5 55.5 18.2C54.9 17.2 54.1 16.5 53.2 16C52.7 15.2 51.9 14.7 51.1 14.1C50 13.4 48.8 12.7 47.7 11.9C47.1 11.5 46.4 11.9 46.2 12.5C46 13.2 46 13.8 45.9 14.5C45.8 15.1 45.4 15.3 44.9 15.6C44.8 15.6 44.6 15.6 44.5 15.6C44.3 14.1 44 12.7 43.6 11.3C43.6 11.1 43.6 11 43.6 10.8L43.7 10.7C43.9 10.4 44 10 44 9.6C44 9.3 43.9 9.1 43.7 8.9C43.5 8.7 43.2 8.6 43 8.6C42.5 8.6 42.2 8.9 42 9.3C41.8 9.3 41.6 9.4 41.4 9.5C40 10.4 38.4 11.1 37.2 12.2C36.2 13.1 35 14.4 34.7 15.7C34.2 16 33.6 16.3 33.1 16.6C32.8 16.8 32.6 17 32.5 17.3C32.1 17.3 31.7 17.3 31.3 17.4C30.8 17 30.5 16.5 30.3 16C30.1 15.5 29.6 15.1 29 15.3C28.7 15.4 28.5 15.6 28.3 15.9C28.2 15.9 28.2 15.9 28.1 16C27.7 16.2 27.6 16.6 27.6 17C27 17 26.5 17.1 26.1 17.6C24.8 19.2 22.7 20.9 21.9 22.8C21.3 24.2 21.3 26 21.4 27.7C21.4 27.8 21.4 27.8 21.4 27.9C21.2 28.5 21.3 29 21.5 29.4C21.5 29.6 21.5 29.7 21.5 29.9C21.5 30.8 22 31.4 22.7 31.7C22.7 32 22.7 32.3 22.7 32.5C22.7 32.7 22.8 32.9 22.8 33.1C22.5 33.2 22.1 33.3 21.9 33.6C21.2 34.5 20.9 35.4 20.7 36.4C20.2 37.8 19.7 39.2 19.5 40.6C19.4 41.1 19.5 41.5 19.7 41.8C19.4 43.2 19.3 44.6 21 45.4C23 46.3 24.8 43.6 23.3 42.4C23.5 41.6 23.7 40.9 23.9 40.1C24 39.6 24 38.7 24.1 37.9C24.4 37 24.7 36.2 25 35.4C25.2 34.8 25 34.3 24.7 33.9C25.3 33.7 25.7 33.3 25.7 32.5C25.7 32.3 25.7 32.1 25.7 31.9C25.8 31.9 25.8 31.8 25.9 31.8C26.5 31.2 27.4 30.6 28.3 31C28.5 31.1 28.8 31.1 29 31.1V31.2C30.5 33.7 33.5 34.3 36 33C37.2 32.4 38.2 32 39.7 31.6C40.3 31.4 40.9 31.3 41.5 31.2C41.5 31.2 41.8 31.1 42.1 30.9C42.4 31 42.9 31.2 43 31.2C43.6 31.5 44.7 32.1 45.5 32.4C48.3 33.6 51.5 33.4 53.8 31.3C54.1 31 54.4 30.7 54.7 30.4C54.8 30.6 55 30.7 55.2 30.8C56.5 31.6 58.1 31.6 58.3 33.6C58.4 34.3 58.9 34.6 59.4 34.6C59.5 35.7 59.8 36.8 59.9 37.8C60.2 39.7 61.1 41.1 60.7 43.1C60.6 43.9 61.4 44.8 62.2 44.2C62.7 43.8 63.1 43.3 63.3 42.8C63.6 42.9 64 42.8 64.4 42.5C65.6 41.5 65.3 39.5 65.3 38.5Z" fill="#883A13"/>
<path d="M40.6 11.6C40.2 11.3 39.7 11.3 39.4 11.7L36.3 15.7C35.6 16.6 34.7 17.5 34.5 18.6C34 20.8 36 21.7 37.9 21.4C38.4 21.3 38.6 21 38.6 20.6C38.9 20.4 39.1 20.2 39.1 19.8C39.3 17.4 40.4 15.3 41.4 13.2C41.6 12.5 41.2 11.7 40.6 11.6Z" fill="#BD5C29"/>
<path d="M53.4 22.3C53.2 20.5 52.5 19 51.2 17.9C50.5 16.7 49.5 15.4 48.4 15.5C47.6 15.6 47.1 16.3 47.5 17C48.1 18.2 48.6 19.4 48.8 20.7C49 21.6 48.8 22.1 48.6 22.9C48.5 23.3 48.3 23.6 48.4 24.1C48.5 25.8 50.3 26 51.6 25.8C53.5 25.6 53.6 23.9 53.4 22.3Z" fill="#BD5C29"/>
<path d="M34.6 32C33.4 31.9 32.3 31.4 31.3 30.7C30.4 30 29.5 29.2 28.4 28.8C27.2 28.4 25.9 28.7 24.7 28.3C23.8 27.9 23 27.1 22.8 26.1C22.6 25.3 21.3 25.6 21.5 26.5C21.3 26.6 21.2 26.8 21.2 27.1C21.4 29.7 22.4 32.1 24.1 34.1C24.5 34.6 25.3 34.2 25.3 33.6C25.5 33.6 25.8 33.4 25.8 33.1C25.9 32.5 26.1 31.5 26.8 31.3C27.1 31.2 27.2 31 27.3 30.8C27.7 30.7 28.1 30.8 28.5 30.8C29.4 31.2 30.2 31.9 30.9 32.4C32 33.2 33.5 33.8 34.9 33.4C35.5 33.1 35.3 32.1 34.6 32Z" fill="#673010"/>
<path d="M62.6 26.6C62.6 26.5 62.6 26.5 62.7 26.4C63 25.3 62.9 24 62.8 22.9C62.8 22.5 62.5 22.2 62.1 22.2C61.8 22.2 61.4 22.5 61.4 22.9C61.5 23.9 61.7 25 61.4 26.1C61.1 27.1 60.3 27.7 59.4 28C57.4 28.7 55.2 28.6 53.6 30.2C53 30.8 53.9 31.8 54.6 31.2C54.9 30.9 55.2 30.7 55.6 30.5C55.6 30.7 55.7 30.8 55.9 30.9C56.3 31.1 56.8 31.2 57.2 31.2C57.5 32 57.9 32.8 58.5 33.4C58.4 33.9 59 34.4 59.5 34.1C59.6 34.1 59.8 34.1 59.9 34.1C60.4 33.9 60.7 33.5 61 33.1C61.7 32.3 62.1 31.5 62.4 30.5C62.6 29.5 62.8 28.4 62.9 27.3C62.9 26.9 62.8 26.7 62.6 26.6Z" fill="#673010"/>
<path d="M64.9 40C64.7 39.8 64.5 39.7 64.2 39.8C62.8 40 61.6 40.9 60.9 42.2C60.8 42.4 60.8 42.7 60.9 43C60.8 43.3 60.9 43.6 61.2 43.8C61.5 44 62 43.9 62.1 43.6C62.1 43.6 62.1 43.5 62.2 43.5L62.3 43.4C62.3 43.4 62.3 43.4 62.4 43.4C62.5 43.4 62.5 43.3 62.6 43.3C62.9 43.1 63.2 42.9 63.5 42.7C64.1 42.3 64.5 41.7 64.9 41.1C65.1 40.6 65.1 40.2 64.9 40Z" fill="#673010"/>
<path d="M23.8 44.6C23.9 44.4 23.9 44.2 23.8 44C23.6 43.4 23 43.2 22.5 43.1C22.2 43 22 43 21.7 43C21.3 42.8 20.9 42.7 20.4 42.9C20.1 43 19.9 43.2 19.9 43.6C19.7 43.7 19.5 43.9 19.5 44.2C19.5 44.5 19.8 44.9 20.2 44.9C20.4 44.9 20.7 44.9 20.9 44.9H21C21.1 44.9 21 44.9 21 44.9C21 44.9 21.1 44.9 21.2 44.9C21.3 44.9 21.4 45 21.6 45C21.7 45 21.8 45.1 21.9 45.1C22 45.1 22 45.2 22.1 45.2C22.2 45.3 22.3 45.3 22.5 45.4C22.7 45.6 23 45.7 23.3 45.8C23.6 45.9 24.1 45.7 24.1 45.3C24 45 24 44.7 23.8 44.6Z" fill="#673010"/>
<path d="M37.4 43C36.5 40.9 33.9 39.3 32 41.2C30.3 42.9 30.8 46.4 32.2 48C32.9 48.8 34 48.4 34.3 47.6C34.9 48.5 35.7 49.2 36.7 49C37.8 48.8 37.9 47.7 38 46.8C38 45.6 37.9 44.3 37.4 43Z" fill="white"/>
<path d="M51.4 40.1C50.4 39.5 49 39.5 48 40.2C47 40.9 46.6 42.2 46.5 43.3C46.4 44.6 46.1 46.4 46.6 47.7C47.2 49.1 48.8 48.8 50 48.6C50.3 48.5 50.6 48.4 50.7 48.2C51.5 48.5 52.5 48.4 53.1 47.6C54.7 45.8 53.3 41.3 51.4 40.1Z" fill="white"/>
<path d="M33.5 34.9C33.3 34.9 33 34.9 32.8 34.9C32.4 34.9 32 34.9 31.7 34.9C31.1 34.9 30.6 34.9 30.1 35.1C29.5 35.3 29.3 35.8 29.1 36.4C28.9 37 28.7 37.6 28.5 38.2C28.4 38.5 28.6 39 29 39C29.4 39.1 29.7 38.9 29.8 38.5C29.9 38.2 30 37.9 30.1 37.7C30.3 37.7 30.4 37.6 30.5 37.5C30.9 37 31.3 36.7 31.9 36.4H32C32.1 36.4 32.2 36.3 32.3 36.3C32.5 36.3 32.6 36.2 32.8 36.2H33.6C34 36.2 34.3 35.9 34.3 35.5C34.1 35.2 33.8 34.9 33.5 34.9Z" fill="#FFFCE5"/>
<path d="M53.7 37.2C53.5 36.8 53.4 36.4 53.2 36C53.1 35.8 53 35.5 52.8 35.3C52.6 35.1 52.4 35 52.1 35C51.2 34.9 50.3 34.8 49.3 34.9C48.9 34.9 48.6 35.2 48.6 35.6C48.6 35.9 48.9 36.3 49.3 36.3C50.1 36.2 50.8 36.3 51.6 36.3H51.7C51.6 36.2 51.8 36.4 51.8 36.5C51.9 36.9 52.1 37.2 52.2 37.6C52.3 37.9 52.7 38.2 53 38.1C53.6 37.9 53.9 37.6 53.7 37.2Z" fill="#FFFCE5"/>
<path d="M83.2 81.3C83.3 81.1 83.5 80.8 83.5 80.5C83.5 80 83.2 79.6 82.7 79.6C82.3 79.6 81.9 79.9 81.7 80.3V80.4C81.4 80.3 81 80.2 80.7 80.1C79.9 79.9 79 79.6 78.1 79.4C77.8 79.3 77.5 79.4 77.4 79.7C75.5 78.9 73.7 77.9 72 76.9C71.2 76.5 70.6 77.6 71.3 78.1C73.2 79.2 75.2 80.2 77.2 81.1C79.2 82 81.3 83 83.6 82.6C84.4 82.4 84.1 81.1 83.2 81.3Z" fill="#FFFCE5"/>
<path d="M31 107.4C31.1 107.4 31.1 107.4 31.2 107.5C32.2 107.9 33 108.5 34 108.9C34.1 108.9 34.1 108.9 34.2 108.9C33.5 106.4 32.7 103.8 31.8 101.3C31.2 99.4 30.5 97.6 30.3 95.6C30.2 95 29 95 29.1 95.6C29.2 96.3 29.3 96.9 29.4 97.6C29.1 97.6 28.8 97.8 28.8 98.1C28.9 100.4 29.3 102.7 30.2 104.9C30.5 105.8 30.8 106.6 31 107.4Z" fill="#46962B"/>
<path d="M63.1 112.6C63.8 112.6 64.4 112.6 65.1 112.5C65.3 111.9 65.4 111.3 65.4 110.6C65.5 109.5 65.4 108.4 65.5 107.2C65.5 106 65.6 104.9 65.7 103.7C65.9 101.4 66.1 99.1 66.4 96.8C66.4 96.5 66.2 96.3 65.9 96.2C66.2 94.9 66.5 93.5 66.3 92.2C66.3 91.9 66 91.6 65.6 91.6C65.2 91.6 65 92.1 64.9 92.2C63.5 94.8 61.7 97 59.3 99C56.2 101.6 53.6 103.9 48.7 106C42.8 108.6 38.4 108.7 38.5 109.7C38.5 110.5 41.7 111.1 45 111.6C49.2 112.4 55.3 113 63.1 112.6Z" fill="#46962B"/>
<path d="M98.1 40C98 40 97.8 39.9 97.6 39.9C97.6 39.8 97.5 39.7 97.3 39.6C96.1 39 94.8 38.6 93.5 38.4C92.3 38.2 90.7 38 89.6 38.6C89.1 38.8 88.7 39.3 88.5 39.8C88.3 40.6 88.9 40.9 89.5 41C90.8 41.2 92.1 41.2 93.4 41.1C94.9 41 96.3 40.9 97.8 41.4C98.6 41.6 99 40.3 98.1 40Z" fill="#FFFCE5"/>
<path d="M20.5 45.5C20.5 43 19.7 40.6 20.5 38.1C20.8 37.1 21.3 36.2 21.8 35.3C22 34.9 22.3 34.5 22.5 34.1C22.7 33.8 23 33.4 23 33.1C23 33 22.9 32.9 22.8 32.9C22 32.9 21.3 34.1 20.9 34.7C20.3 35.7 19.8 36.7 19.4 37.8C19 38.9 18.9 39.9 18.9 41C19 42.6 19.2 44.2 19.7 45.6C19.9 45.9 20.5 45.9 20.5 45.5Z" fill="black"/>
<path d="M24.9 34.5C22.9 31.3 21.1 27.9 22.4 24C23.6 20.3 26.9 17.8 29.9 15.5C30.4 15.1 29.7 14.3 29.2 14.6C25.8 17 22.3 19.8 21.1 23.9C20 27.8 21.7 32.1 24.6 34.7C24.7 35 25 34.8 24.9 34.5Z" fill="black"/>
<path d="M29.8 15.6C29.8 15.8 29.9 16 30 16.1C30.1 16.3 30.1 16.5 30.2 16.6C30.3 16.8 30.4 17 30.5 17.1C30.6 17.2 30.6 17.3 30.7 17.4C30.8 17.5 30.9 17.6 31 17.7C31.3 17.8 31.5 17.5 31.4 17.3C31.4 17.2 31.3 17.1 31.2 17C31.1 16.9 31.1 16.9 31 16.8C31 16.8 31 16.8 31 16.7C31 16.7 31 16.6 31 16.7C31 16.7 31 16.7 31 16.6C30.9 16.5 30.9 16.4 30.8 16.3C30.7 16.2 30.6 16.1 30.5 15.9C30.4 15.7 30.3 15.6 30.2 15.4C30.1 15.3 29.8 15.4 29.8 15.6Z" fill="black"/>
<path d="M32 17.8C34.4 16.9 35.5 14.6 37.2 12.9C38.1 12 39.1 11.2 40.2 10.5C40.8 10.2 41.4 9.8 42 9.6C42.6 9.3 43.3 9.19999 43.9 8.89999C44.3 8.69999 44 8.1 43.6 8.2C43 8.3 42.4 8.59999 41.9 8.79999C41.3 9.09999 40.7 9.4 40.1 9.7C39 10.3 38 11.1 37 12C36.1 12.8 35.3 13.8 34.6 14.7C33.8 15.7 33 16.8 31.9 17.4C31.5 17.5 31.7 17.9 32 17.8Z" fill="black"/>
<path d="M43.7 8.49999C43.6 9.09999 43.5 9.59999 43.4 10.2C43.3 10.7 43.4 11.3 43.4 11.9C43.5 13 43.6 14.2 43.9 15.3C44.1 15.9 45 15.7 44.9 15C44.7 13.9 44.5 12.9 44.4 11.8C44.4 11.3 44.4 10.7 44.3 10.2C44.3 9.69999 44.2 9.09999 44.2 8.59999C44.2 8.29999 43.8 8.19999 43.7 8.49999Z" fill="black"/>
<path d="M45 15.8C45.7 15.5 46.1 15 46.3 14.4C46.4 14 46.5 13.6 46.5 13.2C46.5 12.9 46.6 12.7 46.6 12.4C46.7 12.1 46.5 12.1 46.9 12.3C48.7 13.1 50.4 14.1 52 15.1C55.1 17 56.3 20.4 57.1 23.8C57.3 24.6 58.5 24.3 58.3 23.5C57.9 21.7 57.3 19.9 56.5 18.2C55.6 16.4 54.3 15.1 52.6 14C50.7 12.9 48.9 11.9 46.8 11.2C45.8 10.9 45.5 11.7 45.4 12.5C45.3 13.5 45.4 14.6 44.6 15.3C44.4 15.4 44.7 15.9 45 15.8Z" fill="black"/>
<path d="M58.6 23.6C58.9 23 59.2 22.4 59.4 21.7C59.5 21.4 59.6 21.1 59.7 20.7C59.7 20.6 59.9 19.8 59.9 19.7C59.7 19.7 59.6 19.7 59.4 19.8C59.8 19.9 60.4 20.8 60.7 21.1C61.2 21.6 61.6 22.2 61.9 22.9C62.7 24.3 62.7 25.7 62.4 27.2C62 29.5 61.1 31.7 59.5 33.5C59.1 34 59.8 34.7 60.2 34.2C61.3 32.9 62.3 31.4 62.9 29.8C63.6 28 64 25.8 63.5 23.9C63.2 22.9 62.7 22.1 62.1 21.2C61.5 20.4 60.9 19.5 60.2 18.9C59.5 18.3 58.8 18.8 58.6 19.5C58.2 20.7 57.9 21.9 57.6 23.1C57.7 23.8 58.4 24.2 58.6 23.6Z" fill="black"/>
<path d="M61.7 31.9C62.6 33.1 63.4 34.5 63.8 36C64.4 37.8 64.4 39.7 64 41.5C63.9 41.8 63.8 42.7 64.3 42.7C64.8 42.7 65 41.8 65.1 41.4C65.4 39.6 65.4 37.7 64.8 35.9C64.3 34.2 63.4 32.8 62.1 31.6C61.9 31.5 61.5 31.7 61.7 31.9Z" fill="black"/>
<path d="M28.3 30.4C26.3 30.5 25.2 32.3 24.5 34C23.4 37 23.2 40.3 23.1 43.4C23 46.7 23.2 50 23.6 53.3C24.1 57 25.1 61.2 28 63.9C31.6 67.1 37.3 67.2 41.9 67.3C44.7 67.3 47.4 67.2 50.1 66.8C52.3 66.5 54.6 66.1 56.7 65.3C58.4 64.6 60 63.5 61 62C62.1 60.2 62.2 58.1 62.3 56C62.4 52.6 62.3 49.3 61.9 45.9C61.5 42.2 61 38.4 59.6 35C58.7 32.7 57.2 30.2 54.5 30.1C53.6 30.1 53.6 31.4 54.5 31.4C56.6 31.5 57.7 33.8 58.4 35.5C59.5 38.2 60 41.2 60.3 44.1C60.6 47.1 60.8 50.1 60.8 53.2C60.8 56.6 61.2 60.7 58 62.9C54.6 65.3 49.7 65.5 45.8 65.8C43.3 65.9 40.8 65.9 38.4 65.7C36.2 65.5 33.8 65.3 31.7 64.6C24.8 62.1 24.4 52.9 24.2 46.7C24.1 43.3 24.2 39.9 24.8 36.6C25.1 34.8 25.8 30.9 28.1 30.6C28.4 30.6 28.4 30.4 28.3 30.4Z" fill="black"/>
<path d="M62.2 44.3C62.6 43.9 63.1 43.7 63.6 43.5C64 43.4 64.7 43.1 65.1 43.4C65.3 43.5 65.4 43.9 65.5 44C65.6 44.3 65.8 44.5 65.9 44.8C66.1 45.4 66.3 46 66.2 46.6C66.1 47.8 65.5 48.8 64.9 49.9C64.6 50.4 64.3 50.8 63.9 51.2C63.7 51.4 63.5 51.6 63.3 51.6C63 51.7 62.8 51.6 62.5 51.6C61.9 51.6 61.7 52.3 62 52.7C62.6 53.3 63.6 53 64.2 52.6C64.8 52.1 65.2 51.4 65.7 50.8C66.6 49.5 67.5 48 67.4 46.3C67.3 45.4 67 44.7 66.7 43.9C66.4 43.2 66.1 42.3 65.3 42.1C64.6 41.9 63.8 42.1 63.1 42.4C62.4 42.7 61.9 43.3 61.5 43.9C61.5 44.2 62 44.5 62.2 44.3Z" fill="black"/>
<path d="M65.4 101.5C64.3 101.5 63.2 101.8 62.1 102C61 102.2 59.8 102.3 58.7 102.5C56.4 102.8 54.1 103 51.8 103.1C47.2 103.3 42.7 103.3 38.1 102.9C36.9 102.8 35.6 102.7 34.4 102.5C33.1 102.4 31.7 102 30.4 102.1C29.9 102.1 29.8 102.8 30.3 103C31.4 103.4 32.6 103.4 33.7 103.6C34.8 103.7 35.9 103.9 37.1 104C39.4 104.2 41.7 104.3 44 104.4C48.6 104.5 53.3 104.3 57.9 103.8C59.2 103.7 60.4 103.5 61.7 103.3C62.3 103.2 63 103.1 63.6 103C64.3 102.9 65 102.8 65.6 102.6C66 102.3 66 101.5 65.4 101.5Z" fill="#FFFCE5"/>
<path d="M65.4 106.8C65.7 106.6 65.6 106.1 65.2 106.1C64 106 62.7 106.5 61.6 106.7C60.4 106.9 59.1 107.1 57.8 107.3C55.3 107.6 52.8 107.9 50.3 108C45.2 108.2 40.2 108 35.1 107.3C34.5 107.2 34.2 107.9 34.5 108.3C33.8 108.4 33.7 109.5 34.4 109.6C34.5 109.6 34.5 109.6 34.6 109.6C42.7 110.8 50.9 110.8 58.9 109.4C61.1 109 63.5 108.6 65.5 107.7C65.9 107.5 65.7 106.9 65.4 106.8Z" fill="#FFFCE5"/>
<path d="M23.8 46.2C23.4 45.7 23 45.1 22.4 44.8C21.8 44.5 21.2 44.3 20.5 44.4C19.8 44.5 19.2 44.7 18.8 45.2C18.3 45.7 18.1 46.4 17.9 47C17.7 47.7 17.5 48.5 17.5 49.2C17.5 50 17.8 50.7 18.1 51.4C18.6 52.6 19.3 54.1 20.5 54.8C21.5 55.4 23.6 55.2 23.6 53.6C23.6 53.1 23 52.8 22.7 53.2C22.4 53.5 22.2 53.8 21.7 53.8C21.2 53.8 20.8 53.4 20.5 53C20.1 52.5 19.8 51.9 19.5 51.4C19.2 50.8 18.8 50.1 18.8 49.4C18.7 48.7 18.9 48 19.1 47.3C19.3 46.8 19.4 46.1 19.9 45.8C21 45.1 22.4 45.8 23.2 46.6C23.5 47 24.1 46.6 23.8 46.2Z" fill="black"/>
<path d="M47.7 67.1C47.6 67.5 47.5 68 47.5 68.4C47.4 68.9 47.5 69.4 47.6 69.9C47.7 70.3 47.8 70.8 48 71.2C48.2 71.7 48.4 72.1 48.8 72.4C49.1 72.7 49.6 72.4 49.5 72C49.4 71.6 49.2 71.2 49.1 70.8C48.9 70.4 48.8 70 48.7 69.6C48.5 68.8 48.4 68 48.4 67.2C48.2 66.9 47.8 66.8 47.7 67.1Z" fill="black"/>
<path d="M41.7 67.1C41.8 67.5 41.8 68 41.8 68.4C41.8 68.8 41.8 69.3 41.7 69.7C41.6 70.1 41.5 70.5 41.3 70.9C41.2 71.1 41.1 71.3 41 71.5C40.9 71.7 40.7 71.9 40.6 72.1C40.5 72.3 40.5 72.6 40.7 72.7C40.9 72.9 41.1 72.9 41.3 72.8C41.7 72.5 42 71.9 42.2 71.5C42.4 71 42.6 70.5 42.6 70C42.7 69.5 42.7 69 42.6 68.5C42.5 68 42.3 67.5 42.1 67C42 66.7 41.6 66.9 41.7 67.1Z" fill="black"/>
<path d="M65.8 89.4C66.4 93.2 65.8 96.9 65.4 100.7C65 104.5 64.6 108.4 64.4 112.2C64.3 113 65.7 113 65.7 112.2C66 108.2 66.3 104.1 66.8 100.1C67.2 96.5 67.9 92.7 66.2 89.3C66 89.1 65.8 89.3 65.8 89.4Z" fill="black"/>
<path d="M41.9 71.2C39.4 73.1 36.3 74.4 33.2 75C30.2 75.5 27.4 76.4 25.1 78.6C22.7 80.9 21.5 84.1 20.7 87.2C19.7 90.8 19.2 94.6 18.9 98.3C18.8 99 20 99 20 98.3C20.3 94.6 20.7 90.8 21.7 87.2C22.6 83.8 24.1 80.2 27.1 78.1C29.6 76.3 32.7 75.7 35.7 75.2C38.3 74.8 40.6 73.5 42.2 71.4C42.3 71.3 42.1 71.1 41.9 71.2Z" fill="black"/>
<path d="M28.6 89.6C27.4 92 27.8 94.9 28.3 97.4C28.8 100.4 29.3 103.4 29.8 106.4C29.9 107.2 31.2 106.9 31 106.1C30.6 103.3 30.1 100.5 29.6 97.8C29.3 96.5 29.1 95.2 28.9 93.9C28.8 92.5 28.9 91.2 28.9 89.8C28.9 89.5 28.7 89.4 28.6 89.6Z" fill="black"/>
<path d="M28.7 97.8C28.6 99 28.4 100.2 28.2 101.4C28.1 102.6 27.9 103.7 27.7 104.9C27.6 105.6 28.7 105.9 28.8 105.2C29 104 29.2 102.8 29.3 101.5C29.4 100.3 29.3 99 29.2 97.8C29.1 97.5 28.7 97.5 28.7 97.8Z" fill="black"/>
<path d="M31.9 48.1C32.2 48.5 32.8 48.7 33.3 48.9C33.8 49.1 34.3 49.2 34.9 49.3C35.4 49.4 36 49.4 36.5 49.3C37 49.2 37.7 49.1 38.1 48.8C38.4 48.6 38.2 48.1 37.9 48.2C37.7 48.3 37.4 48.4 37.2 48.4C37 48.5 36.7 48.5 36.5 48.6C36 48.7 35.5 48.7 35 48.6C34.5 48.6 34 48.4 33.6 48.3C33.1 48.1 32.7 47.8 32.3 47.7C31.9 47.7 31.8 48 31.9 48.1Z" fill="black"/>
<path d="M46.7 48.4C47.8 48.9 49.1 49.1 50.3 49C51.5 48.9 52.8 48.6 53.8 47.8C54.1 47.6 53.8 47 53.5 47.2C51.7 48.6 49 48.6 46.9 48C46.7 48 46.5 48.3 46.7 48.4Z" fill="black"/>
<path d="M33.9 48.5C34 48.2 33.9 47.8 33.9 47.5C33.9 47.1 33.8 46.8 33.8 46.4C33.7 45.8 33.4 44.9 33.9 44.4C34.3 44 34.8 44.1 35.2 44.3C35.7 44.6 36 45.1 36.1 45.7C36.2 46.1 36.1 46.6 36 47C36 47.2 35.9 47.5 35.8 47.7C35.7 47.9 35.6 48.2 35.6 48.4C35.6 48.6 35.6 48.8 35.8 48.9C36 49 36.2 48.9 36.3 48.7C36.5 48.3 36.6 47.7 36.8 47.2C36.9 46.7 37 46.2 36.9 45.7C36.8 44.8 36.4 44.1 35.7 43.6C35.1 43.2 34.3 43 33.6 43.3C33.2 43.5 32.9 43.8 32.8 44.2C32.6 44.7 32.6 45.1 32.7 45.6C32.8 46.1 32.8 46.5 32.9 47C33 47.4 33 48 33.2 48.4C33.5 48.7 33.8 48.7 33.9 48.5Z" fill="black"/>
<path d="M46.9 48.2C46.7 47 46.5 45.7 46.6 44.5C46.6 43.3 46.9 42.1 47.6 41.2C48.3 40.4 49.4 39.9 50.5 40.2C51.6 40.5 52.4 41.5 52.8 42.5C53.4 44 53.2 45.7 53 47.3C53 47.8 53.7 47.8 53.7 47.3C53.9 45.7 54 44 53.5 42.4C53.1 41.2 52.2 40.1 51 39.6C48.4 38.5 46.1 41.1 46 43.5C45.9 45.1 46.1 46.7 46.6 48.2C46.7 48.4 47 48.3 46.9 48.2Z" fill="black"/>
<path d="M31.9 47.6C31.7 46.3 31.2 45.1 31.3 43.7C31.4 42.6 31.9 41.4 32.9 40.9C33.9 40.4 35.2 40.5 36 41.2C36.8 41.9 37.2 43.1 37.4 44.1C37.7 45.7 37.6 47.2 37.5 48.8C37.5 49.3 38.2 49.3 38.3 48.8C38.5 47.2 38.3 45.5 38 44C37.8 42.8 37.4 41.5 36.3 40.7C35.3 39.9 34 39.8 32.9 40.2C31.7 40.7 31 41.8 30.8 43C30.5 44.5 30.8 46.4 31.5 47.7C31.7 47.9 31.9 47.8 31.9 47.6Z" fill="black"/>
<path d="M42.4 51.5L42.5 51.4C42.6 51.4 42.6 51.4 42.7 51.4C42.7 51.4 42.8 51.4 42.8 51.5V51.6C42.8 51.7 42.7 51.7 42.8 51.6L42.9 51.5C42.8 51.5 42.9 51.5 42.9 51.5C43 51.5 43 51.4 43.1 51.4L43.2 51.3C43.2 51.3 43.2 51.3 43.3 51.3C43.2 51.3 43.3 51.3 43.3 51.3C43.4 51.3 43.5 51.2 43.7 51.2H43.8C43.7 51.2 43.8 51.2 43.8 51.2C43.9 51.2 43.9 51.2 44 51.2C44.1 51.2 44.1 51.2 44.2 51.2H44.3C44.4 51.2 44.2 51.2 44.3 51.2C44.4 51.2 44.5 51.2 44.6 51.3C44.6 51.3 44.7 51.3 44.7 51.4C44.6 51.4 44.7 51.4 44.7 51.4C44.7 51.4 44.8 51.4 44.8 51.5C44.9 51.5 44.9 51.6 44.9 51.6C44.9 51.6 44.9 51.6 45 51.6C44.9 51.6 45 51.6 45 51.6L45.1 51.7C45.1 51.7 45.1 51.7 45.2 51.8C45.2 51.8 45.3 51.9 45.2 51.8C45.3 51.9 45.3 52 45.4 52.1C45.4 52.2 45.4 52 45.4 52.1C45.4 52.1 45.4 52.1 45.4 52.2C45.4 52.3 45.4 52.3 45.4 52.4V52.5C45.4 52.4 45.4 52.5 45.4 52.5C45.4 52.6 45.4 52.6 45.4 52.7C45.4 52.8 45.4 52.8 45.4 52.9C45.4 53 45.4 52.9 45.4 52.9V53C45.4 53.1 45.3 53.2 45.3 53.3C45.3 53.4 45.3 53.3 45.3 53.3V53.4C45.3 53.5 45.2 53.5 45.2 53.6C45.2 53.7 45.1 53.7 45.1 53.8C45.1 53.8 45.1 53.7 45.1 53.8L45 53.9L44.9 54C44.9 54 44.9 54 44.8 54.1C44.9 54 44.8 54.1 44.8 54.1C44.7 54.1 44.7 54.2 44.6 54.2C44.6 54.2 44.6 54.2 44.5 54.2C44.5 54.2 44.4 54.2 44.5 54.2C44.3 54.3 44.2 54.3 44 54.4C43.7 54.5 43.8 55.1 44.1 55.1C44.5 55.2 44.9 55 45.2 54.8C45.5 54.6 45.8 54.3 45.9 54C46.3 53.4 46.4 52.7 46.2 52C45.8 50.6 44 50.1 42.8 50.6C42.5 50.7 41.9 51.1 42 51.6C42 51.8 42.2 51.9 42.4 52C42.7 52.1 42.8 51.8 42.7 51.6C42.7 51.2 42.5 51.3 42.4 51.5Z" fill="black"/>
<path d="M36 54.4C35.6 54.5 35.2 54.6 34.8 54.8C34.4 55 34.1 55.3 33.8 55.6C33.5 55.9 33.4 56.3 33.4 56.7C33.4 57.1 33.5 57.5 33.7 57.9C33.8 58 34 58 34.1 58C34.1 58 34.1 58 34.2 57.9C34.3 57.8 34.3 57.6 34.3 57.5C34.2 57.4 34.2 57.2 34.2 57.1C34.2 57 34.2 57.1 34.2 57.1V57V56.9V56.8C34.2 56.5 34.4 56.2 34.5 56C34.9 55.5 35.6 55.2 36.2 54.9C36.5 54.7 36.3 54.3 36 54.4Z" fill="black"/>
<path d="M34.7 55.6C35.2 56.6 35.7 57.5 36.3 58.5C36.7 59.2 37.1 60.2 37.7 60.7C38.3 61.2 39.2 61.1 40 61.1C41 61.1 41.9 61 42.9 60.8C44.8 60.5 46.7 60 48.5 59.3C49.8 58.7 51.1 57.8 51.4 56.3C51.5 55.7 50.6 55.5 50.5 56.1C50.3 57.5 48.9 58.2 47.7 58.7C46.2 59.3 44.6 59.8 43 60C42.2 60.1 41.3 60.2 40.5 60.3C39.7 60.3 38.5 60.6 38 59.8C37 58.4 36.3 56.8 35.3 55.4C34.9 55.1 34.6 55.3 34.7 55.6Z" fill="black"/>
<path d="M63.6 46.7C63.1 47.1 62.6 47.7 62.3 48.3C62.1 48.6 62.5 49 62.8 48.8C63 48.7 63.1 48.6 63.3 48.5C63.4 48.5 63.5 48.4 63.5 48.4C63.5 48.4 63.5 48.4 63.6 48.4H63.7C63.8 48.4 63.9 48.3 63.9 48.3C64 48.3 64.1 48.2 64.2 48.2C64.1 48.2 64.2 48.2 64.2 48.2H64.3C64.5 48.2 64.6 48.2 64.7 48.1C65 48 65 47.5 64.7 47.3C64.4 47.2 64.1 47.2 63.9 47.2C63.7 47.2 63.5 47.3 63.3 47.3C63.1 47.4 62.9 47.5 62.7 47.6C62.5 47.7 62.3 47.9 62.2 48C62.4 48.1 62.6 48.3 62.8 48.4C62.8 48.3 62.9 48.2 62.9 48.2V48.1C62.9 48.1 62.9 48.1 62.9 48C63 47.9 63 47.7 63.1 47.6C63.3 47.3 63.5 47.1 63.7 46.9C64.1 46.8 63.8 46.5 63.6 46.7Z" fill="black"/>
<path d="M21.2 49.4C21.5 49.7 21.7 50 22 50.2C22.3 50.5 22.6 50.7 22.9 50.9C23.1 50.6 23.2 50.4 23.4 50.1C23.1 50 22.7 49.9 22.4 49.9C22.1 49.9 21.7 49.9 21.3 50.1C21 50.2 20.8 50.3 20.8 50.6C20.7 50.9 20.9 51.1 21.2 51.1C21.4 51.1 21.6 51 21.8 51C21.9 51 21.9 51 22 51C22.1 51 21.9 51 22 51H22.1C22.2 51 22.3 51 22.4 51H22.5C22.5 51 22.5 51 22.6 51C22.7 51 22.6 51 22.6 51L22.9 51.1C23 51.1 23.1 51.2 23.2 51.2C23.4 51.3 23.6 51.2 23.7 51C23.8 50.8 23.8 50.6 23.6 50.4C23.3 50.2 23 49.9 22.7 49.7C22.4 49.4 22 49.2 21.7 49C21.5 48.9 21.3 49 21.2 49.1C21.1 49 21.1 49.2 21.2 49.4Z" fill="black"/>
<path d="M35.9 44.7C35.6 44.1 35 43.6 34.2 43.6C34.1 43.6 34 43.6 33.9 43.6C33.8 43.6 33.6 43.6 33.5 43.7C33.1 43.9 32.8 44.2 32.7 44.6C32.5 45.3 32.9 46.2 33.6 46.5C33.7 46.5 33.7 46.5 33.8 46.5C33.8 46.5 33.7 46.5 33.7 46.6C33.6 46.7 33.6 46.7 33.6 46.8C33.6 46.9 33.6 46.9 33.6 47C33.6 47.1 33.6 47.2 33.7 47.3C33.7 47.4 33.7 47.6 33.8 47.7C33.6 47.9 33.6 48.3 34 48.4C34.6 48.6 35.2 48.6 35.8 48.6C36.3 48.6 36.3 47.8 35.9 47.8C36.1 47.5 36.2 47.1 36.3 46.8C36.3 46.2 36.3 45.4 35.9 44.7ZM34.9 45.5C34.8 45.8 34.4 46 34.2 45.9C33.8 45.8 33.7 45.3 33.7 45C33.7 44.7 34 44.5 34.2 44.4C34.4 44.4 34.6 44.4 34.8 44.6C34.9 44.9 35 45.3 34.9 45.5Z" fill="black"/>
<path d="M49.3 48.2C49.4 47.9 49.3 47.5 49.3 47.2C49.3 46.8 49.2 46.5 49.2 46.1C49.1 45.5 48.8 44.6 49.3 44.1C49.7 43.7 50.2 43.8 50.6 44C51.1 44.3 51.4 44.8 51.5 45.4C51.6 45.8 51.5 46.3 51.4 46.7C51.4 46.9 51.3 47.2 51.2 47.4C51.1 47.6 51 47.9 51 48.1C51 48.3 51 48.5 51.2 48.6C51.4 48.7 51.6 48.6 51.7 48.4C51.9 48 52 47.4 52.2 46.9C52.3 46.4 52.4 45.9 52.3 45.4C52.2 44.5 51.8 43.8 51.1 43.3C50.5 42.9 49.7 42.7 49 43C48.6 43.2 48.3 43.5 48.2 43.9C48 44.4 48 44.8 48.1 45.3C48.2 45.8 48.2 46.2 48.3 46.7C48.4 47.1 48.4 47.7 48.6 48.1C48.9 48.4 49.2 48.4 49.3 48.2Z" fill="black"/>
<path d="M51.3 44.4C51 43.8 50.4 43.3 49.6 43.3C49.5 43.3 49.4 43.3 49.3 43.3C49.2 43.3 49 43.3 48.9 43.4C48.5 43.6 48.2 43.9 48.1 44.3C47.9 45 48.3 45.9 49 46.2C49.1 46.2 49.1 46.2 49.2 46.2C49.2 46.2 49.1 46.2 49.1 46.3C49 46.4 49 46.4 49 46.5C49 46.6 49 46.6 49 46.7C49 46.8 49 46.9 49.1 47C49.1 47.1 49.1 47.3 49.2 47.4C49 47.6 49 48 49.4 48.1C50 48.3 50.6 48.3 51.2 48.3C51.7 48.3 51.7 47.5 51.3 47.5C51.5 47.2 51.6 46.8 51.7 46.5C51.7 45.8 51.7 45 51.3 44.4ZM50.3 45.2C50.2 45.5 49.8 45.7 49.6 45.6C49.2 45.5 49.1 45 49.1 44.7C49.1 44.4 49.4 44.2 49.6 44.1C49.8 44.1 50 44.1 50.2 44.3C50.3 44.6 50.4 44.9 50.3 45.2Z" fill="black"/>
<path d="M28.7 30.9C29.8 31.5 30.4 32.7 31.5 33.3C32.4 33.8 33.4 33.8 34.4 33.7C37.2 33.3 39.6 30.8 42.6 31.4C44.9 31.9 46.8 33.6 49.2 33.8C51.3 33.9 53.6 32.5 55.1 31.1C55.5 30.8 55.1 30.1 54.6 30.3C52.3 31.1 51 33.2 48.3 32.5C46.1 32 44.4 30.5 42.1 30.3C39.6 30.2 37.6 31.8 35.4 32.6C34 33.1 32.5 33.3 31.2 32.4C30.4 31.8 29.8 31.1 28.8 30.7C28.7 30.7 28.6 30.9 28.7 30.9Z" fill="black"/>
<path d="M49.1 36.2C50.4 36.3 51.7 36.9 52.6 37.9C52.8 38.1 53.1 38.5 53.4 38.2C53.7 37.9 53.3 37.4 53.1 37.2C52.6 36.7 52 36.3 51.3 36C50.6 35.7 49.8 35.6 49 35.7C48.8 35.8 48.8 36.2 49.1 36.2Z" fill="black"/>
<path d="M33.8 35.7C32.6 35.6 31.5 35.9 30.5 36.6C30 36.9 29.6 37.3 29.2 37.7C28.9 38.1 28.4 38.7 28.5 39.3C28.5 39.4 28.7 39.5 28.8 39.4C29.2 39.2 29.4 38.6 29.7 38.3C30 37.9 30.4 37.5 30.8 37.3C31.6 36.7 32.7 36.4 33.7 36.4C34.2 36.3 34.2 35.7 33.8 35.7Z" fill="black"/>
<path d="M49.9 72.6C51.8 74.3 54.7 74.4 57.2 74.3C60.3 74.3 63.3 74 66.3 75C71.9 76.8 77.2 81.7 83.5 80C84.2 79.8 83.9 78.8 83.2 79C77 80.7 71.7 75.6 66.1 74C63.6 73.3 61 73.4 58.4 73.5C57.1 73.6 55.7 73.6 54.4 73.5C52.9 73.4 51.5 72.8 50.1 72.3C49.9 72.3 49.7 72.5 49.9 72.6Z" fill="black"/>
<path d="M65.5 89.1C67.4 90.6 70.2 91.3 72.5 91.8C74.9 92.4 77.5 92.8 80 93C85.2 93.4 90.3 92.8 95.3 91.4C96.1 91.2 95.7 90 95 90.2C90.2 91.6 85.2 92.2 80.2 91.9C77.7 91.8 75.2 91.4 72.8 90.8C71.7 90.5 70.5 90.2 69.4 89.9C68.2 89.5 66.9 88.9 65.7 88.7C65.4 88.7 65.3 89 65.5 89.1Z" fill="black"/>
<path d="M96.1 52.3C95 58.9 95.9 65.9 96.2 72.6C96.4 75.9 96.7 79.2 96.9 82.6C97.1 85.5 96.9 89.9 93.4 90.7C92.6 90.9 92.9 92.2 93.8 92C96.6 91.3 97.8 88.6 98.2 86C98.6 82.4 97.8 78.6 97.5 75C97.2 71.2 97 67.4 96.8 63.6C96.6 59.8 96.7 56.1 96.6 52.3C96.5 52.1 96.1 52 96.1 52.3Z" fill="black"/>
<path d="M91.3 37.9C90.6 37.8 89.9 38.1 89.2 38.4C88.4 38.7 87.7 39.2 87 39.7C86.4 40.1 85.9 40.7 85.7 41.4C85.5 41.9 85.4 42.5 85.4 43.1C85.4 43.6 85.3 44.2 85.6 44.6C85.9 45 86.4 45.3 86.9 45.3C87.4 45.3 88 45.1 88 44.6C88.1 44.2 87.6 43.9 87.3 44.2C87.1 44.3 86.9 44.4 86.7 44.3C86.4 44.2 86.3 43.9 86.2 43.6C86.1 43.2 86.2 42.8 86.2 42.3C86.3 41.9 86.3 41.5 86.5 41.2C86.8 40.7 87.2 40.3 87.6 40C88.1 39.6 88.7 39.2 89.4 38.9C89.9 38.6 90.6 38.3 91.2 38.3C91.6 38.3 91.6 37.9 91.3 37.9Z" fill="black"/>
<path d="M90.9 40.7C89.7 40.9 88.8 41.7 88.3 42.7C87.8 43.8 87.9 45.4 89.1 46C89.4 46.2 89.8 46.2 90.2 46.1C90.6 46 91 45.8 91.1 45.4C91.2 44.9 90.7 44.6 90.3 44.8C90.1 44.9 90.2 44.9 90 45C90.1 45 90 45 89.9 45C89.8 45 89.8 45 89.9 45H89.8C89.8 45 89.6 45 89.7 45C89.6 45 89.6 45 89.5 45C89.6 45 89.4 45 89.4 44.9L89.3 44.8C89 44.5 88.9 43.9 89 43.5C89.2 42.5 90 41.6 91 41.3C91.2 41.3 91.3 41.1 91.2 40.9C91.3 40.7 91.1 40.7 90.9 40.7Z" fill="black"/>
<path d="M93.6 42.2C93.1 42.3 92.6 42.5 92.1 42.8C91.6 43.1 91.3 43.6 91 44.2C90.6 45.3 90.8 47 92.2 47.3C92.8 47.4 93.8 47.3 93.9 46.6C94 46.4 93.8 46.2 93.5 46.2C93.2 46.3 93.1 46.4 92.8 46.3C92.7 46.3 92.7 46.3 92.6 46.3C92.5 46.3 92.5 46.3 92.6 46.3H92.5C92.5 46.3 92.3 46.2 92.4 46.3C92.4 46.3 92.3 46.3 92.3 46.2C92.4 46.3 92.2 46.1 92.2 46.1L92.1 46C92 45.9 92 45.7 91.9 45.6C91.9 45.5 91.9 45.5 91.9 45.4C91.9 45.3 91.9 45.3 91.9 45.4V45.3C91.9 45.2 91.9 45 91.9 44.9C91.9 44.8 91.9 44.8 91.9 44.9V44.8C91.9 44.7 91.9 44.7 91.9 44.6C91.9 44.5 92 44.3 92 44.2C92 44.1 92.1 44 92.1 43.9C92.2 43.8 92.2 43.7 92.3 43.5C92.6 43 93 42.7 93.5 42.5C94 42.4 93.9 42.1 93.6 42.2Z" fill="black"/>
<path d="M96.9 42.9C96.5 43.1 96.1 43.1 95.7 43.1C95.3 43.2 94.9 43.3 94.6 43.5C94 43.9 93.7 44.6 93.5 45.3C93.3 46.1 93.1 47.1 93.6 47.8C94 48.5 94.9 48.7 95.6 48.6C96.5 48.4 97.2 47.7 97.4 46.8C97.6 46.1 96.5 45.8 96.3 46.5C96.2 47.1 95.7 47.6 95 47.6C94.8 47.6 94.5 47.5 94.4 47.3C94.2 47 94.3 46.5 94.3 46.2C94.3 45.6 94.4 44.8 94.8 44.4C95.1 44.1 95.4 44 95.8 43.9C96.2 43.8 96.6 43.7 97 43.4C97.4 43.1 97.2 42.7 96.9 42.9Z" fill="black"/>
<path d="M92.4 38.3C93.5 38.9 94.5 39.4 95.6 39.9C96.4 40.3 97.3 40.7 98 41.3C99.6 42.8 99.2 45 98.8 46.8C98.6 47.9 98.4 49 98 50C97.5 51.3 96.7 51.8 95.3 51.7C94.6 51.6 94.4 52.9 95.1 53C96.7 53.3 98.1 52.5 98.8 51.1C99.4 49.9 99.6 48.5 99.8 47.2C100.1 45.2 100.5 42.8 99 41.1C98.3 40.3 97.3 39.7 96.3 39.3C95 38.7 93.7 38.3 92.4 37.9C92.4 37.8 92.2 38.2 92.4 38.3Z" fill="black"/>
<path d="M87.1 39C84 38.3 82.7 42.1 82.8 44.6C82.9 45.9 83.7 46.7 84.8 47.3C85.7 47.8 86.6 48.2 87.2 49.1C87.7 49.8 87.9 50.7 88.1 51.6C88.5 53.5 88.4 55.4 88.2 57.3C87.9 60.3 87.4 63.4 86.8 66.4C85.9 70.9 84.8 75.4 83.7 79.8C83.5 80.6 84.7 80.9 84.9 80.1C86.6 73.5 88 66.8 88.9 60.1C89.2 58 89.4 55.9 89.3 53.8C89.2 51.9 88.9 49.7 87.7 48.2C86.6 46.8 83.9 46.6 83.6 44.7C83.2 42.5 84.3 39 87.1 39.4C87.2 39.3 87.3 39 87.1 39Z" fill="black"/>
<path d="M36.9 74.3C36.2 75.5 36.3 76.8 36.8 78.1C37.4 79.5 38.1 81 39.1 82.2C40.8 84.5 43.2 85.8 46.2 85.4C48.6 85.1 50.9 83.8 52.4 81.9C53.1 81 53.7 79.9 54 78.7C54.3 77.2 54 75.7 54.5 74.2C54.8 73.4 53.5 73.1 53.3 73.9C52.6 76.2 53.3 78.5 51.9 80.7C50.8 82.5 48.8 83.7 46.8 84.2C44.2 84.8 41.9 83.9 40.2 81.9C39.4 80.9 38.8 79.6 38.2 78.4C37.9 77.9 37.7 77.3 37.5 76.7C37.3 76 37.5 75.3 37.5 74.6C37.4 74.2 37.1 74.1 36.9 74.3Z" fill="black"/>
<path d="M61.7 73.8C61.2 74.6 61 75.7 60.8 76.6C60.5 77.6 60.3 78.7 60.2 79.7C59.9 81.7 59.9 83.7 60.4 85.7C60.8 87.4 61.7 89 62.8 90.4C63.8 91.6 65.3 92.9 66.9 92.7C67.4 92.6 67.3 91.9 66.9 91.8C66 91.6 65.3 91.4 64.6 90.8C64 90.3 63.4 89.7 62.9 89C61.9 87.6 61.3 86.1 61.1 84.4C60.8 82.6 61 80.8 61.3 79C61.5 78.1 61.7 77.2 61.9 76.4C62.1 75.6 62.4 74.8 62.4 74C62.4 73.6 61.9 73.5 61.7 73.8Z" fill="black"/>
<path d="M28.6 77C28.8 78.7 29.5 80.4 29.9 82.1C30.3 83.8 30.7 85.4 31 87.1C31.5 89.8 32.4 94.5 28.7 95.4C28.1 95.5 28.3 96.4 29 96.4C32.5 95.9 32.9 91.8 32.5 89C32.2 87 31.8 85 31.3 83C30.8 81 30.5 78.8 29.6 76.9C29.3 76.3 28.5 76.5 28.6 77Z" fill="black"/>
<path d="M111.7 46.3C110.7 44.1 108.4 42.6 106.2 41.7C105.1 41.3 103.7 41.1 102.6 41.5C102 41.7 101.4 42.1 100.9 42.5C100.6 42.7 100.3 43 100.1 43.3C99.4 44.1 99 45 98.7 46C97.6 48.6 97.4 51.8 98.5 54.3C98.3 54.5 98.2 54.9 98.4 55.2C99.1 56.7 100.6 57.6 102.2 57.6C102.4 57.6 102.6 57.5 102.7 57.4C103.3 57.6 103.8 57.7 104.4 57.7C105.5 57.8 106.8 57.9 107.9 57.8C109 57.7 110.1 57.4 110.9 56.7C111.5 56.2 111.8 55.5 112 54.7C112 54.6 112.1 54.6 112.1 54.5C112.1 54.4 112.1 54.3 112.1 54.2C112.1 54 112.2 53.8 112.2 53.6C112.5 51.2 112.7 48.5 111.7 46.3Z" fill="#5D514C"/>
<path d="M102.1 46.3C101.6 45.9 101.2 45.6 100.6 45.4C100.1 45.2 99.5 45.1 98.9 45.1C98.6 45.1 98.2 45.4 98.3 45.7C98.3 46 98.6 46.3 98.9 46.3C99 46.3 99.2 46.3 99.3 46.3H99.4H99.5C99.7 46.3 100 46.4 100.2 46.4C100.4 46.5 100.7 46.5 100.9 46.6C101 46.6 101.1 46.7 101.2 46.7L101.3 46.8C101.4 46.8 101.4 46.9 101.5 46.9C101.7 47 101.9 47 102.1 46.8C102.2 46.7 102.2 46.4 102.1 46.3Z" fill="#9D9D9C"/>
<path d="M101.5 48C101.3 47.9 101.1 47.8 100.9 47.7C100.6 47.6 100.4 47.5 100.1 47.4C99.6 47.2 99.2 47.1 98.7 46.9C98.4 46.8 98.1 47 98 47.2C97.9 47.3 97.9 47.4 97.9 47.5C97.9 47.8 98.1 48 98.4 48.1C98.9 48.2 99.3 48.3 99.8 48.5C100 48.6 100.3 48.6 100.5 48.7C100.8 48.7 101 48.7 101.3 48.8C101.7 48.9 101.9 48.2 101.5 48Z" fill="#9D9D9C"/>
<path d="M105.6 41.6C105.1 41.4 104.6 41.3 104.1 41.2C103.1 41 102 41.1 101 41.3C100.3 41.5 100.6 42.6 101.3 42.5C102.1 42.3 103 42.3 103.9 42.4C104.3 42.5 104.8 42.6 105.2 42.7C105.6 42.8 106.1 43.2 106.5 43C106.7 42.9 106.8 42.7 106.8 42.5C106.7 42 106 41.7 105.6 41.6Z" fill="#9D9D9C"/>
<path d="M111.4 47.9C111.2 47 110.7 46.4 109.9 46C109.2 45.6 108.3 45.5 107.5 45.6C105.9 45.9 104.7 47.3 104.3 48.8C104.1 49.6 104.1 50.4 104.2 51.2C104.3 52.1 104.6 53 105.2 53.7C105.8 54.4 106.7 54.8 107.6 54.9C108.5 55 109.4 55 110.2 54.6C111 54.2 111.6 53.4 111.9 52.5C112 52.2 112 51.8 112 51.5C112 51.3 112.1 51.2 112.1 51C112.1 50.8 111.9 50.8 111.8 51C111.7 51.9 111.1 52.8 110.3 53.2C109.7 53.6 108.9 53.7 108.2 53.6C107.6 53.6 107 53.5 106.4 53.1C105.8 52.7 105.6 52 105.5 51.3C105.4 50.7 105.4 50.1 105.4 49.6C105.5 48.5 106.2 47.4 107.2 46.9C107.7 46.6 108.4 46.5 109 46.7C109.4 46.8 109.8 47.1 110.1 47.4C110.3 47.6 110.6 47.8 110.8 48.1C111.1 48.4 111.4 48.1 111.4 47.9Z" fill="black"/>
<path d="M109.2 42.2C107.3 40.7 104.8 40.1 102.4 40.3C99.8 40.6 98.9 42.7 98 44.8C96.2 48.9 95.7 55.2 100.3 57.6C101.6 58.3 102.9 58.4 104.3 58.5C105.8 58.5 107.6 58.7 109 58.2C109.4 58 109.6 57.3 109 57.2C107.6 56.9 106 57.2 104.6 57.2C103.2 57.2 101.9 57.1 100.7 56.4C98.4 55.1 97.8 52.1 98 49.6C98.1 48.2 98.6 46.8 99.2 45.5C99.7 44.5 100.1 43.1 101 42.3C102 41.4 103.7 41.6 105 41.8C106.3 42 107.7 42.4 108.9 42.8C109.2 42.9 109.4 42.4 109.2 42.2Z" fill="black"/>
<path d="M87.3 39.1C87.4 37.8 87.4 36.6 86.7 35.5C86.3 34.8 85.6 34.2 84.9 33.8C83.2 33 81.2 33 79.5 33.5C76.7 34.5 74.6 36.9 73.9 39.8C73.2 42.6 73.6 46.1 76.2 47.7C77.5 48.5 79.2 48.9 80.7 48.6C81.9 48.4 84.2 47.7 84.4 46.2C84.4 45.8 84.2 45.6 83.9 45.7C83.3 45.8 83 46.1 82.5 46.4C82 46.7 81.4 47 80.9 47.2C79.7 47.5 78.6 47.6 77.5 47.1C74.8 46 74.5 42.9 75 40.4C75.5 37.9 77 35.7 79.3 34.7C80.7 34 82.5 33.9 84 34.5C85.8 35.2 86.6 37.2 86.8 39C86.8 39.5 87.3 39.5 87.3 39.1Z" fill="black"/>
<path d="M85.6 34.2C83.6 32.3 80.9 31 78.1 31.2C77.2 31.2 76.4 31.7 75.6 32.1C74.7 32.6 73.9 33.1 73.2 33.8C71.5 35.5 70.6 37.7 70.4 40C70.2 42.3 70.3 45.2 72.2 46.7C73.2 47.4 74.3 48.1 75.5 48.4C76.7 48.7 77.9 49.1 79.2 48.9C79.8 48.8 79.7 47.7 79 47.8C77.1 47.9 75.2 47.3 73.6 46.3C72.8 45.8 72.2 45.3 71.9 44.4C71.6 43.3 71.6 42 71.6 40.8C71.6 38.8 72.2 36.8 73.5 35.2C74.1 34.5 74.7 34 75.5 33.6C76.2 33.2 77 32.7 77.7 32.6C78.9 32.3 80.4 32.8 81.6 33.2C82.9 33.6 84.1 34.2 85.3 34.9C85.5 34.9 85.8 34.5 85.6 34.2Z" fill="black"/>
<path d="M81.2 37.2C79.9 37.3 78.6 37.9 78.3 39.2C78.2 39.8 78.1 40.5 78.3 41.1C78.4 41.4 78.6 41.7 78.8 41.9C79.1 42.2 79.4 42.5 79.7 42.6C80.1 42.7 80.4 42.3 80.2 42C80 41.7 79.7 41.5 79.5 41.3C79.4 41.2 79.2 40.9 79.2 40.8C79.1 40.6 79.1 40.5 79.1 40.2C79.1 39.9 79.1 39.7 79.2 39.4C79.3 38.9 79.6 38.6 80 38.4C80.4 38.2 80.9 38.1 81.3 37.9C81.5 37.8 81.6 37.7 81.6 37.5C81.6 37.3 81.4 37.2 81.2 37.2Z" fill="black"/>
<path d="M81 37.8C81.3 38.1 81.7 38.2 82.1 38.4C82.4 38.5 82.7 38.6 83 38.8C83.6 39 84.2 39.3 84.8 39.4C85.2 39.5 85.8 39.7 86.1 39.3C86.3 39.1 86.2 38.8 86 38.7C85.8 38.6 85.6 38.5 85.3 38.4C84.7 38.2 84.1 38.1 83.5 37.8C83.2 37.7 82.8 37.5 82.5 37.4C82 37.3 81.6 37.1 81.1 37.2C80.9 37.3 80.8 37.6 81 37.8Z" fill="black"/>
<path d="M83.3 42.9C83.2 42.8 83.1 42.7 83 42.7C82.9 42.6 82.7 42.6 82.6 42.6C82.4 42.5 82.3 42.5 82.1 42.5C82 42.5 81.9 42.4 81.7 42.4H81.6C81.5 42.4 81.7 42.5 81.7 42.4C81.7 42.4 81.7 42.4 81.6 42.4C81.5 42.4 81.4 42.3 81.3 42.2C81.2 42.1 81 42.1 80.9 42C80.6 41.9 80.1 41.8 79.8 42C79.6 42.1 79.5 42.4 79.7 42.6C79.9 42.8 80 42.9 80.3 43C80.4 43 80.5 43 80.6 43.1H80.7C80.8 43.1 80.6 43 80.7 43.1C80.7 43.1 80.8 43.1 80.8 43.2C81.1 43.4 81.4 43.5 81.7 43.6C81.9 43.7 82.1 43.7 82.3 43.7C82.4 43.7 82.5 43.7 82.6 43.7C82.8 43.7 82.9 43.6 83.1 43.6C83.5 43.3 83.5 43.1 83.3 42.9Z" fill="black"/>
<path d="M111.2 48.6C111.1 48.3 111 48.1 110.9 47.9C110.8 47.6 110.5 47.2 110.2 47C109.5 46.4 108.4 46.3 107.6 46.7C107.5 46.7 107.4 46.8 107.4 46.9C107.1 47 106.8 47.1 106.6 47.4C105.9 48.1 105.5 49.2 105.4 50.1C105.3 51.1 105.3 52.2 105.8 53.1C106.9 54.9 109.3 54.5 110.5 53.1C111.6 51.8 111.8 50 111.2 48.6Z" fill="#9D9D9C"/>
<path d="M111.7 45.3C111.6 43.1 109 42.1 107.1 42.1C104.5 42.1 102.3 44.1 101.4 46.4C100.4 48.9 100.3 52 101.6 54.4C102.7 56.4 104.8 58 107.1 58.3C108.3 58.5 109.6 58.4 110.7 57.9C111.7 57.4 112.9 56.4 113.2 55.3C113.3 54.8 112.8 54.4 112.4 54.7C111.7 55.2 111.2 55.9 110.4 56.3C109.7 56.7 109 56.9 108.2 56.9C106.4 56.9 104.7 56 103.5 54.6C101 51.6 101.8 45.1 105.8 43.7C107.6 43.1 110 43.7 110.9 45.5C111.1 45.9 111.7 45.7 111.7 45.3Z" fill="black"/>
<path d="M56.8 112.8C87.6175 112.8 112.6 87.8175 112.6 57C112.6 26.1825 87.6175 1.2 56.8 1.2C25.9825 1.2 1 26.1825 1 57C1 87.8175 25.9825 112.8 56.8 112.8Z" stroke="black" stroke-width="2" stroke-miterlimit="10"/>
</svg>
