<svg xmlns="http://www.w3.org/2000/svg" viewBox="0 0 119.12 120.08"><g style="isolation:isolate"><g id="Layer_2" data-name="Layer 2"><g id="OBJECTS"><path d="M24.36,74.33A31.11,31.11,0,0,0,26.25,78a3.46,3.46,0,0,1-1.4.84c-.75.24-1.12.25-1.46-.48-.51-1.07-1-2.16-1.62-3.16C22.63,74.89,23.5,74.64,24.36,74.33Z" style="fill:#feedac"/><path d="M105.75,67.59a11.94,11.94,0,0,1-8.48-1.88c.65-.5,1.3-1,1.94-1.51a.51.51,0,0,0,.43-.12,17.83,17.83,0,0,0,3.44.77,10.55,10.55,0,0,0,2.86-.32A9.52,9.52,0,0,0,105.75,67.59Z" style="fill:#feedac"/><path d="M75.33,8.63c2.45,3.79,3.52,8.51,4,13.2A22.64,22.64,0,0,0,65.19,18c-.25,0-.52.05-.78.07A20.29,20.29,0,0,1,75.33,8.63Z" style="fill:#fdd330"/><path d="M47.82,15.88a40.61,40.61,0,0,1,3.3,4.26.55.55,0,0,0-.51.56c-1.14.34-2.28.71-3.41,1.11a8.08,8.08,0,0,0-5-6.25,38.42,38.42,0,0,1,4.52-.65C47.09,15.22,47.46,15.54,47.82,15.88Z" style="fill:#fdd330"/><path d="M28.45,22a10.68,10.68,0,0,0,1.82,7.09c-1.56.82-3.12,1.69-4.6,2.64a31.39,31.39,0,0,1-1-6.19l0,0A32.3,32.3,0,0,1,28.45,22Z" style="fill:#fdd330"/><path d="M2.08,38.11c5.05-2.72,10.26-1.73,15.25.78a21.27,21.27,0,0,0-4.54,10.75C8.89,46.71,3.93,42.82,2.08,38.11Z" style="fill:#fdd330"/><path d="M35.44,114.87c.17.24.35.44.52.66-3.66.87-7.77,1.62-11-.75s-4.43-6.1-5.56-9.73c2.92-.31,6.27-2,8.8-3.34A71.58,71.58,0,0,0,35.44,114.87Z" style="fill:#fdd330"/><path d="M47.54,116.22a14,14,0,0,1-3.79-3,.27.27,0,0,0-.41.34,9.82,9.82,0,0,0,3.89,3.2C47.57,116.92,47.87,116.41,47.54,116.22Zm-2.49-6.06a12.24,12.24,0,0,0,4.1,5,.33.33,0,0,0,.38-.54,19,19,0,0,1-4.1-4.65C45.29,109.77,44.94,109.91,45.05,110.16ZM39.11,93.48c3,7.44,8.06,17.89,15.17,22.58-3.91,1.89-8.51,4-12.79,2.2a10.38,10.38,0,0,1-3.57-2.66.55.55,0,0,0-.27-.33,29.9,29.9,0,0,1-3.59-5.77c-3.49-6.88-6.57-14-9.48-21.14-1.71-4.23-3.37-8.49-4.91-12.8L21.13,75a.21.21,0,0,0,.24.2,35.57,35.57,0,0,0,1.71,4.25.38.38,0,0,0,.31.22A4.45,4.45,0,0,0,27,78.35a.49.49,0,0,0,.14-.24l2.92.38c-1.81,5.22,1.46,10.5,5.66,14.67a.32.32,0,0,0,.46,0l.08.07c-.35.25-.21.91.3.8C37.44,93.87,38.28,93.68,39.11,93.48Z" style="fill:#fdd330"/><path d="M113.12,53.66c3.34,5.48,7.45,12.48,1.79,18a.73.73,0,0,0-.22.48c0-.12-.09-.22-.13-.34a103.54,103.54,0,0,0-8-13.5,46,46,0,0,0,4.18-2.86C111.47,54.89,112.36,54.32,113.12,53.66Z" style="fill:#fdd330"/><path d="M107.51,63.23a94.08,94.08,0,0,1,5.18,8.5c1.37,2.67,2.51,6.12,1.36,9.09-.94,2.44-3.4,4.19-5.54,5.64-.61-6.31-4.81-12.73-7.55-18.18a12.09,12.09,0,0,0,5.42.25.53.53,0,0,0,.43-.59,8.89,8.89,0,0,1,.34-4,.55.55,0,0,0-.05-.48Z" style="fill:#fdd330"/><path d="M22.7,74c.1.26.55.13.47-.14C21,66.3,15,57.88,18,49.77c1.59-4.29,6.15-7,9.76-9.45a118.32,118.32,0,0,1,12-7.14c7.1-3.66,15-7.34,23-8.37,10.16-1.32,16.27,3.32,21.87,11.28.58.81,1.77-.17,1.21-1C80.61,27.82,75,22.71,65.62,23S46.57,27.91,38.33,32.3a114.61,114.61,0,0,0-12.88,8C22.26,42.58,18.7,45,17.12,48.7,13.5,57.33,19.93,66.19,22.7,74ZM92.45,47.18c.34.17.66-.4.32-.6a14.22,14.22,0,0,0-7.26-1.84c-.3,0-.37.45-.06.47A17.53,17.53,0,0,1,92.45,47.18Zm.37-1.31c.37.16.59-.43.23-.57A18.64,18.64,0,0,0,88,44a.22.22,0,0,0,0,.44A22,22,0,0,1,92.82,45.87Zm-1.66-8.18c4.72,7.31,9.36,14.66,14,22q1.14,1.77,2.31,3.54l-.41.26a.56.56,0,0,0-.64-.18,9.21,9.21,0,0,1-5.45.16,5.83,5.83,0,0,1-.7-.25.73.73,0,0,0-.16-.79.58.58,0,0,0,.4-.75c-1.75-6.46-4.83-14-12.62-14.15-4.12-.06-8.37,2-12.1,3.48q-8.52,3.39-16.76,7.47-7.83,3.87-15.36,8.28c-3.87,2.27-8.23,4.51-11.26,7.9a11.32,11.32,0,0,0-2.35,3.83l-2.92-.38a.37.37,0,0,0,0-.25A33.06,33.06,0,0,0,25,73.71a.38.38,0,0,0-.56-.09l-.14,0c-1,.37-2.06.82-3.08,1.24a.17.17,0,0,0-.12.16l-1.46.52q-1.7-4.71-3.16-9.5c-2.17-7.19-3.78-15.38-.33-22.44,3.34-6.83,10.65-10.9,17.15-14.19A102.94,102.94,0,0,1,56.66,21c7.65-1.75,15.46-2.4,22.23,2.29C84.13,26.86,87.78,32.43,91.16,37.69Z" style="fill:#fdd330"/><path d="M40,93.28A151.65,151.65,0,0,0,96.89,66s0,0,0,.07a10.22,10.22,0,0,0,2.43,1.6.61.61,0,0,0,0,.54c3.71,8.14,11.5,18.74,5,27.21-5.37,7-16.14,10.48-23.81,14.38-7.28,3.71-17.65,10.53-25.63,4.94C48.18,110,43.62,100.5,40,93.28Z" style="fill:#fdd330"/><path d="M45.26,13.85A30.63,30.63,0,0,0,24.64,24.53c0-5.18,1.91-9.8,7.93-12.23a13.82,13.82,0,0,1,11.12.62A14.41,14.41,0,0,1,45.26,13.85Z" style="fill:#feedac"/><path d="M12.11,31.68c1.72.45,3.45.92,5.19,1.35.34.08.5-.53.15-.62-1.73-.44-3.48-.85-5.22-1.26C11.94,31.08,11.8,31.6,12.11,31.68Zm4.48,3.21a12.23,12.23,0,0,0-7.74-1.36c-.27,0-.21.43.06.41a13.29,13.29,0,0,1,7.4,1.46C16.61,35.55,16.89,35.06,16.59,34.89Zm1.22,3.16C13,35.31,6.67,34.45,1.89,37.57A9.82,9.82,0,0,1,2.34,30c4-8.73,14.62-8.6,21.16-3.33a24.94,24.94,0,0,0,1.41,5.51A36,36,0,0,0,18,38.11l0,0A.63.63,0,0,0,17.81,38.05Z" style="fill:#feedac"/><path d="M74.63,7.64A18.79,18.79,0,0,0,63.55,18.09a62,62,0,0,0-10.89,2,21.41,21.41,0,0,0-3.24-4.48c.11-9.71,9-17.27,18.63-13.16A15.88,15.88,0,0,1,74.63,7.64Z" style="fill:#feedac"/><path d="M112.65,49c1.22,2.74-.3,3.49-1.84,4.71s-3.24,2.4-4.89,3.56c-2.39-3.51-4.81-7-7-10.48a1.76,1.76,0,0,1-.14-.23c3.53-3.32,8.59-2.81,12.1.41A7,7,0,0,1,112.65,49Z" style="fill:#feedac"/><path d="M13.2,99.36c-3.33-7.17,4-10.11,9.43-11.65,1.62,4.16,3.25,8.55,5.08,12.84-2,.71-3.88,1.6-5.85,2.35C18,104.36,14.94,103.12,13.2,99.36Z" style="fill:#feedac"/><path d="M99.16,62.36C80.36,77,59.42,86.9,36.46,93.17l-.16.07-.08-.07a.28.28,0,0,0,0-.41c-2.9-3.71-6.57-7.89-5.26-13,1-3.84,4.37-6.3,7.53-8.36A199.86,199.86,0,0,1,59.63,59.73a188.41,188.41,0,0,1,21.08-9.06c4.61-1.6,9.74-2.92,13.62,1.1,2.61,2.7,3.76,6.64,4.73,10.14a.92.92,0,0,0,.24.38A.61.61,0,0,0,99.16,62.36Z" style="fill:#feedac"/><path d="M93.05,45.3c.36.14.14.73-.23.57A22,22,0,0,0,88,44.44.22.22,0,0,1,88,44,18.64,18.64,0,0,1,93.05,45.3Z" style="fill:#06246a"/><path d="M85.51,44.74a14.22,14.22,0,0,1,7.26,1.84c.34.2,0,.77-.32.6a17.53,17.53,0,0,0-7-2C85.14,45.19,85.21,44.74,85.51,44.74Z" style="fill:#06246a"/><path d="M45.43,110a19,19,0,0,0,4.1,4.65.33.33,0,0,1-.38.54,12.24,12.24,0,0,1-4.1-5C44.94,109.91,45.29,109.77,45.43,110Z" style="fill:#06246a"/><path d="M43.75,113.24a14,14,0,0,0,3.79,3c.33.19,0,.7-.31.56a9.82,9.82,0,0,1-3.89-3.2A.27.27,0,0,1,43.75,113.24Z" style="fill:#06246a"/><path d="M21.25,74.88c1-.42,2-.87,3.08-1.24l.14,0a.38.38,0,0,1,.56.09,33.06,33.06,0,0,1,2.12,4.15.37.37,0,0,1,0,.25.49.49,0,0,1-.14.24,4.45,4.45,0,0,1-3.65,1.36.38.38,0,0,1-.31-.22,35.57,35.57,0,0,1-1.71-4.25.21.21,0,0,1-.24-.2A.17.17,0,0,1,21.25,74.88Zm2.14,3.43c.34.73.71.72,1.46.48a3.46,3.46,0,0,0,1.4-.84,31.11,31.11,0,0,1-1.89-3.62c-.86.31-1.73.56-2.59.82C22.37,76.15,22.88,77.24,23.39,78.31Z" style="fill:#06246a"/><path d="M38.33,32.3c8.24-4.39,17.78-8.91,27.29-9.26s15,4.78,20.13,12.07c.56.81-.63,1.79-1.21,1-5.6-8-11.71-12.6-21.87-11.28-8,1-15.87,4.71-23,8.37a118.32,118.32,0,0,0-12,7.14c-3.61,2.47-8.17,5.16-9.76,9.45-3,8.11,3,16.53,5.19,24.1.08.27-.37.4-.47.14-2.77-7.82-9.2-16.68-5.58-25.31,1.58-3.75,5.14-6.12,8.33-8.41A114.61,114.61,0,0,1,38.33,32.3Z" style="fill:#06246a"/><path d="M17.45,32.41c.35.09.19.7-.15.62-1.74-.43-3.47-.9-5.19-1.35-.31-.08-.17-.6.12-.53C14,31.56,15.72,32,17.45,32.41Z" style="fill:#06246a"/><path d="M8.85,33.53a12.23,12.23,0,0,1,7.74,1.36c.3.17,0,.66-.28.51a13.29,13.29,0,0,0-7.4-1.46C8.64,34,8.58,33.56,8.85,33.53Z" style="fill:#06246a"/><path d="M114.91,71.64c5.66-5.5,1.55-12.5-1.79-18-.76.66-1.65,1.23-2.34,1.76a46,46,0,0,1-4.18,2.86,103.54,103.54,0,0,1,8,13.5c0,.12.08.22.13.34A.73.73,0,0,1,114.91,71.64ZM28.45,22a32.3,32.3,0,0,0-3.73,3.51l0,0a31.39,31.39,0,0,0,1,6.19c1.48-.95,3-1.82,4.6-2.64A10.68,10.68,0,0,1,28.45,22ZM36,115.53c-.17-.22-.35-.42-.52-.66a71.58,71.58,0,0,1-7.23-13.16c-2.53,1.29-5.88,3-8.8,3.34,1.13,3.63,2.38,7.41,5.56,9.73S32.3,116.4,36,115.53Zm-11.32-91A30.63,30.63,0,0,1,45.26,13.85a14.41,14.41,0,0,0-1.57-.93,13.82,13.82,0,0,0-11.12-.62C26.55,14.73,24.62,19.35,24.64,24.53Zm17.56-9a8.08,8.08,0,0,1,5,6.25c1.13-.4,2.27-.77,3.41-1.11a.55.55,0,0,1,.51-.56,40.61,40.61,0,0,0-3.3-4.26c-.36-.34-.73-.66-1.1-1A38.42,38.42,0,0,0,42.2,15.56Zm-3.87,9.71c2.54-1.1,5.18-2.15,7.88-3.11a8.26,8.26,0,0,0-5.06-6.36,31.69,31.69,0,0,0-11.9,5.59,11.52,11.52,0,0,0,1.94,7.21C33.57,27.38,36,26.28,38.33,25.27Zm41-3.44c-.47-4.69-1.54-9.41-4-13.2A20.29,20.29,0,0,0,64.41,18c.26,0,.53-.06.78-.07A22.64,22.64,0,0,1,79.32,21.83Zm26.62,42.7a10.55,10.55,0,0,1-2.86.32,17.83,17.83,0,0,1-3.44-.77.51.51,0,0,1-.43.12c-.64.51-1.29,1-1.94,1.51a11.94,11.94,0,0,0,8.48,1.88A9.52,9.52,0,0,1,105.94,64.53ZM110.84,47c-3.51-3.22-8.57-3.73-12.1-.41a1.76,1.76,0,0,0,.14.23c2.23,3.48,4.65,7,7,10.48,1.65-1.16,3.3-2.31,4.89-3.56s3.06-2,1.84-4.71A7,7,0,0,0,110.84,47ZM55,114.76c8,5.59,18.35-1.23,25.63-4.94,7.67-3.9,18.44-7.38,23.81-14.38,6.47-8.47-1.32-19.07-5-27.21a.61.61,0,0,1,0-.54,10.22,10.22,0,0,1-2.43-1.6s0,0,0-.07A151.65,151.65,0,0,1,40,93.28C43.62,100.5,48.18,110,55,114.76Zm-2.3-94.65a62,62,0,0,1,10.89-2A18.79,18.79,0,0,1,74.63,7.64a15.88,15.88,0,0,0-6.58-5.17C58.39-1.64,49.53,5.92,49.42,15.63A21.41,21.41,0,0,1,52.66,20.11Zm26.23,3.13c-6.77-4.69-14.58-4-22.23-2.29a102.94,102.94,0,0,0-23.33,8.48c-6.5,3.29-13.81,7.36-17.15,14.19-3.45,7.06-1.84,15.25.33,22.44q1.45,4.78,3.16,9.5c1.54,4.31,3.2,8.57,4.91,12.8,2.91,7.14,6,14.26,9.48,21.14a29.9,29.9,0,0,0,3.59,5.77.55.55,0,0,1,.27.33,10.38,10.38,0,0,0,3.57,2.66c4.28,1.83,8.88-.31,12.79-2.2-7.11-4.69-12.15-15.14-15.17-22.58-.83.2-1.67.39-2.51.56-.51.11-.65-.55-.3-.8l.16-.07c23-6.27,43.9-16.16,62.7-30.81a.61.61,0,0,1,.14-.07.92.92,0,0,1-.24-.38c-1-3.5-2.12-7.44-4.73-10.14-3.88-4-9-2.7-13.62-1.1a188.41,188.41,0,0,0-21.08,9.06A199.86,199.86,0,0,0,38.52,71.4C35.36,73.46,32,75.92,31,79.76c-1.31,5.11,2.36,9.29,5.26,13a.28.28,0,0,1,0,.41.32.32,0,0,1-.46,0c-4.2-4.17-7.47-9.45-5.66-14.67a11.32,11.32,0,0,1,2.35-3.83c3-3.39,7.39-5.63,11.26-7.9q7.53-4.4,15.36-8.28Q67.29,54.42,75.83,51c3.73-1.48,8-3.54,12.1-3.48,7.79.13,10.87,7.69,12.62,14.15a.58.58,0,0,1-.4.75.73.73,0,0,1,.16.79,5.83,5.83,0,0,0,.7.25,9.21,9.21,0,0,0,5.45-.16.51.51,0,0,1,.69.66,8.89,8.89,0,0,0-.34,4,.53.53,0,0,1-.43.59,12.09,12.09,0,0,1-5.42-.25c2.74,5.45,6.94,11.87,7.55,18.18,2.14-1.45,4.6-3.2,5.54-5.64,1.15-3,0-6.42-1.36-9.09a94.08,94.08,0,0,0-5.18-8.5q-1.17-1.77-2.31-3.54c-4.68-7.34-9.32-14.69-14-22C87.78,32.43,84.13,26.86,78.89,23.24ZM22.63,87.71c-5.45,1.54-12.76,4.48-9.43,11.65,1.74,3.76,4.78,5,8.66,3.54,2-.75,3.87-1.64,5.85-2.35C25.88,96.26,24.25,91.87,22.63,87.71ZM1.89,37.57c4.78-3.12,11.13-2.26,15.92.48a.63.63,0,0,1,.12.11l0,0a36,36,0,0,1,7-5.91,24.94,24.94,0,0,1-1.41-5.51C17,21.42,6.36,21.29,2.34,30A9.82,9.82,0,0,0,1.89,37.57ZM12.4,50.76C5.1,45.87-4.32,37,2.18,27.61c4.71-6.79,15.71-8.51,21.2-2-.52-6.38,2-12.26,9.25-14.78,6-2.07,11.89.05,16.13,4.13A14,14,0,0,1,65.61.3c10.19,2.11,15.24,12.81,15,22.42,7.52,5.61,12.68,15.15,17.72,23.15,3.49-4.17,9.68-3.31,13.49.19,1.47,1.36,3.85,3.73,2.76,5.93a4.9,4.9,0,0,1-.81,1.09c4.43,5.41,8.44,14.09,2,19.61a.57.57,0,0,1-.83,0c2.74,6.71,0,11.39-6,15.33a.8.8,0,0,1-.37.12,12.79,12.79,0,0,1-1.71,6.38c-5,8.64-17.28,12.47-25.66,16.71-7.32,3.71-17.36,10.16-25.72,5.6l-.34-.21,0,0c-6.45,3.82-13,5.32-18.17,0-4,1-8.61,1.84-12.32-.57s-5.18-6.85-6.12-11c-.13,0-.26,0-.38,0-3.22-.15-5.53-3.32-6.57-6.11C8.82,91.6,16.3,88,22.28,86.83c-.05-.14-.11-.3-.17-.44-4-10-10.5-23.66-9.46-35.53A.53.53,0,0,1,12.4,50.76Zm4.93-11.87c-5-2.51-10.2-3.5-15.25-.78,1.85,4.71,6.81,8.6,10.71,11.53A21.27,21.27,0,0,1,17.33,38.89Z" style="fill:#06246a"/><g style="mix-blend-mode:multiply"><path d="M105.75,67.59a11.94,11.94,0,0,1-8.48-1.88c.65-.5,1.3-1,1.94-1.51a.51.51,0,0,0,.43-.12,17.83,17.83,0,0,0,3.44.77,10.55,10.55,0,0,0,2.86-.32A9.52,9.52,0,0,0,105.75,67.59Z" style="fill:#feedac"/><path d="M67.8,18a22.7,22.7,0,0,1,11.52,3.87c-.47-4.69-1.54-9.41-4-13.2A20.19,20.19,0,0,0,66.47,15C66.92,16,67.36,17,67.8,18Z" style="fill:#fdd330"/><path d="M35.12,114.39c-4-.14-7.94-.5-11.67-1A10.08,10.08,0,0,0,25,114.78c3.22,2.37,7.33,1.62,11,.75-.17-.22-.35-.42-.52-.66S35.23,114.55,35.12,114.39Z" style="fill:#fdd330"/><path d="M48.74,113.92l.79.72a.33.33,0,0,1-.38.54A10,10,0,0,1,47.76,114c-1,.1-2,.19-3,.25a19.16,19.16,0,0,0,2.76,1.94c.33.19,0,.7-.31.56A9,9,0,0,1,44,114.32c-2.31.13-4.64.16-7,.12.21.28.41.57.64.83a.55.55,0,0,1,.27.33,10.38,10.38,0,0,0,3.57,2.66c4.28,1.83,8.88-.31,12.79-2.2a22.43,22.43,0,0,1-3-2.46C50.41,113.72,49.58,113.83,48.74,113.92Z" style="fill:#fdd330"/><path d="M113.12,53.66c3.34,5.48,7.45,12.48,1.79,18a.73.73,0,0,0-.22.48c0-.12-.09-.22-.13-.34a103.54,103.54,0,0,0-8-13.5,46,46,0,0,0,4.18-2.86C111.47,54.89,112.36,54.32,113.12,53.66Z" style="fill:#fdd330"/><path d="M107.51,63.23a94.08,94.08,0,0,1,5.18,8.5c1.37,2.67,2.51,6.12,1.36,9.09-.94,2.44-3.4,4.19-5.54,5.64-.61-6.31-4.81-12.73-7.55-18.18a12.09,12.09,0,0,0,5.42.25.53.53,0,0,0,.43-.59,8.89,8.89,0,0,1,.34-4,.55.55,0,0,0-.05-.48Z" style="fill:#fdd330"/><path d="M105.2,59.69c-4.68-7.34-9.32-14.69-14-22-3.38-5.26-7-10.83-12.27-14.45a20.3,20.3,0,0,0-10.33-3.53q.76,1.82,1.5,3.63c6.82,1.17,11.42,5.71,15.69,11.77.56.81-.63,1.79-1.21,1-3.92-5.58-8.1-9.51-13.74-10.92,1,2.64,2.07,5.28,3,7.89.39,1,.75,2.08,1.11,3.13,1.84,4.32,3.51,8.72,4.93,13.18a22.26,22.26,0,0,1,8-1.84c7.79.13,10.87,7.69,12.62,14.15a.58.58,0,0,1-.4.75.73.73,0,0,1,.16.79,5.83,5.83,0,0,0,.7.25,9.21,9.21,0,0,0,5.45-.16.56.56,0,0,1,.64.18l.41-.26Q106.34,61.46,105.2,59.69ZM92.45,47.18a17.37,17.37,0,0,0-7-2c-.31,0-.24-.47.06-.47a14.22,14.22,0,0,1,7.26,1.84C93.11,46.78,92.79,47.35,92.45,47.18Zm.37-1.31A22,22,0,0,0,88,44.44.22.22,0,0,1,88,44a18.64,18.64,0,0,1,5,1.3C93.41,45.44,93.19,46,92.82,45.87Z" style="fill:#fdd330"/><path d="M99.37,68.23a.61.61,0,0,1,0-.54,10.22,10.22,0,0,1-2.43-1.6s0,0,0-.07Q91,70.52,84.62,74.49c.22,7.62-.93,15.25-4.57,21.94-5.39,9.9-15.55,14.83-26.94,16.86A21.28,21.28,0,0,0,55,114.76c8,5.59,18.35-1.23,25.63-4.94,7.67-3.9,18.44-7.38,23.81-14.38C110.87,87,103.08,76.37,99.37,68.23Z" style="fill:#fdd330"/><path d="M66,13.92a19,19,0,0,1,8.64-6.28,15.88,15.88,0,0,0-6.58-5.17,13.12,13.12,0,0,0-8.32-.79C62,5.65,64.08,9.75,66,13.92Z" style="fill:#feedac"/><path d="M112.65,49c1.22,2.74-.3,3.49-1.84,4.71s-3.24,2.4-4.89,3.56c-2.39-3.51-4.81-7-7-10.48a1.76,1.76,0,0,1-.14-.23c3.53-3.32,8.59-2.81,12.1.41A7,7,0,0,1,112.65,49Z" style="fill:#feedac"/><path d="M99.06,61.91c-1-3.5-2.12-7.44-4.73-10.14-3.88-4-9-2.7-13.62-1.1l-.36.13c.93,3,1.74,6.09,2.41,9.19a83.13,83.13,0,0,1,1.77,12.56A168.23,168.23,0,0,0,99.16,62.36a.61.61,0,0,1,.14-.07A.92.92,0,0,1,99.06,61.91Z" style="fill:#feedac"/><path d="M93.05,45.3c.36.14.14.73-.23.57A22,22,0,0,0,88,44.44.22.22,0,0,1,88,44,18.64,18.64,0,0,1,93.05,45.3Z" style="fill:#06246a"/><path d="M85.51,44.74a14.22,14.22,0,0,1,7.26,1.84c.34.2,0,.77-.32.6a17.53,17.53,0,0,0-7-2C85.14,45.19,85.21,44.74,85.51,44.74Z" style="fill:#06246a"/><path d="M47.54,116.22a19.16,19.16,0,0,1-2.76-1.94l-.82,0a9,9,0,0,0,3.27,2.46C47.57,116.92,47.87,116.41,47.54,116.22Z" style="fill:#06246a"/><path d="M85.75,35.11c-4.27-6.06-8.87-10.6-15.69-11.77l.74,1.83c5.64,1.41,9.82,5.34,13.74,10.92C85.12,36.9,86.31,35.92,85.75,35.11Z" style="fill:#06246a"/><path d="M115.76,72.69c6.43-5.52,2.42-14.2-2-19.61a4.9,4.9,0,0,0,.81-1.09c1.09-2.2-1.29-4.57-2.76-5.93-3.81-3.5-10-4.36-13.49-.19-5-8-10.2-17.54-17.72-23.15.26-9.61-4.79-20.31-15-22.42A14,14,0,0,0,59,.5c.23.39.47.78.69,1.18a13.12,13.12,0,0,1,8.32.79,15.88,15.88,0,0,1,6.58,5.17A19,19,0,0,0,66,13.92l.48,1a20.19,20.19,0,0,1,8.86-6.33c2.45,3.79,3.52,8.51,4,13.2A22.7,22.7,0,0,0,67.8,18c.25.59.51,1.17.76,1.75a20.3,20.3,0,0,1,10.33,3.53c5.24,3.62,8.89,9.19,12.27,14.45,4.72,7.31,9.36,14.66,14,22q1.14,1.77,2.31,3.54a94.08,94.08,0,0,1,5.18,8.5c1.37,2.67,2.51,6.12,1.36,9.09-.94,2.44-3.4,4.19-5.54,5.64-.61-6.31-4.81-12.73-7.55-18.18a12.09,12.09,0,0,0,5.42.25.53.53,0,0,0,.43-.59,8.89,8.89,0,0,1,.34-4,.51.51,0,0,0-.69-.66,9.21,9.21,0,0,1-5.45.16,5.83,5.83,0,0,1-.7-.25.73.73,0,0,0-.16-.79.58.58,0,0,0,.4-.75c-1.75-6.46-4.83-14-12.62-14.15a22.26,22.26,0,0,0-8,1.84c.15.47.31,1,.46,1.43l.36-.13c4.61-1.6,9.74-2.92,13.62,1.1,2.61,2.7,3.76,6.64,4.73,10.14a.92.92,0,0,0,.24.38.61.61,0,0,0-.14.07A168.23,168.23,0,0,1,84.53,72.55c0,.65.07,1.29.09,1.94Q91,70.53,96.89,66s0,0,0,.07a10.22,10.22,0,0,0,2.43,1.6.61.61,0,0,0,0,.54c3.71,8.14,11.5,18.74,5,27.21-5.37,7-16.14,10.48-23.81,14.38-7.28,3.71-17.65,10.53-25.63,4.94a21.28,21.28,0,0,1-1.85-1.47l-1.87.31a22.43,22.43,0,0,0,3,2.46c-3.91,1.89-8.51,4-12.79,2.2a10.38,10.38,0,0,1-3.57-2.66.55.55,0,0,0-.27-.33c-.23-.26-.43-.55-.64-.83-.63,0-1.26,0-1.89,0,.11.16.21.33.32.48s.35.44.52.66c-3.66.87-7.77,1.62-11-.75a10.08,10.08,0,0,1-1.52-1.39l-1.78-.25a10.87,10.87,0,0,0,3,3c3.71,2.41,8.28,1.6,12.32.57,5.15,5.28,11.72,3.78,18.17,0l0,0,.34.21c8.36,4.56,18.4-1.89,25.72-5.6,8.38-4.24,20.67-8.07,25.66-16.71a12.79,12.79,0,0,0,1.71-6.38A.8.8,0,0,0,109,88c6-3.94,8.71-8.62,6-15.33A.57.57,0,0,0,115.76,72.69Zm-18.49-7c.65-.5,1.3-1,1.94-1.51a.51.51,0,0,0,.43-.12,17.83,17.83,0,0,0,3.44.77,10.55,10.55,0,0,0,2.86-.32,9.52,9.52,0,0,0-.19,3.06A11.94,11.94,0,0,1,97.27,65.71Zm1.61-18.94a1.76,1.76,0,0,1-.14-.23c3.53-3.32,8.59-2.81,12.09.41a6.93,6.93,0,0,1,1.82,2c1.22,2.74-.3,3.49-1.84,4.71s-3.24,2.4-4.89,3.56C103.53,53.74,101.11,50.25,98.88,46.77Zm16,24.87a.73.73,0,0,0-.22.48c0-.12-.09-.22-.13-.34a103.54,103.54,0,0,0-8-13.5,46,46,0,0,0,4.18-2.86c.69-.53,1.58-1.1,2.34-1.76C116.46,59.14,120.57,66.14,114.91,71.64Z" style="fill:#06246a"/></g><path d="M28.22,68.68c-5.51-8.34-5.82-17.2-1.37-26a3.09,3.09,0,0,0-5.33-3.12C14.94,48.84,17.21,63.35,26,70.42,27.13,71.36,29.19,70.15,28.22,68.68Z" style="fill:#fff;mix-blend-mode:soft-light"/></g></g></g></svg>