<svg xmlns="http://www.w3.org/2000/svg" viewBox="0 0 88.89 112.16"><g style="isolation:isolate"><g id="Layer_2" data-name="Layer 2"><g id="OBJECTS"><path d="M29.42,89.73a.48.48,0,0,0,.51.75C44,86.72,58.21,82.3,71.88,77.3a.78.78,0,0,0,.51-.73.41.41,0,0,0,.53-.4c-.27-7-3.47-14.06-5.62-20.62-2.61-8-5.27-15.92-8.13-23.8a.88.88,0,0,0-1.27-.45.88.88,0,0,0-1.24.44c-7.81,19.93-17.58,38.73-28,57.39a.48.48,0,0,0,.75.59Zm48.79-3.41c.31.28.89-.1.62-.48a9.79,9.79,0,0,1-1.16-2.25.46.46,0,0,0-.89.23A4.65,4.65,0,0,0,78.21,86.32ZM50.45,31.42a12.84,12.84,0,0,0-3.07,4.3c-.17.38.36.71.57.33A18.41,18.41,0,0,1,51,32,.39.39,0,0,0,50.45,31.42Zm-6.37,6a28.16,28.16,0,0,0,3.69-6.6c.17-.42-.5-.59-.67-.19a31.81,31.81,0,0,1-3.48,6.51C43.42,37.4,43.87,37.65,44.08,37.39ZM56.61,93a.29.29,0,0,0,.23.26L51.13,95a23.65,23.65,0,0,0-1-2.67c-.18-.42-.87-.12-.72.31a24.73,24.73,0,0,0,1.11,2.54l-7.67,2.38a4.85,4.85,0,0,0-1-3.32c-.33-.37-.88.1-.67.51a13.13,13.13,0,0,1,.77,1.43,6.39,6.39,0,0,1,.34,1.56l-5.19,1.61A4.42,4.42,0,0,0,36,97.46a.4.4,0,0,0-.63.48c.23.46.56.86.78,1.32a3.4,3.4,0,0,1,.12.34l-6.11,1.89a4.57,4.57,0,0,0-.65-2.63.45.45,0,0,0-.78.46,5.56,5.56,0,0,1,.7,2.39h0l-4.64,1.46a4,4,0,0,0-1-2.06c-.35-.37-.85.17-.55.54a4.45,4.45,0,0,1,.87,1.72l-5.46,1.72a15.69,15.69,0,0,1-.57-2.53c-.08-.52-.93-.31-.81.22a15.42,15.42,0,0,0,.78,2.5l-4.77,1.51a3.49,3.49,0,0,0-.93-1.78c-.32-.32-.92.1-.64.51a7,7,0,0,1,.83,1.51l-4.39,1.39a17,17,0,0,0-.44-2.28c-.14-.5-1-.43-.91.11a17.8,17.8,0,0,0,.48,2.46l-5.79,1.87c20.7-35.49,40-71.92,59.8-107.91,4.84,13.3,9.91,26.48,14.26,40s7.79,27.44,12,41.07a.21.21,0,0,0-.11,0l-3.06.94a23.82,23.82,0,0,0-1.17-2.24.49.49,0,0,0-.85.5,19.08,19.08,0,0,0,1.18,2L72.4,88.4a5.45,5.45,0,0,0-.69-2.3c-.29-.51-1-.06-.79.46a6.24,6.24,0,0,1,.62,2.1l-6.35,2a14.48,14.48,0,0,0-.6-2.48.47.47,0,0,0-.9.25,15.7,15.7,0,0,0,.64,2.49l-7.06,2.18a.34.34,0,0,0,.09-.22,6.42,6.42,0,0,0-1-3.48.46.46,0,0,0-.8.47A9.85,9.85,0,0,1,56.61,93Z" style="fill:#ffd400"/><path d="M51,32a18.41,18.41,0,0,0-3,4.08c-.21.38-.74.05-.57-.33a12.84,12.84,0,0,1,3.07-4.3A.39.39,0,0,1,51,32Z" style="fill:#06246a"/><path d="M47.77,30.79a28.16,28.16,0,0,1-3.69,6.6c-.21.26-.66,0-.46-.28A31.81,31.81,0,0,0,47.1,30.6C47.27,30.2,47.94,30.37,47.77,30.79Z" style="fill:#06246a"/><path d="M59.17,31.75c2.86,7.88,5.52,15.83,8.13,23.8,2.15,6.56,5.35,13.65,5.62,20.62a.41.41,0,0,1-.53.4L72,75.86c-4.17-14.41-9.19-28.55-14.09-42.71C50.13,52.72,41,72,29.5,89.63l-.09.09a.48.48,0,0,1-.75-.59c10.42-18.66,20.19-37.46,28-57.39a.88.88,0,0,1,1.24-.44A.88.88,0,0,1,59.17,31.75Z" style="fill:#06246a"/><path d="M88,85.41c-28.91,9-57.77,18.22-86.84,26.72a.58.58,0,0,1-.75-.38A.53.53,0,0,1,.06,111C19.49,73.7,40.55,37.19,60.87.37a.76.76,0,0,1,1.4.46.69.69,0,0,1,.13.2C68,14.15,72.52,27.77,76.89,41.32c4.53,14,9.19,28.33,12,42.81a.53.53,0,0,1-.31.61A.8.8,0,0,1,88,85.41ZM1.52,110.59l5.79-1.87a17.8,17.8,0,0,1-.48-2.46c-.06-.54.77-.61.91-.11a17,17,0,0,1,.44,2.28L12.57,107a7,7,0,0,0-.83-1.51c-.28-.41.32-.83.64-.51a3.49,3.49,0,0,1,.93,1.78l4.77-1.51a15.42,15.42,0,0,1-.78-2.5c-.12-.53.73-.74.81-.22a15.69,15.69,0,0,0,.57,2.53l5.46-1.72a4.45,4.45,0,0,0-.87-1.72c-.3-.37.2-.91.55-.54a4,4,0,0,1,1,2.06l4.64-1.46h0a5.56,5.56,0,0,0-.7-2.39.45.45,0,0,1,.78-.46,4.57,4.57,0,0,1,.65,2.63l6.11-1.89a3.4,3.4,0,0,0-.12-.34c-.22-.46-.55-.86-.78-1.32a.4.4,0,0,1,.63-.48,4.42,4.42,0,0,1,1.08,1.88l5.19-1.61a6.39,6.39,0,0,0-.34-1.56,13.13,13.13,0,0,0-.77-1.43c-.21-.41.34-.88.67-.51a4.85,4.85,0,0,1,1,3.32l7.67-2.38a24.73,24.73,0,0,1-1.11-2.54c-.15-.43.54-.73.72-.31a23.65,23.65,0,0,1,1,2.67l5.71-1.77a.29.29,0,0,1-.23-.26,9.85,9.85,0,0,0-1.09-3.11.46.46,0,0,1,.8-.47,6.42,6.42,0,0,1,1,3.48.34.34,0,0,1-.09.22l7.06-2.18a15.7,15.7,0,0,1-.64-2.49.47.47,0,0,1,.9-.25,14.48,14.48,0,0,1,.6,2.48l6.35-2a6.24,6.24,0,0,0-.62-2.1c-.25-.52.5-1,.79-.46a5.45,5.45,0,0,1,.69,2.3l11.21-3.47a19.08,19.08,0,0,1-1.18-2,.49.49,0,0,1,.85-.5,23.82,23.82,0,0,1,1.17,2.24l3.06-.94a.21.21,0,0,1,.11,0c-4.25-13.63-7.65-27.49-12-41.07S66.16,16,61.32,2.68C41.48,38.67,22.22,75.1,1.52,110.59Z" style="fill:#06246a"/><g style="mix-blend-mode:multiply"><path d="M75.58,42.65c-2.85-8.83-6-17.53-9.2-26.21.4,10.9.51,21.76-1.35,32.25q1.14,3.42,2.27,6.86c2.15,6.56,5.35,13.65,5.62,20.62a.41.41,0,0,1-.53.4.78.78,0,0,1-.51.73c-8.77,3.21-17.76,6.17-26.8,8.88C34.37,96.51,20.36,103.52,5.43,103.8c-1.3,2.27-2.6,4.54-3.91,6.79l5.79-1.87a17.8,17.8,0,0,1-.48-2.46c-.06-.54.77-.61.91-.11a17,17,0,0,1,.44,2.28L12.57,107a7,7,0,0,0-.83-1.51c-.28-.41.32-.83.64-.51a3.49,3.49,0,0,1,.93,1.78l4.77-1.51a15.42,15.42,0,0,1-.78-2.5c-.12-.53.73-.74.81-.22a15.69,15.69,0,0,0,.57,2.53l5.46-1.72a4.45,4.45,0,0,0-.87-1.72c-.3-.37.2-.91.55-.54a4,4,0,0,1,1,2.06l4.64-1.46h0a5.56,5.56,0,0,0-.7-2.39.45.45,0,0,1,.78-.46,4.57,4.57,0,0,1,.65,2.63l6.11-1.89a3.4,3.4,0,0,0-.12-.34c-.22-.46-.55-.86-.78-1.32a.4.4,0,0,1,.63-.48,4.42,4.42,0,0,1,1.08,1.88l5.19-1.61a6.39,6.39,0,0,0-.34-1.56,13.13,13.13,0,0,0-.77-1.43c-.21-.41.34-.88.67-.51a4.85,4.85,0,0,1,1,3.32l7.67-2.38a24.73,24.73,0,0,1-1.11-2.54c-.15-.43.54-.73.72-.31a23.65,23.65,0,0,1,1,2.67l5.71-1.77a.29.29,0,0,1-.23-.26,9.85,9.85,0,0,0-1.09-3.11.46.46,0,0,1,.8-.47,6.42,6.42,0,0,1,1,3.48.34.34,0,0,1-.09.22l7.06-2.18a15.7,15.7,0,0,1-.64-2.49.47.47,0,0,1,.9-.25,14.48,14.48,0,0,1,.6,2.48l6.35-2a6.24,6.24,0,0,0-.62-2.1c-.25-.52.5-1,.79-.46a5.45,5.45,0,0,1,.69,2.3l11.21-3.47a19.08,19.08,0,0,1-1.18-2,.49.49,0,0,1,.85-.5,23.82,23.82,0,0,1,1.17,2.24l3.06-.94a.21.21,0,0,1,.11,0C83.37,70.09,80,56.23,75.58,42.65Zm2.63,43.67a4.65,4.65,0,0,1-1.43-2.5.46.46,0,0,1,.89-.23,9.79,9.79,0,0,0,1.16,2.25C79.1,86.22,78.52,86.6,78.21,86.32Z" style="fill:#ffd400"/><path d="M67.3,55.55Q66.18,52.11,65,48.69c-.19,1.1-.42,2.2-.66,3.3C67.05,59.9,69.64,67.84,72,75.86l.43.71a.41.41,0,0,0,.53-.4C72.65,69.2,69.45,62.11,67.3,55.55Z" style="fill:#06246a"/><path d="M88.88,84.13c-2.8-14.48-7.46-28.78-12-42.81-3.35-10.39-6.82-20.82-10.75-31l.24,6.15c3.2,8.68,6.35,17.38,9.2,26.21,4.39,13.58,7.79,27.44,12,41.07a.21.21,0,0,0-.11,0l-3.06.94a23.82,23.82,0,0,0-1.17-2.24.49.49,0,0,0-.85.5,19.08,19.08,0,0,0,1.18,2L72.4,88.4a5.45,5.45,0,0,0-.69-2.3c-.29-.51-1-.06-.79.46a6.24,6.24,0,0,1,.62,2.1l-6.35,2a14.48,14.48,0,0,0-.6-2.48.47.47,0,0,0-.9.25,15.7,15.7,0,0,0,.64,2.49l-7.06,2.18a.34.34,0,0,0,.09-.22,6.42,6.42,0,0,0-1-3.48.46.46,0,0,0-.8.47A9.85,9.85,0,0,1,56.61,93a.29.29,0,0,0,.23.26L51.13,95a23.65,23.65,0,0,0-1-2.67c-.18-.42-.87-.12-.72.31a24.73,24.73,0,0,0,1.11,2.54l-7.67,2.38a4.85,4.85,0,0,0-1-3.32c-.33-.37-.88.1-.67.51a13.13,13.13,0,0,1,.77,1.43,6.39,6.39,0,0,1,.34,1.56l-5.19,1.61A4.42,4.42,0,0,0,36,97.46a.4.4,0,0,0-.63.48c.23.46.56.86.78,1.32a3.4,3.4,0,0,1,.12.34l-6.11,1.89a4.57,4.57,0,0,0-.65-2.63.45.45,0,0,0-.78.46,5.56,5.56,0,0,1,.7,2.39h0l-4.64,1.46a4,4,0,0,0-1-2.06c-.35-.37-.85.17-.55.54a4.45,4.45,0,0,1,.87,1.72l-5.46,1.72a15.69,15.69,0,0,1-.57-2.53c-.08-.52-.93-.31-.81.22a15.42,15.42,0,0,0,.78,2.5l-4.77,1.51a3.49,3.49,0,0,0-.93-1.78c-.32-.32-.92.1-.64.51a7,7,0,0,1,.83,1.51l-4.39,1.39a17,17,0,0,0-.44-2.28c-.14-.5-1-.43-.91.11a17.8,17.8,0,0,0,.48,2.46l-5.79,1.87c1.31-2.25,2.61-4.52,3.91-6.79l-1.52,0H3.86c-1.27,2.4-2.54,4.79-3.8,7.19a.53.53,0,0,0,.33.75.58.58,0,0,0,.75.38C30.21,103.63,59.07,94.39,88,85.41a.8.8,0,0,0,.59-.67A.53.53,0,0,0,88.88,84.13Z" style="fill:#06246a"/></g><path d="M43.27,42C34,58.59,25.05,75.6,16.72,92.65a.47.47,0,0,0,.81.47A270.51,270.51,0,0,0,46.22,43.74C47.09,41.78,44.36,40.05,43.27,42Z" style="fill:#fff;mix-blend-mode:soft-light"/></g></g></g></svg>