<svg xmlns="http://www.w3.org/2000/svg" viewBox="0 0 62.27 70.08"><g style="isolation:isolate"><g id="Layer_2" data-name="Layer 2"><g id="OBJECTS"><path d="M52.1,48.28c1,1.23,2.08,2.46,3.13,3.67-1.08,6.36-6.1,10.38-12.52,10.64L40,59.28A12.71,12.71,0,0,0,52.1,48.28Z" style="fill:#feedac"/><path d="M36.93,48.09A10.52,10.52,0,0,0,43.85,48c.4-.15.23-.81-.17-.66A10.35,10.35,0,0,1,37,47.7.2.2,0,0,0,36.93,48.09ZM43,50.62c.45-.17.29-.87-.17-.72a8.63,8.63,0,0,1-3.73.49.26.26,0,0,0-.07.51A7.44,7.44,0,0,0,43,50.62ZM27.69,44.39C24.11,40.06,20.58,35.61,17,31.24A11.9,11.9,0,0,0,28.63,21c1.4,1.64,2.82,3.26,4.23,4.89a.65.65,0,0,0-.49,0c-7.17,2.93-6.68,12.83-1.68,17.57C34.42,47,45,48.45,47,42.35c.81,1,1.63,1.92,2.44,2.87A11.81,11.81,0,0,1,37.75,56.58Q32.72,50.47,27.69,44.39Z" style="fill:#feedac"/><path d="M11.25,24.52a12.35,12.35,0,0,0,12.16-9.81c.9,1.14,1.83,2.26,2.76,3.38a.35.35,0,0,0-.07.2c-.62,6.3-4.76,10.1-10.92,10.78C13.88,27.54,12.58,26,11.25,24.52Z" style="fill:#feedac"/><path d="M56.11,53l4.77,5.58C58.85,64.68,54,67.82,48,69a.83.83,0,0,0-.09-.16c-1.56-1.92-3.13-3.82-4.7-5.73A12.72,12.72,0,0,0,56.11,53Z" style="fill:#fdd330"/><path d="M51.34,47.72a12.29,12.29,0,0,1-11.83,11l-1.36-1.65a12.18,12.18,0,0,0,12.14-10.9l1.15,1.35A.38.38,0,0,0,51.34,47.72Z" style="fill:#fdd330"/><path d="M39.79,33.88l6.66,7.79c-3,5.12-11.64,4.09-15.17.36-4-4.24-4.13-12.36,1.79-14.91a.54.54,0,0,0,.36-.59C35.57,29,37.7,31.42,39.79,33.88Z" style="fill:#fdd330"/><path d="M15.55,29.51A11.05,11.05,0,0,0,26.87,18.92c.34.42.7.83,1.06,1.25a.55.55,0,0,0-.11.23A12.07,12.07,0,0,1,16.63,30.82Z" style="fill:#fdd330"/><path d="M20.21,10.57q1.2,1.62,2.46,3.21a12,12,0,0,1-11.8,10.16l-.11,0c-1.11-1.23-2.23-2.46-3.38-3.65,4.69-.29,12.85-4.26,12.32-9.8l.05,0A.54.54,0,0,0,20.21,10.57Z" style="fill:#fdd330"/><path d="M14,10.93c-1.87-.73-3.75-1.43-5.66-2.06-.29-.1-.5.37-.21.51,1.85.83,3.76,1.61,5.65,2.34C14.3,11.9,14.51,11.13,14,10.93Zm-.67-1.82a.29.29,0,0,0,.22-.52,14.94,14.94,0,0,0-2.68-1.2c-1-.41-2-.82-3-1.21-.3-.12-.52.39-.22.53l3,1.31A15.7,15.7,0,0,0,13.36,9.11ZM1.47,1.4C7.17,4.28,12.91,7.07,18.59,10a.58.58,0,0,0-.05.35c.55,2.91-3,5.67-5.06,7a19.69,19.69,0,0,1-6.25,2.37,56.07,56.07,0,0,0-2.38-8C3.75,8.25,2.72,4.79,1.47,1.4Z" style="fill:#fdd330"/><path d="M42.84,49.9c.46-.15.62.55.17.72a7.44,7.44,0,0,1-4,.28.26.26,0,0,1,.07-.51A8.63,8.63,0,0,0,42.84,49.9Z" style="fill:#06246a"/><path d="M43.68,47.38c.4-.15.57.51.17.66a10.52,10.52,0,0,1-6.92.05A.2.2,0,0,1,37,47.7,10.35,10.35,0,0,0,43.68,47.38Z" style="fill:#06246a"/><path d="M8.37,8.87c1.91.63,3.79,1.33,5.66,2.06.48.2.27,1-.22.79C11.92,11,10,10.21,8.16,9.38,7.87,9.24,8.08,8.77,8.37,8.87Z" style="fill:#06246a"/><path d="M13.58,8.59a.29.29,0,0,1-.22.52A15.7,15.7,0,0,1,10.63,8l-3-1.31c-.3-.14-.08-.65.22-.53,1,.39,2,.8,3,1.21A14.94,14.94,0,0,1,13.58,8.59Z" style="fill:#06246a"/><path d="M39.51,58.71a12.29,12.29,0,0,0,11.83-11,.38.38,0,0,1,.1-.21l-1.15-1.35a12.18,12.18,0,0,1-12.14,10.9Zm6.94-17-6.66-7.79c-2.09-2.46-4.22-4.9-6.36-7.35a.54.54,0,0,1-.36.59C27.15,29.67,27.28,37.79,31.28,42,34.81,45.76,43.49,46.79,46.45,41.67ZM42.71,62.59c6.42-.26,11.44-4.28,12.52-10.64-1-1.21-2.09-2.44-3.13-3.67A12.71,12.71,0,0,1,40,59.28ZM56.11,53A12.72,12.72,0,0,1,43.17,63.15c1.57,1.91,3.14,3.81,4.7,5.73A.83.83,0,0,1,48,69c6-1.22,10.89-4.36,12.92-10.48ZM17,31.24c3.6,4.37,7.13,8.82,10.71,13.15q5,6.09,10.06,12.19A11.81,11.81,0,0,0,49.48,45.22c-.81-.95-1.63-1.9-2.44-2.87C45,48.45,34.42,47,30.69,43.47c-5-4.74-5.49-14.64,1.68-17.57a.65.65,0,0,1,.49,0C31.45,24.25,30,22.63,28.63,21A11.9,11.9,0,0,1,17,31.24Zm-6.11-7.3a12,12,0,0,0,11.8-10.16q-1.26-1.59-2.46-3.21a.54.54,0,0,1-.46,0l-.05,0c.53,5.54-7.63,9.51-12.32,9.8C8.53,21.5,9.65,22.73,10.76,24Zm7.72-14C12.91,7.07,7.17,4.28,1.47,1.4,2.72,4.79,3.75,8.25,4.85,11.68a56.07,56.07,0,0,1,2.38,8,19.69,19.69,0,0,0,6.25-2.37c2.1-1.33,5.61-4.09,5.06-7A.58.58,0,0,1,18.59,10ZM15.18,29.07c6.16-.68,10.3-4.48,10.92-10.78a.35.35,0,0,1,.07-.2c-.93-1.12-1.86-2.24-2.76-3.38a12.35,12.35,0,0,1-12.16,9.81C12.58,26,13.88,27.54,15.18,29.07Zm11,15.5c-6.31-7.71-13-15.27-18.81-23.41a.13.13,0,0,1-.2,0C5.37,18.42,4.66,15,3.65,12,2.44,8.29,1.12,4.62.11.87a.68.68,0,0,1,0-.19C-.15.42.12-.13.5,0A161.07,161.07,0,0,1,20.35,9.5a.57.57,0,0,1,.27.36C28,17.3,34.55,25.72,41.37,33.66S55.2,49.76,62.1,57.81a.74.74,0,0,1,0,.91v0c-2,6.13-7.78,11.45-14.51,11.26a.58.58,0,0,1-.72-.16C39.93,61.48,33.05,53,26.15,44.57ZM16.63,30.82A12.07,12.07,0,0,0,27.82,20.4a.55.55,0,0,1,.11-.23c-.36-.42-.72-.83-1.06-1.25A11.05,11.05,0,0,1,15.55,29.51Z" style="fill:#06246a"/><g style="mix-blend-mode:multiply"><path d="M52.1,48.28A13.07,13.07,0,0,1,46.82,57a27.84,27.84,0,0,1,1.11,4.45A12.28,12.28,0,0,0,55.23,52C54.18,50.74,53.14,49.51,52.1,48.28Z" style="fill:#feedac"/><path d="M42.58,47.73c.37-.1.73-.21,1.1-.35s.57.51.17.66-.63.21-.94.29c1,1.72,1.84,3.48,2.61,5.25a11.83,11.83,0,0,0,4-8.36c-.81-.95-1.63-1.9-2.44-2.87-.8,2.34-2.84,3.56-5.26,4Z" style="fill:#feedac"/><path d="M29.89,27.45a8.7,8.7,0,0,1,2.48-1.55.65.65,0,0,1,.49,0C31.45,24.25,30,22.63,28.63,21a11.43,11.43,0,0,1-.95,3.26C28.43,25.3,29.16,26.37,29.89,27.45Z" style="fill:#feedac"/><path d="M25.49,21.23a13.43,13.43,0,0,0,.61-2.94.35.35,0,0,1,.07-.2c-.93-1.12-1.86-2.24-2.76-3.38a11.7,11.7,0,0,1-.88,2.64Q24,19.27,25.49,21.23Z" style="fill:#feedac"/><path d="M56.11,53a12.89,12.89,0,0,1-8,9.39,18.68,18.68,0,0,1-.26,6.42l.06.09A.83.83,0,0,1,48,69c6-1.22,10.89-4.36,12.92-10.48Z" style="fill:#fdd330"/><path d="M50.29,46.16a12.44,12.44,0,0,1-4.45,8.17c.26.62.49,1.24.71,1.86a12.09,12.09,0,0,0,4.79-8.47.38.38,0,0,1,.1-.21Z" style="fill:#fdd330"/><path d="M34.08,34c2,3.29,4.52,7,6.93,11a7.21,7.21,0,0,0,5.44-3.38l-6.66-7.79c-2.09-2.46-4.22-4.9-6.36-7.35a.54.54,0,0,1-.36.59,7.4,7.4,0,0,0-2.33,1.59C31.89,30.45,33,32.21,34.08,34Z" style="fill:#fdd330"/><path d="M27,23.35a11.87,11.87,0,0,0,.79-3,.55.55,0,0,1,.11-.23c-.36-.42-.72-.83-1.06-1.25a11.06,11.06,0,0,1-.66,3.3C26.49,22.59,26.76,23,27,23.35Z" style="fill:#fdd330"/><path d="M19.24,13.24c.89,1.08,1.76,2.17,2.63,3.27a12.86,12.86,0,0,0,.8-2.73q-1.26-1.59-2.46-3.21a.54.54,0,0,1-.46,0l-.05,0A5.52,5.52,0,0,1,19.24,13.24Z" style="fill:#fdd330"/><path d="M15,8.16q1.7,2,3.36,4a3.65,3.65,0,0,0,.17-1.88.58.58,0,0,1,.05-.35Z" style="fill:#fdd330"/><path d="M62.1,57.81Q51.75,45.74,41.37,33.66C34.55,25.72,28,17.3,20.62,9.86a.57.57,0,0,0-.27-.36c-2.51-1.39-5.05-2.74-7.62-4L15,8.16,18.59,10a.58.58,0,0,0-.05.35,3.65,3.65,0,0,1-.17,1.88l.87,1.06a5.52,5.52,0,0,0,.46-2.73l.05,0a.54.54,0,0,0,.46,0q1.2,1.62,2.46,3.21a12.86,12.86,0,0,1-.8,2.73l.66.84a11.7,11.7,0,0,0,.88-2.64c.9,1.14,1.83,2.26,2.76,3.38a.35.35,0,0,0-.07.2,13.43,13.43,0,0,1-.61,2.94c.25.32.48.66.72,1a11.06,11.06,0,0,0,.66-3.3c.34.42.7.83,1.06,1.25a.55.55,0,0,0-.11.23,11.87,11.87,0,0,1-.79,3l.65.9A11.43,11.43,0,0,0,28.63,21c1.4,1.64,2.82,3.26,4.23,4.89a.65.65,0,0,0-.49,0,8.7,8.7,0,0,0-2.48,1.55c.28.42.57.83.85,1.26a7.4,7.4,0,0,1,2.33-1.59.54.54,0,0,0,.36-.59c2.14,2.45,4.27,4.89,6.36,7.35l6.66,7.79A7.21,7.21,0,0,1,41,45.05l.77,1.29c2.42-.43,4.46-1.65,5.26-4,.81,1,1.63,1.92,2.44,2.87a11.83,11.83,0,0,1-4,8.36c.11.25.22.5.32.75a12.44,12.44,0,0,0,4.45-8.17l1.15,1.35a.38.38,0,0,0-.1.21,12.09,12.09,0,0,1-4.79,8.47c.09.26.19.52.27.78a13.07,13.07,0,0,0,5.28-8.69c1,1.23,2.08,2.46,3.13,3.67a12.28,12.28,0,0,1-7.3,9.47c0,.32.11.63.14.95a12.89,12.89,0,0,0,8-9.39l4.77,5.58C58.85,64.68,54,67.82,48,69a.83.83,0,0,0-.09-.16l-.06-.09c-.1.43-.22.86-.35,1.28a.52.52,0,0,0,.16-.06c6.73.2,12.53-5.12,14.51-11.25v0A.74.74,0,0,0,62.1,57.81Z" style="fill:#06246a"/></g><path d="M26,34.57a135.32,135.32,0,0,0-9.88-16c-1.59-2.21-5.26-.19-3.73,2.18A85.49,85.49,0,0,0,24.6,35.65.9.9,0,0,0,26,34.57Z" style="fill:#fff;mix-blend-mode:soft-light"/></g></g></g></svg>