<svg xmlns="http://www.w3.org/2000/svg" viewBox="0 0 101.45 137.99"><g style="isolation:isolate"><g id="Layer_2" data-name="Layer 2"><g id="OBJECTS"><path d="M13.4,5c1.84.74,3.66,1.52,5.45,2.38a112.48,112.48,0,0,1,13.24,7.67,6.41,6.41,0,0,1-7.94,7,.63.63,0,0,0-.71.8c1.18,6-5,9.29-9.54,6.72a.61.61,0,0,0-.87.58c.19,5.38-4.8,7.64-9.17,5.37,0,0,0,0-.08,0-.24-5.36-.93-10.71-1.33-16.06-.08-1-.44-3.44-.71-6.17A9.48,9.48,0,0,0,13.4,5Zm9.49,8.3a11.64,11.64,0,0,0-3.57-2c-.26-.09-.47.28-.19.41a15.77,15.77,0,0,1,3.24,2.13C22.76,14.2,23.28,13.63,22.89,13.31ZM16.68,9.06a33.51,33.51,0,0,1,5.22,2.53c.41.23.7-.4.32-.64A19.47,19.47,0,0,0,16.8,8.71C16.6,8.66,16.49,9,16.68,9.06Z" style="fill:#f0bda4"/><path d="M12.17,4.51C11.47,9.93,7,13,1.66,12.38,1.27,7.64,1.31,2.3,3.77,1.72c1.92-.46,6.23,2,8,2.62Z" style="fill:#06246a"/><path d="M19.32,11.35a11.64,11.64,0,0,1,3.57,2c.39.32-.13.89-.52.58a15.77,15.77,0,0,0-3.24-2.13C18.85,11.63,19.06,11.26,19.32,11.35Z" style="fill:#06246a"/><path d="M16.8,8.71A19.47,19.47,0,0,1,22.22,11c.38.24.09.87-.32.64a33.51,33.51,0,0,0-5.22-2.53C16.49,9,16.6,8.66,16.8,8.71Z" style="fill:#06246a"/><path d="M17.48,49.68c.14.31-.27.6-.45.3-.66-1.09-1.32-2.18-2-3.28-.26-.46.44-.9.68-.44C16.35,47.39,16.91,48.54,17.48,49.68Z" style="fill:#06246a"/><path d="M14.07,48.35a.35.35,0,0,1,.59-.39,37.35,37.35,0,0,1,2.94,5.38.11.11,0,0,1-.19.11A37.28,37.28,0,0,1,14.07,48.35Z" style="fill:#06246a"/><path d="M96.17,107.54c2.39,3.87,5.17,8.25,3,12.93-1.7,3.73-6.47,7.51-9.57,10-3.4,2.78-7.51,5.49-12,6-6.12.68-8.8-3.88-11.85-8.18a16.07,16.07,0,0,0,3.56-2c3.26-2.15,6.48-4.37,9.72-6.56,5.76-3.9,11.79-7.58,17-12.19C96.15,107.58,96.15,107.56,96.17,107.54Zm-.56,12a13,13,0,0,0,.65-4.51.4.4,0,0,0-.8,0,14.18,14.18,0,0,1-.43,4.35C94.93,119.85,95.5,120,95.61,119.59Zm1.71-2.73a8,8,0,0,1-2.83,6.62c-.25.23,0,.67.3.45a8.27,8.27,0,0,0,3.38-7.11A.43.43,0,0,0,97.32,116.86Z" style="fill:#f0bda4"/><path d="M91.47,100.6a.67.67,0,0,0,.26-.62c.1-.13.18-.26.27-.4l0,0c1.57.56,2.95,1.27,3.57,2.94a5.86,5.86,0,0,1-.23,4.06s0,0-.07,0c-4.88,4-10.16,7.53-15.38,11.11-4.85,3.34-10.2,8.34-15.87,10.27a.53.53,0,0,0-.33-.24,4.28,4.28,0,0,1-2.89-5.49.49.49,0,0,0,0-.12C71.73,116.45,81.74,108,91.47,100.6Z" style="fill:#cedaf6"/><path d="M90.74,99.47c-9.87,7.58-20.81,14.15-30.32,22.14,0,0,0,0,0,0a7.37,7.37,0,0,1-2.66-2.6,6,6,0,0,1-.63-3.2c3.12-.93,6.58-4.56,8.45-5.89q10.54-7.5,21.07-15a.67.67,0,0,0,.29-.6,1.88,1.88,0,0,0,.16-.23h0c3.18-.29,4.89,2.53,4,5.33A.53.53,0,0,0,90.74,99.47Z" style="fill:#cedaf6"/><path d="M52.86,109a.29.29,0,0,0,.42-.29,106.94,106.94,0,0,0,28.05-20,.46.46,0,0,0,.16-.37,4,4,0,0,1,4.33,1.23,4.5,4.5,0,0,1,.51,4,.6.6,0,0,0-.5.12Q78.45,99,71.07,104.33c-2.44,1.78-11.64,10.27-16,10.43,0,0,0,0,0,0A5.93,5.93,0,0,1,52.76,112a5.2,5.2,0,0,1,0-3Z" style="fill:#cedaf6"/><path d="M25.42,47.08c-3.5-5.21-6.77-10.75-10.86-15.54a.91.91,0,0,1,.16-.13c0,.1,2.9.57,2.9.57a7.61,7.61,0,0,0,3-.64,7.24,7.24,0,0,0,3.89-4.43s.25-1.28.36-2.21c8.66,10.54,15.43,22.56,23,33.88Q60,76.66,73,94.12l0,0c-3.58,2.72-7.3,5.19-11,7.71Q49.71,83.4,37.36,64.93,31.39,56,25.42,47.08Z" style="fill:#06246a"/><path d="M80.42,87.89l0,0a79.06,79.06,0,0,1-6.27,5.41C65.4,81.39,56.82,69.32,48.59,57,41.18,45.91,34.75,33.41,25.45,23.73a1.79,1.79,0,0,0,1-.25c1.77-.81,3.2-.61,4.76-2.17a7.14,7.14,0,0,0,2.08-4.83C48.71,40.45,64.27,64.43,80.42,87.89Z" style="fill:#fdd330"/><path d="M17,50c.18.3.59,0,.45-.3-.57-1.14-1.13-2.29-1.73-3.42-.24-.46-.94,0-.68.44C15.71,47.8,16.37,48.89,17,50Zm-2.37-2a.35.35,0,0,0-.59.39,37.28,37.28,0,0,0,3.34,5.1.11.11,0,0,0,.19-.11A37.35,37.35,0,0,0,14.66,48Zm46.25,54.68c-2.66,1.82-5.31,3.66-7.89,5.66h0a.56.56,0,0,1,0-.12c.19-.39-.31-.79-.62-.53-4.52-4.93-7.91-10.87-11.58-16.43L28.52,72.53C20.73,60.7,13.1,48.75,5.16,37A6.27,6.27,0,0,0,13,35a15.1,15.1,0,0,0,1.21-2.76C30.35,55.21,45.33,79.21,60.91,102.64Z" style="fill:#fdd330"/><path d="M98.17,116.82a8.27,8.27,0,0,1-3.38,7.11c-.29.22-.55-.22-.3-.45a8,8,0,0,0,2.83-6.62A.43.43,0,0,1,98.17,116.82Z" style="fill:#06246a"/><path d="M96.26,115.08a13,13,0,0,1-.65,4.51c-.11.36-.68.26-.58-.11a14.18,14.18,0,0,0,.43-4.35A.4.4,0,0,1,96.26,115.08Z" style="fill:#06246a"/><path d="M3.77,1.72c-2.46.58-2.5,5.92-2.11,10.66C7,13,11.47,9.93,12.17,4.51l-.42-.17C10,3.68,5.69,1.26,3.77,1.72ZM60.91,102.64C45.33,79.21,30.35,55.21,14.16,32.2A15.1,15.1,0,0,1,13,35a6.27,6.27,0,0,1-7.79,2C13.1,48.75,20.73,60.7,28.52,72.53L40.85,91.21c3.67,5.56,7.06,11.5,11.58,16.43.31-.26.81.14.62.53a.56.56,0,0,0,0,.12h0C55.6,106.3,58.25,104.46,60.91,102.64ZM24.15,22a6.41,6.41,0,0,0,7.94-7A112.48,112.48,0,0,0,18.85,7.39C17.06,6.53,15.24,5.75,13.4,5A9.48,9.48,0,0,1,1.74,13.26c.27,2.73.63,5.14.71,6.17.4,5.35,1.09,10.7,1.33,16.06,0,0,.06,0,.08,0,4.37,2.27,9.36,0,9.17-5.37a.61.61,0,0,1,.87-.58c4.5,2.57,10.72-.74,9.54-6.72A.63.63,0,0,1,24.15,22ZM80.42,87.89C64.27,64.43,48.71,40.45,33.32,16.48a7.14,7.14,0,0,1-2.08,4.83c-1.56,1.56-3,1.36-4.76,2.17a1.79,1.79,0,0,1-1,.25C34.75,33.41,41.18,45.91,48.59,57,56.82,69.32,65.4,81.39,74.18,93.33a79.06,79.06,0,0,0,6.27-5.41Zm-14.6,40.42c3.05,4.3,5.73,8.86,11.85,8.18,4.46-.5,8.57-3.21,12-6,3.1-2.52,7.87-6.3,9.57-10,2.13-4.68-.65-9.06-3-12.93,0,0,0,0,0,0-5.24,4.61-11.27,8.29-17,12.19-3.24,2.19-6.46,4.41-9.72,6.56A16.07,16.07,0,0,1,65.82,128.31Zm-3.77-26.43c3.71-2.52,7.43-5,11-7.71l0,0Q60,76.71,47.91,58.58c-7.57-11.32-14.34-23.34-23-33.88-.11.93-.37,2.21-.36,2.21a7.24,7.24,0,0,1-3.89,4.43,7.61,7.61,0,0,1-3,.64s-2.9-.47-2.9-.57a.91.91,0,0,0-.16.13c4.09,4.79,7.36,10.33,10.86,15.54q6,8.93,11.94,17.85Q49.72,83.39,62.05,101.88Zm1.46,27a4.89,4.89,0,0,1-3.68-6.26c-2.8-.68-4.2-3.9-3.84-6.6a3.29,3.29,0,0,1-2.08-.51c-2.44-1.12-3.11-4.72-2-7-4.45-2.86-7.18-9.1-10-13.3L29.09,75.64c-8.57-13-17.37-25.86-25.77-38.95a.71.71,0,0,1-.08-.18.34.34,0,0,1-.3-.29C1.52,28.92,1.13,21.37.68,14c-.21-3.45-1-7.67-.52-11.1C.36,1.57.23.88,1.52.3c3.25-1.46,11,2.82,14,4.09a90.6,90.6,0,0,1,16.83,9.25.64.64,0,0,1,.84.48l.14.21.28.19a.53.53,0,0,1,.21.53c16,23.82,32,47.8,47.17,72.11a5,5,0,0,1,6,1.55,4.67,4.67,0,0,1,.77,4,4.79,4.79,0,0,1,4.74,5.87,5.33,5.33,0,0,1,4,7.67.63.63,0,0,1,.65.3c2.55,3.71,5.27,8.37,3.92,13-1.48,5.11-7.3,9.44-11.32,12.59s-9.42,6.36-14.71,5.77c-5-.56-8.16-5.06-10.12-9.32a.08.08,0,0,1,0,0c-.3.05-.6.1-.93.13A.5.5,0,0,1,63.51,128.85Zm28-28.25c-9.73,7.42-19.74,15.85-30.62,21.57a.49.49,0,0,1,0,.12,4.28,4.28,0,0,0,2.89,5.49.53.53,0,0,1,.33.24c5.67-1.93,11-6.93,15.87-10.27,5.22-3.58,10.5-7.07,15.38-11.11,0,0,0,0,.07,0a5.86,5.86,0,0,0,.23-4.06c-.62-1.67-2-2.38-3.57-2.94l0,0c-.09.14-.17.27-.27.4A.67.67,0,0,1,91.47,100.6Zm-31,21c9.51-8,20.45-14.56,30.32-22.14a.53.53,0,0,1,.35-.12c.87-2.8-.84-5.62-4-5.33h0a1.88,1.88,0,0,1-.16.23.67.67,0,0,1-.29.6q-10.51,7.53-21.07,15c-1.87,1.33-5.33,5-8.45,5.89a6,6,0,0,0,.63,3.2,7.37,7.37,0,0,0,2.66,2.6S60.4,121.6,60.42,121.61Zm20.91-32.9a106.94,106.94,0,0,1-28,20,.29.29,0,0,1-.42.29l-.1-.06a5.2,5.2,0,0,0,0,3,5.93,5.93,0,0,0,2.29,2.77s0,0,0,0c4.37-.16,13.57-8.65,16-10.43Q78.45,99,85.83,93.65a.6.6,0,0,1,.5-.12,4.5,4.5,0,0,0-.51-4,4,4,0,0,0-4.33-1.23A.46.46,0,0,1,81.33,88.71Z" style="fill:#06246a"/><g style="mix-blend-mode:multiply"><path d="M21.28,10.42c.32.17.63.34.94.53a.39.39,0,0,1,.1.55c2.26,2.35,4.54,4.68,6.77,7L30.53,20a6.83,6.83,0,0,0,1.56-5A112.48,112.48,0,0,0,18.85,7.39L18.05,7Q19.66,8.75,21.28,10.42Z" style="fill:#f0bda4"/><path d="M96.17,107.54s0,0,0,0c-4.7,4.14-10,7.53-15.25,11a34.24,34.24,0,0,1-8.8,16.77,8.63,8.63,0,0,0,5.59,1.13c4.46-.5,8.57-3.21,12-6,3.1-2.52,7.87-6.3,9.57-10C101.34,115.79,98.56,111.41,96.17,107.54ZM95,119.48a14.18,14.18,0,0,0,.43-4.35.4.4,0,0,1,.8,0,13,13,0,0,1-.65,4.51C95.5,120,94.93,119.85,95,119.48Zm-.24,4.45c-.29.22-.55-.22-.3-.45a8,8,0,0,0,2.83-6.62.43.43,0,0,1,.85,0A8.27,8.27,0,0,1,94.79,123.93Z" style="fill:#f0bda4"/><path d="M95.61,102.55c-.62-1.67-2-2.38-3.57-2.94l0,0c-.09.14-.17.27-.27.4a.67.67,0,0,1-.26.62c-3.18,2.43-6.39,5-9.65,7.47a47.46,47.46,0,0,1-.61,8.8c4.8-3.28,9.62-6.52,14.1-10.23,0,0,0,0,.07,0A5.86,5.86,0,0,0,95.61,102.55Z" style="fill:#cedaf6"/><path d="M87.07,94h0a1.88,1.88,0,0,1-.16.23.67.67,0,0,1-.29.6l-5.73,4.08a61.81,61.81,0,0,1,.85,7.08c3-2.13,6.08-4.29,9-6.54a.53.53,0,0,1,.35-.12C92,96.55,90.25,93.73,87.07,94Z" style="fill:#cedaf6"/><path d="M85.82,89.57a4,4,0,0,0-4.33-1.23.46.46,0,0,1-.16.37c-.76.75-1.54,1.48-2.32,2.22.62,2.15,1.15,4.33,1.59,6.51l5.23-3.79a.6.6,0,0,1,.5-.12A4.5,4.5,0,0,0,85.82,89.57Z" style="fill:#cedaf6"/><path d="M47.48,38.41Q40.37,27.46,33.32,16.48A7.09,7.09,0,0,1,31.48,21C36.89,26.72,42.3,32.47,47.48,38.41Z" style="fill:#fdd330"/><path d="M76.25,82.83c.87,2.23,1.66,4.5,2.36,6.79.62-.55,1.23-1.12,1.84-1.7l0,0c-1.81-2.62-3.58-5.27-5.36-7.9C75.46,80.94,75.87,81.87,76.25,82.83Z" style="fill:#fdd330"/><path d="M98.17,116.82a8.27,8.27,0,0,1-3.38,7.11c-.29.22-.55-.22-.3-.45a8,8,0,0,0,2.83-6.62A.43.43,0,0,1,98.17,116.82Z" style="fill:#06246a"/><path d="M96.26,115.08a13,13,0,0,1-.65,4.51c-.11.36-.68.26-.58-.11a14.18,14.18,0,0,0,.43-4.35A.4.4,0,0,1,96.26,115.08Z" style="fill:#06246a"/><path d="M18.05,7l.8.37a112.48,112.48,0,0,1,13.24,7.67,6.83,6.83,0,0,1-1.56,5l.95,1a7.09,7.09,0,0,0,1.84-4.56q7.05,11,14.16,21.93c3.5,4,6.89,8.1,10.1,12.32Q45.8,32.81,33.83,15.05a.53.53,0,0,0-.21-.53l-.28-.19-.14-.21a.64.64,0,0,0-.84-.48A89.94,89.94,0,0,0,15.68,4.46C16.47,5.32,17.26,6.18,18.05,7Z" style="fill:#06246a"/><path d="M97.17,106.51a.63.63,0,0,0-.65-.3,5.33,5.33,0,0,0-4-7.67,4.79,4.79,0,0,0-4.74-5.87,4.67,4.67,0,0,0-.77-4,5,5,0,0,0-6-1.55Q75.94,79.07,70.77,71q2.33,4.36,4.29,9c1.78,2.63,3.55,5.28,5.36,7.9l0,0c-.61.58-1.22,1.15-1.84,1.7.14.44.27.87.4,1.31.78-.74,1.56-1.47,2.32-2.22a.46.46,0,0,0,.16-.37,4,4,0,0,1,4.33,1.23,4.5,4.5,0,0,1,.51,4,.6.6,0,0,0-.5.12L80.6,97.44c.1.5.19,1,.28,1.49l5.73-4.08a.67.67,0,0,0,.29-.6,1.88,1.88,0,0,0,.16-.23h0c3.18-.29,4.89,2.53,4,5.33a.53.53,0,0,0-.35.12c-2.93,2.25-6,4.41-9,6.54,0,.69.07,1.38.09,2.06,3.26-2.51,6.47-5,9.65-7.47a.67.67,0,0,0,.26-.62c.1-.13.18-.26.27-.4l0,0c1.57.56,2.95,1.27,3.57,2.94a5.86,5.86,0,0,1-.23,4.06s0,0-.07,0c-4.48,3.71-9.3,7-14.1,10.23-.1.58-.21,1.15-.33,1.72,5.21-3.47,10.55-6.86,15.25-11,0,0,0,0,0,0,2.39,3.87,5.17,8.25,3,12.93-1.7,3.73-6.47,7.51-9.57,10-3.4,2.78-7.51,5.49-12,6a8.63,8.63,0,0,1-5.59-1.13c-.35.36-.72.72-1.09,1.08a9.19,9.19,0,0,0,4.07,1.48c5.29.59,10.74-2.66,14.71-5.77s9.84-7.48,11.32-12.59C102.44,114.88,99.72,110.22,97.17,106.51Z" style="fill:#06246a"/></g><path d="M47.1,92.23c-7.92-15.4-17.35-29.92-27.34-44.05-1.64-2.33-5.52-.07-3.84,2.25C26.06,64.48,35.68,78.9,45.64,93.08A.85.85,0,0,0,47.1,92.23Z" style="fill:#fff;mix-blend-mode:soft-light"/></g></g></g></svg>