<svg xmlns="http://www.w3.org/2000/svg" viewBox="0 0 51.09 132.42"><g style="isolation:isolate"><g id="Layer_2" data-name="Layer 2"><g id="OBJECTS"><path d="M27.79,16.25a10.74,10.74,0,0,1,4.6,5.81.45.45,0,1,0,.83-.36A11.68,11.68,0,0,0,28,15.85.23.23,0,0,0,27.79,16.25Zm.89,2.86c-.21-.15-.49.2-.28.38a22,22,0,0,1,3.1,3.63.39.39,0,0,0,.67-.4A11.56,11.56,0,0,0,28.68,19.11Zm-7.58-6.6c7.06-.71,11.86,1.9,14.12,8.86,1.76,5.39,3.09,11,4.39,16.47a302.35,302.35,0,0,1,6.23,37,76.7,76.7,0,0,1-25.05,3.57,314.35,314.35,0,0,1-7.34-33.49c-.93-6-1.72-12.06-2.16-18.11a20.94,20.94,0,0,1,.41-7.69C13,14.86,17,12.92,21.1,12.51Z" style="fill:#fee583"/><path d="M41.9,127.51c-.42-.81-.85-1.61-1.3-2.4a10.53,10.53,0,0,0,1.88.15,8.21,8.21,0,0,0,4.73-1.38c-.14,1.14-.29,2.29-.43,3.44s-.12,4.82-2.58,3.6C43,130.34,42.46,128.57,41.9,127.51Z" style="fill:#fdd330"/><path d="M13.29,66.21c-2.23,5.75-4.91,5.91-8,.43-.39-1.08-.75-2.18-1.08-3.29A70,70,0,0,1,1.64,48.21c-.51-7.89-3-26.64,8.21-27.15a29.2,29.2,0,0,0-.24,4.81c-6.11,1.58-4.5,9.22-3.92,13.94.61,4.9,1.23,9.8,1.83,14.7.29,2.32.17,5.06,1.24,7.2a.48.48,0,0,0,.29.55c.4.62.75.64,1.07.42a7.11,7.11,0,0,1,2,1.46A5.84,5.84,0,0,1,13.29,66.21Z" style="fill:#fdd330"/><path d="M12.74,14.43c-1-7.84,15.21-10.5,16.91-2.71A19.6,19.6,0,0,0,19.77,11,11.61,11.61,0,0,0,12.74,14.43Z" style="fill:#fdd330"/><path d="M23.84,5.94a14.86,14.86,0,0,0-7,1.1c.07-1.89-.11-4.4,1.7-5.45C21.52-.12,23.32,3.5,23.84,5.94Z" style="fill:#fdd330"/><path d="M29.23,97.53A14.22,14.22,0,0,0,31,103.88a.31.31,0,0,0,.57-.24c-.29-1-.78-2-1.09-3s-.52-2.08-.74-3.13A.23.23,0,0,0,29.23,97.53Zm9.43,25.38c-7.59-3.16-9.24-12.68-10.88-19.81-1.8-7.84-3.21-15.9-5.66-23.56,7.37,1.52,15.42-.35,22.51-2.7,1.24,8.17,2.5,16.31,3.7,24.48C49.38,108.43,52.74,128.78,38.66,122.91ZM28.88,99.56a23.51,23.51,0,0,1-.77-3.73c0-.22-.39-.16-.39,0,0,2.43.52,5.49,2,7.49.21.28.74.13.61-.26C29.9,101.9,29.26,100.79,28.88,99.56Z" style="fill:#fee583"/><path d="M31,103.88a14.22,14.22,0,0,1-1.72-6.35.23.23,0,0,1,.46-.06c.22,1,.42,2.1.74,3.13s.8,2,1.09,3A.31.31,0,0,1,31,103.88Z" style="fill:#06246a"/><path d="M28.4,19.49c-.21-.18.07-.53.28-.38a11.56,11.56,0,0,1,3.49,3.61.39.39,0,0,1-.67.4A22,22,0,0,0,28.4,19.49Z" style="fill:#06246a"/><path d="M28.11,95.83a23.51,23.51,0,0,0,.77,3.73c.38,1.23,1,2.34,1.42,3.55.13.39-.4.54-.61.26-1.45-2-2-5.06-2-7.49C27.72,95.67,28.08,95.61,28.11,95.83Z" style="fill:#06246a"/><path d="M28,15.85a11.68,11.68,0,0,1,5.2,5.85.45.45,0,1,1-.83.36,10.74,10.74,0,0,0-4.6-5.81A.23.23,0,0,1,28,15.85Z" style="fill:#06246a"/><path d="M40.6,125.11c.45.79.88,1.59,1.3,2.4.56,1.06,1.14,2.83,2.3,3.41,2.46,1.22,2.43-2.35,2.58-3.6s.29-2.3.43-3.44a8.21,8.21,0,0,1-4.73,1.38A10.53,10.53,0,0,1,40.6,125.11Zm4-48.27c-7.09,2.35-15.14,4.22-22.51,2.7C24.57,87.2,26,95.26,27.78,103.1c1.64,7.13,3.29,16.65,10.88,19.81,14.08,5.87,10.72-14.48,9.67-21.59C47.13,93.15,45.87,85,44.63,76.84ZM23.84,5.94c-.52-2.44-2.32-6.06-5.3-4.35C16.73,2.64,16.91,5.15,16.84,7A14.86,14.86,0,0,1,23.84,5.94Zm-11.1,8.49a11.61,11.61,0,0,1,7-3.47,19.6,19.6,0,0,1,9.88.76C28,3.93,11.77,6.59,12.74,14.43Zm-1,4.69a20.94,20.94,0,0,0-.41,7.69c.44,6.05,1.23,12.11,2.16,18.11a314.35,314.35,0,0,0,7.34,33.49,76.7,76.7,0,0,0,25.05-3.57,302.35,302.35,0,0,0-6.23-37c-1.3-5.52-2.63-11.08-4.39-16.47-2.26-7-7.06-9.57-14.12-8.86C17,12.92,13,14.86,11.7,19.12Zm3.24,47.5a5.4,5.4,0,0,1-9.07,4C2.64,67.68,1.93,61,1.23,57A98.43,98.43,0,0,1,0,38.61c.12-7.28-.33-19.43,10-18.56a12.22,12.22,0,0,1,2.06-4.86c-1.49-3.4.75-6.27,4.15-7.89C15.44,4.63,15.81.67,19.11.08c3.66-.66,5.66,2.95,6,6.05,3.07.65,5.54,2.58,5.87,6.21a10.48,10.48,0,0,1,2,1.38c4.22,3.74,5.07,11.19,6.41,16.32A296.35,296.35,0,0,1,47.53,75a.66.66,0,0,1-.34.69.69.69,0,0,1-.47.49l-.68.24c1.77,11.68,4.33,23.54,5,35.33.24,4.18-.24,8.85-3,11.48a.51.51,0,0,1,.36.53,33.87,33.87,0,0,1-.89,6.67,2.64,2.64,0,0,1-2.35,2c-1.55.06-2.66-1.19-3.35-2.43a45,45,0,0,1-2.4-5.12c-5.92-1.63-9.46-8.17-11.14-13.75a210.66,210.66,0,0,1-7-31.77l-.66-.16a.52.52,0,0,1-.8-.27q-2.31-7.24-4.11-14.64A255.25,255.25,0,0,1,10.45,35c-.29-2.41-.63-5-.78-7.58C3.5,30.05,7.88,45.93,8.47,50.84c.4,3.27.3,7.49,2.34,10.28a4.7,4.7,0,0,1,4,3.38A4.34,4.34,0,0,1,14.94,66.62ZM9.85,21.06c-11.2.51-8.72,19.26-8.21,27.15A70,70,0,0,0,4.16,63.35c.33,1.11.69,2.21,1.08,3.29,3.14,5.48,5.82,5.32,8-.43a5.84,5.84,0,0,0-1.19-2.07,7.11,7.11,0,0,0-2-1.46c-.32.22-.67.2-1.07-.42a.48.48,0,0,1-.29-.55c-1.07-2.14-1-4.88-1.24-7.2-.6-4.9-1.22-9.8-1.83-14.7C5.11,35.09,3.5,27.45,9.61,25.87A29.2,29.2,0,0,1,9.85,21.06Z" style="fill:#06246a"/><g style="mix-blend-mode:multiply"><path d="M39.3,64.71c.17,3.85.36,7.78.49,11.74,2-.47,4-1,6.05-1.61a302.35,302.35,0,0,0-6.23-37c-1.3-5.52-2.63-11.08-4.39-16.47a14.45,14.45,0,0,0-3-5.48C36.93,31.74,38.61,49,39.3,64.71Z" style="fill:#fee583"/><path d="M41.9,127.51c-.42-.81-.85-1.61-1.3-2.4a10.53,10.53,0,0,0,1.88.15,8.21,8.21,0,0,0,4.73-1.38c-.14,1.14-.29,2.29-.43,3.44s-.12,4.82-2.58,3.6C43,130.34,42.46,128.57,41.9,127.51Z" style="fill:#fdd330"/><path d="M48.33,101.32c-1.2-8.17-2.46-16.31-3.7-24.48-1.55.51-3.16,1-4.79,1.44.27,9.75.08,19.65-1.79,29-.71,3.5-2.23,8.27-4.63,11.5a12.61,12.61,0,0,0,5.24,4.15C52.74,128.78,49.38,108.43,48.33,101.32Z" style="fill:#fee583"/><path d="M31,12.11a6.82,6.82,0,0,0-1-3C30.28,10.11,30.63,11.11,31,12.11Z" style="fill:#06246a"/><path d="M48.07,123.18c2.72-2.63,3.2-7.3,3-11.48-.66-11.79-3.22-23.65-5-35.33l.68-.24a.69.69,0,0,0,.47-.49.66.66,0,0,0,.34-.69A296.35,296.35,0,0,0,39.42,30C38.08,24.91,37.23,17.46,33,13.72a10.44,10.44,0,0,0-1.95-1.35c.39,1.16.76,2.34,1.11,3.52a14.45,14.45,0,0,1,3,5.48c1.76,5.39,3.09,11,4.39,16.47a302.35,302.35,0,0,1,6.23,37c-2.05.61-4.06,1.14-6.05,1.61,0,.61,0,1.22.05,1.83,1.63-.44,3.24-.93,4.79-1.44,1.24,8.17,2.5,16.31,3.7,24.48,1.05,7.11,4.41,27.46-9.67,21.59a12.61,12.61,0,0,1-5.24-4.15,13.29,13.29,0,0,1-.87,1.06,13.21,13.21,0,0,0,6.89,5.05,45,45,0,0,0,2.4,5.12c.69,1.24,1.8,2.49,3.35,2.43a2.64,2.64,0,0,0,2.35-2,33.87,33.87,0,0,0,.89-6.67A.51.51,0,0,0,48.07,123.18Zm-1.29,4.14c-.15,1.25-.12,4.82-2.58,3.6-1.16-.58-1.74-2.35-2.3-3.41-.42-.81-.85-1.61-1.3-2.4a10.53,10.53,0,0,0,1.88.15,8.21,8.21,0,0,0,4.73-1.38C47.07,125,46.92,126.17,46.78,127.32Z" style="fill:#06246a"/></g><path d="M26,70.83c-1.48-7.35-3.29-14.59-4.48-22C20.23,41,20,33.22,19.64,25.32a2.38,2.38,0,0,0-4.76,0c-.79,15.29,2.29,32.61,9.63,46.13C25,72.27,26.13,71.68,26,70.83Z" style="fill:#fff;mix-blend-mode:soft-light"/></g></g></g></svg>