<svg xmlns="http://www.w3.org/2000/svg" viewBox="0 0 92.57 133.75"><g style="isolation:isolate"><g id="Layer_2" data-name="Layer 2"><g id="OBJECTS"><path d="M59.92,35a4,4,0,0,1,1.73,3.31,3.23,3.23,0,0,1-3.74,3,3,3,0,0,1-2.19-4.08c.73-1.76,2.42-2.26,4.16-2.24Z" style="fill:#3ec986"/><path d="M46.05,51.8c3.92.18,7.09,3.8,5.26,7.73-1.4,3-5.62,4.26-8.58,3a5.91,5.91,0,0,1-3.06-8,6.36,6.36,0,0,1,5.9-3.2A.51.51,0,0,0,46.05,51.8Z" style="fill:#ffd400"/><path d="M56.2,69.16c7.32.32,1.84,12.54-3.6,8.53a5,5,0,0,1-1.22-6.6,5.17,5.17,0,0,1,4.39-2.15A.52.52,0,0,0,56.2,69.16Z" style="fill:#ffd400"/><path d="M58.47,116.27a11.65,11.65,0,0,0,6.73-6.52c.15-.38-.48-.62-.65-.26a12.38,12.38,0,0,1-6.24,6.23C58,115.86,58.13,116.41,58.47,116.27Zm7.23-6.53a25.3,25.3,0,0,1-3.15,4.53.19.19,0,0,0,.27.27,17.38,17.38,0,0,0,3.51-4.45A.36.36,0,0,0,65.7,109.74Zm3.64,2.91a33.29,33.29,0,0,1-29.66,9,34.66,34.66,0,0,1-23.8-18.13,38.37,38.37,0,0,1-3.23-28.14c3.17-9.88,19.13,3,23.12,6C40.28,84.82,45,88,50.72,88.94a24,24,0,0,0,13.36-1.67c5.77-2.47,10.29-6.59,17-6h0c1.11,5-1.6,12.5-3.16,17.16A35.57,35.57,0,0,1,69.34,112.65Z" style="fill:#ffd400"/><path d="M61.94,30.93a4.63,4.63,0,0,1,1.77,3.19c0,.35.59.33.54,0a4.86,4.86,0,0,0-2.11-3.46C62,30.55,61.78,30.81,61.94,30.93Zm-1.89.79a9,9,0,0,1,3.51,3.55c.17.31.65,0,.48-.29a8.84,8.84,0,0,0-3.85-3.49C60,31.41,59.89,31.63,60.05,31.72Zm2.51,7.37a4.24,4.24,0,0,0-3.11-5,.23.23,0,0,0-.28.18,4.37,4.37,0,0,0-4.61,3,4,4,0,0,0,3.1,5.07A4.26,4.26,0,0,0,62.56,39.09ZM38.81,67a6.3,6.3,0,0,1-2.74-2.37.2.2,0,0,0-.35.21,6.7,6.7,0,0,0,2.8,2.68C38.87,67.67,39.15,67.14,38.81,67Zm-.47-12.21A7.15,7.15,0,0,0,43.1,64c4,1,9-1.25,9.81-5.53a6.47,6.47,0,0,0-6.69-7.67A6.77,6.77,0,0,0,38.34,54.76Zm-2.25,6a7.92,7.92,0,0,0,3.84,4.86c.35.19.66-.37.3-.55a8,8,0,0,1-3.81-4.41A.17.17,0,0,0,36.09,60.77ZM88,73.48c8.36,18.59-3.68,42.45-20.21,52.32-17.68,10.56-40.37,7-54.49-7.84C-.31,103.63-2,80.78,8.53,64.22A32.4,32.4,0,0,1,23.85,51.49a144.63,144.63,0,0,0,13.59-6.35c8.27-4.64,9.25-14.57,9.49-23.36a24.72,24.72,0,0,0,7,1.91.45.45,0,0,0,.21-.88C48,21,39.34,17.83,39.65,9.92,40,.33,53.4,1.22,59.76,2.48s13.85,3.9,17.7,9.26c3.14,4.36,3.33,10.54-2,13.32-3.46,1.78-7.55,1.18-11.26.72-1-.12-1.43,1.44-.37,1.59a33.27,33.27,0,0,0,4.78.39c-1.76,7.63-2.9,15.25,1.81,22.08C76,58,83.82,64.21,88,73.48ZM79.54,98.86c1.76-5.3,4.56-12.81,3.08-18.4a.81.81,0,0,0-1.3-.42L81.18,80c-5.26-1.45-10.07,1.81-14.49,4.21-8.5,4.6-17.14,4.5-25.38-.66C37.54,81.14,17.19,64.15,13,73.07a.21.21,0,0,0-.2.11c-5.25,9.52-3,21.94,1.8,31.16a35.94,35.94,0,0,0,27,19.32,34.88,34.88,0,0,0,29.53-10.38A37.35,37.35,0,0,0,79.54,98.86Zm-5.7-81.38c1-.36.54-1.89-.45-1.56-9.87,3.39-19,.46-25.93-7.15a.47.47,0,0,0-.72.57A23,23,0,0,0,73.84,17.48ZM61,74.56c.85-3-1.21-6.61-4.54-6.48a5.87,5.87,0,0,0-6.81,3.34,6.31,6.31,0,0,0,3.44,8.12C56.45,80.74,60.12,77.69,61,74.56Z" style="fill:#afddf3"/><path d="M62.55,114.27a25.3,25.3,0,0,0,3.15-4.53.36.36,0,0,1,.63.35,17.38,17.38,0,0,1-3.51,4.45A.19.19,0,0,1,62.55,114.27Z" style="fill:#06246a"/><path d="M63.71,34.12a4.63,4.63,0,0,0-1.77-3.19c-.16-.12,0-.38.2-.28a4.86,4.86,0,0,1,2.11,3.46C64.3,34.45,63.74,34.47,63.71,34.12Z" style="fill:#06246a"/><path d="M58.31,115.72a12.38,12.38,0,0,0,6.24-6.23c.17-.36.8-.12.65.26a11.65,11.65,0,0,1-6.73,6.52C58.13,116.41,58,115.86,58.31,115.72Z" style="fill:#06246a"/><path d="M63.56,35.27a9,9,0,0,0-3.51-3.55c-.16-.09,0-.31.14-.23A8.84,8.84,0,0,1,64,35C64.21,35.29,63.73,35.58,63.56,35.27Z" style="fill:#06246a"/><path d="M55.72,37.2a3,3,0,0,0,2.19,4.08,3.23,3.23,0,0,0,3.74-3A4,4,0,0,0,59.92,35h0C58.14,34.94,56.45,35.44,55.72,37.2Zm6.84,1.89a4.26,4.26,0,0,1-4.9,3.24,4,4,0,0,1-3.1-5.07,4.37,4.37,0,0,1,4.61-3,.23.23,0,0,1,.28-.18A4.24,4.24,0,0,1,62.56,39.09Z" style="fill:#06246a"/><path d="M49.65,71.42a5.87,5.87,0,0,1,6.81-3.34c3.33-.13,5.39,3.44,4.54,6.48s-4.55,6.18-7.91,5A6.31,6.31,0,0,1,49.65,71.42Zm3,6.27c5.44,4,10.92-8.21,3.6-8.53a.52.52,0,0,1-.43-.22,5.17,5.17,0,0,0-4.39,2.15A5,5,0,0,0,52.6,77.69Z" style="fill:#06246a"/><path d="M43.1,64a7.15,7.15,0,0,1-4.76-9.25,6.77,6.77,0,0,1,7.88-3.95,6.47,6.47,0,0,1,6.69,7.67C52.06,62.76,47.14,65,43.1,64ZM39.67,54.6a5.91,5.91,0,0,0,3.06,8c3,1.22,7.18,0,8.58-3C53.14,55.6,50,52,46.05,51.8a.51.51,0,0,1-.48-.4A6.36,6.36,0,0,0,39.67,54.6Z" style="fill:#06246a"/><path d="M36.42,60.67a8,8,0,0,0,3.81,4.41c.36.18.05.74-.3.55a7.92,7.92,0,0,1-3.84-4.86A.17.17,0,0,1,36.42,60.67Z" style="fill:#06246a"/><path d="M36.07,64.6A6.3,6.3,0,0,0,38.81,67c.34.17.06.7-.29.52a6.7,6.7,0,0,1-2.8-2.68A.2.2,0,0,1,36.07,64.6Z" style="fill:#06246a"/><path d="M50.72,88.94C45,88,40.28,84.82,35.77,81.4c-4-3-20-15.86-23.12-6a38.37,38.37,0,0,0,3.23,28.14,34.66,34.66,0,0,0,23.8,18.13,33.29,33.29,0,0,0,29.66-9,35.57,35.57,0,0,0,8.57-14.18c1.56-4.66,4.27-12.12,3.16-17.16h0c-6.67-.63-11.19,3.49-17,6A24,24,0,0,1,50.72,88.94ZM13,73.07c4.22-8.92,24.57,8.07,28.34,10.44,8.24,5.16,16.88,5.26,25.38.66,4.42-2.4,9.23-5.66,14.49-4.21l.14.08a.81.81,0,0,1,1.3.42c1.48,5.59-1.32,13.1-3.08,18.4a37.35,37.35,0,0,1-8.48,14.42,34.88,34.88,0,0,1-29.53,10.38,35.94,35.94,0,0,1-27-19.32c-4.82-9.22-7-21.64-1.8-31.16A.21.21,0,0,1,13,73.07Z" style="fill:#06246a"/><path d="M38.22,7.87C40.5-1.27,53.06-.58,60.15.84,68.61,2.53,81.54,7.65,81.48,18.1c0,7-5.43,9.27-11.15,9.62a.58.58,0,0,1,0,.26c-1.68,7.24-3,14.44,1.56,21,3.46,5,8.1,9.15,11.76,14,6.1,8.11,10.32,17.69,8.5,28-3.29,18.54-14.54,34.58-32.83,40.66-17.82,5.92-38.07-.79-49.71-15.32-11-13.71-12.55-33.51-4.67-49.1,4.49-8.89,11-14.06,20-17.93,5.2-2.22,13.81-4.82,17-9.91,3.08-4.83,3.32-12.37,4.17-17.92C40.84,18.85,36.62,14.3,38.22,7.87ZM59.76,2.48C53.4,1.22,40,.33,39.65,9.92,39.34,17.83,48,21,54.11,22.81a.45.45,0,0,1-.21.88,24.72,24.72,0,0,1-7-1.91c-.24,8.79-1.22,18.72-9.49,23.36a144.63,144.63,0,0,1-13.59,6.35A32.4,32.4,0,0,0,8.53,64.22C-2,80.78-.31,103.63,13.29,118c14.12,14.87,36.81,18.4,54.49,7.84C84.31,115.93,96.35,92.07,88,73.48,83.82,64.21,76,58,70.38,49.84,65.67,43,66.81,35.39,68.57,27.76a33.27,33.27,0,0,1-4.78-.39c-1.06-.15-.65-1.71.37-1.59,3.71.46,7.8,1.06,11.26-.72,5.37-2.78,5.18-9,2-13.32C73.61,6.38,66,3.72,59.76,2.48Z" style="fill:#06246a"/><g style="mix-blend-mode:multiply"><path d="M57.91,41.28a3.23,3.23,0,0,0,3.74-3A4,4,0,0,0,59.92,35h0a4.86,4.86,0,0,0-3.24,1c-.31,1.28-.55,2.58-.75,3.89A3.05,3.05,0,0,0,57.91,41.28Z" style="fill:#ffd400"/><path d="M81.07,81.31h0c-6.67-.63-11.19,3.49-17,6l-.86.33a42.34,42.34,0,0,1-.77,5.65c-2,9.56-7.7,17.84-17,21.46a37.46,37.46,0,0,1-17.71,2.07,32.92,32.92,0,0,0,41.56-4.13,35.57,35.57,0,0,0,8.57-14.18C79.47,93.81,82.18,86.35,81.07,81.31ZM58.31,115.72a12.38,12.38,0,0,0,6.24-6.23c.17-.36.8-.12.65.26a11.65,11.65,0,0,1-6.73,6.52C58.13,116.41,58,115.86,58.31,115.72Zm8-5.63a17.38,17.38,0,0,1-3.51,4.45.19.19,0,0,1-.27-.27,25.3,25.3,0,0,0,3.15-4.53A.36.36,0,0,1,66.33,110.09Z" style="fill:#ffd400"/><path d="M88,73.48C83.82,64.21,76,58,70.38,49.84,65.67,43,66.81,35.39,68.57,27.76a33.27,33.27,0,0,1-4.78-.39c-1.06-.15-.65-1.71.37-1.59,3.71.46,7.8,1.06,11.26-.72,5.37-2.78,5.18-9,2-13.32A18,18,0,0,0,72,6.87c-2.47,3.35-4.9,6.83-7.11,10.43a24.7,24.7,0,0,0,8.55-1.38c1-.33,1.42,1.2.45,1.56a24.12,24.12,0,0,1-10,1.45A64.94,64.94,0,0,0,57,34.59a4.27,4.27,0,0,1,2.18-.33.23.23,0,0,1,.28-.18,4.22,4.22,0,0,1-1.79,8.25,4,4,0,0,1-2-1A39,39,0,0,0,55.57,49c.64,7.75,4,15,6,22.49A49.36,49.36,0,0,1,63.3,85.74a30.18,30.18,0,0,0,3.39-1.57c4.42-2.4,9.23-5.66,14.49-4.21l.14.08a.81.81,0,0,1,1.3.42c1.48,5.59-1.32,13.1-3.08,18.4a37.35,37.35,0,0,1-8.48,14.42,34.52,34.52,0,0,1-46.64,3A67.39,67.39,0,0,1,8.05,111.1,41,41,0,0,0,13.29,118c14.12,14.87,36.81,18.4,54.49,7.84C84.31,115.93,96.35,92.07,88,73.48ZM63.56,35.27a9,9,0,0,0-3.51-3.55c-.16-.09,0-.31.14-.23A8.84,8.84,0,0,1,64,35C64.21,35.29,63.73,35.58,63.56,35.27Zm.15-1.15a4.63,4.63,0,0,0-1.77-3.19c-.16-.12,0-.38.2-.28a4.86,4.86,0,0,1,2.11,3.46C64.3,34.45,63.74,34.47,63.71,34.12Z" style="fill:#afddf3"/><path d="M62.55,114.27a25.3,25.3,0,0,0,3.15-4.53.36.36,0,0,1,.63.35,17.38,17.38,0,0,1-3.51,4.45A.19.19,0,0,1,62.55,114.27Z" style="fill:#06246a"/><path d="M63.71,34.12a4.63,4.63,0,0,0-1.77-3.19c-.16-.12,0-.38.2-.28a4.86,4.86,0,0,1,2.11,3.46C64.3,34.45,63.74,34.47,63.71,34.12Z" style="fill:#06246a"/><path d="M58.31,115.72a12.38,12.38,0,0,0,6.24-6.23c.17-.36.8-.12.65.26a11.65,11.65,0,0,1-6.73,6.52C58.13,116.41,58,115.86,58.31,115.72Z" style="fill:#06246a"/><path d="M63.56,35.27a9,9,0,0,0-3.51-3.55c-.16-.09,0-.31.14-.23A8.84,8.84,0,0,1,64,35C64.21,35.29,63.73,35.58,63.56,35.27Z" style="fill:#06246a"/><path d="M59.88,35h0a4,4,0,0,1,1.73,3.31,3.23,3.23,0,0,1-3.74,3,3.05,3.05,0,0,1-2-1.46c-.07.49-.14,1-.19,1.48a4,4,0,0,0,2,1,4.22,4.22,0,0,0,1.79-8.25.23.23,0,0,0-.28.18,4.27,4.27,0,0,0-2.18.33c-.12.45-.24.89-.35,1.34A4.86,4.86,0,0,1,59.88,35Z" style="fill:#06246a"/><path d="M82.62,80.46a.81.81,0,0,0-1.3-.42L81.18,80c-5.26-1.45-10.07,1.81-14.49,4.21a30.18,30.18,0,0,1-3.39,1.57c0,.62,0,1.24-.08,1.86l.86-.33c5.77-2.47,10.29-6.59,17-6h0c1.11,5-1.6,12.5-3.16,17.16a35.57,35.57,0,0,1-8.57,14.18,32.92,32.92,0,0,1-41.56,4.13c-1.12-.12-2.24-.27-3.36-.47a34.52,34.52,0,0,0,46.64-3,37.35,37.35,0,0,0,8.48-14.42C81.3,93.56,84.1,86.05,82.62,80.46Z" style="fill:#06246a"/><path d="M83.64,63c-3.66-4.86-8.3-9-11.76-14-4.52-6.52-3.24-13.72-1.56-21a.58.58,0,0,0,0-.26c5.72-.35,11.11-2.63,11.15-9.62,0-5.65-3.73-9.74-8.54-12.57L72,6.87a18,18,0,0,1,5.51,4.87c3.14,4.36,3.33,10.54-2,13.32-3.46,1.78-7.55,1.18-11.26.72-1-.12-1.43,1.44-.37,1.59a33.27,33.27,0,0,0,4.78.39c-1.76,7.63-2.9,15.25,1.81,22.08C76,58,83.82,64.21,88,73.48c8.36,18.59-3.68,42.45-20.21,52.32-17.68,10.56-40.37,7-54.49-7.84a41,41,0,0,1-5.24-6.86c-.9-.41-1.8-.84-2.68-1.28a41.72,41.72,0,0,0,4.23,6.46c11.64,14.53,31.89,21.24,49.71,15.32,18.29-6.08,29.54-22.12,32.83-40.66C94,80.64,89.74,71.06,83.64,63Z" style="fill:#06246a"/></g><path d="M30,53.15C21.5,57.94,12.94,65.37,8.12,74s-3.7,19.25-.47,28.14a.81.81,0,0,0,1.59-.21c0-9.08-1.91-18.14,3.21-26.32,4.79-7.65,12.6-13.41,20.23-17.88C35.62,56,33,51.48,30,53.15Z" style="fill:#fff;mix-blend-mode:soft-light"/></g></g></g></svg>