<svg xmlns="http://www.w3.org/2000/svg" viewBox="0 0 52.32 51.71"><g style="isolation:isolate"><g id="Layer_2" data-name="Layer 2"><g id="OBJECTS"><path d="M28.84,40.32a38,38,0,0,1-3.95-4.47c-.2-.27-.62,0-.45.25a17.55,17.55,0,0,0,3.92,4.7C28.69,41.07,29.15,40.63,28.84,40.32Zm-2.67,1c.38.37,1-.21.59-.6a38.42,38.42,0,0,1-2.64-2.92c-.25-.32-.49-.67-.73-1l.3.14s.06,0,0-.07a3,3,0,0,1-.41-.19c-.09-.14-.19-.25-.27-.38s.08,0,0-.07L22.79,36c-.28-.42-.33-.4-.24-.23l-.35-.36a.1.1,0,0,0-.18.07s0,0,0,.07a.08.08,0,0,0-.05.13.39.39,0,0,0,.08.1,8.09,8.09,0,0,0,1.61,2.65A24.72,24.72,0,0,0,26.17,41.36ZM20.28,12.9C24,9.55,27.51,6.05,31.05,2.54,31.7,7.77,32.18,13,32.46,18.29a.78.78,0,0,0,.64.75.69.69,0,0,0,.33.32L49.5,26.93a113.67,113.67,0,0,1-16.44,5.29.48.48,0,0,0-.41.45.65.65,0,0,0-.49.49C31,38.32,30.39,43.63,29.62,48.87c-3.36-4.19-6.67-8.46-10.4-12.33l-.11-.08a.79.79,0,0,0-.88-.43A139,139,0,0,1,2.28,38.35c2.56-4.11,5.29-8.11,8-12.15a.47.47,0,0,0-.07-.56.33.33,0,0,0,0-.1A96.72,96.72,0,0,0,4.66,12,109.62,109.62,0,0,1,18.9,13.1a.93.93,0,0,0,.63-.16A.57.57,0,0,0,20.28,12.9Zm8.53-3.25c.3-.25-.14-.71-.44-.44L26.45,10.9c-.23.2.1.52.34.33ZM27.8,8c.22-.21-.09-.63-.35-.44a55.17,55.17,0,0,0-4.24,3.71c-.16.15.06.43.23.3A51,51,0,0,0,27.8,8Z" style="fill:#fdd330"/><path d="M26.79,11.23c-.24.19-.57-.13-.34-.33l1.92-1.69c.3-.27.74.19.44.44Z" style="fill:#06246a"/><path d="M24.89,35.85a38,38,0,0,0,3.95,4.47c.31.31-.15.75-.48.48a17.55,17.55,0,0,1-3.92-4.7C24.27,35.81,24.69,35.58,24.89,35.85Z" style="fill:#06246a"/><path d="M27.45,7.54c.26-.19.57.23.35.44a51,51,0,0,1-4.36,3.57c-.17.13-.39-.15-.23-.3A55.17,55.17,0,0,1,27.45,7.54Z" style="fill:#06246a"/><path d="M24.12,37.84a38.42,38.42,0,0,0,2.64,2.92c.37.39-.21,1-.59.6a24.72,24.72,0,0,1-2.5-2.92,8.09,8.09,0,0,1-1.61-2.65.39.39,0,0,1-.08-.1.08.08,0,0,1,.05-.13s0-.05,0-.07a.1.1,0,0,1,.18-.07l.35.36c-.09-.17,0-.19.24.23l.28.25s0,.08,0,.07.18.24.27.38a3,3,0,0,0,.41.19s0,.09,0,.07l-.3-.14C23.63,37.17,23.87,37.52,24.12,37.84Z" style="fill:#06246a"/><path d="M31.05,2.54C27.51,6.05,24,9.55,20.28,12.9a.57.57,0,0,1-.75,0,.93.93,0,0,1-.63.16A109.62,109.62,0,0,0,4.66,12a96.72,96.72,0,0,1,5.5,13.58.33.33,0,0,1,0,.1.47.47,0,0,1,.07.56c-2.66,4-5.39,8-8,12.15a139,139,0,0,0,16-2.32.79.79,0,0,1,.88.43l.11.08c3.73,3.87,7,8.14,10.4,12.33.77-5.24,1.42-10.55,2.54-15.71a.65.65,0,0,1,.49-.49.48.48,0,0,1,.41-.45A113.67,113.67,0,0,0,49.5,26.93L33.43,19.36A.69.69,0,0,1,33.1,19a.78.78,0,0,1-.64-.75C32.18,13,31.7,7.77,31.05,2.54ZM51.91,27.66a72.75,72.75,0,0,1-18.27,5.65s0,0,0,0C33.09,39.28,31.9,45.21,31,51.1a.84.84,0,0,1-1.4.37c-3.66-4.58-7.48-9.09-10.77-13.95a.52.52,0,0,1-.15.06A127.85,127.85,0,0,1,.79,40a.8.8,0,0,1-.68-1.2A100.3,100.3,0,0,1,9.2,25.9c-2.27-4.76-4.26-9.63-6.56-14.38a.82.82,0,0,1,.71-1.23,111,111,0,0,1,16,1.22.68.68,0,0,1,.42.22C23.42,7.79,27.26,4,31.07.23c.4-.4,1.29-.28,1.38.35.77,5.74,1.31,11.48,1.63,17.27a1.17,1.17,0,0,1,.2,0l17.63,8.34A.82.82,0,0,1,51.91,27.66Z" style="fill:#06246a"/><g style="mix-blend-mode:multiply"><path d="M33.43,19.36A.69.69,0,0,1,33.1,19a.78.78,0,0,1-.64-.75c-.08-1.46-.17-2.91-.28-4.36A74.52,74.52,0,0,1,10.39,37.4C13,37,15.61,36.52,18.23,36a.79.79,0,0,1,.88.43l.11.08c3.73,3.87,7,8.14,10.4,12.33.77-5.24,1.42-10.55,2.54-15.71a.65.65,0,0,1,.49-.49.48.48,0,0,1,.41-.45A113.67,113.67,0,0,0,49.5,26.93Zm-7.26,22a24.72,24.72,0,0,1-2.5-2.92,8.09,8.09,0,0,1-1.61-2.65.39.39,0,0,1-.08-.1.08.08,0,0,1,.05-.13s0-.05,0-.07a.1.1,0,0,1,.18-.07l.35.36c-.09-.17,0-.19.24.23l.28.25s0,.08,0,.07.18.24.27.38a3,3,0,0,0,.41.19s0,.09,0,.07l-.3-.14c.24.34.48.69.73,1a38.42,38.42,0,0,0,2.64,2.92C27.13,41.15,26.55,41.73,26.17,41.36Zm2.19-.56a17.55,17.55,0,0,1-3.92-4.7c-.17-.29.25-.52.45-.25a38,38,0,0,0,3.95,4.47C29.15,40.63,28.69,41.07,28.36,40.8Z" style="fill:#fdd330"/><path d="M24.89,35.85a38,38,0,0,0,3.95,4.47c.31.31-.15.75-.48.48a17.55,17.55,0,0,1-3.92-4.7C24.27,35.81,24.69,35.58,24.89,35.85Z" style="fill:#06246a"/><path d="M24.12,37.84a38.42,38.42,0,0,0,2.64,2.92c.37.39-.21,1-.59.6a24.72,24.72,0,0,1-2.5-2.92,8.09,8.09,0,0,1-1.61-2.65.39.39,0,0,1-.08-.1.08.08,0,0,1,.05-.13s0-.05,0-.07a.1.1,0,0,1,.18-.07l.35.36c-.09-.17,0-.19.24.23l.28.25s0,.08,0,.07.18.24.27.38a3,3,0,0,0,.41.19s0,.09,0,.07l-.3-.14C23.63,37.17,23.87,37.52,24.12,37.84Z" style="fill:#06246a"/><path d="M51.91,26.24,34.28,17.9a1.17,1.17,0,0,0-.2,0q-.18-3.29-.47-6.56c-.45.89-.93,1.77-1.43,2.64.11,1.45.2,2.9.28,4.36a.78.78,0,0,0,.64.75.69.69,0,0,0,.33.32L49.5,26.93a113.67,113.67,0,0,1-16.44,5.29.48.48,0,0,0-.41.45.65.65,0,0,0-.49.49C31,38.32,30.39,43.63,29.62,48.87c-3.36-4.19-6.67-8.46-10.4-12.33l-.11-.08a.79.79,0,0,0-.88-.43c-2.62.49-5.22,1-7.84,1.37-1,.71-2,1.4-3.07,2.06,3.8-.48,7.56-1.17,11.33-1.88a.52.52,0,0,0,.15-.06c3.29,4.86,7.11,9.37,10.77,13.95A.84.84,0,0,0,31,51.1c.93-5.89,2.12-11.82,2.68-17.74,0,0,0,0,0,0a72.75,72.75,0,0,0,18.27-5.65A.82.82,0,0,0,51.91,26.24Z" style="fill:#06246a"/></g><path d="M17,24a12,12,0,0,1-3.08-3.61c-.84-1.5-.73-3-1.19-4.57a1.67,1.67,0,0,0-3.19,0C8.37,20,12.28,24.46,16,25.6,16.88,25.87,17.73,24.59,17,24Z" style="fill:#fff;mix-blend-mode:soft-light"/></g></g></g></svg>