<svg xmlns="http://www.w3.org/2000/svg" viewBox="0 0 120.21 120.11"><g style="isolation:isolate"><g id="Layer_2" data-name="Layer 2"><g id="OBJECTS"><path d="M67.37,117.38c-4.74,1.41-11.38,1.19-11.81-5.26a9.08,9.08,0,0,1,.44-3.35C57.61,113.64,62.62,115.9,67.37,117.38Z" style="fill:#a7e7fe"/><path d="M67.15,112c2.87-2.59,5.74-5.16,8.62-7.74l8.38-7.53a.24.24,0,0,1,.33.35c-4,3.73-8,7.39-12.16,10.93-1.66,1.4-3.33,2.8-5,4.16C67.19,112.29,67,112.12,67.15,112Z" style="fill:#06246a"/><path d="M98.67,72.54c-.16.13.06.37.22.24,2.1-1.66,4.3-3.24,6.29-5,.23-.2-.08-.53-.33-.35C102.71,69,100.71,70.83,98.67,72.54Zm-3.84,3c-11.18,10.36-22.18,21-33,31.71-.06.06,0,.16.1.1C73.13,97,84.26,86.53,95.16,75.86,95.38,75.65,95.06,75.29,94.83,75.51Zm-38.3,31.9c2-4.45,6.76-8.38,9.75-11.54Q72.52,89.29,79,83c8.67-8.41,18-16,26.8-24.33-.57,3.45-.6,7.23,1.43,10.22a5.56,5.56,0,0,0,.56.72l-.52.47a.36.36,0,0,0-.26.11c-15,13.92-30.46,27.46-44.8,42.05,0,0,0,0,0,0l-2.72.24A9.68,9.68,0,0,1,56.53,107.41Zm7.1-5.62c13-12,25.66-24.26,38.73-36.13.28-.25-.12-.67-.38-.42C88.92,77.11,75.85,89.05,63.52,101.68,63.44,101.75,63.55,101.86,63.63,101.79Z" style="fill:#fff"/><path d="M110,73.12c-6.69,6.39-13.39,12.74-20,19.22-.12.13.06.33.19.21,6.81-6.24,13.5-12.62,20.22-19C110.73,73.31,110.29,72.83,110,73.12Zm-2.43-2.4a.39.39,0,0,0-.27-.68l.52-.47c2.49,2.89,6.83,3.71,10.46,4.67q-2.91,2.91-5.88,5.78l-1.29-1.32a.4.4,0,0,0-.59-.52C98.31,88.77,86,99.12,73.45,109.35L72.32,108c4.15-3.54,8.2-7.2,12.16-10.93a.24.24,0,0,0-.33-.35l-8.38,7.53-1.89-2.1C85.28,91.88,96.33,81.15,107.57,70.72Z" style="fill:#fff"/><path d="M112.4,80q-10.2,9.9-20.88,19.32c-4.6,4.06-9.24,8.12-14,12a37.26,37.26,0,0,1-8.3,5.41l-.88.35c-3.15-1.06-6.48-2.37-8.83-4.58l2.72-.24a.07.07,0,0,0,.12,0q5.85-5,11.55-10.12l1.89,2.1c-2.88,2.58-5.75,5.15-8.62,7.74-.12.1,0,.27.16.17,1.68-1.36,3.35-2.76,5-4.16l1.13,1.32a.16.16,0,0,0,.22.24C86.51,99.84,99,89.49,111.05,78.76l.06-.06Z" style="fill:#fff"/><path d="M92.07,56.22c.42,2.57-7.72,8.29-9.59,10Q77,71.19,71.37,76q-2.82,2.39-5.67,4.73c-2.91,2.38-3.81,3-6.47.28-1.13-1.16-2.29-2.29-3.46-3.39a.6.6,0,0,0-.09-.15c-.74-.75-5.87-5.31-5.78-7a6.84,6.84,0,0,0,1.3-.64c1-.72,1.95-1.61,2.91-2.42l5.81-4.83L72.27,52.26l5.81-4.84c2.42-2,3-2.34,5.14.08,1.43,1.64,2.93,3.23,4.49,4.75C88.46,53,91.93,55.3,92.07,56.22Z" style="fill:#fff"/><path d="M6,45.91c-.11-.11-.27.05-.19.17,14.2,19.5,31,37.56,48.16,54.5.4.39,1.06-.21.66-.61C37.21,82.86,21.62,64.53,6,45.91ZM62.28,85.17a384.67,384.67,0,0,0,32-28A.77.77,0,0,0,94.17,56,85.37,85.37,0,0,1,81.75,43.32a.79.79,0,0,0-1.08,0L61.78,59l-8.7,7.25c-1.45,1.21-4.59,2.86-5.07,4.87a.74.74,0,0,0,.3.84l.4.27,0,0a.56.56,0,0,0,.05.08c4.28,4.16,8.57,8.33,12.53,12.8A.69.69,0,0,0,62.28,85.17ZM105.93,57.3c-12.75,9-24.18,20.4-35.09,31.49C66.08,93.64,60.77,98.51,56.76,104c-2.09,2.88-3.7,6.82-2.59,10.28C41,100.72,27.78,87.25,15.4,72.92,9.12,65.63-2.09,56.42,3.34,45.86,7.42,37.91,15.48,31.13,22,25.1A210.9,210.9,0,0,1,45,6.5c1.64-1.14,3.78-3.2,5.69-3.79l6.1-.22A32,32,0,0,1,60,5.39c3.34,3.21,6.45,6.69,9.5,10.17C81.66,29.48,92.37,44.68,106,57.29ZM94.81,60a.29.29,0,0,0-.39-.43c-2.14,1.92-4.19,4-6.29,5.93-.23.2.08.53.3.34A52.74,52.74,0,0,0,94.81,60Zm1.56,1a.35.35,0,1,0-.54-.45,24.33,24.33,0,0,1-4.24,4.12c-.18.15,0,.49.26.35A22.46,22.46,0,0,0,96.37,61Zm-87-18.3a34.06,34.06,0,0,1,6.24-5.31c.28-.19,0-.64-.33-.48A23,23,0,0,0,9,42.44C8.85,42.63,9.18,42.93,9.36,42.73Zm7.1-4.4c-1.22,1-2.44,1.92-3.65,2.92-.23.19.08.51.32.33,1.26-.91,2.51-1.86,3.75-2.8C17.2,38.54,16.78,38.07,16.46,38.33Z" style="fill:#ffd400"/><path d="M98.67,72.54c2-1.71,4-3.55,6.18-5.14.25-.18.56.15.33.35-2,1.79-4.19,3.37-6.29,5C98.73,72.91,98.51,72.67,98.67,72.54Z" style="fill:#06246a"/><path d="M96.37,61a22.46,22.46,0,0,1-4.52,4c-.21.14-.44-.2-.26-.35a24.33,24.33,0,0,0,4.24-4.12A.35.35,0,1,1,96.37,61Z" style="fill:#06246a"/><path d="M90,92.34c6.59-6.48,13.29-12.83,20-19.22.29-.29.73.19.43.47-6.72,6.34-13.41,12.72-20.22,19C90.08,92.67,89.9,92.47,90,92.34Z" style="fill:#06246a"/><path d="M94.81,60a52.74,52.74,0,0,1-6.38,5.84c-.22.19-.53-.14-.3-.34,2.1-2,4.15-4,6.29-5.93A.29.29,0,0,1,94.81,60Z" style="fill:#06246a"/><path d="M111.05,78.76C99,89.49,86.51,99.84,73.67,109.59a.16.16,0,0,1-.22-.24C86,99.12,98.31,88.77,110.52,78.18a.4.4,0,0,1,.59.52Z" style="fill:#06246a"/><path d="M62.24,112.2c14.34-14.59,29.83-28.13,44.8-42a.36.36,0,0,1,.26-.11.39.39,0,0,1,.27.68C96.33,81.15,85.28,91.88,73.88,102.18q-5.7,5.14-11.55,10.12a.07.07,0,0,1-.12,0S62.22,112.22,62.24,112.2Z" style="fill:#06246a"/><path d="M63.52,101.68C75.85,89.05,88.92,77.11,102,65.24c.26-.25.66.17.38.42C89.29,77.53,76.59,89.81,63.63,101.79,63.55,101.86,63.44,101.75,63.52,101.68Z" style="fill:#06246a"/><path d="M61.8,107.22c10.85-10.73,21.85-21.35,33-31.71.23-.22.55.14.33.35C84.26,86.53,73.13,97,61.9,107.32,61.83,107.38,61.74,107.28,61.8,107.22Z" style="fill:#06246a"/><path d="M53.08,66.25,61.78,59,80.67,43.27a.79.79,0,0,1,1.08,0A85.37,85.37,0,0,0,94.17,56a.77.77,0,0,1,.09,1.21,384.67,384.67,0,0,1-32,28,.69.69,0,0,1-.94,0c-4-4.47-8.25-8.64-12.53-12.8a.56.56,0,0,1-.05-.08l0,0-.4-.27a.74.74,0,0,1-.3-.84C48.49,69.11,51.63,67.46,53.08,66.25ZM59.23,81c2.66,2.73,3.56,2.1,6.47-.28q2.85-2.34,5.67-4.73Q77,71.19,82.48,66.21c1.87-1.7,10-7.42,9.59-10-.14-.92-3.61-3.23-4.36-4-1.56-1.52-3.06-3.11-4.49-4.75-2.1-2.42-2.72-2.1-5.14-.08l-5.81,4.84L59.92,62.55l-5.81,4.83c-1,.81-1.9,1.7-2.91,2.42a6.84,6.84,0,0,1-1.3.64c-.09,1.69,5,6.25,5.78,7a.6.6,0,0,1,.09.15C56.94,78.69,58.1,79.82,59.23,81Z" style="fill:#06246a"/><path d="M12.81,41.25c1.21-1,2.43-2,3.65-2.92.32-.26.74.21.42.45-1.24.94-2.49,1.89-3.75,2.8C12.89,41.76,12.58,41.44,12.81,41.25Z" style="fill:#06246a"/><path d="M9.36,42.73c-.18.2-.51-.1-.35-.29a23,23,0,0,1,6.26-5.5c.28-.16.61.29.33.48A34.06,34.06,0,0,0,9.36,42.73Z" style="fill:#06246a"/><path d="M6,45.91c15.67,18.62,31.26,37,48.63,54.06.4.4-.26,1-.66.61-17.14-16.94-34-35-48.16-54.5C5.68,46,5.84,45.8,6,45.91Z" style="fill:#06246a"/><path d="M56.53,107.41a9.68,9.68,0,0,0,3,5.08c2.35,2.21,5.68,3.52,8.83,4.58l.88-.35a37.26,37.26,0,0,0,8.3-5.41c4.78-3.85,9.42-7.91,14-12Q102.22,89.95,112.4,80q3-2.86,5.88-5.78c-3.63-1-8-1.78-10.46-4.67a5.56,5.56,0,0,1-.56-.72c-2-3-2-6.77-1.43-10.22C97.05,66.91,87.7,74.55,79,83q-6.51,6.32-12.75,12.91C63.29,99,58.57,103,56.53,107.41Zm-1,4.71c.43,6.45,7.07,6.67,11.81,5.26-4.75-1.48-9.76-3.74-11.37-8.61A9.08,9.08,0,0,0,55.56,112.12ZM22,25.1c-6.47,6-14.53,12.81-18.61,20.76C-2.09,56.42,9.12,65.63,15.4,72.92,27.78,87.25,41,100.72,54.17,114.29c-1.11-3.46.5-7.4,2.59-10.28,4-5.5,9.32-10.37,14.08-15.22C81.75,77.7,93.18,66.27,105.93,57.3h0C92.37,44.68,81.66,29.48,69.51,15.56c-3.05-3.48-6.16-7-9.5-10.17a32,32,0,0,0-3.26-2.9l-6.1.22c-1.91.59-4,2.65-5.69,3.79A210.9,210.9,0,0,0,22,25.1ZM6.3,38.87a198.6,198.6,0,0,1,37-33.22c4.12-2.91,9.2-7.82,14.38-4.59,3.22,2,5.87,5.44,8.43,8.19,2.77,3,5.43,6.05,8,9.16C85,31.32,95,44.9,107.2,56.56a.66.66,0,0,1-.51,1.13.5.5,0,0,1,0,.13s0,0,0,.08c-.07,4.12-.49,8.67,3,11.65,2.62,2.27,6.91,2.87,10.17,3.82a.59.59,0,0,1,.2,1,.75.75,0,0,1-.23.65q-17.51,17.39-36.34,33.34c-5.79,4.88-19.91,17.39-27.57,8.76l-.07-.05c-15.3-13.73-29.31-29-42.72-44.58C8.53,67.28,1.2,61,.13,53.8-.72,48.09,2.81,43,6.3,38.87Z" style="fill:#06246a"/><g style="mix-blend-mode:multiply"><path d="M56.29,109.53l-.52.08a8.48,8.48,0,0,0-.21,2.51c.43,6.45,7.07,6.67,11.81,5.26C62.87,116,58.15,113.88,56.29,109.53Z" style="fill:#a7e7fe"/><path d="M67.15,112c2.87-2.59,5.74-5.16,8.62-7.74l8.38-7.53a.24.24,0,0,1,.33.35c-4,3.73-8,7.39-12.16,10.93-1.66,1.4-3.33,2.8-5,4.16C67.19,112.29,67,112.12,67.15,112Z" style="fill:#06246a"/><path d="M107.26,68.85c-2-3-2-6.77-1.43-10.22C98,66,89.66,72.94,81.78,80.34a21.73,21.73,0,0,1,.2,3.3c6.6-6.21,13.3-12.31,20-18.4.26-.25.66.17.38.42-6.88,6.25-13.66,12.61-20.42,19a16.24,16.24,0,0,1-.64,3.63Q88,81.84,94.83,75.51c.23-.22.55.14.33.35-4.75,4.65-9.56,9.26-14.38,13.84a12.89,12.89,0,0,1-1.13,2.14c-.17.25-.35.47-.53.7a19.85,19.85,0,0,1-2.44,3.88,21.31,21.31,0,0,1-3.39,3.33c-3.62,5.08-9.54,8.25-16.1,9.6a9.89,9.89,0,0,0,2.3,3.14l2.72-.24s0,0,0,0c14.34-14.59,29.83-28.13,44.8-42a.36.36,0,0,1,.26-.11l.52-.47A5.56,5.56,0,0,1,107.26,68.85Zm-2.08-1.1c-2,1.79-4.19,3.37-6.29,5-.16.13-.38-.11-.22-.24,2-1.71,4-3.55,6.18-5.14C105.1,67.22,105.41,67.55,105.18,67.75Z" style="fill:#fff"/><path d="M110,73.12c-6.69,6.39-13.39,12.74-20,19.22-.12.13.06.33.19.21,6.81-6.24,13.5-12.62,20.22-19C110.73,73.31,110.29,72.83,110,73.12Zm-2.43-2.4a.39.39,0,0,0-.27-.68l.52-.47c2.49,2.89,6.83,3.71,10.46,4.67q-2.91,2.91-5.88,5.78l-1.29-1.32a.4.4,0,0,0-.59-.52C98.31,88.77,86,99.12,73.45,109.35L72.32,108c4.15-3.54,8.2-7.2,12.16-10.93a.24.24,0,0,0-.33-.35l-8.38,7.53-1.89-2.1C85.28,91.88,96.33,81.15,107.57,70.72Z" style="fill:#fff"/><path d="M112.4,80q-10.2,9.9-20.88,19.32c-4.6,4.06-9.24,8.12-14,12a37.26,37.26,0,0,1-8.3,5.41l-.88.35c-3.15-1.06-6.48-2.37-8.83-4.58l2.72-.24a.07.07,0,0,0,.12,0q5.85-5,11.55-10.12l1.89,2.1c-2.88,2.58-5.75,5.15-8.62,7.74-.12.1,0,.27.16.17,1.68-1.36,3.35-2.76,5-4.16l1.13,1.32a.16.16,0,0,0,.22.24C86.51,99.84,99,89.49,111.05,78.76l.06-.06Z" style="fill:#fff"/><path d="M87.71,52.25c-1.56-1.52-3.06-3.11-4.49-4.75-2.1-2.42-2.72-2.1-5.14-.08l-4.64,3.86a83.15,83.15,0,0,1,6,15.32c.17.62.33,1.25.49,1.89.84-.76,1.7-1.51,2.54-2.28,1.87-1.7,10-7.42,9.59-10C91.93,55.3,88.46,53,87.71,52.25Z" style="fill:#fff"/><path d="M69.51,15.56c-3.05-3.48-6.16-7-9.5-10.17a32,32,0,0,0-3.26-2.9l-6.1.22c-1.91.59-4,2.65-5.69,3.79C43.89,7.24,42.85,8,41.8,8.79A284.91,284.91,0,0,1,60.59,31,140.5,140.5,0,0,1,72.73,49.88l7.94-6.61a.79.79,0,0,1,1.08,0A85.37,85.37,0,0,0,94.17,56a.77.77,0,0,1,.09,1.21q-6.81,6.66-13.94,13a53.12,53.12,0,0,1,1.16,8A204.19,204.19,0,0,1,105.93,57.3h0C92.37,44.68,81.66,29.48,69.51,15.56Zm18.62,50c2.1-2,4.15-4,6.29-5.93a.29.29,0,0,1,.39.43,52.74,52.74,0,0,1-6.38,5.84C88.21,66,87.9,65.71,88.13,65.51ZM96.37,61a22.46,22.46,0,0,1-4.52,4c-.21.14-.44-.2-.26-.35a24.33,24.33,0,0,0,4.24-4.12A.35.35,0,1,1,96.37,61Z" style="fill:#ffd400"/><path d="M54,109.86c-1.31.14-2.63.22-3.95.24l4.08,4.19A8.53,8.53,0,0,1,54,109.86Z" style="fill:#3ec986"/><path d="M98.67,72.54c2-1.71,4-3.55,6.18-5.14.25-.18.56.15.33.35-2,1.79-4.19,3.37-6.29,5C98.73,72.91,98.51,72.67,98.67,72.54Z" style="fill:#06246a"/><path d="M96.37,61a22.46,22.46,0,0,1-4.52,4c-.21.14-.44-.2-.26-.35a24.33,24.33,0,0,0,4.24-4.12A.35.35,0,1,1,96.37,61Z" style="fill:#06246a"/><path d="M90,92.34c6.59-6.48,13.29-12.83,20-19.22.29-.29.73.19.43.47-6.72,6.34-13.41,12.72-20.22,19C90.08,92.67,89.9,92.47,90,92.34Z" style="fill:#06246a"/><path d="M94.81,60a52.74,52.74,0,0,1-6.38,5.84c-.22.19-.53-.14-.3-.34,2.1-2,4.15-4,6.29-5.93A.29.29,0,0,1,94.81,60Z" style="fill:#06246a"/><path d="M111.05,78.76C99,89.49,86.51,99.84,73.67,109.59a.16.16,0,0,1-.22-.24C86,99.12,98.31,88.77,110.52,78.18a.4.4,0,0,1,.59.52Z" style="fill:#06246a"/><path d="M62.24,112.2c14.34-14.59,29.83-28.13,44.8-42a.36.36,0,0,1,.26-.11.39.39,0,0,1,.27.68C96.33,81.15,85.28,91.88,73.88,102.18q-5.7,5.14-11.55,10.12a.07.07,0,0,1-.12,0S62.22,112.22,62.24,112.2Z" style="fill:#06246a"/><path d="M102,65.24c-6.7,6.09-13.4,12.19-20,18.4,0,.34,0,.67,0,1,6.76-6.37,13.54-12.73,20.42-19C102.64,65.41,102.24,65,102,65.24Z" style="fill:#06246a"/><path d="M94.83,75.51Q88,81.82,81.3,88.27c-.15.48-.32,1-.52,1.43,4.82-4.58,9.63-9.19,14.38-13.84C95.38,75.65,95.06,75.29,94.83,75.51Z" style="fill:#06246a"/><path d="M94.17,56A85.37,85.37,0,0,1,81.75,43.32a.79.79,0,0,0-1.08,0l-7.94,6.61.71,1.4,4.64-3.86c2.42-2,3-2.34,5.14.08,1.43,1.64,2.93,3.23,4.49,4.75.75.74,4.22,3,4.36,4,.42,2.57-7.72,8.29-9.59,10-.84.77-1.7,1.52-2.54,2.28.13.55.26,1.1.38,1.65q7.13-6.31,13.94-13A.77.77,0,0,0,94.17,56Z" style="fill:#06246a"/><path d="M119.79,73.37c-3.26-1-7.55-1.55-10.17-3.82-3.45-3-3-7.53-3-11.65,0,0,0,0,0-.08a.5.5,0,0,0,0-.13.66.66,0,0,0,.51-1.13C95,44.9,85,31.32,74.13,18.41c-2.61-3.11-5.27-6.19-8-9.16-2.56-2.75-5.21-6.18-8.43-8.19C52.48-2.17,47.4,2.74,43.28,5.65c-.85.6-1.68,1.22-2.53,1.83l1,1.27,0,0C42.85,8,43.89,7.24,45,6.5c1.64-1.14,3.78-3.2,5.69-3.79l6.1-.22A32,32,0,0,1,60,5.39c3.34,3.21,6.45,6.69,9.5,10.17C81.66,29.48,92.37,44.68,106,57.29h0A204.19,204.19,0,0,0,81.48,78.15c0,.17,0,.34,0,.51.11.56.19,1.12.26,1.68,7.88-7.4,16.19-14.3,24-21.71-.57,3.45-.6,7.23,1.43,10.22a5.56,5.56,0,0,0,.56.72c2.49,2.89,6.83,3.71,10.46,4.67q-2.91,2.91-5.88,5.78-10.2,9.9-20.88,19.32c-4.6,4.06-9.24,8.12-14,12a37.26,37.26,0,0,1-8.3,5.41l-.88.35c-3.15-1.06-6.48-2.37-8.83-4.58a9.89,9.89,0,0,1-2.3-3.14c-.3.06-.59.13-.9.18,1.86,4.35,6.58,6.45,11.08,7.85-4.74,1.41-11.38,1.19-11.81-5.26a8.48,8.48,0,0,1,.21-2.51c-.57.1-1.15.18-1.73.25a8.53,8.53,0,0,0,.13,4.43l-4.08-4.19c-.63,0-1.25,0-1.88,0q3.74,3.57,7.57,7l.07.05c7.66,8.63,21.78-3.88,27.57-8.76q18.85-15.9,36.34-33.34a.75.75,0,0,0,.23-.65A.59.59,0,0,0,119.79,73.37Z" style="fill:#06246a"/></g><path d="M42.32,75.86C30.74,67.54,22.78,56,15.77,43.85c-1.54-2.68-5.33-.33-4.08,2.39,6.18,13.4,17.5,23.41,29.79,31.05C42.41,77.86,43.17,76.47,42.32,75.86Z" style="fill:#fff;mix-blend-mode:soft-light"/></g></g></g></svg>