<svg xmlns="http://www.w3.org/2000/svg" viewBox="0 0 97.13 128.21"><g style="isolation:isolate"><g id="Layer_2" data-name="Layer 2"><g id="OBJECTS"><path d="M34.46,122.59a12.15,12.15,0,0,1-5.78,0,.31.31,0,0,1,.12-.58c.94,0,1.87.26,2.81.32a16.71,16.71,0,0,0,2.83-.1C34.69,122.18,34.7,122.55,34.46,122.59Z" style="fill:#06246a"/><path d="M28.9,123.75a8.08,8.08,0,0,1,3.11.56c.25.09.11.5-.14.44a9.65,9.65,0,0,0-2.93-.31A.35.35,0,0,1,28.9,123.75Z" style="fill:#06246a"/><path d="M41.66,63.47a.22.22,0,0,0,0-.43c-.7,0-1.37,0-2-.1a6.69,6.69,0,0,0-.53-1.82.26.26,0,0,0-.49.16,7.23,7.23,0,0,1,.32,1.59c-.54-.07-1.07-.15-1.61-.25a.41.41,0,0,0-.16.81,15,15,0,0,0,1.81.19,8.81,8.81,0,0,1-.32,2.06c-.12.43.59.67.72.25a5.92,5.92,0,0,0,.32-2.29A13.29,13.29,0,0,0,41.66,63.47Zm.38-2c1,1.47.62,3.15-.06,4.64a3.76,3.76,0,0,1-4.75.24c-1.49-1.24-1.23-3.57-.08-4.94A3,3,0,0,1,42,61.47Z" style="fill:#a7e7fe"/><path d="M32,124.31a8.08,8.08,0,0,0-3.11-.56.35.35,0,0,0,0,.69,9.65,9.65,0,0,1,2.93.31C32.12,124.81,32.26,124.4,32,124.31Zm11.65-4.7c-9.18,10-25.22,9-31.38-3.76a21.38,21.38,0,0,1,.11-18c2.52-5.59,7.3-9.21,11.57-13.38,5-4.88,9.23-11.64,6.71-18.52C39,72.45,42.57,82.85,47.76,91.84,50.79,101.21,50.65,112,43.66,119.61ZM29.78,121c18.92,2.5,22.85-34.28,2.58-34.1-8.54.07-15.72,12-15.49,19.77A14.35,14.35,0,0,0,29.3,120.58.59.59,0,0,0,29.78,121Zm-1.1,1.59a12.15,12.15,0,0,0,5.78,0c.24,0,.23-.41,0-.38a16.71,16.71,0,0,1-2.83.1c-.94-.06-1.87-.29-2.81-.32A.31.31,0,0,0,28.68,122.57Z" style="fill:#fdd330"/><path d="M36.23,67.18a4.7,4.7,0,0,0,5.73.35.43.43,0,0,0,.26-.13l.26-.32a4.45,4.45,0,0,0,.41-.47.54.54,0,0,0,.09-.25,5.11,5.11,0,0,0-.34-6.3,4.43,4.43,0,0,0-6.63.65C34.56,62.57,34.39,65.52,36.23,67.18Zm44.56,0a15.36,15.36,0,0,0-4.49-.88c-.46,0-.51.76-.06.8a34.15,34.15,0,0,1,4.38.6C80.91,67.72,81.09,67.25,80.79,67.15ZM84,67.06a9.49,9.49,0,0,0-6.85-2.48.42.42,0,0,0,.05.84,10.65,10.65,0,0,1,6.51,2C83.89,67.54,84.15,67.25,84,67.06ZM43.68,52.55a.76.76,0,0,0-.07.6C44.86,58,47.82,63.81,53.13,65c5.93,1.37,12.81-1.72,18.8-2,16.62-.77,29,16.18,21.14,31.55-8,15.61-28.95,16-39.57,3C44.86,87,42.36,71.2,29.8,64.13l-.09,0a3.61,3.61,0,0,0-.39-.22C33,59.37,38.09,54.47,43.68,52.55ZM87.45,89.84c3-8.62-2.9-17.9-11.37-20.37-7.19-2.1-17.1.21-21,6.9a.67.67,0,0,0-.77.46C52.6,81.4,51,86.3,53.37,91c2.25,4.5,7.25,7.75,12,9.18C74.13,102.81,84.28,98.9,87.45,89.84Z" style="fill:#fdd330"/><path d="M76.3,66.27a15.36,15.36,0,0,1,4.49.88c.3.1.12.57-.17.52a34.15,34.15,0,0,0-4.38-.6C75.79,67,75.84,66.25,76.3,66.27Z" style="fill:#06246a"/><path d="M77.1,64.58A9.49,9.49,0,0,1,84,67.06c.2.19-.06.48-.29.33a10.65,10.65,0,0,0-6.51-2A.42.42,0,0,1,77.1,64.58Z" style="fill:#06246a"/><path d="M66,98.51c7.52,2.22,16.06-.7,19.41-8.15,8-17.68-21.09-27-29.5-13.15a.89.89,0,0,1-.06.35c-2,5.4-3.15,10.36,1,15.16A19.17,19.17,0,0,0,66,98.51Zm21.47-8.67c-3.17,9.06-13.32,13-22.12,10.29-4.71-1.43-9.71-4.68-12-9.18-2.33-4.65-.77-9.55,1-14.12a.67.67,0,0,1,.77-.46c3.87-6.69,13.78-9,21-6.9C84.55,71.94,90.47,81.22,87.45,89.84Z" style="fill:#06246a"/><path d="M39.59,62.94c.67.06,1.34.1,2,.1a.22.22,0,0,1,0,.43,13.29,13.29,0,0,1-2,.17,5.92,5.92,0,0,1-.32,2.29c-.13.42-.84.18-.72-.25a8.81,8.81,0,0,0,.32-2.06,15,15,0,0,1-1.81-.19.41.41,0,0,1,.16-.81c.54.1,1.07.18,1.61.25a7.23,7.23,0,0,0-.32-1.59.26.26,0,0,1,.49-.16A6.69,6.69,0,0,1,39.59,62.94Z" style="fill:#06246a"/><path d="M42,66.11c.68-1.49,1-3.17.06-4.64a3,3,0,0,0-4.89-.06c-1.15,1.37-1.41,3.7.08,4.94A3.76,3.76,0,0,0,42,66.11Zm.66-6a5.11,5.11,0,0,1,.34,6.3.54.54,0,0,1-.09.25,4.45,4.45,0,0,1-.41.47l-.26.32a.43.43,0,0,1-.26.13,4.7,4.7,0,0,1-5.73-.35c-1.84-1.66-1.67-4.61-.22-6.47A4.43,4.43,0,0,1,42.64,60.06Z" style="fill:#06246a"/><path d="M32.36,86.88c20.27-.18,16.34,36.6-2.58,34.1a.59.59,0,0,1-.48-.4,14.35,14.35,0,0,1-12.43-13.93C16.64,98.86,23.82,87,32.36,86.88Zm-1.44,32.68C46.44,118.87,50,89.47,33,88.67c-7.68-.36-14.55,10.78-14.47,17.88C18.62,113.83,24.29,118.75,30.92,119.56Z" style="fill:#06246a"/><path d="M11.21,33.12A140,140,0,0,1,1.13,3.63C8.24,23.42,17,44.21,29.47,61.14a.6.6,0,0,0,.12.11c-.41.46-.78.91-1.15,1.36A280.16,280.16,0,0,1,11.21,33.12Z" style="fill:#a7e7fe"/><path d="M13.11,11.71c-.85-.87-1.78-1.67-2.68-2.48-.22-.19-.48.13-.29.33.83.89,1.65,1.81,2.53,2.66C13,12.52,13.42,12,13.11,11.71Zm1.21-1.47A8.22,8.22,0,0,0,9,7.28a.2.2,0,0,0-.08.4,9.77,9.77,0,0,1,4.86,3C14.09,11,14.56,10.55,14.32,10.24ZM2.16,2c9.94,3.28,17.2,11.07,23,19.56A164.78,164.78,0,0,1,41.43,52.14c-4.27,1.62-8.14,5-11.27,8.47C24.93,50.5,19,40.84,14.06,30.55,9.61,21.23,5.67,11.68,2.16,2Z" style="fill:#a7e7fe"/><path d="M13.11,11.71c.31.3-.12.81-.44.51-.88-.85-1.7-1.77-2.53-2.66-.19-.2.07-.52.29-.33C11.33,10,12.26,10.84,13.11,11.71Z" style="fill:#06246a"/><path d="M9,7.28a8.22,8.22,0,0,1,5.28,3c.24.31-.23.72-.5.44A9.77,9.77,0,0,0,9,7.68.2.2,0,0,1,9,7.28Z" style="fill:#06246a"/><path d="M43.66,119.61c7-7.61,7.13-18.4,4.1-27.77-5.19-9-8.75-19.39-17.09-25.91C33.19,72.81,29,79.57,24,84.45c-4.27,4.17-9,7.79-11.57,13.38a21.38,21.38,0,0,0-.11,18C18.44,128.59,34.48,129.59,43.66,119.61Zm9.84-22c10.62,13,31.58,12.59,39.57-3C101,79.21,88.55,62.26,71.93,63c-6,.29-12.87,3.38-18.8,2-5.31-1.23-8.27-7.08-9.52-11.89a.76.76,0,0,1,.07-.6C38.09,54.47,33,59.37,29.32,63.86a3.61,3.61,0,0,1,.39.22l.09,0C42.36,71.2,44.86,87,53.5,97.6Zm-24-36.46C17,44.21,8.24,23.42,1.13,3.63A140,140,0,0,0,11.21,33.12,280.16,280.16,0,0,0,28.44,62.61c.37-.45.74-.9,1.15-1.36A.6.6,0,0,1,29.47,61.14ZM2.16,2c3.51,9.72,7.45,19.27,11.9,28.59,4.91,10.29,10.87,20,16.1,30.06,3.13-3.47,7-6.85,11.27-8.47A164.78,164.78,0,0,0,25.17,21.52C19.36,13,12.1,5.24,2.16,2ZM20.62,126.44c-10.17-4.82-14.25-16.78-10.7-27.16,2.05-6,6.32-10,10.82-14.18C26.2,80,32.44,72.92,28.58,65a.63.63,0,0,1,0-.57l0,0a.81.81,0,0,1-.77-.78s0,0-.05,0C15.62,45,1.72,23.65,0,.85A.25.25,0,0,1,.18.61.75.75,0,0,1,1.07,0c10,2.83,17.51,9.9,23.55,18.12C32.15,28.39,38,39.94,42.86,51.67c.48-.13,1-.24,1.43-.33s.62.48.4.79a.65.65,0,0,1,.47.5c1.81,6.52,5.52,11.65,13,10.75,4.08-.5,8.09-1.54,12.19-1.92,6.16-.54,12.07.51,17.13,4.18a23.55,23.55,0,0,1,5.64,32.29c-7.21,10.83-22,13.77-33.18,7.2a31,31,0,0,1-10.06-9.95c2.1,7.61,1.62,15.87-2.9,22.66C41.32,126.31,30.18,131,20.62,126.44Z" style="fill:#06246a"/><g style="mix-blend-mode:multiply"><path d="M34.46,122.59a12.15,12.15,0,0,1-5.78,0,.31.31,0,0,1,.12-.58c.94,0,1.87.26,2.81.32a16.71,16.71,0,0,0,2.83-.1C34.69,122.18,34.7,122.55,34.46,122.59Z" style="fill:#06246a"/><path d="M28.9,123.75a8.08,8.08,0,0,1,3.11.56c.25.09.11.5-.14.44a9.65,9.65,0,0,0-2.93-.31A.35.35,0,0,1,28.9,123.75Z" style="fill:#06246a"/><path d="M37.28,62.62h0c.54.1,1.07.18,1.61.25a7.23,7.23,0,0,0-.32-1.59.26.26,0,0,1,.49-.16,6.69,6.69,0,0,1,.53,1.82c.67.06,1.34.1,2,.1a.22.22,0,0,1,0,.43,13.29,13.29,0,0,1-2,.17,6,6,0,0,1-.31,2.27c.23.37.47.73.71,1.1a4.24,4.24,0,0,0,1.93-.9c.68-1.49,1-3.17.06-4.64a3,3,0,0,0-4.89-.06,4.87,4.87,0,0,0-.32.47Z" style="fill:#a7e7fe"/><path d="M43.8,112.31c-2.54,5.54-7.35,9.55-14,8.67a.59.59,0,0,1-.48-.4,14.44,14.44,0,0,1-8.12-4c-3,.12-5.9.14-8.44.14,6.47,11.89,22,12.62,30.92,2.87A22.25,22.25,0,0,0,49,109.11,24.17,24.17,0,0,1,43.8,112.31ZM31.87,124.75a9.65,9.65,0,0,0-2.93-.31.35.35,0,0,1,0-.69,8.08,8.08,0,0,1,3.11.56C32.26,124.4,32.12,124.81,31.87,124.75Zm2.59-2.16a12.15,12.15,0,0,1-5.78,0,.31.31,0,0,1,.12-.58c.94,0,1.87.26,2.81.32a16.71,16.71,0,0,0,2.83-.1C34.69,122.18,34.7,122.55,34.46,122.59Z" style="fill:#fdd330"/><path d="M71.93,63c-6,.29-12.87,3.38-18.8,2-5.31-1.23-8.27-7.08-9.52-11.89a.76.76,0,0,1,.07-.6,27.32,27.32,0,0,0-9.06,5.7l1.44,2.39a4.42,4.42,0,0,1,6.58-.58,5.11,5.11,0,0,1,.34,6.3.54.54,0,0,1-.09.25,4.45,4.45,0,0,1-.41.47l-.26.32a.43.43,0,0,1-.26.13,4.22,4.22,0,0,1-1.21.58C42,70,43.26,72,44.56,73.86,47,77.47,50,81.38,52.2,85.55a26.87,26.87,0,0,1,2.14-8.72.67.67,0,0,1,.77-.46c3.87-6.69,13.78-9,21-6.9,8.47,2.47,14.39,11.75,11.37,20.37-3.17,9.06-13.32,13-22.12,10.29A21.56,21.56,0,0,1,55,93.47,16.59,16.59,0,0,1,55,99.22c11,11.31,30.47,10.29,38.12-4.64C101,79.21,88.55,62.26,71.93,63Zm8.69,4.64a34.15,34.15,0,0,0-4.38-.6c-.45,0-.4-.82.06-.8a15.36,15.36,0,0,1,4.49.88C81.09,67.25,80.91,67.72,80.62,67.67Zm3-.28a10.65,10.65,0,0,0-6.51-2,.42.42,0,0,1-.05-.84A9.49,9.49,0,0,1,84,67.06C84.15,67.25,83.89,67.54,83.66,67.39Z" style="fill:#fdd330"/><path d="M76.3,66.27a15.36,15.36,0,0,1,4.49.88c.3.1.12.57-.17.52a34.15,34.15,0,0,0-4.38-.6C75.79,67,75.84,66.25,76.3,66.27Z" style="fill:#06246a"/><path d="M77.1,64.58A9.49,9.49,0,0,1,84,67.06c.2.19-.06.48-.29.33a10.65,10.65,0,0,0-6.51-2A.42.42,0,0,1,77.1,64.58Z" style="fill:#06246a"/><path d="M76.08,69.47c-7.19-2.1-17.1.21-21,6.9a.67.67,0,0,0-.77.46,26.87,26.87,0,0,0-2.14,8.72A26.08,26.08,0,0,1,55,93.47a21.56,21.56,0,0,0,10.32,6.66c8.8,2.68,19-1.23,22.12-10.29C90.47,81.22,84.55,71.94,76.08,69.47Zm9.31,20.89C82,97.81,73.5,100.73,66,98.51a19.17,19.17,0,0,1-9.18-5.79c-4.12-4.8-2.93-9.76-1-15.16a.89.89,0,0,0,.06-.35C64.3,63.37,93.34,72.68,85.39,90.36Z" style="fill:#06246a"/><path d="M37.28,62.62l.56.91c.36,0,.72.07,1.09.09A8.26,8.26,0,0,1,38.76,65c.19.3.39.6.58.91a6,6,0,0,0,.31-2.27,13.29,13.29,0,0,0,2-.17.22.22,0,0,0,0-.43c-.7,0-1.37,0-2-.1a6.69,6.69,0,0,0-.53-1.82.26.26,0,0,0-.49.16,7.23,7.23,0,0,1,.32,1.59c-.54-.07-1.07-.15-1.61-.25Z" style="fill:#06246a"/><path d="M36.83,61.88a4.87,4.87,0,0,1,.32-.47,3,3,0,0,1,4.89.06c1,1.47.62,3.15-.06,4.64a4.24,4.24,0,0,1-1.93.9c.23.37.46.74.7,1.1A4.22,4.22,0,0,0,42,67.53a.43.43,0,0,0,.26-.13l.26-.32a4.45,4.45,0,0,0,.41-.47.54.54,0,0,0,.09-.25,5.11,5.11,0,0,0-.34-6.3,4.42,4.42,0,0,0-6.58.58Z" style="fill:#06246a"/><path d="M41,113.44a12.65,12.65,0,0,1-10.06,6.12,15,15,0,0,1-7.49-3.07l-2.25.11a14.44,14.44,0,0,0,8.12,4,.59.59,0,0,0,.48.4c6.67.88,11.48-3.13,14-8.67C42.89,112.73,42,113.1,41,113.44Z" style="fill:#06246a"/><path d="M21.23,34.44C25.31,42,29.47,49.55,33.85,57a25.44,25.44,0,0,1,7.58-4.81A164.78,164.78,0,0,0,25.17,21.52c-5-7.28-11-14-18.92-17.89A340,340,0,0,0,21.23,34.44ZM12.67,12.22c-.88-.85-1.7-1.77-2.53-2.66-.19-.2.07-.52.29-.33.9.81,1.83,1.61,2.68,2.48C13.42,12,13,12.52,12.67,12.22ZM9,7.28a8.22,8.22,0,0,1,5.28,3c.24.31-.23.72-.5.44A9.77,9.77,0,0,0,9,7.68.2.2,0,0,1,9,7.28Z" style="fill:#a7e7fe"/><path d="M13.11,11.71c.31.3-.12.81-.44.51-.88-.85-1.7-1.77-2.53-2.66-.19-.2.07-.52.29-.33C11.33,10,12.26,10.84,13.11,11.71Z" style="fill:#06246a"/><path d="M9,7.28a8.22,8.22,0,0,1,5.28,3c.24.31-.23.72-.5.44A9.77,9.77,0,0,0,9,7.68.2.2,0,0,1,9,7.28Z" style="fill:#06246a"/><path d="M49,109.11a22.25,22.25,0,0,1-5.35,10.5c-9,9.75-24.45,9-30.92-2.87H10.9a20.52,20.52,0,0,0,9.72,9.7c9.56,4.53,20.7-.13,26.31-8.6a24.42,24.42,0,0,0,3.84-10.37A19.52,19.52,0,0,1,49,109.11Z" style="fill:#06246a"/><path d="M87.43,65.64c-5.06-3.67-11-4.72-17.13-4.18-4.1.38-8.11,1.42-12.19,1.92-7.43.9-11.14-4.23-13-10.75a.65.65,0,0,0-.47-.5c.22-.31,0-.86-.4-.79s-.95.2-1.43.33C38,39.94,32.15,28.39,24.62,18.14,19.49,11.16,13.3,5,5.42,1.59c.28.68.55,1.37.83,2,7.89,3.85,13.94,10.61,18.92,17.89A164.78,164.78,0,0,1,41.43,52.14,25.44,25.44,0,0,0,33.85,57l.77,1.3a27.32,27.32,0,0,1,9.06-5.7.76.76,0,0,0-.07.6C44.86,58,47.82,63.81,53.13,65c5.93,1.37,12.81-1.72,18.8-2,16.62-.77,29,16.18,21.14,31.55-7.65,14.93-27.14,16-38.12,4.64a14.32,14.32,0,0,1-.42,1.75h0a26.66,26.66,0,0,0,5.36,4.16c11.13,6.57,26,3.63,33.18-7.2A23.55,23.55,0,0,0,87.43,65.64Z" style="fill:#06246a"/></g><path d="M22.53,85.87c-3.22,3-7.83,6.83-9.61,10.9-1.86,4.22.25,8.54.12,12.88a.52.52,0,0,0,1,.13c.84-3.53,0-7.41,1-10.82,1.31-4.25,6.69-7.73,9.49-11A1.45,1.45,0,0,0,22.53,85.87Z" style="fill:#fff;mix-blend-mode:soft-light"/></g></g></g></svg>