    <svg
        class="svg-bg"
        viewBox="0 0 380 203"
        fill="none"
        xmlns="http://www.w3.org/2000/svg"
      >
        <path
          d="M288.252 94.5986C335.653 75.2339 342.996 23.8415 364.063 0.919927C403.361 -12.5169 360.132 247.292 339.666 195.827C314.083 131.496 122.439 155.263 57.2119 162.256C-47.25 173.455 15.62 35.4033 57.2119 47.101C109.175 61.7157 244.56 112.448 288.252 94.5986Z"
          fill="#FFEA16"
        />
        <path
          d="M283.216 112.336C334.572 99.7337 343.569 39.8718 363.356 21.9313C391.179 -3.29665 357.543 219.543 338.321 179.262C314.294 128.911 134.3 147.513 73.0386 152.986C-25.0727 161.752 12.1345 57.7705 51.7188 62.3328C101.1 68.0242 241.171 122.654 283.216 112.336Z"
          fill="#FFD400"
        />
      </svg>