<svg width="1920" height="617" viewBox="0 0 1920 617" fill="none" xmlns="http://www.w3.org/2000/svg">
<g clip-path="url(#clip0_2:10)">
<rect width="1920" height="617" fill="white"/>
<circle cy="413" r="201" fill="#5A5A5A"/>
<path d="M179 443.867C179 541.069 100.202 619.867 3 619.867C-94.2021 619.867 -173 541.069 -173 443.867C-173 346.665 -94.2021 267.867 3 267.867C100.202 267.867 179 346.665 179 443.867Z" fill="#4D4D4D"/>
<path d="M148 472C148 553.738 81.7381 620 0 620C-81.7381 620 -148 553.738 -148 472C-148 390.262 -81.7381 324 0 324C81.7381 324 148 390.262 148 472Z" fill="#464646"/>
<circle cx="3" cy="490" r="124" fill="#3E3E3E"/>
<path d="M2088 210.941C2088 326.336 1998.01 419.881 1887 419.881C1775.99 419.881 1686 326.336 1686 210.941C1686 95.546 1775.99 2 1887 2C1998.01 2 2088 95.546 2088 210.941Z" fill="#FFFF42"/>
<path d="M2072 222.375C2072 333.177 1985.59 423 1879 423C1772.41 423 1686 333.177 1686 222.375C1686 111.573 1772.41 21.7507 1879 21.7507C1985.59 21.7507 2072 111.573 2072 222.375Z" fill="#FEF243"/>
<path d="M2055 239.953C2055 340.995 1976.2 422.906 1879 422.906C1781.8 422.906 1703 340.995 1703 239.953C1703 138.911 1781.8 57 1879 57C1976.2 57 2055 138.911 2055 239.953Z" fill="#FFE511"/>
<path d="M2013 266.035C2013 351.002 1946.74 419.882 1865 419.882C1783.26 419.882 1717 351.002 1717 266.035C1717 181.067 1783.26 112.188 1865 112.188C1946.74 112.188 2013 181.067 2013 266.035Z" fill="#FFD400"/>
</g>
<defs>
<clipPath id="clip0_2:10">
<rect width="1920" height="617" fill="white"/>
</clipPath>
</defs>
</svg>
