<svg width="1980" height="1149" viewBox="0 0 1980 1149" fill="none" xmlns="http://www.w3.org/2000/svg">
<g clip-path="url(#clip0_8:14)">
<rect width="1980" height="1149" fill="white"/>
<path d="M571.131 571.843C108.325 639.366 146.5 139.58 1.00816 139.58L1.00816 732.66C-18.2261 1374.93 233.779 1051.56 1100.05 799.375C1834.01 585.71 1978.68 1056.06 1978.68 858.781C1978.68 661.506 1981.64 501.423 1978.68 391.548C1975.73 281.672 1894 168 1628 168C1362 168 1149.64 487.439 571.131 571.843Z" fill="#3F3F3F"/>
<path d="M571.131 492.843C108.325 560.366 146.5 60.58 1.00816 60.58L1.00816 653.66C-18.2261 1295.93 233.779 972.558 1100.05 720.375C1834.01 506.711 1978.68 977.058 1978.68 779.782C1978.68 582.506 1981.64 683.875 1978.68 574C1975.73 464.125 1960.18 294 1724 225.5C1465.44 150.511 1149.64 408.439 571.131 492.843Z" fill="#363636" fill-opacity="0.95" stroke="#4B4B4B"/>
</g>
<defs>
<clipPath id="clip0_8:14">
<rect width="1980" height="1149" fill="white"/>
</clipPath>
</defs>
</svg>
