<svg id="Layer_1" data-name="Layer 1" xmlns="http://www.w3.org/2000/svg" viewBox="0 0 700.94 953.84"><defs><style>.cls-1,.cls-3{fill:#3c3c3b;}.cls-1,.cls-2,.cls-3,.cls-4{stroke:#1d1d1b;stroke-miterlimit:10;}.cls-1,.cls-2{stroke-width:7px;}.cls-2,.cls-4,.cls-8{fill:#fff;}.cls-3{stroke-width:10px;}.cls-4{stroke-width:9px;}.cls-5{fill:#252321;}.cls-6{fill:#1d1d1b;}.cls-7{fill:#706f6f;}.cls-9{fill:#e72871;}.cls-10{fill:#fcea25;}.cls-11{fill:#fbba1b;}</style></defs><title>دب الباندا يرتدي ميدالية</title><path class="cls-1" d="M454.25,973.14c-.95,25.47-1.91,45.46-3.1,63.11-.45,6.73-1.15,16.2,4.94,23.64,6.31,7.72,16.58,9.14,21.65,9.45q108.36,15.81,113.94-4.87,2.07-7.67-10-20.34a111.06,111.06,0,0,0-13.47-10.52,102.62,102.62,0,0,0-17.32-9.28,472.38,472.38,0,0,0,34.29-66c30-70.88,38.19-137.48,39.94-183.68C617,811.49,473.53,964.48,454.25,973.14Z" transform="translate(-89.19 -125.85)"/><path class="cls-1" d="M395.68,973.14c.66,27,1.64,47,2.89,63.45.48,6.41,1.28,15.88-4.72,23.3-6.25,7.73-16.55,9.14-21.66,9.45q-108.35,15.81-113.93-4.87-2.07-7.67,10-20.34a111.69,111.69,0,0,1,13.46-10.52,103.05,103.05,0,0,1,17.33-9.28,471.31,471.31,0,0,1-34.29-66c-30-70.88-38.19-137.48-39.94-183.68C232.89,811.49,376.41,964.48,395.68,973.14Z" transform="translate(-89.19 -125.85)"/><ellipse class="cls-2" cx="336.87" cy="629.39" rx="200.17" ry="224.11"/><path class="cls-1" d="M599.13,612.77a173.59,173.59,0,0,1,48.43,56.66c30.54,57.3,26.89,111.09,24.3,137.29-1.69,17-4.92,31.7-12.27,46.75-7,14.31-19.84,40.61-44.26,44.06C596,900.26,581,887,580.24,886.28c-11.91-10.91-13.56-25.16-14.53-33.42-2.62-22.51,7-40.09,11.26-46.9a270.67,270.67,0,0,0,2.67-193.37Z" transform="translate(-89.19 -125.85)"/><path class="cls-1" d="M261.3,612.77a173.59,173.59,0,0,0-48.43,56.66c-30.54,57.3-26.9,111.09-24.3,137.29,1.68,17,4.91,31.7,12.27,46.75,7,14.31,19.83,40.61,44.25,44.06,19.37,2.73,34.34-10.56,35.09-11.25,11.91-10.91,13.57-25.16,14.53-33.42,2.62-22.51-7-40.09-11.25-46.9a270.52,270.52,0,0,1-2.67-193.37Z" transform="translate(-89.19 -125.85)"/><path class="cls-3" d="M652.43,366.89a8.73,8.73,0,0,0,7.9,3.44c16.2-1.6,52.46-8.09,83.84-37.71a142.05,142.05,0,0,0,38.69-63.92c.07-.23.12-.45.17-.69,3.3-15.08,6.19-43.59-20.22-76.43s-64.09-35.59-70-35.92a133.73,133.73,0,0,0-71.16,17.61C585.81,194,569.93,225.79,564,240.66a9.68,9.68,0,0,0,1.07,9.42Q608.73,308.49,652.43,366.89Z" transform="translate(-89.19 -125.85)"/><path class="cls-3" d="M318.65,210.17a9,9,0,0,0-.58-9c-23.75-36.62-75.22-59.76-75.22-59.76-13.35-5.36-23.46-9.32-38-10.35a110.77,110.77,0,0,0-40.67,5.1c-5.37,1.63-14.51,4.31-23.84,10-13,7.94-27,21.45-37.58,45.14-17.93,40.18-2.43,76.36.12,82.05A139.51,139.51,0,0,0,153.29,331c36.39,23.33,73.61,22.89,90.29,21.32a10.16,10.16,0,0,0,8.25-5.48Q285.24,278.51,318.65,210.17Z" transform="translate(-89.19 -125.85)"/><path class="cls-4" d="M395.19,147.53C378.28,149.35,270,162.75,189.42,255c-11.76,13.47-118.9,139.55-70.33,252.28,22,51,66.18,76.85,97.47,95.14,77.92,45.55,154.35,43,219.55,40.8,61.06-2.05,142.56-5.81,221.45-58.38,30.13-20.08,60.45-40.29,78.54-78.54,45.94-97.17-33.75-212.07-45.4-228.34C626.48,188.21,511,135,395.19,147.53Z" transform="translate(-89.19 -125.85)"/><path class="cls-5" d="M385.14,473a18,18,0,0,1,2.45-8,17.35,17.35,0,0,1,2.3-2.64c4.36-4,13-7.1,37.17-7.1,0,0,38.12-1.47,46.43,8.06a12.87,12.87,0,0,1,3.27,7.87c.32,4.3-1.85,9.49-3.06,11.57-3,5.15-18.69,24.36-43.85,23.55-19-.62-30.94-12.27-35.76-17C394.09,489.37,385.18,480.67,385.14,473Z" transform="translate(-89.19 -125.85)"/><path class="cls-6" d="M304.81,538.26a67.84,67.84,0,0,0,4.25,11.7,83.51,83.51,0,0,0,8.32,13.46,98.56,98.56,0,0,0,19.09,19.13,115.21,115.21,0,0,0,31.36,16.64,128.49,128.49,0,0,0,35.08,6.45,223.28,223.28,0,0,0,34.6-.46,251.1,251.1,0,0,0,30-5c12.44-2.78,24.93-6.38,36.21-12.44A114.91,114.91,0,0,0,528.94,569c12.29-11.83,22.45-25.9,30.78-40.75.68-1.2,1.34-2.41,2-3.62a4.08,4.08,0,0,0-7-4.11c-3.14,5.86-6.56,11.58-10.27,17.11q-1.73,2.58-3.54,5.1c-.6.83-1.2,1.66-1.82,2.48l-.94,1.26-.39.5a2.48,2.48,0,0,1-.24.31c-2.84,3.62-5.8,7.14-8.93,10.51A133.08,133.08,0,0,1,517.93,568c-.9.79-1.82,1.56-2.75,2.31l-1.41,1.13-.58.44-.61.47q-3,2.25-6.15,4.28a100.09,100.09,0,0,1-13.61,7.32,2.31,2.31,0,0,1-.42.18l-.7.28c-.68.28-1.36.54-2,.8-1.64.63-3.3,1.22-5,1.78q-4.77,1.6-9.62,2.9a277.87,277.87,0,0,1-30.62,6.4l-1.72.26-1.07.15c-1.15.16.52-.07-.2,0-1.32.17-2.64.34-4,.48q-4.33.48-8.67.76c-6.06.38-12.11.4-18.18.28-5-.09-10-.27-15-.71-1.29-.12-2.58-.25-3.87-.41l-1-.11-.69-.09-1.91-.28c-2.91-.46-5.81-1-8.68-1.69a108.37,108.37,0,0,1-33.74-14.38c-1.89-1.21-3.75-2.49-5.57-3.82l-1.14-.85-.54-.41c-.69-.52.4.31,0,0l-1-.76c-.33-.26-1.28-1-.45-.35l-.51-.41a94.79,94.79,0,0,1-8.17-7.48,116.49,116.49,0,0,1-10.87-13.23q-2.19-3-4.15-6.2c-1.12-1.82-2.29-3.5-3.46-5.3-.95-1.46-1.82-3-2.67-4.51a1.35,1.35,0,0,0-2.45,1Z" transform="translate(-89.19 -125.85)"/><path class="cls-6" d="M307.9,537.24c1-2.37,3.27-3.4,5.69-3.86a22.4,22.4,0,0,1,4-.32c1.94,0,3.87.11,5.81.17,8.95.32,17.88,1,26.81,1.71,17.94,1.42,35.86,3.46,53.84,4.15a401.36,401.36,0,0,0,52.59-1.41,404.05,404.05,0,0,0,52.44-8.3c7.95-1.81,15.77-4.18,23.74-5.94,1.84-.4,3.69-.76,5.56-1-.59.09.38,0,.54-.06.47-.06.93-.1,1.39-.14.91-.08,1.83-.13,2.74-.15s1.68,0,2.51,0l1.15.08.75.08c-.42,0-.22,0,.08,0a23.18,23.18,0,0,1,4.85,1.31c.42.17,0,0-.08,0l.68.33,1,.53a22.1,22.1,0,0,1,2.25,1.45c1.53,1.12,3.93.41,5-1s1.22-3.85-.3-5.06c-13.25-10.57-31.17-3.59-45.68,0a401.77,401.77,0,0,1-52.57,9.46,403.06,403.06,0,0,1-53.93,2.33c-18.38-.45-36.7-2-55.05-3.23-9.25-.61-18.52-1-27.8-1.17-6.37-.08-15.15-.61-19.41,5.24a6.89,6.89,0,0,0-1.23,4.06c0,1.31,2.08,2.06,2.65.71Z" transform="translate(-89.19 -125.85)"/><path class="cls-6" d="M365.86,560.81c4.67.84,9.3,1.74,14,2.35s9.36,1.12,14.05,1.58c9.37.93,18.76,1.55,28.18,1.61,17.55.09,35.24-1.63,52.16-6.42a129.79,129.79,0,0,0,13.49-4.59,79.1,79.1,0,0,0,13.1-6.42,2,2,0,0,0-2-3.41c-3.75,1.71-7.44,3.57-11.25,5.15s-7.9,3.07-11.94,4.33a159.28,159.28,0,0,1-24.62,5.51c-17.75,2.57-35.82,2.3-53.67,1.1q-7.78-.52-15.54-1.3c-5.25-.51-10.5-.8-15.75-1.18-1-.07-1.19,1.52-.23,1.69Z" transform="translate(-89.19 -125.85)"/><path class="cls-7" d="M381,359.54c.07-1.71,2.71-4.8,2.31-6.6-.23-1-3.52-4.65-3.72-5.68,2.2-2.22.14-5-.72-8.9-4.19-18.71-7.42-40.33-21.69-54.48-15.64-15.52-41.76-20.16-63-20.87-47.31-1.57-83.94,44.25-106.5,80.47-10.89,17.5-25.71,38.55-26,60-.14,12.48,5.39,21.74,13.71,28.37a11.81,11.81,0,0,0,2.12,8.85C187.78,456,204.61,459,221.69,462.39c20.24,4,41.13,6.59,61.76,5,20.79-1.6,49.87-8.52,67-24.41a12.15,12.15,0,0,0,1.41-.76C382.3,422.44,388.39,391.47,381,359.54Zm-80.59,12.53c1.41-7.62.42-14.76-5.2-19.36a47.62,47.62,0,0,1,6.42-9.28c6.2-6.35,4.81-3.55,9.18,4.15a51.69,51.69,0,0,1,6.4,19.49Q308.67,369.32,300.36,372.07Zm33.46-32.48q-1.12-2.23-2.4-4.44a12.23,12.23,0,0,0,4.46-3.24c1.52,2.34,2.94,4.72,4.25,7.08A11.86,11.86,0,0,0,333.82,339.59Z" transform="translate(-89.19 -125.85)"/><path class="cls-7" d="M692.87,401.54c-2.5-22.72-14.11-43.48-27.9-61.3-27.12-35.06-78.38-80.35-124.77-62.08a59.57,59.57,0,0,0-42.47,32.94c-19.92,40.82-24.39,102.51,12.85,134.76C550.12,480.11,608.51,476,653,457.2c11.36-4.81,22.45-13.09,32.24-20.69a18.35,18.35,0,0,0,5.65-7.72,20.08,20.08,0,0,0,6.2-9.57C699,412.83,696.79,406.59,692.87,401.54Z" transform="translate(-89.19 -125.85)"/><path class="cls-6" d="M351,279.65a28.24,28.24,0,0,0-3.94-5.8l1.14,2c-.48-2.69-4.4-4.56-6.65-5.8a73.86,73.86,0,0,0-7.2-3.4,85.11,85.11,0,0,0-13.94-4.48c-9.71-2.23-19.72-3.48-29.65-2.19-13.32,1.73-25.94,6.6-37.69,13a161.85,161.85,0,0,0-28.31,19.78c-17.5,15.14-32,33.63-44.1,53.28a334.8,334.8,0,0,0-16.4,30.13c-2.93,6.07-5.84,12.27-7.49,18.82a42.34,42.34,0,0,0-.47,19.45c2.61,11.91,10.55,22,20.12,29.25,10.29,7.76,22.78,12,35.08,15.41,6.56,1.81,13.2,3.36,19.87,4.69q5.2,1,10.44,1.9c1.59.26,3.17.51,4.76.74l2.39.35,1.43.19,1.9.26-.46-.06a208.66,208.66,0,0,0,35.77,1.8c21.42-.79,43.53-5.08,61.92-16.61a77.73,77.73,0,0,0,23.4-22.39,70.28,70.28,0,0,0,4.44-7.59c.73-1.43,1.36-2.89,2-4.34-.45,1,.12-.21.18-.34.14-.31.27-.61.41-.91.45-1,.89-2.08,1.32-3.13a92.48,92.48,0,0,0,4.92-16.46,147.42,147.42,0,0,0,2.39-36.2c-.6-12.6-2-25.39-5.31-37.61a97.74,97.74,0,0,0-7.08-18.8,82,82,0,0,0-9.25-14.12A90.26,90.26,0,0,0,348,272.67a35,35,0,0,0-3.6-2.12l-1.66-.85-.67-.32c-.46-.22-.93-.42-1.4-.6.5.2.51.2.06,0a36.57,36.57,0,0,0-7.66-2.92,47.64,47.64,0,0,0-7.62-.93c-2-.18-3.66,1.8-3.66,3.66a3.73,3.73,0,0,0,3.66,3.66c1,.09-.63-.22.29.1a4.89,4.89,0,0,0,.64.14c.59.14,1.17.3,1.75.47,1.14.34,2.26.77,3.37,1.18l1,.38s1.06.45.46.19.46.21.46.21l.81.37a38.36,38.36,0,0,1,3.51,1.91c2.25,1.4,4.4,3,6.54,4.53q.39.27.78.57s1,.76.45.33.43.34.43.34l.92.73c1.06.87,2.1,1.77,3.11,2.69,2,1.83,4,3.76,5.83,5.76.91,1,1.8,2,2.67,3l1.2,1.45.47.58c.14.18,1.14,1.48.39.49a76.6,76.6,0,0,1,8.33,13.67c.31.66.62,1.32.91,2l.35.81c-.4-.94.16.4.19.48q.9,2.24,1.68,4.53c1,2.92,1.86,5.88,2.6,8.87s1.37,6.05,1.91,9.1c.25,1.45.48,2.91.7,4.38,0,.36.11.73.16,1.09s.16,1.21,0,.28l.33,2.64a187.09,187.09,0,0,1,1.16,34.69c-.09,1.36-.2,2.72-.34,4.07-.06.68-.14,1.35-.21,2l-.15,1.21c0,.14-.2,1.5,0,.35-.4,2.8-.88,5.59-1.46,8.36a94.48,94.48,0,0,1-4.9,16c.41-1-.1.23-.15.36s-.22.48-.32.72c-.28.61-.58,1.2-.88,1.79-.66,1.3-1.36,2.58-2.09,3.84a78,78,0,0,1-4.66,7c-.79,1.08.58-.71-.19.25l-.56.7-1.14,1.38c-.81.94-1.64,1.87-2.49,2.78a71.1,71.1,0,0,1-5.44,5.26c-.88.77-1.78,1.51-2.69,2.23-.28.22-.81.8.07-.05a7.25,7.25,0,0,1-.83.63l-1.56,1.13c-2,1.4-4.07,2.72-6.18,3.94s-4.43,2.42-6.71,3.48l-1.61.74-.65.28c-.36.16-1.19.76,0,0a19.75,19.75,0,0,1-3.63,1.44,121.48,121.48,0,0,1-14.45,4.39c-2.49.59-5,1.1-7.51,1.55-1.2.21-2.41.41-3.62.59a9.53,9.53,0,0,1-1.82.27c1.21.1.64-.09.15,0l-1.28.16a182.15,182.15,0,0,1-30.89,1c-6.16-.31-12.28-.95-18.41-1.59-1.59-.16-3.19-.35-4.79-.55l-2.39-.3a4.63,4.63,0,0,1-.52-.07l-1.43-.2q-5-.72-10-1.6c-12.5-2.21-25.09-4.9-36.88-9.69-1.33-.54.84.38-.47-.2l-1-.44-2-.91c-1.43-.69-2.84-1.41-4.22-2.18a77.1,77.1,0,0,1-7.6-4.93c-.62-.45.85.7-.12-.1l-.76-.61c-.55-.46-1.09-.92-1.62-1.4-1-.92-2-1.87-3-2.86s-1.86-2-2.72-3.09c-.16-.2-.32-.41-.49-.61.68.85-.12-.18-.21-.3-.46-.63-.91-1.27-1.34-1.92-.71-1.08-1.38-2.19-2-3.33-.31-.56-.6-1.14-.88-1.72-.12-.23-.23-.46-.33-.7s-.73-1.72-.3-.64a38.54,38.54,0,0,1-2.24-7.72c-.05-.25-.09-.51-.13-.76-.2-1.27.07,1,0-.27-.05-.64-.12-1.28-.15-1.92a34.2,34.2,0,0,1,.1-4.64c0-.29.06-.59.08-.89.15-1.46-.17.91.08-.53.12-.74.25-1.47.4-2.21.35-1.61.78-3.21,1.27-4.78s1-2.87,1.52-4.27c.27-.71.55-1.41.85-2.11-.31.73.08-.17.15-.35.21-.49.43-1,.65-1.46,1.21-2.69,2.5-5.36,3.81-8q3.68-7.47,7.69-14.76A289.82,289.82,0,0,1,199,335.18c1.61-2.25,3.27-4.48,4.95-6.68.8-1.05-.58.73.23-.3l.49-.63,1.23-1.55q1.35-1.69,2.74-3.37c3.51-4.23,7.18-8.34,11-12.29s7.89-7.78,12.1-11.39c2.07-1.78,4.19-3.49,6.34-5.19.6-.48-.87.66.13-.1l.77-.59,1.72-1.29c1.1-.81,2.21-1.61,3.32-2.4a153.23,153.23,0,0,1,14.08-8.85q3.92-2.18,8-4.09c1.38-.65,2.76-1.28,4.16-1.87l.19-.08,1.28-.51c.84-.34,1.7-.66,2.55-1a89,89,0,0,1,9.13-2.8,52.47,52.47,0,0,1,8.65-1.42,66.21,66.21,0,0,1,14,.35c1,.13-.9-.14-.22,0l.75.11q.77.11,1.53.24c1.16.19,2.31.4,3.46.63q3.45.67,6.86,1.58A120.11,120.11,0,0,1,332.05,276c.32.13,2,.67.68.26.5.16,1,.44,1.48.65,1,.44,1.88.89,2.81,1.38s1.75.94,2.6,1.46c.45.28.88.58,1.33.85a5.35,5.35,0,0,0,4.1.68h-2.37l.37.15-.41-.17a4.05,4.05,0,0,0,.73.33q.64.3,1.26.63a19.85,19.85,0,0,1,2.31,1.45,3,3,0,0,0,3.55-.46,3,3,0,0,0,.46-3.55Z" transform="translate(-89.19 -125.85)"/><path class="cls-6" d="M332.51,330.18c2.64,3.93,5.29,7.87,7.61,12,1.16,2.07,2.32,4.15,3.41,6.26.52,1,1,2,1.45,3,.09.19.51,1.07.14.3s0-.06,0,.08c.26.68.52,1.35.75,2a48.63,48.63,0,0,1,1.61,6.53c.17.85-.12-1.19,0-.34,0,.29.07.57.1.86,0,.5.08,1,.11,1.51a31.58,31.58,0,0,1,0,3.64c0,.29-.05.57-.08.85s-.14,1.19,0,.24,0-.15,0,0c-.11.71-.18,1.38-.27,2.07.24-1.77,0,0-.13.48-.13.63-.28,1.25-.46,1.87-.14.47-.28.93-.44,1.38-.09.26-.19.51-.28.76-.36,1,0-.17.12-.28a7.86,7.86,0,0,0-.7,1.46c-.28.54-.57,1.07-.88,1.59-.52.87-1.08,1.7-1.66,2.53-.31.44-.09.52.1-.14a3.52,3.52,0,0,1-.53.61q-.54.62-1.11,1.2a53.15,53.15,0,0,1-4.82,4.43c-.42.34-.83.72-1.27,1,1-.66-.38.29-.65.48-.93.69-1.89,1.36-2.86,2a44.26,44.26,0,0,1-6.13,3.33,6.94,6.94,0,0,1-.8.35c.15,0,1.12-.44.13-.07-.47.19-.94.37-1.42.54-1.16.42-2.33.78-3.53,1.09-.83.22-1.68.4-2.53.55-.4.08-.8.12-1.2.2,1.93-.36,0,0-.48,0a37.92,37.92,0,0,1-5.33.07c-.86-.06-1.71-.16-2.57-.24,2.45.24-.32-.05-.69-.1-1-.13.57.08.63.09-.51-.09-1-.15-1.54-.25a41.07,41.07,0,0,1-5.35-1.35c-.83-.27-1.64-.56-2.45-.88-.21-.08-.42-.19-.64-.26.08,0,1.45.64.53.22l-1.41-.66a41.2,41.2,0,0,1-4.66-2.66c-.77-.51-1.5-1.08-2.26-1.6.07.05,1.22,1,.44.34l-.53-.44q-.54-.43-1.05-.9a38.8,38.8,0,0,1-3.86-3.94c-.29-.36-.57-.73-.87-1.07.05.06.93,1.25.35.44-.13-.19-.27-.37-.41-.56-.53-.75-1-1.52-1.51-2.31s-.87-1.5-1.26-2.27c-.21-.42-.41-.84-.61-1.27-.1-.21-.19-.42-.28-.64-.31-.67.59,1.54.16.36a42.68,42.68,0,0,1-1.65-5.33c-.2-.85-.37-1.7-.5-2.57-.24-1.5.12,1.2,0,.11-.06-.58-.12-1.16-.17-1.74a42.47,42.47,0,0,1-.05-5.41c.05-.88.13-1.75.23-2.62.11-1-.08.55-.09.62,0-.23.07-.46.1-.69.09-.52.18-1,.28-1.56a42,42,0,0,1,1.44-5.42c.28-.84.6-1.65.92-2.47.16-.43.53-.82-.23.53.11-.2.19-.44.29-.64.19-.43.39-.85.6-1.27a40.85,40.85,0,0,1,2.82-4.83q.39-.58.81-1.14c.14-.19.29-.37.42-.56-.05.07-1,1.22-.34.44s1.19-1.43,1.83-2.11,1.3-1.34,2-2,1.53-1.17,2.16-1.84c-.07.07-1.25.91-.41.32l.59-.43c.35-.25.7-.49,1.06-.72.85-.57,1.74-1.1,2.64-1.6s1.61-.85,2.43-1.23l.66-.3c.73-.34-1.25.51-.5.21.51-.2,1-.4,1.53-.59a43,43,0,0,1,5.59-1.61c.89-.19,1.79-.33,2.69-.48.7-.12-.86.1-.78.1.25,0,.49-.06.73-.09.54-.06,1.09-.11,1.63-.15a43.93,43.93,0,0,1,5.85,0c.91.05,1.81.14,2.72.24s-.51-.06-.59-.08c.23.05.48.07.72.11.54.09,1.08.19,1.61.3,1.91.38,3.78.92,5.64,1.47.87.25,1.73.54,2.58.85.46.17.9.37,1.35.53-.1,0-1.36-.6-.43-.18l.66.3a22.66,22.66,0,0,0,3.79,1.32,35.24,35.24,0,0,0,3.56.4,4.08,4.08,0,0,0,3.61-2.07,4.31,4.31,0,0,0,0-4.22,14,14,0,0,0-5.26-5.89,46.57,46.57,0,0,0-6.7-3.17A42.22,42.22,0,0,0,315,315.05a48.84,48.84,0,0,0-26.32,6.14c-15.48,8.75-24.51,27.15-22.83,44.77a44.34,44.34,0,0,0,10.39,25,47.14,47.14,0,0,0,21.56,14,41.83,41.83,0,0,0,25.69,0,59.83,59.83,0,0,0,14.06-7.19,68.31,68.31,0,0,0,11.77-9.6A41.58,41.58,0,0,0,358.13,375c2.17-5.38,2.16-11.1,1.3-16.75a47.75,47.75,0,0,0-5.23-15,65.52,65.52,0,0,0-9.59-12.89c-1.68-1.88-3.41-3.71-5.14-5.54a4.44,4.44,0,0,0-7,5.37Z" transform="translate(-89.19 -125.85)"/><path class="cls-6" d="M350,352.8a20.74,20.74,0,0,0-7.83-10.25,12.17,12.17,0,0,0-3.92-9.31,12.7,12.7,0,0,0-4.37-2.66A9.49,9.49,0,0,0,330,327.9c-13.6-5.16-31.45-4-44.2,3.15-7.25,4.1-12,12.5-7.9,20.54.16.31.37.57.55.87a19.24,19.24,0,0,0-1.41,2.31c-3.14,6-3.79,13.63,0,19.47a30.34,30.34,0,0,0,8.83,13.6c8.6,7.4,19.74,10.32,31,10,10-.25,23.38-3.69,25.08-15.55a13.62,13.62,0,0,0,.14-2A34.87,34.87,0,0,0,350,368.22,22.69,22.69,0,0,0,350,352.8Z" transform="translate(-89.19 -125.85)"/><path class="cls-8" d="M341.8,340.66a16.75,16.75,0,0,0-1.44-3.63,8.39,8.39,0,0,0-.77-1.25,19.26,19.26,0,0,0-2.41-2.93,20.9,20.9,0,0,0-5-3.41,23.56,23.56,0,0,0-5.67-2,28,28,0,0,0-4.19-.5,23.66,23.66,0,0,0-4.3.44,16.56,16.56,0,0,0-9.61,5.43,20.48,20.48,0,0,0-3.91,6.69,14.62,14.62,0,0,0-.19,7.6,13.27,13.27,0,0,0,2.7,5.66,17,17,0,0,0,4.54,3.89A21.37,21.37,0,0,0,327.21,359a27.39,27.39,0,0,0,5.86-2.12c.71-.32,1.4-.67,2.1-1a8.7,8.7,0,0,0,3.41-3.12,9.59,9.59,0,0,0,2-2.37,12.81,12.81,0,0,0,1.62-5.89A13.67,13.67,0,0,0,341.8,340.66Z" transform="translate(-89.19 -125.85)"/><path class="cls-6" d="M518,289.09a18.88,18.88,0,0,1,2.21-1.42c.38-.21.76-.41,1.15-.6s1.92-.85.68-.33h-2.35c2.16.55,3.51-.33,5.17-1.39.92-.6,1.88-1.15,2.85-1.67s1.86-1,2.81-1.41c.49-.23,1-.44,1.48-.66,1-.46-.75.29-.08,0l1.07-.44a116.59,116.59,0,0,1,13.32-4.26q3.39-.9,6.82-1.57c1-.2,2.07-.39,3.12-.56l1.51-.23c.18,0,.41,0,.59-.09-1.4.37-.17,0,.21,0a60.16,60.16,0,0,1,14.13-.07c-.1,0,1.36.17.74.08s.83.13.74.12c.74.11,1.48.24,2.22.38q2.43.45,4.83,1.11a88.23,88.23,0,0,1,8.79,3l1.06.43c1.35.54-.39-.18.4.16l2.08.92q2.18,1,4.3,2.07c2.57,1.29,5.1,2.68,7.58,4.14a146.4,146.4,0,0,1,13.27,8.78c1,.77,2.07,1.56,3.1,2.35-.87-.67.15.12.27.22l.61.48,1.82,1.46c2.11,1.72,4.17,3.5,6.19,5.32a195.75,195.75,0,0,1,22.19,23.77c.41.52.82,1,1.22,1.55l.49.63c-.66-.85.15.19.23.31.8,1,1.6,2.1,2.38,3.17,1.65,2.24,3.27,4.51,4.84,6.8,3.13,4.55,6.11,9.21,9,13.94,5.7,9.48,10.87,19.27,15.6,29.27l1.65,3.53.95,2.1.55,1.26s.59,1.35.26.57a73.37,73.37,0,0,1,3.22,9.1c.4,1.46.75,3,1,4.44.06.3.1.6.15.9.25,1.47-.07-.91.07.57.08.83.16,1.66.19,2.5a32.49,32.49,0,0,1-.07,4.07c0,.32,0,.65-.08,1,0,0-.17,1.28-.06.53s-.09.5-.09.52c-.07.38-.14.76-.22,1.14a37.29,37.29,0,0,1-1,3.74c-.19.61-.4,1.22-.62,1.83l-.42,1.08c-.36.94.33-.69-.13.31a49,49,0,0,1-4,7.11c-.37.54-.76,1.06-1.14,1.59-.11.16-.54.71,0,0l-.74.91c-.86,1.06-1.77,2.08-2.72,3.06s-1.74,1.74-2.66,2.56c-.48.44-1,.86-1.46,1.27l-.9.73c-1,.81.8-.58-.34.27a68.67,68.67,0,0,1-7.63,4.9c-1.26.7-2.54,1.35-3.84,2-.65.31-1.3.62-2,.91l-.79.35-.8.34c.47-.19.44-.19-.07,0a133.2,133.2,0,0,1-16.89,5.39c-6.41,1.61-12.88,3-19.38,4.12-3.25.57-6.52,1.09-9.79,1.55l-1.44.2c.22,0,1-.13,0,0l-2.39.3c-1.76.21-3.52.39-5.27.59a217.41,217.41,0,0,1-32.66,1.47q-3.75-.15-7.48-.47c-1.22-.11-2.43-.23-3.64-.36l-1.63-.19-1.09-.14c-1.28-.16,1.26.18,0,0a134.44,134.44,0,0,1-14.9-3,111.76,111.76,0,0,1-13.84-4.62c-.11,0-1.2-.46-.34-.14s-.23-.1-.34-.15l-1.61-.71c-1.17-.54-2.33-1.1-3.47-1.69q-3.19-1.62-6.24-3.53c-2-1.27-3.89-2.74-5.87-4.07,1.23.82-.32-.25-.61-.49-.45-.36-.9-.74-1.35-1.12-1-.83-1.94-1.69-2.87-2.58a72.86,72.86,0,0,1-5.13-5.41,30.34,30.34,0,0,1-2.28-2.78c.08.12.65.86.12.14l-.61-.8c-.43-.59-.86-1.19-1.28-1.8a71.9,71.9,0,0,1-4.33-7.15c-.63-1.16-1.22-2.35-1.78-3.55-.14-.29-.26-.6-.42-.89-.35-.69.39,1-.07-.18-.29-.74-.59-1.47-.87-2.22a96.55,96.55,0,0,1-4.34-15.85c-.25-1.33-.48-2.67-.69-4-.11-.67-.2-1.34-.3-2,.17,1.17,0-.19,0-.35l-.15-1.22q-.5-4.28-.72-8.58c-.3-5.62-.28-11.25,0-16.87q.39-8.76,1.47-17.46c0-.36.09-.73.14-1.1,0,.05.18-1.39.09-.68s.1-.74.09-.69c.06-.36.11-.73.16-1.1.23-1.53.48-3.06.76-4.59.54-3,1.18-6.07,1.93-9.07s1.62-5.93,2.63-8.83c.48-1.38,1-2.74,1.53-4.1l.33-.81c-.39.95.17-.38.2-.46.33-.74.66-1.47,1-2.19a78.56,78.56,0,0,1,8.14-13.36c.52-.7,0,0-.07.08.23-.29.46-.59.7-.88l1.19-1.47c.86-1,1.74-2,2.65-3q2.69-3,5.63-5.67c1-.88,1.93-1.73,2.93-2.57l1.51-1.22c1-.81-.79.58.25-.19l.92-.69c2.11-1.54,4.18-3.18,6.41-4.56a33.92,33.92,0,0,1,3.16-1.66c.53-.25,1.05-.5,1.59-.73-.14.06-.8.33-.06,0l1-.37c1-.39,2-.78,3-1.09.52-.16,1-.31,1.56-.44a7,7,0,0,0,.79-.18c.91-.33-.7,0,.26-.11A3.76,3.76,0,0,0,542.4,274c0-1.84-1.68-3.84-3.67-3.66a42.22,42.22,0,0,0-7.83,1,41.51,41.51,0,0,0-7.54,3.06c1.14-.59-1.28.6-1.65.79-.55.28-1.1.57-1.64.87a34.18,34.18,0,0,0-3.68,2.29,85.17,85.17,0,0,0-7.11,5.76,86.68,86.68,0,0,0-20,26.21c-5.77,11.95-8.62,24.85-10.28,37.93a196.17,196.17,0,0,0-1.54,35.43c.64,11.85,2.58,23.77,6.89,34.86.24.62.49,1.24.74,1.85l.63,1.48c.5,1.22-.33-.88.13.36.61,1.61,1.35,3.19,2.1,4.75a74.53,74.53,0,0,0,4,7.33,73.13,73.13,0,0,0,10.39,13c15,14.86,35.44,22.56,56.06,25.45a175.68,175.68,0,0,0,32.17,1.5c6.38-.28,12.78-.81,19.1-1.68-1.49.21,1-.13,1.44-.19l1-.13,2.62-.38q2.63-.39,5.24-.83,5.12-.87,10.19-1.91c12.79-2.64,25.67-5.9,37.69-11.07,11.35-4.87,21.56-12.23,28.49-22.59a45.76,45.76,0,0,0,6.8-15.81,43.5,43.5,0,0,0-.52-19.49c-1.63-6.56-4.48-12.77-7.33-18.86q-3.64-7.77-7.65-15.37c-10.69-20.23-23.5-39.55-39.17-56.28-15.84-16.93-35.06-31.44-56.92-39.57-10.78-4-22.36-6.19-33.85-5a96.46,96.46,0,0,0-29.16,7.57,61.58,61.58,0,0,0-5.84,3c-.86.5-1.71,1-2.53,1.59-1.94,1.31-3.58,2.57-3.71,5.16l1.29-3.12a27.46,27.46,0,0,0-3.75,5.73,3.05,3.05,0,0,0,.46,3.55,2.93,2.93,0,0,0,3.55.46Z" transform="translate(-89.19 -125.85)"/><path class="cls-6" d="M526.5,330.24c-3.45,3.66-6.9,7.32-10,11.28a52.2,52.2,0,0,0-8.17,15A39.86,39.86,0,0,0,506,372.16a29.54,29.54,0,0,0,5.6,15.32A67.9,67.9,0,0,0,534.79,407a43.55,43.55,0,0,0,27.73,4.72c17.18-2.87,32.39-16.1,36.51-33.18s-1.71-36.7-15.59-47.71a48.37,48.37,0,0,0-26.22-10.26c-8.91-.78-18.68.86-26.35,5.63a14.21,14.21,0,0,0-5.26,5.9,4.29,4.29,0,0,0,0,4.22,4.1,4.1,0,0,0,3.61,2.07,27.9,27.9,0,0,0,3.56-.41,26.51,26.51,0,0,0,3.79-1.31l.66-.3c.44-.21.81-.11-.43.17a11.48,11.48,0,0,0,1.18-.46c1-.36,1.93-.68,2.92-1,1.87-.54,3.74-1.08,5.64-1.45.42-.09.84-.16,1.26-.23l.72-.12c.82-.14-1.42.17-.6.08,1-.12,2.06-.22,3.1-.28a46.31,46.31,0,0,1,5.65.05c.49,0,1,.08,1.46.14l.72.08c.71.07-.85-.12-.77-.11,1,.21,2,.34,3,.56a40.05,40.05,0,0,1,5.58,1.63c.4.14.8.3,1.19.45,1,.39-.42-.17-.5-.21.21.11.45.2.66.3.94.43,1.86.89,2.76,1.39s1.57.91,2.33,1.41l1.21.82.59.43c.68.49-.23-.16-.41-.32,1.41,1.26,2.85,2.43,4.15,3.81.63.69,1.24,1.4,1.83,2.12s-.83-1.12,0,0c.31.42.61.85.91,1.28a41,41,0,0,1,2.82,4.84q.32.63.6,1.26c.1.21.18.44.29.64s-.54-1.32-.29-.69c.36.93.72,1.85,1,2.8a42.07,42.07,0,0,1,1.42,5.43c.08.4.15.8.22,1.21,0,.23.07.46.1.69.13.8-.17-1.43-.08-.62s.2,1.86.25,2.79a41.72,41.72,0,0,1-.07,5.59c0,.47-.08.93-.13,1.39-.16,1.38.19-1.2,0-.1s-.34,1.94-.57,2.91a45.52,45.52,0,0,1-1.67,5.32c-.23.64.32-.75.29-.68s-.18.43-.28.64c-.19.43-.39.85-.6,1.27-.42.82-.86,1.63-1.34,2.42s-1,1.56-1.51,2.31c-.29.4-1.29,1.58-.06.12-.3.35-.58.72-.87,1.07a40,40,0,0,1-3.86,3.95l-1.05.9c-.37.31-1.64,1.19-.09.1-.76.53-1.49,1.09-2.26,1.6a43,43,0,0,1-4.82,2.73l-1.25.58c-1,.45,1.42-.57.05,0-.92.37-1.84.7-2.77,1a41.54,41.54,0,0,1-5.36,1.33l-1.2.19c-.79.13,1.42-.23.63-.08s-2.78.37-1.34.18c1.11-.16-.25,0-.55.05-.51.05-1,.09-1.55.12a37.27,37.27,0,0,1-5.49-.08c-.21,0-1.87-.22-.75-.07s-.31,0-.59-.1c-1-.17-2-.39-2.92-.64s-2.09-.6-3.11-1c-.55-.19-1.08-.4-1.62-.61-.33-.13-.9-.17.13.06a5.11,5.11,0,0,1-.8-.35,43.23,43.23,0,0,1-6.13-3.33c-1-.64-1.93-1.31-2.87-2l-.7-.52-.14-.11-.28-.22-.79-.64a56.22,56.22,0,0,1-4.82-4.43q-.57-.6-1.11-1.2a7.47,7.47,0,0,1-.53-.62s.59.82.22.31c-.66-.93-1.31-1.88-1.88-2.87s-1-1.78-1.4-2.69c-.35-.71.39,1,.12.28-.09-.25-.2-.5-.29-.75-.21-.59-.4-1.18-.57-1.78s-.25-1-.36-1.46c-.06-.28-.11-.56-.16-.84s-.31-1.13-.06-.24c.34,1.21-.13-1-.11-.85,0-.4-.13-.83-.17-1.24.18,1.87,0-.44,0-.91a31.42,31.42,0,0,1,0-3.22c0-.5.06-1,.1-1.5l.09-.86c.14-1.43-.18.95,0,.12a48.69,48.69,0,0,1,1.68-6.73c.19-.55.39-1.09.6-1.63,0-.12.26-.49.24-.6.08.42-.42.95-.1.22.52-1.16,1.06-2.3,1.65-3.42,2.17-4.13,4.47-8.21,7-12.15,1.28-2,2.6-3.95,3.92-5.92a4.44,4.44,0,0,0-7-5.37Z" transform="translate(-89.19 -125.85)"/><path class="cls-6" d="M516,358.23A20.71,20.71,0,0,1,523.79,348a12.2,12.2,0,0,1,3.92-9.32,13,13,0,0,1,4.37-2.66,9.47,9.47,0,0,1,3.85-2.67c13.6-5.17,31.45-4,44.2,3.15,7.25,4.09,12,12.49,7.9,20.54-.16.31-.38.57-.55.86a20.19,20.19,0,0,1,1.41,2.32c3.14,6,3.79,13.63,0,19.47a30.4,30.4,0,0,1-8.83,13.6c-8.6,7.4-19.74,10.31-31,10-10-.24-23.39-3.69-25.08-15.54a13.76,13.76,0,0,1-.14-2A34.92,34.92,0,0,1,516,373.66,22.72,22.72,0,0,1,516,358.23Z" transform="translate(-89.19 -125.85)"/><path class="cls-8" d="M523.76,349.87a12.74,12.74,0,0,0,1.62,5.88,9.41,9.41,0,0,0,2,2.37,8.66,8.66,0,0,0,3.41,3.13c.7.35,1.39.69,2.1,1a26.89,26.89,0,0,0,5.86,2.13,21.45,21.45,0,0,0,5.82.54,21.24,21.24,0,0,0,9.83-2.87,17.2,17.2,0,0,0,4.54-3.9,13.29,13.29,0,0,0,2.7-5.65,14.62,14.62,0,0,0-.19-7.6,20.53,20.53,0,0,0-3.91-6.7,16.54,16.54,0,0,0-9.61-5.42,23.69,23.69,0,0,0-4.31-.45,29.45,29.45,0,0,0-4.18.51,23.14,23.14,0,0,0-5.67,2,20.43,20.43,0,0,0-5,3.41,18.71,18.71,0,0,0-2.41,2.92,8.93,8.93,0,0,0-.77,1.25,16.83,16.83,0,0,0-1.44,3.64A13.63,13.63,0,0,0,523.76,349.87Z" transform="translate(-89.19 -125.85)"/><path class="cls-9" d="M385.19,774c-25.27-19.74-53.4-51.23-68-84.39-8.46-19.17-14.91-40.26-26.55-56.35l37.65,11.62c7.18,7.08,11.25,14.47,16.74,23.73,17.14,28.88,51.24,54.23,59.77,89.06a41.85,41.85,0,0,0-10.41,7.92C391.09,769.27,386.68,771.13,385.19,774Z" transform="translate(-89.19 -125.85)"/><path class="cls-6" d="M386.38,772.83a270,270,0,0,1-54.57-64.57c-14.86-24.59-20.57-53.78-37.08-77.39l-5.38,7c6,1.84,11.91,3.73,17.86,5.6l12.77,4c2,.64,5,1,6.85,2.15-1.82-1.14.36,1.33.73,1.76q1.92,2.18,3.61,4.53c2.32,3.22,4.37,6.64,6.38,10.06a195.46,195.46,0,0,0,11.61,17.94c8.54,11.43,18.15,22,27,33.13,10.07,12.61,19.17,26.31,23.13,42.13l2.6-6.38a61.33,61.33,0,0,0-12.17,9.34c-3.68,3.58-7.48,5.51-9.32,10.57-1.74,4.81,4.91,8,8.23,4.79,2.76-2.69,6.4-4.5,9.18-7.27a48.68,48.68,0,0,1,9.78-7.67,5.79,5.79,0,0,0,2.6-6.39c-7.72-29.58-30.84-50.94-49.37-74-9.48-11.8-15.75-25.87-25.71-37.23a16.56,16.56,0,0,0-8.63-5.77L315,635.67c-7.69-2.33-15.39-4.63-23.07-7-3.74-1.16-7.84,3.57-5.38,7,8.64,12,14.22,25.7,19.78,39.31s11.54,27.16,19.56,39.72c15.32,24,35.48,44.14,58.51,60.75C385.88,776.57,387.82,774.07,386.38,772.83Z" transform="translate(-89.19 -125.85)"/><path class="cls-9" d="M472.83,774c23-18.18,51.49-51,65.12-82.07,7.88-17.94,20-48,30.67-63l-37,10.95c-6.55,6.56-13.3,23-18.37,31.67-15.82,27-53.44,53.78-61.62,86.52,2.25,1.45,8.42,4.09,11.52,7.87C466.06,769.52,471.54,771.26,472.83,774Z" transform="translate(-89.19 -125.85)"/><path class="cls-6" d="M473.6,775.35c24.58-18.16,45.89-41.33,61-68,14-24.64,21.29-52.92,37.82-76.2,2.26-3.19-1.48-7.45-4.95-6.44L546.09,631l-12.73,3.7a13.25,13.25,0,0,0-7.84,5.47c-8.84,11.64-13.35,25.92-22.1,37.68-9.33,12.53-20.62,23.49-30.78,35.33-11.05,12.88-21.55,26.93-26,43.58a5.32,5.32,0,0,0,2.39,5.87c3.68,2.25,7.37,4,10.42,7.11s7.35,4.57,10.17,7.5c3,3.1,9.23-.07,7.58-4.41-2-5.21-6.56-6.85-10.3-10.54s-8.12-5.95-12.62-8.64l2.39,5.87c7.44-28.84,33.21-49,50.94-71.55,8.94-11.36,14.34-24.06,21.47-36.49,1.51-2.63,3.56-5,5.07-7.54,0,0-1.91.79-.79.25a9.71,9.71,0,0,1,1.42-.43l10.9-3.28,24.11-7.26-4.95-6.43C549,649.57,542,677,529,701.3a243.69,243.69,0,0,1-26.71,39.32c-9.42,11.48-19.25,22.59-30.53,32.3C470.43,774.05,472.19,776.39,473.6,775.35Z" transform="translate(-89.19 -125.85)"/><path class="cls-10" d="M420.94,752.49c-51.66,11.09-49.33,53.83-42.47,71.12S401.64,854.19,420,857c21,3.26,43.49-7.7,53.87-26.25a53,53,0,0,0-50.26-78.57A54.85,54.85,0,0,0,378.82,783" transform="translate(-89.19 -125.85)"/><path class="cls-6" d="M420.72,751.67c-22.7,4-42.76,16.8-47.82,40.47-4.32,20.21,2,41.09,17.6,54.93,23.3,20.69,59.22,18.72,80.54-4.05,23.21-24.8,17.62-65.69-9.5-85.06-28.64-20.45-74-10.52-86.13,24.11-1.37,3.92,4.38,6,6.46,2.73,14.53-22.68,42-35.31,67.34-22s34,46.83,17.28,70.4c-15.95,22.48-48.07,26.57-69.38,9.37-13.67-11-20.33-28-18.8-45.35,2.09-23.7,21.26-37.95,42.86-43.85,1.08-.3.61-1.83-.45-1.65Z" transform="translate(-89.19 -125.85)"/><path class="cls-11" d="M400.6,822.61c-23-36.47,12.09-53.16,24.24-54A34.89,34.89,0,0,1,456,784.19a33.73,33.73,0,0,1-33.47,51.62,35.14,35.14,0,0,1-26.65-21.44,36.7,36.7,0,0,1,4.21-34.08" transform="translate(-89.19 -125.85)"/><path class="cls-6" d="M401.29,822.2c-6.48-12.34-9.55-27.51.89-38.6,5.6-6,14.41-10.73,22.66-11.45,18.78-1.63,34.7,15.75,31.74,34.17-2.65,16.54-19.85,28.23-36.21,23.91a30.3,30.3,0,0,1-20.12-17.77c-4-10-1.64-21,2.71-30.49,1.47-3.22-2.45-7-5.22-4-16,16.92-9.25,44.73,9.09,57,18,12,44.07,5.6,54.37-13.54,10.69-19.86,1-45.38-19.69-53.69-13.75-5.51-27.93-2-39,7.38-5.77,4.89-10.2,11.56-11.43,19.1-1.72,10.57,2.81,20.4,8.8,28.83a.8.8,0,0,0,1.38-.81Z" transform="translate(-89.19 -125.85)"/></svg>