<svg id="Layer_1" data-name="Layer 1" xmlns="http://www.w3.org/2000/svg" viewBox="0 0 373.21 465.18"><g id="Layer_1-2" data-name="Layer 1"><path d="M416.28,364.58l10.27,29.76-7.71-6.86,8.37,66.83s-.52,31.51-21.48,33.71C384.21,490.28,389,459.5,389,459.5s-41.49,10.89-54.9,53.68A71.69,71.69,0,0,0,336.78,537c5.85,19.76,26.9,42.35,56.46,40.79,43.2-2.29,56.06-51.92,56.19-52.78,2.19-15.07-9.45-15.69-33.59-12.89-9.77,1.13-19,1.15-25.33-1C381.19,508,377,501.88,377,501.88s-.32,15.31,13.11,19.93c9.5,3.27,15.45,5.82,18.13,7a1.94,1.94,0,0,1,1,2.45l-4.23,11a1.92,1.92,0,0,1-2.41,1.14c-5-1.69-19.54-6.26-27.32-5.12-9.49,1.39-27.39,15-27.39,15a39.75,39.75,0,0,1-3.43-4.74,42.7,42.7,0,0,1-2.89-5.29S356,531,371.18,524.87c0,0-2.81-11.33-2.37-21.38s.59-32.29.59-32.29l8.7-5.17s-.68,20.77,12.3,27.91c7.38,4.06,13.7,5,22,4.94,6.29-.06,13.3-1.56,21.61-1.6,19.28-.09,19.82,13.5,19.84,19.65,0,4.22-1.94,36.92-22.53,57.53-9.43,9.43-22.79,17.39-41.6,17-32-.58-50.54-19-57.41-39.79-4.09-12.41-3.16-25.66-.88-36.63,3.51-16.88,5.92-31,25.68-51.53,0,0-14.21-2.52-19.64-19.26A27,27,0,0,1,339,427.19c4-8.85,6.46-11.68,12.07-14.94,6.14-3.57,15.67-2.51,15.67-2.51l0,7.85s-20.32,4.17-23.91,10.21c-1.48,2.49-.14,16.41,16.71,20.65,16.46,4.14,40.84-5.47,47.37-8.56a.69.69,0,0,1,.93.89l-5.66,13.61-8.8,3.66s-2,13.45,10.36,14.47c11,.9,16.52-4.3,16.45-5.53-.21-3.22-10.36-86.82-10.36-86.82s.18-.73-.71-2.09-2.08-2.08-.45-6.41a76.14,76.14,0,0,1,4.31-9.09S414.55,360.41,416.28,364.58Z" transform="translate(-111.03 -188.36)" style="fill:#2b2b2b"/><path d="M393.48,417.17c4.59,1.38-4-4.48-13.6-6.3l.41,5.71S388.89,415.79,393.48,417.17Z" transform="translate(-111.03 -188.36)" style="fill:#2b2b2b"/><path d="M368.47,447.58l10.19-.87s.06-68.31-5.46-101.38a.43.43,0,0,0-.82-.12c-1.74,3.59-6.71,14-6.75,15.37A668.18,668.18,0,0,1,368.47,447.58Z" transform="translate(-111.03 -188.36)" style="fill:#2b2b2b"/><path d="M316.91,566.64c-7.1,6.41-15.64,12.67-24.47,10.84-22-4.55-1.55-37.73-4-38.77s-30.36,53.29,7.26,56.4c10.08.83,20.15-9.75,28.15-18.41,6.47-7,11.79-12,11.79-12a22,22,0,0,1-2.85-5.16,36.19,36.19,0,0,1-2.19-6.25S324.44,559.84,316.91,566.64Z" transform="translate(-111.03 -188.36)" style="fill:#2b2b2b"/><path d="M277.35,525.8c9.07.29,20-4.08,20-4.08s1.72,2.42-.27,8.31l-6.46,10.74s-6.48,17.93-6,24c0,0,21.44-19.88,20.46-47.9,0,0,12.51-9.76,14.56-24.86s.74-14-.28-17.59-6.84-12-7.13-14.06l7.62,3.18A1,1,0,0,0,321,462l-14.8-20.75a.88.88,0,0,0-1.54.2L300,453.91a2.18,2.18,0,0,0,1,2.7l1.36.72s-.88,3.75,2.91,12.2,10.05,19.33,10,20.93S311,499.11,303,503.2c0,0-8.22-17.66-21.75-17.16s-16.55,17.71-16.72,22.9S262.24,525.3,277.35,525.8Zm1.17-24.36c7.9-.31,12.46,6.22,12.46,6.22s-14.38,5.35-21.64-.21C269.34,507.46,270.63,501.75,278.52,501.44Z" transform="translate(-111.03 -188.36)" style="fill:#2b2b2b"/><path d="M221.49,579c-25.61-1.68-18.14-39.45-18.14-39.45l-1.58.66s-12.1,53.66,21.89,55c28.32,1.14,49.9-20,49.9-20A77.41,77.41,0,0,1,277.35,555S254.08,581.14,221.49,579Z" transform="translate(-111.03 -188.36)" style="fill:#2b2b2b"/><path d="M265.92,442.27l14.2,6.25a2.23,2.23,0,0,0,2.89-1l5.21-10.18a1.79,1.79,0,0,0-.93-2.48l-13.91-5.61a1.89,1.89,0,0,0-2.32.76l-6,9.62A1.85,1.85,0,0,0,265.92,442.27Z" transform="translate(-111.03 -188.36)" style="fill:#2b2b2b"/><path d="M206.58,563.93s33.77-19.77,35.34-47.6c1.11-19.72-10.61-31.16-10.61-31.16s7.39,3.79,8,3.19-13.74-18.42-17.47-23.08a.8.8,0,0,0-1.38.23L216.55,476a1.77,1.77,0,0,0,0,1.18,17.41,17.41,0,0,0,2.18,4.58c1.1,1.17,3.83,10.62,6.48,14.39a184.35,184.35,0,0,1,11.26,20.08c.52,1.58-7.23,15.88-32.06,31.52C204.38,547.77,204.36,561.59,206.58,563.93Z" transform="translate(-111.03 -188.36)" style="fill:#2b2b2b"/><path d="M197.67,552.62c-32,22.12-86.64,40.65-86.64,40.65,6.68,1.07,32.47,1.43,44.59-1.95S197.44,570,197.44,570C196.7,566.66,197.67,552.62,197.67,552.62Z" transform="translate(-111.03 -188.36)" style="fill:#2b2b2b"/><path d="M329.59,375.49c-2.22-2.45-8.38,3-9.86,7.33s4.48,7,4.48,7C315,399.76,291.92,407,291.92,407c19,.36,33.46-17,33.46-17a3.92,3.92,0,0,0,2.75,2.31c2.27.68.26-5.33.26-5.33C330.79,383.21,331.82,377.94,329.59,375.49Zm-2,10.92s-3.51-1.46-4.68-2.75,0-3.26,0-3.26a4.1,4.1,0,0,1,4.72-1.41C330.89,379.91,327.55,386.41,327.55,386.41Z" transform="translate(-111.03 -188.36)" style="fill:#2b2b2b"/><path d="M311,203.77c-4.65,14.72-10.26,36.61-9.4,54.37a155.43,155.43,0,0,0,3.61,26.69c1.83,8.86,3.28,15.85,1.37,28.52-3,19.86-17.59,38.45-40,51l-9.49,5.31H268c1,0,8.69-.37,22.8-10.28-10.91,14.61-30.53,36.4-58.41,50.22l-6.25,3.1,6.64,2.14a7,7,0,0,0,2.12.25c3.43,0,11-1.39,26.05-9.52-7.43,8.65-21.27,21.11-44.61,30.37l1.59,5.42.6-.1c4.37-.73,10.21-1.8,16.16-3.18C205,459.93,181.21,492.4,186.53,552.5c-6.82-25.79-12.51-63.55-1.75-98.92C195.92,417,211.49,394.63,228,371c1.67-2.4,3.35-4.8,5-7.24a381.11,381.11,0,0,0,25.8-41.89c5.93-11.4,8.3-21.63,10.82-32.46,1.39-6,2.83-12.17,4.95-19A163.71,163.71,0,0,1,281,253.18l0,0v-.07l0,0,0-.07c5.78-12.74,13.87-26.58,24.09-41.18l.31-.44c1.8-2.5,3.64-5,5.55-7.58m8.41-15.41Zm0,0h0l-.18.22-.12.15c-6,7.48-11.3,14.45-15.93,21l-.34.5c-8,11.46-17.38,26.28-24.33,41.6l-.11.24a163.32,163.32,0,0,0-6.54,17.47c-6,19.49-6.63,33.8-15.58,51a376.06,376.06,0,0,1-25.62,41.58c-18.34,26.56-36.2,49.89-48.6,90.64C163.16,515,194.27,584.42,194.78,585.48c-20.32-88.71,11.15-128.5,60-157.17-10.36,6.08-36.49,10.06-37.42,10.25,41-16.28,53.33-42,53.33-42-22.91,14.1-32.66,15.64-35.82,15.64a4.57,4.57,0,0,1-1.25-.12c46.24-22.93,69.79-66.7,69.79-66.7-23.2,21.29-35.22,21.39-35.44,21.39,21.31-11.92,38.08-30.81,41.44-53.05,3.45-22.86-3.61-27.85-5-55.76-1.38-28.66,14.74-69,15-69.64Z" transform="translate(-111.03 -188.36)" style="fill:#2b2b2b"/><path d="M302.86,210.19c-8,11.46-17.38,26.28-24.33,41.6C283.67,240.17,291.18,226.65,302.86,210.19Z" transform="translate(-111.03 -188.36)" style="fill:#2b2b2b"/><path d="M261.79,232c.22,11.12-5.21,29.67-5.54,30.77,1.24-9.55-1.3-23.72-1.3-23.72l-21,24.6c3.28,22.39-1.48,57.13-1.48,57.13-.37-16.47-6.74-36.08-6.74-36.08-8.57,40.34-77.26,61.22-83.4,124.45-5.67,58.49,26.53,80.9,26.53,80.9,7.12-108.94,77.2-140.6,103-220.58,1.09-3.37,2.21-7.09,3.82-11.11.85-2.12,1.76-4.25,2.72-6.36a1.28,1.28,0,0,1,.11-.24c6.95-15.32,16.31-30.14,24.33-41.6l.34-.5c7.92-11.27,14.43-19.18,15.93-21l.12-.15.18-.22C302.85,198.72,261.79,232,261.79,232ZM161.9,463.72C123,387.86,203.63,340.49,203.63,340.49,140.94,397.39,161.9,463.72,161.9,463.72Z" transform="translate(-111.03 -188.36)" style="fill:#2b2b2b"/><path d="M209.45,604.88c18.52,15.6,53.43,37.7,102.47,37.7,3.81,0,7.69-.14,11.54-.41a244.18,244.18,0,0,0,93.89-26.08,164.58,164.58,0,0,1-18.64,12.36,169.54,169.54,0,0,1-71.89,21.68c-5.1.38-10.16.57-15,.57-33,0-60.7-8.52-82.33-25.34a103.94,103.94,0,0,1-20-20.48M198.74,591a.56.56,0,0,0-.51.8c6.21,13.11,34.55,61.7,113.54,61.7q7.34,0,15.25-.58c61.08-4.53,97.62-37.79,108.59-49.35a.62.62,0,0,0-.79-.94c-12.88,8.54-53.84,32.63-111.56,36.68-3.86.27-7.65.4-11.34.4-63.56,0-103.14-38.1-112.78-48.53a.53.53,0,0,0-.4-.18Z" transform="translate(-111.03 -188.36)" style="fill:#2b2b2b"/><path d="M420.16,345.56a1.3,1.3,0,0,0-2.15.54l-4,13.09a2.25,2.25,0,0,0,.76,2.41l1.05.83c24.4,19.85,88.53,94.23,38.4,220.49-.23.73.69,1.16,1,.45C474.33,557.45,524.73,449.13,420.16,345.56Z" transform="translate(-111.03 -188.36)" style="fill:#2b2b2b"/><path d="M340.31,347.08c-4.46-11.61-11.85-19.74-5.36-25.1,3.17,8.33,14.93-1,5.65-5.55-6.1-3-17.44,4.71-11.31,19.94C332.36,344,337,346.89,337,357.7c0,0-12.36-20.6-16.76-6-1.23,4.1,2,5.1,3,4.34,5.89-4.44,11.59,1.12,12.79,13.61a1.11,1.11,0,0,0,2,.54A25.67,25.67,0,0,0,340.31,347.08Z" transform="translate(-111.03 -188.36)" style="fill:#2b2b2b"/></g></svg>