<svg id="Layer_1" data-name="Layer 1" xmlns="http://www.w3.org/2000/svg" viewBox="0 0 699.62 954.72"><defs><style>.cls-1,.cls-7{fill:#3c3c3b;}.cls-1,.cls-13,.cls-2,.cls-3,.cls-4,.cls-7,.cls-8{stroke:#1d1d1b;stroke-miterlimit:10;}.cls-1,.cls-2{stroke-width:7px;}.cls-12,.cls-2,.cls-8{fill:#fff;}.cls-13,.cls-3{fill:#6e2e2b;}.cls-3{stroke-width:7.56px;}.cls-14,.cls-4{fill:#d5664d;}.cls-4{stroke-width:8px;}.cls-5{fill:#944b3f;}.cls-6{fill:#4a2213;}.cls-7{stroke-width:10px;}.cls-8{stroke-width:9px;}.cls-9{fill:#252321;}.cls-10{fill:#706f6f;}.cls-11{fill:#1d1d1b;}.cls-13{stroke-width:6.11px;}</style></defs><title>دب الباندا ويده في حقيبته</title><path class="cls-1" d="M454.25,973.14c-.95,25.47-1.91,45.46-3.1,63.11-.45,6.73-1.15,16.2,4.94,23.64,6.31,7.72,16.58,9.14,21.65,9.45q108.36,15.81,113.94-4.87,2.07-7.67-10-20.34a111.06,111.06,0,0,0-13.47-10.52,102.62,102.62,0,0,0-17.32-9.28,472.38,472.38,0,0,0,34.29-66c30-70.88,38.19-137.48,39.94-183.68C617,811.49,473.53,964.48,454.25,973.14Z" transform="translate(-90.51 -124.97)"/><path class="cls-1" d="M395.68,973.14c.66,27,1.64,47,2.89,63.45.48,6.41,1.28,15.88-4.72,23.3-6.25,7.73-16.55,9.14-21.66,9.45q-108.35,15.81-113.93-4.87-2.07-7.67,10-20.34a111.69,111.69,0,0,1,13.46-10.52,103.05,103.05,0,0,1,17.33-9.28,471.31,471.31,0,0,1-34.29-66c-30-70.88-38.19-137.48-39.94-183.68C232.89,811.49,376.41,964.48,395.68,973.14Z" transform="translate(-90.51 -124.97)"/><ellipse class="cls-2" cx="335.55" cy="630.28" rx="200.17" ry="224.11"/><path class="cls-3" d="M594.71,559.25c-12.16,36.25-41.1,86.93-73.21,136.12-29.83,45.7-70.55,67.17-96.12,90.49-.05,1.7,9.13,21.72,14.56,28.28a19.62,19.62,0,0,0,21,6.31,246.84,246.84,0,0,0,57.27-45.37,273.49,273.49,0,0,0,38.92-53.49c36.64-63.9,47.11-138.58,50.48-171.26Z" transform="translate(-90.51 -124.97)"/><path class="cls-1" d="M604.13,613.44c11.62,10.79,41.46,41.42,49.67,90.15,6.39,37.9-3.55,67.44-9.43,84.92C627.93,837.37,597.91,865,583,878.3c-18.41,16.49-35.62,31.49-56,27.72-19.23-3.56-29.21-20.92-29.7-21.81-7.83-14.13-4.87-28.17-3.16-36.31,4.67-22.18,19.37-35.78,25.57-40.89a270.58,270.58,0,0,0,64-182.51Z" transform="translate(-90.51 -124.97)"/><path class="cls-4" d="M460.74,816.31a290.22,290.22,0,0,1-14.28,156.9c-4,10.45-11.19,16.41-18.68,21.19a48.17,48.17,0,0,1-23.73,7.44A337.81,337.81,0,0,1,302.78,996c-44.82-9.54-71-19.47-78-40.1-6.56-19.13,8.72-35.43,23.81-66.24,13-26.65,27.45-67.23,29.5-125Z" transform="translate(-90.51 -124.97)"/><path class="cls-1" d="M267.48,624.5c-13.72-4.16-31.57-6.8-49.62-.77-54,18-82.29,104.43-59.25,166.46,12.07,32.51,35,51.45,61.45,71.19,19,14.14,38.29,28.11,61.77,23.93,3.22-.57,20.93-3.7,31.61-18.93,9.23-13.16,7.81-27.08,7-35.16-2-20-14-33.51-20.86-41.87-39.39-47.68-59.09-71.52-62.32-94.48C235,679.23,238.81,656,267.48,624.5Z" transform="translate(-90.51 -124.97)"/><path class="cls-5" d="M463,866.56c-.5-2.87,3.74-19.18.37-19.67-8-1.14-22.12,11-29.9,8.9a7.74,7.74,0,0,0-5.72.45c-.24-.19-.5-.37-.74-.58-5-4.26-11.35,1.33-10.91,6.77a11.3,11.3,0,0,1,0,2.25A37.44,37.44,0,0,0,406,870.19a23.72,23.72,0,0,0-4.26,4.71,6,6,0,0,0-5.35,4.31,108.67,108.67,0,0,0-4.55,32.66,7,7,0,0,0-1.69,2.54c-4.67,12.12-2.38,24.4,1.35,36.27-.14,14.05.3,27.87,7.81,40.4-2.95,4.37-.15,11.78,6.66,10.87,16.11-2.16,29.77-12.92,37.57-26.93,5.42-9.74,8-20.55,8.63-31.55,6-23,3.44-36.5,9.34-59.45C462,882,462.4,871.67,463,866.56Z" transform="translate(-90.51 -124.97)"/><path class="cls-6" d="M461.11,831.86c-1.09-1.89-6.57-2.47-7.55.24-.42,1.16-.87,2.34-1.4,3.47-5.39-.79-11.78,2.21-16.71,3-7.79,1.33-15.54,1.3-23-1.38a4.85,4.85,0,0,0-6.08,2.08,20.92,20.92,0,0,0-8-4.45c-3.55-1.07-8.41,2.56-6.08,6.48.7,1.17,1.43,2.27,2.2,3.32a287.55,287.55,0,0,1-42.66-20.19c-12.95-7.49-30.66-18.7-40-26,.08,7.64,8.06,16.29,6.73,23-1.25,6.39,9,4,19.27,8.47,20,8.67,17.17,16.51,22.29,24.17.32.48,4.18,12.13,5.09,11.11s2.47,4.88,5.5,4.59c2.4-.23,4.33,2,6.55,1.29,1.22,1.38,2.28,3.68,4.22,4.09.4.09,5-.22,5.38-.17,2.7.93,2.35-2.23,5.13-2.16,4.15.83,10.15,1.29,15.21-1.87,8.11-5.08,7.15-15.34,13.52-16.72,4.68-1,7.27,4.08,16.29,4.18a25,25,0,0,0,6.67-.84c2.65.61,19-10.95,18.7-14.1C461.89,838,462.84,834.85,461.11,831.86Z" transform="translate(-90.51 -124.97)"/><path class="cls-7" d="M652.43,366.89a8.73,8.73,0,0,0,7.9,3.44c16.2-1.6,52.46-8.09,83.84-37.71a142.05,142.05,0,0,0,38.69-63.92c.07-.23.12-.45.17-.69,3.3-15.08,6.19-43.59-20.22-76.43s-64.09-35.59-70-35.92a133.73,133.73,0,0,0-71.16,17.61C585.81,194,569.93,225.79,564,240.66a9.68,9.68,0,0,0,1.07,9.42Q608.73,308.49,652.43,366.89Z" transform="translate(-90.51 -124.97)"/><path class="cls-7" d="M321.73,225.23a9,9,0,0,0,.59-9c-18.78-39.4-66.8-69-66.8-69-12.54-7-22.05-12.29-36.37-15.21a110.64,110.64,0,0,0-41-.24c-5.54.91-14.95,2.39-24.95,6.85-13.87,6.18-29.56,17.74-43.13,39.86-23,37.51-12.34,75.4-10.55,81.37a139.6,139.6,0,0,0,42.53,63.65c33.05,27.86,70,32.26,86.74,32.88a10.16,10.16,0,0,0,8.9-4.36Z" transform="translate(-90.51 -124.97)"/><path class="cls-8" d="M395.19,147.53C378.28,149.35,270,162.75,189.42,255c-11.76,13.47-118.9,139.55-70.33,252.28,22,51,66.18,76.85,97.47,95.14,77.92,45.55,154.35,43,219.55,40.8,61.06-2.05,142.56-5.81,221.45-58.38,30.13-20.08,60.45-40.29,78.54-78.54,45.94-97.17-33.75-212.07-45.4-228.34C626.48,188.21,511,135,395.19,147.53Z" transform="translate(-90.51 -124.97)"/><path class="cls-9" d="M385.14,496a18,18,0,0,1,2.45-8,17.35,17.35,0,0,1,2.3-2.64c4.36-4,13-7.1,37.17-7.1,0,0,38.12-1.47,46.43,8.06a12.87,12.87,0,0,1,3.27,7.87c.32,4.3-1.85,9.49-3.06,11.57-3,5.15-18.69,24.36-43.85,23.55-19-.62-30.94-12.27-35.76-17C394.09,512.37,385.18,503.67,385.14,496Z" transform="translate(-90.51 -124.97)"/><path class="cls-9" d="M342.82,546.7c2.08,1.33,4.21,2.58,6.37,3.78a35.57,35.57,0,0,1,3,1.94,24.12,24.12,0,0,0,3.23,1.68A125.6,125.6,0,0,0,370,559.87a164,164,0,0,0,31.89,6.89c22,2.56,45,1.26,66.28-5.14a121.31,121.31,0,0,0,32.93-15.33l-4.54-4.54c-7.61,12-10.27,26.2-15.12,39.41a75.4,75.4,0,0,1-3.8,8.89c-.76,1.49-1.57,3-2.45,4.38-.44.71-.89,1.4-1.36,2.09-.24.35-.48.69-.73,1-.09.13-.67.91-.42.59A42.14,42.14,0,0,1,455.57,611l-.81.34-1.32.52q-1.44.54-2.88,1-2.73.9-5.5,1.6a117.09,117.09,0,0,1-11.59,2.33c-7.78,1.18-16.73,1.44-24.44-.37a46.06,46.06,0,0,1-5.86-1.79l-1.27-.5c.51.21-.36-.17-.5-.23-.89-.4-1.76-.83-2.61-1.28a53.62,53.62,0,0,1-4.66-2.79q-1.12-.75-2.22-1.56l-.46-.35c.45.34-.07-.05-.14-.1l-1.21-1a74.13,74.13,0,0,1-7.88-7.67c-1.23-1.38-2.4-2.81-3.55-4.26-.05-.06-.46-.59-.12-.14l-.36-.47c-.28-.37-.56-.74-.83-1.12q-.83-1.11-1.62-2.25c-9.5-13.56-16-29-25.41-42.57a14.69,14.69,0,0,0-2.34-2.87c-.78-.67-1.58-1.33-2.39-2a3.18,3.18,0,0,0-5,3.84c.43,1,.86,1.9,1.27,2.86a16.26,16.26,0,0,0,1.77,2.82c1.23,1.77,2.41,3.58,3.55,5.41,2.3,3.66,4.45,7.41,6.57,11.17,4.16,7.42,8.18,15,12.87,22.05,8.62,13.06,19.81,25.11,34.83,30.58,8.38,3.06,17.58,3.61,26.41,2.83A102.61,102.61,0,0,0,452.53,620c7.7-2.69,15.06-6.58,20.93-12.34a54.68,54.68,0,0,0,11.61-17.86c5.56-13.12,8.06-27.76,14.51-40.14q1.23-2.36,2.66-4.6c1.75-2.74-1.77-6.38-4.54-4.54-17.42,11.61-38.38,17.91-58.9,20.25a174.44,174.44,0,0,1-63.87-4.55c-5.42-1.43-10.8-3.13-16.05-5.09-1.25-.47-2.5-.95-3.73-1.46s-2.69-.85-4-1.33a57.44,57.44,0,0,1-7.23-3.52,1.07,1.07,0,0,0-1.08,1.84Z" transform="translate(-90.51 -124.97)"/><path class="cls-9" d="M396.62,590.35A84.91,84.91,0,0,0,421.7,594a91.57,91.57,0,0,0,25.14-3.9c2.24-.68,4.47-1.42,6.64-2.29,1.16-.46,2.3-1,3.43-1.51a3.84,3.84,0,0,0,2.4-2.17,1.13,1.13,0,0,0-.76-1.35c-1.74-.65-4,.82-5.61,1.42-1.93.71-3.84,1.43-5.8,2.05a92.42,92.42,0,0,1-11.72,2.9A106.63,106.63,0,0,1,411,590.25a83.07,83.07,0,0,1-13.78-1.9,1,1,0,0,0-.55,2Z" transform="translate(-90.51 -124.97)"/><path class="cls-10" d="M392.48,388.2c.27-1.69,3.27-4.44,3.08-6.27-.1-1.05-2.93-5-3-6.09,2.44-1.94.73-4.95.34-8.93-1.91-19.07-2.53-40.92-15-56.68-13.67-17.28-39-25-60-28.26-46.79-7.23-88.64,33.87-115.38,67.12-12.91,16.07-30.15,35.2-33,56.48-1.64,12.37,2.74,22.23,10.21,29.81a11.76,11.76,0,0,0,1,9c8.38,16.37,24.72,21.44,41.28,26.81,19.61,6.37,40,11.47,60.71,12.37s50.53-2.49,69.47-16.2a10.24,10.24,0,0,0,1.49-.59C386.29,450.81,396,420.79,392.48,388.2Z" transform="translate(-90.51 -124.97)"/><path class="cls-10" d="M697.12,451.27c.24-22.85-8.79-44.85-20.35-64.2C654,349,608.58,297.91,560.34,310.49a59.6,59.6,0,0,0-46.12,27.62c-24.66,38.13-36.49,98.84-3.39,135.32,35.16,38.74,93.62,41.67,140,28.32,11.86-3.42,23.86-10.3,34.49-16.67a18.39,18.39,0,0,0,6.53-7,20.07,20.07,0,0,0,7.31-8.75C701.81,463.21,700.4,456.76,697.12,451.27Z" transform="translate(-90.51 -124.97)"/><path class="cls-11" d="M372.4,305.68a27,27,0,0,0-2.92-6l.44,3.39a4.94,4.94,0,0,0-1.28-4.73c-.37-.38-.79-.71-1.19-1.05-1.07-.92-2.18-1.78-3.31-2.61a60.69,60.69,0,0,0-5.83-3.8,89.69,89.69,0,0,0-14.48-6.71c-9.37-3.41-19.24-5.8-29.27-5.71-13.28.12-26.41,3.5-38.67,8.43a162.3,162.3,0,0,0-30.72,16.38c-19,12.94-35.46,29.28-49.72,47.23a345,345,0,0,0-20.56,28.83C168.06,390,161.54,401.81,162.77,415c1.16,12.45,7.6,23.94,16.67,32.4,9.57,8.95,21.41,14.63,33.42,19.54,23.63,9.65,48.71,16.58,74.19,18.73,21.83,1.85,44.57-.12,64.5-9.79a74.7,74.7,0,0,0,25.26-19.69A95.62,95.62,0,0,0,393.54,425a148.42,148.42,0,0,0,6.3-34.47,178.17,178.17,0,0,0-.84-38.35,86.75,86.75,0,0,0-12.16-34.29,98.08,98.08,0,0,0-10.49-13.83,60.15,60.15,0,0,0-13.09-10.93c-1-.62-2-1.24-3.1-1.8-.62-.33-1.24-.65-1.88-.94-.43-.21-.88-.37-1.32-.57,1.38.62-1.61-.67-.94-.42a31.88,31.88,0,0,0-3.19-1c-.53-.13-1.07-.25-1.61-.36l-1-.17-1-.14c.45.09.45.08,0,0a3.75,3.75,0,0,0-4.51,2.56,3.7,3.7,0,0,0,2.56,4.5l.31.07c-.57-.31-.36-.24.61.21.2.08.41.14.62.21l.92.34c.7.26.12,0,0,0,1.13.48,2.22,1.06,3.3,1.62s2.05,1.1,3,1.71c.5.31,1,.63,1.5,1l.89.61c1,.67-.67-.56.26.19a97.14,97.14,0,0,1,11.59,11c.86,1,1.7,2,2.52,3,.41.5.81,1,1.2,1.52l.2.26.69.93c1.55,2.13,3,4.33,4.39,6.58s2.47,4.28,3.55,6.5c.24.5.47,1,.7,1.5.08.18.78,1.78.45,1,.64,1.52,1.22,3.08,1.76,4.64a84.84,84.84,0,0,1,2.54,9.11c.33,1.47.62,2.95.88,4.43.13.74.25,1.49.37,2.23.06.38.11.75.16,1.12s.07.45.1.68c-.07-.52-.07-.49,0,.08A159.75,159.75,0,0,1,391,374.3c0,5.81-.23,11.62-.7,17.41q-.33,4.08-.85,8.15c0,.27-.16,1.18,0,.13-.06.39-.11.79-.17,1.19-.09.66-.19,1.32-.3,2-.22,1.39-.45,2.76-.71,4.14a124.44,124.44,0,0,1-4.11,16.12c-.83,2.54-1.76,5.06-2.79,7.52.43-1-.08.17-.14.32l-.32.71c-.29.65-.59,1.3-.9,1.94-.59,1.23-1.2,2.45-1.85,3.64a63.31,63.31,0,0,1-4.3,6.92c-.38.53-.77,1.05-1.15,1.57-.78,1.05.6-.75-.21.27l-.48.61q-1.35,1.66-2.79,3.26a73.55,73.55,0,0,1-5.64,5.53c-.91.8-1.83,1.59-2.77,2.35-.28.22-.55.48-.85.67.11-.07.89-.67.17-.13s-1.15.86-1.74,1.28a77.3,77.3,0,0,1-13,7.43c-.28.12-2.12,1-.72.33-.53.25-1.11.45-1.66.67-1.22.49-2.46.94-3.71,1.37q-3.59,1.23-7.28,2.18c-2.47.63-5,1.19-7.49,1.67-1.21.22-2.42.43-3.63.62l-1.83.28c-1.24.18.95-.12.14,0l-1.29.16a139.39,139.39,0,0,1-15.69.95c-5.29,0-10.58-.21-15.85-.68q-3.85-.34-7.69-.85c-.36,0-1.26-.06.13,0-.37,0-.75-.1-1.12-.15l-1.85-.28c-1.3-.19-2.59-.4-3.88-.62a316.34,316.34,0,0,1-37.32-8.89q-9.47-2.85-18.74-6.32c-1.34-.51-2.68-1-4-1.56l-2-.82c-1.31-.54.85.39-.45-.2l-1.18-.53q-4.12-1.86-8.09-4a83.57,83.57,0,0,1-7.64-4.73c-.58-.41-1.16-.82-1.73-1.25-.07-.05-1.19-.91-.41-.3l-.67-.53q-1.83-1.47-3.56-3.07a53.22,53.22,0,0,1-5.79-6.31c.56.72,0,0-.13-.19s-.4-.54-.59-.82c-.39-.56-.77-1.12-1.14-1.69-.81-1.25-1.57-2.54-2.26-3.86-.32-.59-.62-1.2-.9-1.81-.15-.3-.28-.62-.42-.92-.35-.71.39,1-.08-.18a43.73,43.73,0,0,1-1.45-4.17,40,40,0,0,1-.92-3.89c-.06-.33-.1-.66-.16-1-.15-.78.1,1.14,0-.14-.08-.79-.16-1.58-.2-2.38a35.39,35.39,0,0,1,0-4l.06-.8c0-.15.19-1.48,0-.39.12-.86.28-1.72.47-2.57a39.75,39.75,0,0,1,1.16-4.18c.23-.69.48-1.37.74-2.05l.32-.81c.21-.51.22-.53,0-.08.11-.27.23-.54.35-.8a120.78,120.78,0,0,1,9-15.63q4.5-6.92,9.29-13.63c1.63-2.26,3.28-4.51,5-6.73l1.21-1.59c.14-.19.69-.9.12-.16l.61-.78c.86-1.1,1.73-2.2,2.6-3.29,3.49-4.34,7.11-8.59,10.87-12.71a223.28,223.28,0,0,1,24-22.91c1-.82,2-1.64,3.07-2.45.11-.09,1.15-.89.29-.23l.62-.48,1.89-1.41q3.3-2.46,6.71-4.76,6.81-4.59,14-8.53,3.6-2,7.31-3.76c1.17-.57,2.36-1.12,3.55-1.66l1.8-.8.9-.38c.3-.13.24-.11-.19.07l.73-.3a124.85,124.85,0,0,1,17.75-5.92c1.51-.37,3-.7,4.55-1,.76-.15,1.53-.28,2.29-.41l.92-.15c.15,0,1.81-.26,1.12-.17a64.32,64.32,0,0,1,9.71-.45q2.31.06,4.62.27l.92.1s1.56.19.63.07l1.34.2c1.93.33,3.83.75,5.72,1.23a107.41,107.41,0,0,1,13,4.22l1.62.65c.23.09,1.36.52.12,0l.8.35.8.35c.36.16,2.22.92,1.23.52l.38.16,1,.42c2.2,1,4.36,2,6.47,3.18,1.89,1,3.75,2.16,5.53,3.38l1.25.89c.85.63,0,.15,0,0a5.34,5.34,0,0,0,.58.46c.37.3.73.62,1.09.94a5,5,0,0,0,4.77,1.25l-3.39-.45c.84.47,1.66,1,2.45,1.51.17.12.33.25.5.36.35.2-.48-.42,0,0s.74.62,1.1,1c2,1.87,5.88.06,4.89-2.85Z" transform="translate(-90.51 -124.97)"/><path class="cls-11" d="M305.15,407.72c1.1,2.17,2.21,4.34,3.27,6.53.5,1,1,2.06,1.46,3.1.25.56.5,1.12.74,1.68.09.21.19.41.27.63-.48-1.24.07.17.13.34.56,1.37,1.06,2.76,1.65,4.12.08.19.5,1.07.15.34s0,0,.05.13c.27.7.55,1.41.8,2.12a46.29,46.29,0,0,1,1.86,6.53c.11.56.22,1.12.31,1.68a4.35,4.35,0,0,0,.1.63c-.38-1.18-.1-.8-.05-.33.12,1.2.21,2.4.23,3.61s0,2.13-.09,3.19c0,.28,0,.56-.07.84-.08.86.22,0,.06-.38.15.31-.21,1.29-.29,1.66-.22,1.09-.51,2.18-.8,3.26-.13.47-.27.94-.42,1.4l-.27.8c-.3.8-.31.45.05-.07-.59.84-.93,2-1.46,2.86a11.24,11.24,0,0,1-1.76,2.62c.1-.09.81-1,.15-.21l-.51.62c-.3.35-.61.7-.93,1a26,26,0,0,1-2.5,2.3l-.62.5c-.09.08-.64.5-.08.07l-.25.19-.65.47q-1.31.94-2.67,1.8c-1.94,1.25-3.95,2.41-6,3.46-.53.28-1.08.52-1.61.79s.21-.08.27-.11c-.27.13-.55.23-.83.34-1.17.46-2.35.89-3.55,1.26s-2.14.64-3.22.89a25.16,25.16,0,0,0-3.5.67c.89-.36.91-.11.4-.06l-.7.07c-.47,0-.94.08-1.41.1-.93.05-1.87.06-2.81,0s-1.87-.09-2.8-.19l-.53-.06c-.79-.08,1.35.21.57.08l-1.55-.27a50.92,50.92,0,0,1-5.44-1.37c-.84-.27-1.67-.56-2.49-.88l-.5-.19c-.95-.37.44.18.51.22-.47-.23-1-.43-1.44-.66a40.27,40.27,0,0,1-4.92-2.77c-.74-.48-1.46-1-2.17-1.51s.35.26.41.32a5.89,5.89,0,0,0-.55-.44c-.41-.33-.81-.68-1.21-1a41.26,41.26,0,0,1-3.84-3.87c-.31-.36-.6-.73-.9-1.09s-.51-.88.32.44c-.12-.2-.29-.39-.42-.57-.55-.75-1.08-1.53-1.58-2.33s-.9-1.5-1.32-2.28c-.22-.42-.43-.83-.63-1.26s-.8-2.13-.16-.28c-.61-1.77-1.29-3.48-1.74-5.31-.2-.84-.37-1.69-.52-2.55,0-.17-.05-.34-.08-.51-.17-1,.07.57.08.63,0-.52-.12-1-.17-1.55a39.55,39.55,0,0,1-.07-5.55c0-.87.13-1.73.22-2.59.11-1-.07.56-.09.63.06-.22.07-.47.11-.69.08-.52.18-1,.28-1.54a41,41,0,0,1,1.39-5.22c.29-.88.67-1.73,1-2.61,0,.07-.65,1.46-.23.53l.21-.48c.22-.47.44-.95.67-1.42a42.74,42.74,0,0,1,2.8-4.81c.26-.39.52-.77.79-1.15l.35-.47c-.68.89.21-.26.37-.45.37-.45.75-.89,1.14-1.31a39.15,39.15,0,0,1,3.89-3.73l.53-.44c.61-.5-1.08.81-.45.34l1-.72c.82-.58,1.66-1.12,2.53-1.63s1.58-.89,2.39-1.29c.43-.22.87-.42,1.3-.62s1.09-.4-.51.21l.67-.27a39.5,39.5,0,0,1,5.51-1.72c.94-.22,1.88-.41,2.84-.57l.53-.08c.81-.13-1.42.17-.6.08l1.62-.17a43,43,0,0,1,5.79-.11c.91,0,1.81.11,2.71.21l.73.09c.7.07-.87-.13-.79-.11.59.13,1.2.19,1.79.3a44.87,44.87,0,0,1,5.45,1.39c.86.28,1.71.59,2.55.92.22.09.45.2.67.27-1.58-.55-.89-.37-.51-.2l1.84.77c1,.4-1-.47-.33-.15,1.72.77,3.34,1.65,5,2.58a17,17,0,0,0,1.73.79c.89.37-.34-.14-.42-.18.42.22.89.41,1.32.6a19.81,19.81,0,0,0,3.53,1c2.89.71,6.26-2,5.15-5.14A19,19,0,0,0,312,402a14.93,14.93,0,0,0-3.67-3.93,40.7,40.7,0,0,0-5.15-3.37,41.82,41.82,0,0,0-12.81-4.38c-8.93-1.58-18.35-1.11-26.82,2.32a45.8,45.8,0,0,0-21.16,17.21,49,49,0,0,0-8,24.72,43.05,43.05,0,0,0,6.56,25.08,47.08,47.08,0,0,0,19.48,17.14,45.79,45.79,0,0,0,13.87,4,41.37,41.37,0,0,0,13.13-.59,59.83,59.83,0,0,0,15-5.69,68.23,68.23,0,0,0,12.68-8.24,38.73,38.73,0,0,0,9.57-10.95,31.24,31.24,0,0,0,3.64-15.9,47,47,0,0,0-3-15.5,48.17,48.17,0,0,0-3.68-8c-1.33-2.21-2.76-4.36-4.24-6.47s-3-4.22-4.57-6.3c-1.37-1.87-3.9-3-6.06-1.59a4.53,4.53,0,0,0-1.59,6.06Z" transform="translate(-90.51 -124.97)"/><path class="cls-11" d="M319.57,431.8A20.78,20.78,0,0,0,313,420.69a12.2,12.2,0,0,0-2.78-9.72,12.88,12.88,0,0,0-4-3.16,9.45,9.45,0,0,0-3.5-3.12c-12.88-6.76-30.74-7.79-44.26-2.17-7.69,3.2-13.37,11-10.3,19.45.12.33.3.61.44.92a21.85,21.85,0,0,0-1.68,2.13c-3.83,5.58-5.4,13.08-2.29,19.34a30.35,30.35,0,0,0,7.13,14.56c7.66,8.37,18.37,12.6,29.54,13.67,10,1,23.66-.86,26.76-12.43a13.44,13.44,0,0,0,.38-2,34.88,34.88,0,0,0,9.26-11.06A22.66,22.66,0,0,0,319.57,431.8Z" transform="translate(-90.51 -124.97)"/><path class="cls-12" d="M291.87,448.77a16.45,16.45,0,0,0-1-3.78,8,8,0,0,0-.61-1.33,19.73,19.73,0,0,0-2-3.2,20.86,20.86,0,0,0-4.55-4,23.45,23.45,0,0,0-5.39-2.7,28.7,28.7,0,0,0-4.09-1,24.12,24.12,0,0,0-4.33-.07,16.55,16.55,0,0,0-10.19,4.23,20.38,20.38,0,0,0-4.68,6.18,14.55,14.55,0,0,0-1.1,7.52,13.21,13.21,0,0,0,2,5.94,17,17,0,0,0,4,4.41,21.22,21.22,0,0,0,9.42,4,21.55,21.55,0,0,0,5.84.16,27.16,27.16,0,0,0,6.07-1.41c.74-.23,1.47-.49,2.21-.75a8.69,8.69,0,0,0,3.76-2.7,9.59,9.59,0,0,0,2.28-2.11,12.78,12.78,0,0,0,2.31-5.65A13.75,13.75,0,0,0,291.87,448.77Z" transform="translate(-90.51 -124.97)"/><path class="cls-11" d="M537.27,318.52c.38-.22.76-.42,1.16-.62l.56-.26c.77-.38-.72.25.06,0s1.77-.63,2.68-.89l-3.39-.44a5.18,5.18,0,0,0,4.81.06c.42-.21.83-.45,1.25-.66s.88-.42,1.33-.62c.91-.41.22.13,0,0,.1.05.75-.31.84-.35a62.08,62.08,0,0,1,6.36-2.07A114.94,114.94,0,0,1,566.55,310c.32,0,1.36-.35.05,0,.2-.05.46-.06.67-.09l1.66-.19c1.2-.13,2.4-.24,3.6-.34q3.15-.24,6.32-.27c1.85,0,3.7,0,5.55.16l1.2.1,1.28.15c-.19,0-.86-.13.06,0,1.56.24,3.12.52,4.66.87a63.62,63.62,0,0,1,8.65,2.57l.81.31s1.34.56.54.22c.66.28,1.32.58,2,.88,1.31.6,2.61,1.24,3.89,1.9a115.74,115.74,0,0,1,15.16,9.56L624.2,327l.62.48.31.24c1.08.84,2.14,1.7,3.2,2.57q3.07,2.55,6,5.27c4,3.71,7.86,7.61,11.5,11.68q2.61,2.93,5.09,6c.83,1,1.65,2,2.46,3.07.09.11.89,1.15.23.29l.48.63,1.42,1.88q4.89,6.6,9.24,13.57a251.89,251.89,0,0,1,15.55,29.08c.55,1.22,1.1,2.45,1.64,3.68.27.61.54,1.22.8,1.84l.48,1.11c.09.2.56,1.31.16.36q1.64,3.9,3.17,7.83,3,7.68,5.63,15.49a127.64,127.64,0,0,1,5.13,18.19c.07.39.13.78.19,1.17,0-.11.2,1.43.12.78s.09.89.08.79c0,.39.08.78.11,1.17a40.89,40.89,0,0,1,.08,4.95c0,.79-.11,1.58-.18,2.37-.12,1.27.19-1,0,.26-.05.25-.09.49-.13.74a34.76,34.76,0,0,1-1,4c-.18.6-.38,1.19-.59,1.78-.11.29-.82,2-.36,1a39.79,39.79,0,0,1-1.82,3.71c-.58,1-1.21,2.06-1.88,3-.35.53-.71,1-1.09,1.55-.14.2-.68.88-.06.1-.24.3-.47.6-.71.89a49.81,49.81,0,0,1-5.55,5.7c-.48.42-1,.83-1.45,1.23l-.41.33c.56-.44-.42.32-.43.32q-1.66,1.24-3.42,2.34a61,61,0,0,1-7.84,4.12c-.19.09-1.08.46-.29.13l-.82.34c-.68.27-1.37.53-2.06.78q-2.28.84-4.6,1.53c-3,.9-6,1.64-9,2.26-1.45.3-2.9.57-4.36.81l-2.2.34-.87.12-.88.13.18,0a283.34,283.34,0,0,1-40.13,2.3c-6.07-.09-12.13-.19-18.18-.64q-3.66-.27-7.31-.69l-3.39-.42.71.1-.71-.1-.71-.1-2.14-.33a143.17,143.17,0,0,1-28.81-7.5l-1.65-.64a7.43,7.43,0,0,1-1.64-.67c.8.66.66.28.14.06l-.81-.36c-.64-.28-1.29-.57-1.92-.87-2.12-1-4.21-2-6.26-3.15S529,483.52,527,482.2c-1-.63-1.92-1.27-2.86-1.94-.47-.33-.94-.66-1.4-1l-.69-.51c-1.07-.8.66.53-.17-.12a77.88,77.88,0,0,1-10.27-9.7c-.77-.87-1.5-1.77-2.23-2.67s.67.9-.06-.08l-.42-.56q-.63-.84-1.23-1.71a76.29,76.29,0,0,1-4.07-6.47c-.65-1.15-1.26-2.32-1.84-3.5-.3-.62-.6-1.25-.88-1.88-.15-.31-.28-.63-.42-.94-.47-1,.22.58-.17-.38a70,70,0,0,1-2.82-8.23c-.73-2.81-1.32-5.67-1.78-8.54q-.17-1-.3-2.07c0,.18.11.93,0,0-.05-.41-.1-.83-.14-1.25-.17-1.46-.3-2.92-.4-4.39a131.29,131.29,0,0,1,0-17.63q.29-4.39.81-8.76c.05-.35.09-.71.13-1.06,0,0,.18-1.36.09-.65s.09-.67.09-.64l.15-1.06c.22-1.48.45-3,.7-4.44a178.48,178.48,0,0,1,9.09-34.66c.26-.67.54-1.34.81-2,.51-1.29-.23.51.1-.26.14-.33.28-.66.43-1q.94-2.16,2-4.29a86,86,0,0,1,4.31-7.67c.76-1.21,1.56-2.4,2.39-3.57L517.1,337c.22-.3.73-.65,0,.05a6.82,6.82,0,0,0,.63-.79c1.57-1.94,3.24-3.8,5-5.59s3.8-3.73,5.82-5.46c.93-.8,1.88-1.59,2.85-2.35.19-.16.9-.71.11-.1l.77-.59,1.74-1.27a75.62,75.62,0,0,1,6.86-4.36c1.1-.62,2.19-1.26,3.29-1.87l1.63-.88.82-.41c.19-.1,1.36-.73.42-.27a35.22,35.22,0,0,1,6.67-2.2c1-.27,2-.53,3.07-.72l.8-.14c1-.17-.53,0,.1,0,.26,0,.54-.05.8-.07l1-.14c-.46.06-.47.09,0,.08a3.67,3.67,0,0,0,0-7.33h-.32c.69.1.47.07-.64-.08l-.8-.05c-.6,0-1.19,0-1.79,0a31,31,0,0,0-4.41.39,43.9,43.9,0,0,0-7.12,2,47.15,47.15,0,0,0-8,3.32,77,77,0,0,0-7.19,4.55,89.34,89.34,0,0,0-23.49,24.18c-6.81,10.59-11.13,22.69-14.22,34.83a202.7,202.7,0,0,0-6.09,37c-.78,12.16-.05,24.55,3.16,36.35A89,89,0,0,0,495,462.42a72.62,72.62,0,0,0,9,13.34c13.3,15.95,32.72,25.45,52.52,30.58,23.09,6,47.42,6.6,71.07,4.49,7.12-.64,14.24-1.51,21.29-2.68A128.58,128.58,0,0,0,667,504c11.56-3.7,22.56-9.89,30.2-19.5a47.29,47.29,0,0,0,8.34-15.23,44.34,44.34,0,0,0,1.11-20c-1-6.52-3.06-12.83-5.15-19.07q-2.68-8-5.73-15.86c-8.34-21.45-18.78-42.25-32.61-60.72a171.08,171.08,0,0,0-22.94-25.39c-8.88-7.9-18.69-15.11-29.4-20.31-10.19-4.95-21-8.17-32.39-8.3a93.18,93.18,0,0,0-28.84,4,71.18,71.18,0,0,0-6.92,2.61c-.91.4-1.81.82-2.68,1.27-.43.22-.85.44-1.26.68a5.05,5.05,0,0,0-2.56,4.28l1.29-3.12a27.3,27.3,0,0,0-4.18,5.16c-1.55,2.54,1.51,5.44,4,4Z" transform="translate(-90.51 -124.97)"/><path class="cls-11" d="M517.09,395.9c-3.83,3.2-7.67,6.4-11.2,9.92a49,49,0,0,0-9.21,12.89A43.35,43.35,0,0,0,492.12,435a29.71,29.71,0,0,0,4,16.11c4.87,8.8,12.69,16.29,20.9,22a42.23,42.23,0,0,0,25.71,7.73,47.75,47.75,0,0,0,24.65-8.14A44.24,44.24,0,0,0,584,451.35c6.17-16.74,1.64-37.35-11.31-49.68a47.29,47.29,0,0,0-23.56-12c-9.1-1.71-19.14-1.44-27.57,2.8a17,17,0,0,0-3.15,2.25,14.49,14.49,0,0,0-2.32,3c-1.77,2.69.57,6.29,3.61,6.29a25.46,25.46,0,0,0,6.46-.66c1.85-.49,3.66-1,5.55-1.35.88-.15,1.77-.28,2.65-.41,1.53-.24-1.45.16.09,0,.53-.06,1.06-.11,1.6-.15a43.68,43.68,0,0,1,5.72-.05c.89.05,1.79.12,2.68.23,1.4.16-1.2-.2-.09,0l1.59.27a44.61,44.61,0,0,1,5.54,1.43c.84.28,1.68.6,2.51.92s-.44-.19-.52-.22l.65.28c.49.22,1,.45,1.45.69a41,41,0,0,1,4.91,2.89l1,.73c.84.59-.35-.28-.42-.34l.56.44c.74.6,1.45,1.23,2.14,1.89s1.36,1.34,2,2.05c.32.35.64.71.94,1.08.12.13.23.27.34.41.63.77,0,.1-.21-.29,1,1.6,2.17,3.11,3.09,4.79.45.84.88,1.69,1.27,2.56.07.16.14.32.22.48.33.73-.51-1.25-.22-.51.2.5.4,1,.58,1.5a42,42,0,0,1,1.6,5.49c.19.88.35,1.76.49,2.64.23,1.52-.13-1.17,0-.07.06.59.12,1.19.17,1.78a44.53,44.53,0,0,1,.05,5.54c-.05.89-.14,1.78-.23,2.67-.12,1,.06-.53.08-.6-.05.23-.07.47-.11.7-.09.53-.18,1.05-.29,1.58a38.78,38.78,0,0,1-1.54,5.48c-.14.39-.29.77-.44,1.16-.36,1,.19-.43.23-.51-.11.22-.2.44-.29.66-.42.92-.88,1.82-1.37,2.7s-.9,1.55-1.39,2.29c-.26.39-.52.77-.79,1.14-.13.19-.29.37-.41.56.11-.17.87-1.09.34-.44a38.75,38.75,0,0,1-3.75,4c-.67.63-1.37,1.22-2.09,1.8s1.11-.82,0,0q-.62.47-1.26.9a40.68,40.68,0,0,1-4.77,2.79c-.42.21-.83.41-1.25.6-.26.12-1.51.66-.53.24s-.5.18-.71.26c-.48.18-1,.36-1.46.52a41.87,41.87,0,0,1-5.36,1.41l-1.19.21-.69.1c-.79.13,1.43-.17.63-.08-1,.1-2,.2-2.93.24a49.88,49.88,0,0,1-5.33,0l-1.37-.11-.68-.08c-.67-.06.83.12.75.11-1-.17-1.93-.31-2.89-.52a43.4,43.4,0,0,1-5.31-1.64c-.63-.23.41.16.39.18l-.78-.35c-.51-.23-1-.48-1.53-.74-1-.51-2-1.06-3-1.65s-1.93-1.2-2.86-1.85l-1.38-1c-.09-.06-.63-.52-.13-.1l-.45-.39q-2.58-2.22-4.94-4.67c-.78-.8-1.53-1.62-2.26-2.46-.32-.36-.64-.74-.95-1.11l-.52-.65c-.43-.51.55.77,0-.06s-1.24-1.68-1.76-2.57c-.28-.48-.53-1-.78-1.46a8.24,8.24,0,0,0-.8-1.69c.08,0,.48,1.26.1.22-.09-.26-.19-.51-.29-.77-.16-.45-.31-.9-.44-1.36s-.3-1.06-.43-1.59a8,8,0,0,0-.36-1.87c.07.13.15,1.43.06.33l-.06-.64c0-.57-.06-1.13-.07-1.7,0-1.21-.05-2.42,0-3.63,0-.5.09-1,.12-1.49.07-.87-.2,1.2-.05.35.05-.28.09-.57.14-.85a32.87,32.87,0,0,1,.78-3.37q.43-1.56,1-3.09l.31-.81c.43-1.09,0,.2-.1.24.28-.16.69-1.48.83-1.77a50.25,50.25,0,0,1,3.56-6l.88-1.25.52-.7c.62-.86,0,0-.13.15,1-1.25,1.84-2.58,2.78-3.86.29-.41.6-.82.9-1.22.6-.8.07-.1,0,.05l.55-.69c.73-.93,1.47-1.84,2.23-2.75,1.5-1.81,3-3.59,4.57-5.38s1.85-4.56,0-6.27a4.56,4.56,0,0,0-6.27,0Z" transform="translate(-90.51 -124.97)"/><path class="cls-11" d="M503.67,421.08a26.16,26.16,0,0,1,2.85-7,24.23,24.23,0,0,1,4.05-5,15,15,0,0,0,4-2.65c1.46-1.36,1.75-2.31,3.14-3.32a12.84,12.84,0,0,1,4.67-2.12,9.32,9.32,0,0,1,4.13-2.19c14.12-3.5,31.71-.26,43.51,8.42,6.71,4.93,10.37,13.84,5.38,21.34-.2.29-.44.52-.65.79a21.18,21.18,0,0,1,1.12,2.47c2.4,6.33,2.14,14-2.37,19.32a30.26,30.26,0,0,1-10.4,12.45c-9.42,6.31-20.83,7.87-31.93,6.25-9.93-1.44-22.78-6.46-23-18.44a13.87,13.87,0,0,1,.1-2,34.81,34.81,0,0,1-6.36-12.94C500.55,431.16,502.1,426.85,503.67,421.08Z" transform="translate(-90.51 -124.97)"/><path class="cls-12" d="M503.42,449.71a12.87,12.87,0,0,0,.9,6,9.43,9.43,0,0,0,1.72,2.59,8.62,8.62,0,0,0,3,3.51c.65.43,1.3.86,2,1.26a26.88,26.88,0,0,0,5.56,2.81,21.41,21.41,0,0,0,15.82-.44,16.77,16.77,0,0,0,5-3.32,13.3,13.3,0,0,0,3.36-5.29,14.59,14.59,0,0,0,.72-7.57,20.4,20.4,0,0,0-3.08-7.11,16.56,16.56,0,0,0-8.89-6.54,24.84,24.84,0,0,0-4.22-1,29.58,29.58,0,0,0-4.21,0,23.26,23.26,0,0,0-5.87,1.34,20.47,20.47,0,0,0-5.37,2.79,18.29,18.29,0,0,0-2.74,2.61,7.8,7.8,0,0,0-.91,1.15,16.35,16.35,0,0,0-1.87,3.44A13.68,13.68,0,0,0,503.42,449.71Z" transform="translate(-90.51 -124.97)"/><path class="cls-13" d="M462.55,827.11c-1.12-4.4-2.77-7.89-7.63-15.5-2-3.19-3.82-6.09-5.38-8.82-4.82-8.43-13.82-25.24-28.89-40.34,0,0-38.64-43.5-98.77-70.2a58.18,58.18,0,0,0-10.9-3.6,39.61,39.61,0,0,0-12.91-.22c-7.61,1.36-41.58,14.28-28.14,46,20.93,49.37,77.69,103.29,123.73,114.76a90,90,0,0,0,35.93,1.69C448.3,847.14,459,832.74,462.55,827.11Z" transform="translate(-90.51 -124.97)"/><path class="cls-11" d="M393.48,874.94a217.63,217.63,0,0,0-3.86,90.74c.84,5,1.87,10,3.07,14.94a69.24,69.24,0,0,0,3.08,10c2.24,5.48,7.19,15.86,14.86,13a2.57,2.57,0,0,0,1.74-3.08,2.52,2.52,0,0,0-3.07-1.74,6.64,6.64,0,0,1-.87.25c.47-.09-.09,0-.29,0-.59,0,.12.08-.27,0l-.41-.12c-.45-.12.15.1-.11,0a7.32,7.32,0,0,1-2.61-2.2,30.13,30.13,0,0,1-4.26-7.69c-3-7.45-4.47-15.59-5.84-23.47a213.49,213.49,0,0,1-2-57.34,209.13,209.13,0,0,1,5.7-31.89c.8-3.12-4-4.45-4.83-1.33Z" transform="translate(-90.51 -124.97)"/><path class="cls-11" d="M426.49,886a129.14,129.14,0,0,0-9.71,54.5c.13,3.21,5.13,3.22,5,0a125.49,125.49,0,0,1,9.53-53.17,2.5,2.5,0,0,0-1.75-3.07,2.56,2.56,0,0,0-3.07,1.74Z" transform="translate(-90.51 -124.97)"/><path class="cls-14" d="M366.13,862a20.06,20.06,0,0,0-2.07-1.2c-2.13-7.87-9-14.37-14.62-19.92a83,83,0,0,0-21.71-15.73c-14.59-7.14-30.06-6.38-44.4-.48a7.79,7.79,0,0,0-3.59,1.4c-6.65-2.43-5.78,6.48-7.62,11.14-1.42,3.58-20.22,47.38-16.86,48.87,8.21,4.52,23.21,5.13,31.44,9.62,2.38,1.45,27-4.8,29.55-3.59.88.48,9.29-16.9,10.17-16.43,6.49,3.5,4.48-7.61,11.65-5.73a49.18,49.18,0,0,0,10.64,1.63c3.11.12,6.83-.42,9.5,1.44C365.38,878,373.4,866.84,366.13,862Z" transform="translate(-90.51 -124.97)"/><path class="cls-11" d="M366.1,865.79c3.78,7.62,13.08,10.74,20.93,11.82s17,1.12,23.12-4.48c3-2.76,4.85-6.56,6.27-10.34a36.47,36.47,0,0,1,2.24-5.41c.81-1.41,1.74-2.53,3.38-2.55,2.13,0,4.29,1.31,6.3,1.94a41.93,41.93,0,0,0,5.29,1.26,40.87,40.87,0,0,0,11.63.43,26.79,26.79,0,0,0,11.87-3.94,18.92,18.92,0,0,0,7.68-10.29c1-3.08-3.86-4.4-4.82-1.33a13.61,13.61,0,0,1-5.16,7.15,21.08,21.08,0,0,1-9.08,3.35,37.25,37.25,0,0,1-10.06-.08,40.34,40.34,0,0,1-5.08-1.1c-1.89-.53-3.67-1.36-5.55-1.91a8.8,8.8,0,0,0-7.2.7,11.23,11.23,0,0,0-3.89,4.55c-1.79,3.52-2.64,7.42-4.73,10.82a13.84,13.84,0,0,1-3,3.57,13.41,13.41,0,0,1-3.72,2,29,29,0,0,1-10.89,1.07c-7.54-.41-17.61-2.59-21.18-9.8-1.43-2.88-5.75-.35-4.32,2.52Z" transform="translate(-90.51 -124.97)"/><path class="cls-11" d="M244.91,899.73a45.72,45.72,0,0,0,4.29-5.51q1.81-2.88,3.43-5.88c2.17-4,4.14-8,6-12.18a237.65,237.65,0,0,0,9.23-24.82,85.46,85.46,0,0,0,2.51-9.84,70.14,70.14,0,0,1,2.39-10.14A12.6,12.6,0,0,1,274.4,828l.42-.45c.1-.09.74-.58.3-.27a12.9,12.9,0,0,1,1.65-1,13.9,13.9,0,0,1,1.52-.61c.75-.26,1.52-.48,2.29-.69,1.6-.43,3.23-.76,4.87-1a93.88,93.88,0,0,1,20-1.57,61.5,61.5,0,0,1,23.35,5.94c7.35,3.52,14.33,8.46,19.39,14.92,5.18,6.63,8.69,14.4,13.85,21.06s11.83,12.13,19.91,14.46c4.2,1.22,9.58,1.87,13.8.28a10.06,10.06,0,0,0,1.31-.55,2.68,2.68,0,0,0,.83-.59s-.82.58-.41.36c3.56-1.93.39-7.36-3.17-5.43l-.19.09,1.59-.43a17.69,17.69,0,0,0-2.17.42c-.16,0-.75.09-.08,0,.93-.1-.5.07-.85.13l-.61.1c-.44.1.92-.09,0,0a23.1,23.1,0,0,1-3.11.11c-.58,0-1.16-.07-1.74-.12-.84-.08.49.1-.37,0-.39-.07-.78-.13-1.16-.21a26.78,26.78,0,0,1-4.32-1.27c-.13-.05-1-.43-.55-.21-.41-.18-.81-.37-1.21-.57-.84-.42-1.67-.87-2.47-1.36a38.86,38.86,0,0,1-9.59-8.6c-5.29-6.43-8.8-14.17-13.88-20.78A58.68,58.68,0,0,0,333.65,824,67.32,67.32,0,0,0,309,817c-7.19-.64-14.76.29-21.5,1.3a60.29,60.29,0,0,0-9.68,2.1c-2.81.91-5.67,2.14-7.52,4.55-2,2.61-2.92,6-3.62,9.18s-1.15,6.55-1.84,9.81a113.43,113.43,0,0,1-3.17,11q-2,6.32-4.34,12.52A180.8,180.8,0,0,1,245.8,892c-1.11,2-2.08,4-3.1,6-.67,1.35,1.09,3,2.21,1.71Z" transform="translate(-90.51 -124.97)"/></svg>