<svg id="Group_75" data-name="Group 75" xmlns="http://www.w3.org/2000/svg" xmlns:xlink="http://www.w3.org/1999/xlink" width="3122.88" height="1660.348" viewBox="0 0 3122.88 1660.348">
  <defs>
    <style>
      .cls-1, .cls-2, .cls-4, .cls-6 {
        fill: #ffd500;
      }

      .cls-2 {
        opacity: 0.4;
      }

      .cls-3 {
        opacity: 0.2;
        clip-path: url(#clip-path);
      }

      .cls-3, .cls-5, .cls-6 {
        mix-blend-mode: multiply;
        isolation: isolate;
      }

      .cls-4 {
        stroke: #707070;
      }

      .cls-5 {
        opacity: 0.15;
        clip-path: url(#clip-path-2);
      }
    </style>
    <clipPath id="clip-path">
      <path id="Path_256" data-name="Path 256" class="cls-1" d="M12773.921,1979.2s-247.2-412.8-909.6-291.2-876-80-965.6-249.6-300.8-598.4-585.6-505.6-416,912-416,912,12.8,406.4,230.4,361.6,1338-477.2,1971.6,10.8,266,446.4,728.4,97.6S12773.921,1979.2,12773.921,1979.2Z" transform="translate(-9897.121 -919.804)"/>
    </clipPath>
    <clipPath id="clip-path-2">
      <path id="Path_254" data-name="Path 254" class="cls-2" d="M12773.921,1979.2s-247.2-412.8-909.6-291.2-876-80-965.6-249.6-300.8-598.4-585.6-505.6-416,912-416,912,12.8,406.4,230.4,361.6,1338-477.2,1971.6,10.8,266,446.4,728.4,97.6S12773.921,1979.2,12773.921,1979.2Z" transform="translate(-9897.121 -919.804)"/>
    </clipPath>
  </defs>
  <path id="Path_251" data-name="Path 251" class="cls-1" d="M12773.921,1979.2s-247.2-412.8-909.6-291.2-876-80-965.6-249.6-300.8-598.4-585.6-505.6-416,912-416,912,12.8,406.4,230.4,361.6,1338-477.2,1971.6,10.8,266,446.4,728.4,97.6S12773.921,1979.2,12773.921,1979.2Z" transform="translate(-9897.121 -919.804)"/>
  <g id="Mask_Group_6" data-name="Mask Group 6" class="cls-3">
    <path id="Path_255" data-name="Path 255" class="cls-4" d="M10529.25,883.03s135.03,72.727,212.606,438.788,246.061,467.273,752.728,423.636,848.484-198.788,1175.758,65.454,71.515,788.485,71.515,788.485L10104.28,2747.272,10135.8,1683.03Z" transform="translate(-9921.25 -854.804)"/>
  </g>
  <g id="Mask_Group_5" data-name="Mask Group 5" class="cls-5">
    <path id="Path_253" data-name="Path 253" class="cls-6" d="M12619.395,2109.091s-584.241-426.667-1442.424-310.3-979.395,523.637-979.395,523.637L12670.3,2574.545Z" transform="translate(-9847.879 -854.804)"/>
  </g>
</svg>
